<svg xmlns="http://www.w3.org/2000/svg" xmlns:xlink="http://www.w3.org/1999/xlink" viewBox="0 0 480 480"><defs><style>.a{fill:#cce9e6;}.b{fill:#99d5cf;}.c{fill:#fff;}.d{fill:#20579c;}.e{fill:#99b2d2;}.f{fill:#4a77af;}.g{fill:url(#a);}</style><linearGradient id="a" x1="238.17" y1="220.83" x2="408.25" y2="220.83" gradientUnits="userSpaceOnUse"><stop offset="0" stop-color="#20579c"/><stop offset="1" stop-color="#26ae9f"/></linearGradient></defs><path class="a" d="M381.21,185.09c-.95,0-1.86.11-2.8.14a109.67,109.67,0,0,0-197-2.77A54.84,54.84,0,0,0,91.49,217,70.58,70.58,0,1,0,83.1,357.67H381.21a86.29,86.29,0,1,0,0-172.58Z"/><path class="b" d="M83.1,318.45a70.21,70.21,0,0,1,79-70.06,54.87,54.87,0,0,1,73.64-44.12c9.74,3.66,20.55,1,26.85-7.3a109.48,109.48,0,0,1,87.25-43.26c2.13,0,4.24.11,6.34.23a109.6,109.6,0,0,0-174.8,28.52A54.84,54.84,0,0,0,91.49,217a70.31,70.31,0,0,0-78.84,74.76c2.43,37.52,35.27,65.9,72.87,65.9H95A70.26,70.26,0,0,1,83.1,318.45Z"/><path class="c" d="M141,357.67H266.54V224.31a7.84,7.84,0,0,0-7.84-7.84H148.87a7.84,7.84,0,0,0-7.84,7.84Z"/><path class="d" d="M168,254l12.28-6.15L192.53,254a2.36,2.36,0,0,0,3.41-2.11V216.47a7.84,7.84,0,0,0-7.85-7.85H172.4a7.84,7.84,0,0,0-7.84,7.85v35.41A2.36,2.36,0,0,0,168,254Z"/><path class="e" d="M188.09,294.91h31.38a7.85,7.85,0,1,0,0-15.69H188.09a7.85,7.85,0,0,0,0,15.69Z"/><path class="f" d="M172.4,326.29h62.76a7.85,7.85,0,1,0,0-15.69H172.4a7.85,7.85,0,0,0,0,15.69Z"/><rect class="d" x="141.03" y="341.98" width="125.52" height="15.69"/><path class="g" d="M396.52,152.52H249.9a11.73,11.73,0,0,0-11.73,11.73v88A11.73,11.73,0,0,0,249.9,264h11.73V286.2a2.93,2.93,0,0,0,5,2.07L291,264H396.52a11.73,11.73,0,0,0,11.73-11.73v-88A11.73,11.73,0,0,0,396.52,152.52Z"/><path class="c" d="M298.68,181.91a9.5,9.5,0,0,0-9.09-6.66h-3.13a9.5,9.5,0,0,0-9.09,6.66l-16.3,51.62a3.67,3.67,0,1,0,7,2.21l3.82-12.1h32.28l3.82,12.1a3.68,3.68,0,0,0,3.5,2.56,3.77,3.77,0,0,0,1.1-.17,3.66,3.66,0,0,0,2.4-4.6ZM274.2,216.3l10.16-32.18a2.19,2.19,0,0,1,2.1-1.54h3.13a2.18,2.18,0,0,1,2.09,1.54l10.17,32.18Z"/><path class="c" d="M331.28,201.64a15.31,15.31,0,0,0-8.07,2.29V181.85a3.67,3.67,0,1,0-7.33,0V222.9a15.42,15.42,0,0,0,15.4,15.4,18.33,18.33,0,0,0,0-36.66Zm0,29.33a8.08,8.08,0,0,1-8.07-8.07V217a8.08,8.08,0,0,1,8.07-8.07,11,11,0,0,1,0,22Z"/><path class="c" d="M378.93,226.57a11,11,0,1,1,0-13.19,3.66,3.66,0,1,0,5.86-4.4,18.33,18.33,0,1,0,0,22,3.66,3.66,0,1,0-5.85-4.4Z"/></svg>