<svg xmlns="http://www.w3.org/2000/svg" xmlns:xlink="http://www.w3.org/1999/xlink" viewBox="0 0 480 480"><defs><style>.a{fill:#e4eaf2;}.b{clip-path:url(#a);}.c{fill:#66c5ba;}.d{fill:#1c487d;}.e{fill:#fff;}.f{fill:#257c71;}.g{fill:#faae17;}.h{fill:#fcc966;}</style><clipPath id="a"><path class="a" d="M17.78,480A17.78,17.78,0,0,1,0,462.22V17.78A17.78,17.78,0,0,1,17.78,0H462.22A17.78,17.78,0,0,1,480,17.78V462.22A17.78,17.78,0,0,1,462.22,480Z"/></clipPath></defs><path class="a" d="M17.78,480A17.78,17.78,0,0,1,0,462.22V17.78A17.78,17.78,0,0,1,17.78,0H462.22A17.78,17.78,0,0,1,480,17.78V462.22A17.78,17.78,0,0,1,462.22,480Z"/><g class="b"><path class="c" d="M193.16,204a9.49,9.49,0,0,1-9.5-9.5V185a9.5,9.5,0,0,1,19,0v9.5A9.5,9.5,0,0,1,193.16,204Z"/><path class="c" d="M41.16,118.49h-19a9.5,9.5,0,0,1,0-19h19a9.5,9.5,0,0,1,0,19Z"/><path class="c" d="M297.66,337a9.49,9.49,0,0,1-9.5-9.5V318a9.5,9.5,0,0,1,19,0v9.5A9.5,9.5,0,0,1,297.66,337Z"/><path class="c" d="M421.16,308.49l-24.28,16.18a9.48,9.48,0,0,0-4.22,7.9V337a9.5,9.5,0,0,0,9.5,9.5h19a9.5,9.5,0,0,1,9.5,9.5h19a9.51,9.51,0,0,0,9.5-9.5v-5.57a9.52,9.52,0,0,0-2.79-6.72l-25.71-25.71Z"/><path class="c" d="M383.16,308.49h-9.5a9.46,9.46,0,0,1-4.25-1l-19-9.5a9.5,9.5,0,0,1,8.49-17l17,8.5h7.26a9.5,9.5,0,1,1,0,19Z"/><path class="c" d="M411.66,289.49a9.49,9.49,0,0,1-9.5-9.5v-9.5a9.5,9.5,0,0,1,19,0V280A9.5,9.5,0,0,1,411.66,289.49Z"/><path class="c" d="M288.16,118.49a9.51,9.51,0,0,1-6.72-16.22l9.5-9.5a9.5,9.5,0,0,1,13.43,13.43l-9.5,9.5A9.43,9.43,0,0,1,288.16,118.49Z"/><path class="c" d="M107.66,147a9.44,9.44,0,0,1-6.72-2.79l-9.5-9.5a9.5,9.5,0,1,1,13.43-13.43l9.5,9.5A9.51,9.51,0,0,1,107.66,147Z"/><circle class="c" cx="69.66" cy="99.49" r="9.5"/><path class="c" d="M107.66,270.49a9.5,9.5,0,0,0-9.5-9.5h-38v-9.5a9.5,9.5,0,0,1,9.5-9.5h19l32.43-32.44a19,19,0,0,0,5.57-13.44V185a9.5,9.5,0,0,0-9.5-9.5h-19v4.75a14.25,14.25,0,0,1-28.5,0V137.49a9.5,9.5,0,0,0-19,0h-76v38h14.8a19,19,0,0,1,18,13L36.32,258.7a19,19,0,0,0,17.57,11.79H79.16a9.5,9.5,0,0,1,9.5,9.5v29.88c0,4,2.27,7.83,6,9.09a19,19,0,0,1,13,18v53.59a3.42,3.42,0,0,0,6.4,1.7L145.66,337v-47.5Z"/><path class="c" d="M434.59,137.49a9.52,9.52,0,0,1-6.72-2.79l-13.43-13.43a9.51,9.51,0,0,0-6.72-2.78H383.16a9.5,9.5,0,0,1-9.5-9.5v-9.5h-19l-95.5,52.09a18.83,18.83,0,0,0-29-12.15l-13.74,9.15a9.5,9.5,0,0,0,10.54,15.81l13.74-9.16v20.26a28.53,28.53,0,0,0-28.5,28.5v7.41A28.26,28.26,0,0,0,203,228.65a19.38,19.38,0,0,0-.38,3.84V242a9.5,9.5,0,0,0-9.5,9.5v38h19a19,19,0,0,1,19,19V337a9.5,9.5,0,0,0,9.5,9.5,28.5,28.5,0,0,0,28.5-28.5V299l28.5-47.5h28.5v13.76a6.1,6.1,0,0,0,10.41,4.32l18.09-18.08,10.8,10.8a9.5,9.5,0,0,0,14.62-1.45L392.66,242a19,19,0,0,1,18.61-19c10.53-.21,19.39-7.72,19.39-18.25V194.49a9.5,9.5,0,0,1,9.5-9.5H458l-7.37,14.75a9.5,9.5,0,1,0,17,8.49L479.28,185h8.38v-47.5Zm-174.93,95a9.51,9.51,0,0,1-9.5,9.5h-28.5v-9.5a9.5,9.5,0,0,1,9.5-9.5h19a9.5,9.5,0,0,1,9.5,9.5Z"/></g><path class="d" d="M92.2,137.43a29.84,29.84,0,0,1,28.87,25.45c3.41,23.85-23.68,43.42-28.57,46.74a1.31,1.31,0,0,1-1.49,0C86.41,206.5,62.14,189,62.14,167A29.62,29.62,0,0,1,92.2,137.43Z"/><path class="e" d="M89,135.3a29.83,29.83,0,0,1,28.88,25.44c3.4,23.85-23.68,43.42-28.57,46.74a1.33,1.33,0,0,1-1.5,0c-4.6-3.12-28.86-20.64-28.86-42.57A29.61,29.61,0,0,1,89,135.3Z"/><circle class="a" cx="88.55" cy="164.91" r="21.54"/><path class="d" d="M95.34,150.1c-3.86,0-5.7.86-6.41,1.32a.66.66,0,0,1-.74,0c-.71-.46-2.56-1.32-6.42-1.32a57.27,57.27,0,0,0-11,1.37,1.33,1.33,0,0,0-1,1.31v23.4a.67.67,0,0,0,.81.66,57.45,57.45,0,0,1,11.24-1.42,17.45,17.45,0,0,1,4.42.49c.6.16,1,.49,1,1.11h0a1.35,1.35,0,1,0,2.7,0h0c0-.61.41-.94,1-1.1a17,17,0,0,1,4.43-.5,57.34,57.34,0,0,1,11.24,1.42.67.67,0,0,0,.81-.66v-23.4a1.33,1.33,0,0,0-1-1.31A57.16,57.16,0,0,0,95.34,150.1Z"/><path class="e" d="M102,158.75h-.2c-4.38-.67-7.85-.75-10.26-.18a1.35,1.35,0,1,1-.62-2.62c2.77-.66,6.53-.58,11.28.13a1.35,1.35,0,0,1-.2,2.68Z"/><path class="e" d="M102,169.52l-.2,0c-4.38-.66-7.85-.75-10.26-.18a1.34,1.34,0,1,1-.62-2.61c2.77-.66,6.53-.59,11.28.13a1.35,1.35,0,0,1-.2,2.68Z"/><path class="e" d="M91.24,164a1.35,1.35,0,0,1-.31-2.66c.44-.1.93-.19,1.48-.27a1.35,1.35,0,0,1,.36,2.67c-.46.06-.86.14-1.22.22A1.65,1.65,0,0,1,91.24,164Z"/><path class="e" d="M102,164.13h-.2c-1.4-.21-2.73-.37-3.94-.46a1.34,1.34,0,0,1,.2-2.68c1.28.09,2.67.26,4.14.48a1.34,1.34,0,0,1-.2,2.67Z"/><path class="e" d="M75.09,158.75a1.35,1.35,0,0,1-.2-2.68c4.75-.71,8.51-.79,11.28-.13a1.35,1.35,0,0,1-.62,2.62c-2.41-.57-5.88-.49-10.26.18Z"/><path class="e" d="M75.09,169.52a1.35,1.35,0,0,1-.2-2.68c4.75-.71,8.51-.79,11.28-.13a1.34,1.34,0,1,1-.62,2.61c-2.41-.57-5.88-.48-10.26.18Z"/><path class="e" d="M85.86,164a1.65,1.65,0,0,1-.31,0c-.36-.08-.76-.16-1.22-.22a1.35,1.35,0,0,1,.36-2.67c.55.08,1,.17,1.48.27a1.35,1.35,0,0,1-.31,2.66Z"/><path class="e" d="M75.09,164.13a1.34,1.34,0,0,1-.2-2.67c1.47-.22,2.86-.39,4.14-.48a1.33,1.33,0,0,1,1.44,1.24,1.34,1.34,0,0,1-1.24,1.44c-1.21.09-2.54.25-3.94.46Z"/><path class="f" d="M429.71,235.48a40.83,40.83,0,0,1,39.51,34.81c4.66,32.63-32.39,59.41-39.08,63.95a1.79,1.79,0,0,1-2.05,0C421.79,330,388.6,306,388.6,276A40.51,40.51,0,0,1,429.71,235.48Z"/><path class="e" d="M426.51,233.34A40.84,40.84,0,0,1,466,268.16c4.66,32.62-32.4,59.4-39.09,63.94a1.81,1.81,0,0,1-2.05,0c-6.29-4.28-39.49-28.25-39.49-58.26A40.52,40.52,0,0,1,426.51,233.34Z"/><circle class="a" cx="425.91" cy="273.85" r="29.47"/><path class="f" d="M435.19,253.6c-5.28,0-7.8,1.17-8.77,1.8a.89.89,0,0,1-1,0c-1-.63-3.49-1.8-8.77-1.8a78,78,0,0,0-15.06,1.87,1.83,1.83,0,0,0-1.44,1.79v32a.91.91,0,0,0,1.11.9,80,80,0,0,1,15.39-1.94,23.38,23.38,0,0,1,6,.68c.81.22,1.38.67,1.38,1.51h0a1.85,1.85,0,0,0,3.69,0h0c0-.85.56-1.3,1.38-1.51a22.93,22.93,0,0,1,6.06-.69,80.1,80.1,0,0,1,15.39,1.94.91.91,0,0,0,1.11-.9v-32a1.83,1.83,0,0,0-1.45-1.79A77.81,77.81,0,0,0,435.19,253.6Z"/><path class="e" d="M444.32,265.43l-.27,0c-6-.9-10.74-1-14-.25a1.84,1.84,0,0,1-.85-3.58c3.8-.9,8.93-.79,15.44.19a1.84,1.84,0,0,1-.28,3.66Z"/><path class="e" d="M444.32,280.16a1.23,1.23,0,0,1-.27,0c-6-.9-10.74-1-14-.24a1.84,1.84,0,0,1-.85-3.59c3.8-.9,8.93-.79,15.44.19a1.84,1.84,0,0,1-.28,3.66Z"/><path class="e" d="M429.59,272.58a1.84,1.84,0,0,1-.42-3.63,20.34,20.34,0,0,1,2-.37,1.84,1.84,0,1,1,.5,3.65,14.93,14.93,0,0,0-1.67.3A2,2,0,0,1,429.59,272.58Z"/><path class="e" d="M444.32,272.8l-.27,0c-1.92-.3-3.74-.5-5.39-.63a1.84,1.84,0,1,1,.27-3.67c1.75.13,3.65.35,5.67.65a1.85,1.85,0,0,1-.28,3.67Z"/><path class="e" d="M407.49,265.43a1.84,1.84,0,0,1-.28-3.66c6.51-1,11.65-1.09,15.44-.19a1.84,1.84,0,0,1-.85,3.58c-3.3-.78-8-.65-14,.25Z"/><path class="e" d="M407.49,280.16a1.84,1.84,0,0,1-.28-3.66c6.51-1,11.65-1.08,15.44-.19a1.84,1.84,0,0,1-.85,3.59c-3.3-.78-8-.66-14,.24A1.23,1.23,0,0,1,407.49,280.16Z"/><path class="e" d="M422.22,272.58a2,2,0,0,1-.42-.05,14.93,14.93,0,0,0-1.67-.3,1.84,1.84,0,1,1,.5-3.65,20.34,20.34,0,0,1,2,.37,1.84,1.84,0,0,1-.42,3.63Z"/><path class="e" d="M407.49,272.8a1.85,1.85,0,0,1-.28-3.67c2-.3,3.92-.52,5.67-.65a1.81,1.81,0,0,1,2,1.7,1.84,1.84,0,0,1-1.7,2c-1.65.13-3.47.33-5.39.63Z"/><path class="e" d="M359.85,128a12.66,12.66,0,0,1,12.25,10.8c1.44,10.11-10.05,18.41-12.12,19.82a.56.56,0,0,1-.63,0c-2-1.33-12.25-8.76-12.25-18.06A12.57,12.57,0,0,1,359.85,128Z"/><path class="e" d="M441.7,132.49a9.32,9.32,0,0,1,9,7.94c1.06,7.44-7.39,13.55-8.92,14.58a.39.39,0,0,1-.46,0c-1.44-1-9-6.44-9-13.28A9.24,9.24,0,0,1,441.7,132.49Z"/><path class="e" d="M238.13,271.58a9.31,9.31,0,0,1,9,7.94c1.06,7.44-7.39,13.55-8.91,14.59a.44.44,0,0,1-.47,0c-1.44-1-9-6.45-9-13.29A9.25,9.25,0,0,1,238.13,271.58Z"/><path class="e" d="M316.53,192.69a9.29,9.29,0,0,1,9,7.94c1.07,7.44-7.38,13.55-8.91,14.58a.41.41,0,0,1-.47,0c-1.43-1-9-6.44-9-13.28A9.23,9.23,0,0,1,316.53,192.69Z"/><path class="e" d="M31.79,88.19a9.29,9.29,0,0,1,9,7.94c1.07,7.44-7.39,13.55-8.91,14.58a.41.41,0,0,1-.47,0c-1.43-1-9-6.44-9-13.28A9.23,9.23,0,0,1,31.79,88.19Z"/><path class="e" d="M126.5,308.49a7.17,7.17,0,0,1,6.95,6.12c.82,5.74-5.7,10.45-6.87,11.25a.33.33,0,0,1-.36,0c-1.11-.75-7-5-7-10.25A7.12,7.12,0,0,1,126.5,308.49Z"/><circle class="c" cx="240.43" cy="232.42" r="3.66"/><path class="d" d="M243.52,89a59,59,0,0,1,57.1,50.31c6.73,47.15-46.82,85.84-56.48,92.41a2.62,2.62,0,0,1-3,0c-9.1-6.18-57.07-40.82-57.07-84.18A58.55,58.55,0,0,1,243.52,89Z"/><path class="g" d="M239.52,86a59,59,0,0,1,57.1,50.31c6.73,47.15-46.82,85.84-56.48,92.41a2.62,2.62,0,0,1-3,0c-9.1-6.18-57.07-40.82-57.07-84.18A58.55,58.55,0,0,1,239.52,86Z"/><circle class="h" cx="238.66" cy="144.53" r="42.58"/><path class="e" d="M252.08,115.26c-7.63,0-11.28,1.7-12.68,2.61a1.3,1.3,0,0,1-1.46,0c-1.41-.91-5.05-2.61-12.68-2.61-8.23,0-17.65,1.82-21.75,2.7a2.66,2.66,0,0,0-2.09,2.6v46.25a1.33,1.33,0,0,0,1.61,1.31c3.79-.84,13.66-2.81,22.23-2.81a33.7,33.7,0,0,1,8.73,1c1.18.31,2,1,2,2.19h0a2.67,2.67,0,0,0,5.33,0h0c0-1.22.82-1.87,2-2.18a33.91,33.91,0,0,1,8.77-1c8.57,0,18.44,2,22.23,2.81a1.33,1.33,0,0,0,1.6-1.31V120.56a2.65,2.65,0,0,0-2.08-2.6C269.73,117.08,260.31,115.26,252.08,115.26Z"/><path class="g" d="M265.27,132.36a2.69,2.69,0,0,1-.4,0c-8.66-1.31-15.51-1.48-20.28-.36a2.66,2.66,0,1,1-1.23-5.17c5.49-1.3,12.91-1.15,22.31.27a2.66,2.66,0,0,1-.4,5.29Z"/><path class="g" d="M265.27,153.65a2.69,2.69,0,0,1-.4,0c-8.66-1.31-15.51-1.48-20.28-.36a2.66,2.66,0,1,1-1.23-5.17c5.49-1.3,12.91-1.15,22.31.26a2.67,2.67,0,0,1-.4,5.3Z"/><path class="g" d="M244,142.69a2.66,2.66,0,0,1-.6-5.25c.85-.2,1.82-.38,2.91-.53a2.66,2.66,0,1,1,.72,5.27,24,24,0,0,0-2.41.44A2.62,2.62,0,0,1,244,142.69Z"/><path class="g" d="M265.27,143l-.4,0c-2.78-.43-5.39-.73-7.78-.91a2.66,2.66,0,1,1,.39-5.3c2.52.18,5.28.5,8.19.94a2.66,2.66,0,0,1-.4,5.29Z"/><path class="g" d="M212,132.36a2.66,2.66,0,0,1-.39-5.29c9.39-1.42,16.82-1.57,22.3-.27a2.66,2.66,0,0,1-1.23,5.17c-4.77-1.12-11.62-.95-20.28.36A2.69,2.69,0,0,1,212,132.36Z"/><path class="g" d="M212,153.65a2.66,2.66,0,0,1-.39-5.3c9.39-1.41,16.82-1.56,22.3-.26a2.66,2.66,0,0,1-1.23,5.17c-4.77-1.12-11.62-.95-20.28.36A2.69,2.69,0,0,1,212,153.65Z"/><path class="g" d="M233.34,142.69a2.62,2.62,0,0,1-.62-.07,23.44,23.44,0,0,0-2.41-.44,2.66,2.66,0,1,1,.72-5.27c1.09.15,2.06.33,2.91.53a2.66,2.66,0,0,1-.6,5.25Z"/><path class="g" d="M212,143a2.66,2.66,0,0,1-.39-5.29c2.9-.44,5.66-.76,8.18-.94a2.62,2.62,0,0,1,2.85,2.45,2.66,2.66,0,0,1-2.46,2.85c-2.39.18-5,.48-7.78.91Z"/></svg>