<svg xmlns="http://www.w3.org/2000/svg" xmlns:xlink="http://www.w3.org/1999/xlink" viewBox="0 0 480 480"><defs><style>.a{fill:#cce9e6;}.b{fill:url(#a);}.c{fill:url(#b);}.d{fill:url(#c);}.e{fill:#fff;}.f{fill:url(#d);}.g{fill:#1c487d;}.h{fill:#faae17;}.i{fill:#fcc966;}</style><linearGradient id="a" x1="100.96" y1="220.14" x2="379.04" y2="220.14" gradientUnits="userSpaceOnUse"><stop offset="0" stop-color="#20579c"/><stop offset="1" stop-color="#26ae9f"/></linearGradient><linearGradient id="b" x1="134.07" y1="379.03" x2="379.04" y2="379.03" xlink:href="#a"/><linearGradient id="c" x1="134.07" y1="405.52" x2="379.04" y2="405.52" xlink:href="#a"/><linearGradient id="d" x1="200.27" y1="124.13" x2="233.4" y2="124.13" xlink:href="#a"/></defs><path class="a" d="M379,332.69v79.45A19.87,19.87,0,0,1,359.17,432H140.69a39.73,39.73,0,1,1,0-79.45H359.17A19.87,19.87,0,0,0,379,332.69Zm0,0"/><path class="b" d="M379,67.86V332.69a19.87,19.87,0,0,1-19.87,19.86H140.69A39.73,39.73,0,0,0,101,392.28V87.72A39.72,39.72,0,0,1,140.69,48H359.17A19.87,19.87,0,0,1,379,67.86Zm0,0"/><path class="c" d="M379,372.41v13.25H140.69a6.63,6.63,0,0,1,0-13.25Zm0,0"/><path class="d" d="M379,398.9v13.24H140.69a6.62,6.62,0,0,1,0-13.24Zm0,0"/><path class="e" d="M259.86,107.59a49.9,49.9,0,0,1,39.73-19.87c23.51,0,39.72,20.4,39.72,44.14,0,27-21.31,66.27-76.4,94.18a6.8,6.8,0,0,1-6.09,0c-55.09-27.91-76.41-67.19-76.41-94.18,0-23.74,16.21-44.14,39.73-44.14a49.88,49.88,0,0,1,39.72,19.87Zm0,0"/><path class="f" d="M206.9,140.69a6.62,6.62,0,0,1-6.62-6.62,25.71,25.71,0,0,1,26.48-26.48,6.62,6.62,0,1,1,0,13.24,12.47,12.47,0,0,0-13.28,13.24,6.62,6.62,0,0,1-6.62,6.62Zm0,0"/><path class="g" d="M140.69,48V352.55A39.73,39.73,0,0,0,101,392.28V87.72A39.72,39.72,0,0,1,140.69,48Zm0,0"/><path class="h" d="M320.91,150.27l1.7,6.95c2.76,11.26,10.58,19.2,21.18,23.89a1.68,1.68,0,0,1,0,2.81c-10.6,4.69-18.42,12.63-21.18,23.89l-1.7,6.94a1.4,1.4,0,0,1-2.73,0l-1.7-6.94c-2.76-11.26-10.58-19.2-21.18-23.89a1.68,1.68,0,0,1,0-2.81c10.6-4.69,18.42-12.63,21.18-23.89l1.7-6.95a1.41,1.41,0,0,1,2.73,0Zm0,0"/><path class="i" d="M327.74,181.11a38.14,38.14,0,0,1-16.22-12.85,38.2,38.2,0,0,1-16.22,12.85,1.68,1.68,0,0,0,0,2.81,38.2,38.2,0,0,1,16.22,12.85,38.14,38.14,0,0,1,16.22-12.85,1.69,1.69,0,0,0,0-2.81Zm0,0"/><path class="h" d="M195.9,220.76l1,4c1.59,6.51,6.12,11.09,12.24,13.81a1,1,0,0,1,0,1.62c-6.12,2.71-10.65,7.3-12.24,13.81l-1,4a.81.81,0,0,1-1.58,0l-1-4c-1.6-6.51-6.12-11.1-12.24-13.81a1,1,0,0,1,0-1.62c6.12-2.72,10.64-7.3,12.24-13.81l1-4a.81.81,0,0,1,1.58,0Zm0,0"/><path class="i" d="M199.84,238.58a22.17,22.17,0,0,1-9.37-7.43,22.17,22.17,0,0,1-9.37,7.43,1,1,0,0,0,0,1.62,22.09,22.09,0,0,1,9.37,7.43,22.09,22.09,0,0,1,9.37-7.43,1,1,0,0,0,0-1.62Zm0,0"/><path class="h" d="M295.34,266.25l1.36,5.56c2.21,9,8.47,15.36,16.95,19.11a1.35,1.35,0,0,1,0,2.25c-8.48,3.75-14.74,10.11-16.95,19.12l-1.36,5.55a1.12,1.12,0,0,1-2.18,0l-1.36-5.55c-2.21-9-8.47-15.37-16.95-19.12a1.35,1.35,0,0,1,0-2.25c8.48-3.75,14.74-10.1,16.95-19.11l1.36-5.56a1.12,1.12,0,0,1,2.18,0Zm0,0"/><path class="i" d="M300.8,290.92a30.65,30.65,0,0,1-13-10.28,30.56,30.56,0,0,1-13,10.28,1.35,1.35,0,0,0,0,2.25,30.58,30.58,0,0,1,13,10.29,30.67,30.67,0,0,1,13-10.29,1.35,1.35,0,0,0,0-2.25Zm0,0"/></svg>