<?xml version="1.0" encoding="utf-8"?>
<!-- Generator: Adobe Illustrator 23.0.6, SVG Export Plug-In . SVG Version: 6.00 Build 0)  -->
<svg version="1.1" id="Layer_1" xmlns="http://www.w3.org/2000/svg" xmlns:xlink="http://www.w3.org/1999/xlink" x="0px" y="0px"
	 viewBox="0 0 1120.6 697.3" style="enable-background:new 0 0 1120.6 697.3;" xml:space="preserve">
<style type="text/css">
	.st0{opacity:0.5;fill:#805BA3;}
	.st1{opacity:0.1;fill:url(#XMLID_44_);}
	.st2{opacity:0.1;fill:url(#XMLID_45_);}
	.st3{opacity:0.1;fill:url(#XMLID_46_);}
	.st4{opacity:0.5;fill:#00A79C;}
	.st5{opacity:0.1;fill:url(#XMLID_47_);}
	.st6{opacity:0.3;fill:#6C8EC0;}
	.st7{fill:none;}
	.st8{opacity:0.5;fill:#25A99C;}
	.st9{opacity:0.5;fill:#E5333E;}
	.st10{opacity:0.5;fill:#6C8EC0;}
	.st11{opacity:0.5;fill:#F5AE1B;}
	.st12{opacity:0.1;fill:url(#XMLID_48_);}
	.st13{opacity:0.1;fill:url(#XMLID_49_);}
	.st14{opacity:0.1;fill:url(#XMLID_50_);}
	.st15{opacity:0.1;fill:url(#XMLID_51_);}
	.st16{opacity:0.1;fill:url(#XMLID_52_);}
	.st17{opacity:0.1;fill:url(#XMLID_53_);}
	.st18{opacity:0.1;fill:url(#XMLID_54_);}
	.st19{opacity:0.1;fill:url(#XMLID_55_);}
	.st20{fill:#E8E8E8;}
	.st21{opacity:0.1;fill:url(#XMLID_56_);}
	.st22{opacity:0.1;fill:url(#XMLID_57_);}
	.st23{opacity:0.1;fill:url(#XMLID_58_);}
	.st24{opacity:0.1;fill:url(#XMLID_78_);}
	.st25{opacity:0.1;fill:url(#XMLID_79_);}
	.st26{opacity:0.1;fill:url(#XMLID_80_);}
	.st27{opacity:0.1;fill:url(#XMLID_81_);}
	.st28{opacity:0.1;fill:url(#XMLID_82_);}
	.st29{opacity:0.1;fill:url(#XMLID_83_);}
	.st30{opacity:0.1;fill:url(#XMLID_84_);}
	.st31{opacity:0.1;fill:url(#XMLID_85_);}
	.st32{opacity:0.1;fill:url(#XMLID_86_);}
	.st33{opacity:0.1;fill:url(#XMLID_87_);}
	.st34{opacity:0.1;fill:url(#XMLID_88_);}
	.st35{opacity:0.1;fill:url(#XMLID_89_);}
	.st36{opacity:0.1;fill:url(#XMLID_90_);}
	.st37{opacity:0.1;fill:url(#XMLID_91_);}
	.st38{opacity:0.1;fill:url(#XMLID_92_);}
	.st39{opacity:0.1;fill:url(#XMLID_93_);}
	.st40{opacity:0.1;fill:url(#XMLID_94_);}
	.st41{opacity:0.1;fill:url(#XMLID_95_);}
	.st42{opacity:0.1;fill:url(#XMLID_96_);}
	.st43{opacity:0.1;fill:url(#XMLID_97_);}
	.st44{opacity:0.1;fill:url(#XMLID_98_);}
	.st45{opacity:0.1;fill:url(#XMLID_99_);}
	.st46{opacity:0.1;fill:url(#XMLID_100_);}
	.st47{opacity:0.1;fill:url(#XMLID_101_);}
	.st48{opacity:0.1;fill:url(#XMLID_102_);}
	.st49{opacity:0.1;fill:url(#XMLID_103_);}
	.st50{opacity:0.1;fill:url(#XMLID_104_);}
	.st51{opacity:0.1;fill:url(#XMLID_105_);}
	.st52{opacity:0.1;fill:url(#XMLID_106_);}
	.st53{opacity:0.1;fill:url(#XMLID_107_);}
	.st54{opacity:0.1;fill:url(#XMLID_108_);}
	.st55{opacity:0.1;fill:url(#XMLID_109_);}
	.st56{opacity:0.1;fill:url(#XMLID_110_);}
	.st57{opacity:0.1;fill:url(#XMLID_111_);}
	.st58{opacity:0.1;fill:url(#XMLID_112_);}
	.st59{opacity:0.1;fill:url(#XMLID_113_);}
	.st60{opacity:0.1;fill:url(#XMLID_114_);}
	.st61{opacity:0.1;fill:url(#XMLID_115_);}
	.st62{opacity:0.1;fill:url(#XMLID_116_);}
	.st63{opacity:0.1;fill:url(#XMLID_117_);}
	.st64{opacity:0.1;fill:url(#XMLID_118_);}
	.st65{opacity:0.1;fill:url(#XMLID_119_);}
	.st66{opacity:0.1;fill:url(#XMLID_120_);}
	.st67{opacity:0.1;fill:url(#XMLID_121_);}
	.st68{opacity:0.1;fill:url(#XMLID_122_);}
	.st69{opacity:0.1;fill:url(#XMLID_123_);}
</style>
<g>
	<circle class="st0" cx="-488.7" cy="-1168.5" r="1.1"/>
	
		<linearGradient id="XMLID_44_" gradientUnits="userSpaceOnUse" x1="-12170.5645" y1="-1145.2269" x2="-12160.332" y2="-1112.6125" gradientTransform="matrix(-1 0 0 1 -12652.0986 0)">
		<stop  offset="0" style="stop-color:#6C8EC0"/>
		<stop  offset="0.2105" style="stop-color:#7D9AC7"/>
		<stop  offset="0.6392" style="stop-color:#AABCDA"/>
		<stop  offset="1" style="stop-color:#D8E1EF"/>
	</linearGradient>
	<path id="XMLID_77_" class="st1" d="M-449.2-1114c0-0.2,0-0.3,0-0.5c0-5.1-3.9-9.2-8.7-9.2c-1.4,0-2.7,0.3-3.8,0.9
		c-0.6-4.8-4.6-8.5-9.3-8.5c-1.4,0-2.7,0.3-3.9,0.9c-3.1-4.6-8.1-7.6-13.8-7.6c-8.5,0-15.5,6.6-16.7,15.2c-2-2.7-5.1-4.5-8.6-4.5
		c-4.8,0-8.8,3.3-10.2,7.8c-0.9-0.5-1.9-0.8-2.9-0.8c-3.3,0-5.9,2.8-6,6.2H-449.2z"/>
	<linearGradient id="XMLID_45_" gradientUnits="userSpaceOnUse" x1="-410.407" y1="-1194.6136" x2="-374.2986" y2="-1187.923">
		<stop  offset="0" style="stop-color:#6C8EC0"/>
		<stop  offset="0.2105" style="stop-color:#7D9AC7"/>
		<stop  offset="0.6392" style="stop-color:#AABCDA"/>
		<stop  offset="1" style="stop-color:#D8E1EF"/>
	</linearGradient>
	<path id="XMLID_76_" class="st2" d="M-425.7-1186.7c0-0.1,0-0.2,0-0.3c0-3.5,2.7-6.3,6-6.3c0.9,0,1.8,0.2,2.6,0.6
		c0.4-3.3,3.1-5.8,6.4-5.8c0.9,0,1.8,0.2,2.6,0.6c2.1-3.1,5.5-5.2,9.4-5.2c5.8,0,10.6,4.5,11.4,10.4c1.3-1.9,3.5-3.1,5.9-3.1
		c3.3,0,6,2.2,7,5.3c0.6-0.3,1.3-0.5,2-0.5c2.2,0,4.1,1.9,4.1,4.2H-425.7z"/>
	<linearGradient id="XMLID_46_" gradientUnits="userSpaceOnUse" x1="-189.5891" y1="-1240.5167" x2="-153.4808" y2="-1233.826">
		<stop  offset="0" style="stop-color:#6C8EC0"/>
		<stop  offset="0.2105" style="stop-color:#7D9AC7"/>
		<stop  offset="0.6392" style="stop-color:#AABCDA"/>
		<stop  offset="1" style="stop-color:#D8E1EF"/>
	</linearGradient>
	<path id="XMLID_75_" class="st3" d="M-204.9-1232.6c0-0.1,0-0.2,0-0.3c0-3.5,2.7-6.3,6-6.3c0.9,0,1.8,0.2,2.6,0.6
		c0.4-3.3,3.1-5.8,6.4-5.8c0.9,0,1.8,0.2,2.6,0.6c2.1-3.1,5.5-5.2,9.4-5.2c5.8,0,10.6,4.5,11.4,10.4c1.3-1.9,3.5-3.1,5.9-3.1
		c3.3,0,6,2.2,7,5.3c0.6-0.3,1.3-0.5,2-0.5c2.2,0,4.1,1.9,4.1,4.2H-204.9z"/>
	<ellipse class="st4" cx="-506.8" cy="-1183.7" rx="2.8" ry="2.8"/>
	<linearGradient id="XMLID_47_" gradientUnits="userSpaceOnUse" x1="-525.6368" y1="-1276.9458" x2="-515.4118" y2="-1244.3566">
		<stop  offset="0" style="stop-color:#6C8EC0"/>
		<stop  offset="0.2105" style="stop-color:#7D9AC7"/>
		<stop  offset="0.6392" style="stop-color:#AABCDA"/>
		<stop  offset="1" style="stop-color:#D8E1EF"/>
	</linearGradient>
	<path id="XMLID_74_" class="st5" d="M-557.9-1245.8c0-0.2,0-0.3,0-0.5c0-5.1,3.9-9.2,8.7-9.2c1.4,0,2.7,0.3,3.8,0.9
		c0.6-4.8,4.5-8.5,9.3-8.5c1.4,0,2.7,0.3,3.9,0.9c3.1-4.6,8.1-7.6,13.8-7.6c8.5,0,15.5,6.6,16.7,15.2c2-2.7,5.1-4.5,8.6-4.5
		c4.8,0,8.8,3.3,10.2,7.8c0.9-0.5,1.9-0.8,2.9-0.8c3.3,0,5.9,2.8,6,6.2H-557.9z"/>
	<path class="st6" d="M-314.2-1203.8h-7c-0.8,0-1.4,0.6-1.4,1.4l0,11.1l4.9-2.1l4.9,2.1v-11.1
		C-312.8-1203.2-313.4-1203.8-314.2-1203.8z"/>
	<g id="ic_search_white_13_" transform="translate(-932 1129)">
		<path id="path_16_" class="st7" d="M476.3-2328.7h-19.8v-19.8h19.8V-2328.7z"/>
		<path id="path-2_13_" class="st6" d="M469.3-2336.9h-0.7l-0.2-0.2c0.8-1,1.3-2.2,1.3-3.5c0-3-2.4-5.4-5.4-5.4c0,0,0,0,0,0
			c-3,0-5.4,2.4-5.4,5.4c0,0,0,0,0,0c0,3,2.4,5.4,5.4,5.4h0c1.3,0,2.5-0.5,3.5-1.3l0.2,0.2v0.7l4.1,4.1l1.2-1.2L469.3-2336.9
			L469.3-2336.9z M464.3-2336.9c-2.1,0-3.7-1.7-3.7-3.7c0,0,0,0,0,0c0-2.1,1.7-3.7,3.7-3.7l0,0c2.1,0,3.7,1.7,3.7,3.7
			C468-2338.6,466.4-2336.9,464.3-2336.9L464.3-2336.9z"/>
	</g>
	<circle class="st8" cx="-437.2" cy="-1217.6" r="2.2"/>
	<circle class="st9" cx="-443.6" cy="-1156.3" r="2.2"/>
	<circle class="st10" cx="-380.2" cy="-1209.8" r="1.4"/>
	<path class="st6" d="M-456.9-1261.7v2.3c0,0.5,0.4,0.9,0.9,0.9h1.8l3.5,3.5v-11.1l-3.5,3.5h-1.8
		C-456.5-1262.6-456.9-1262.2-456.9-1261.7z M-447.5-1260.5c0-1.2-0.7-2.3-1.7-2.8v5.6C-448.3-1258.3-447.5-1259.3-447.5-1260.5z
		 M-449.3-1266.6v1.4c2,0.6,3.5,2.5,3.5,4.6s-1.5,4.1-3.5,4.6v1.4c2.8-0.6,4.8-3.1,4.8-6.1S-446.5-1266-449.3-1266.6z"/>
	<ellipse class="st4" cx="-255.3" cy="-1283.1" rx="2.8" ry="2.8"/>
	<ellipse class="st11" cx="-498.6" cy="-1279.9" rx="2.8" ry="2.8"/>
	<linearGradient id="XMLID_48_" gradientUnits="userSpaceOnUse" x1="-393.4667" y1="-1302.0342" x2="-383.2417" y2="-1269.4449">
		<stop  offset="0" style="stop-color:#6C8EC0"/>
		<stop  offset="0.2105" style="stop-color:#7D9AC7"/>
		<stop  offset="0.6392" style="stop-color:#AABCDA"/>
		<stop  offset="1" style="stop-color:#D8E1EF"/>
	</linearGradient>
	<path id="XMLID_73_" class="st12" d="M-425.7-1270.9c0-0.2,0-0.3,0-0.5c0-5.1,3.9-9.2,8.7-9.2c1.4,0,2.7,0.3,3.8,0.9
		c0.6-4.8,4.5-8.5,9.3-8.5c1.4,0,2.7,0.3,3.9,0.9c3.1-4.6,8.1-7.6,13.8-7.6c8.5,0,15.5,6.6,16.7,15.2c2-2.7,5.1-4.5,8.6-4.5
		c4.8,0,8.8,3.3,10.2,7.8c0.9-0.5,1.9-0.8,2.9-0.8c3.3,0,5.9,2.8,6,6.2H-425.7z"/>
	<linearGradient id="XMLID_49_" gradientUnits="userSpaceOnUse" x1="-311.5927" y1="-1250.9135" x2="-301.3677" y2="-1218.3241">
		<stop  offset="0" style="stop-color:#6C8EC0"/>
		<stop  offset="0.2105" style="stop-color:#7D9AC7"/>
		<stop  offset="0.6392" style="stop-color:#AABCDA"/>
		<stop  offset="1" style="stop-color:#D8E1EF"/>
	</linearGradient>
	<path id="XMLID_72_" class="st13" d="M-343.9-1219.7c0-0.2,0-0.3,0-0.5c0-5.1,3.9-9.2,8.7-9.2c1.4,0,2.7,0.3,3.8,0.9
		c0.6-4.8,4.5-8.5,9.3-8.5c1.4,0,2.7,0.3,3.9,0.9c3.1-4.6,8.1-7.6,13.8-7.6c8.5,0,15.5,6.6,16.7,15.2c2-2.7,5.1-4.5,8.6-4.5
		c4.8,0,8.8,3.3,10.2,7.8c0.9-0.5,1.9-0.8,2.9-0.8c3.3,0,5.9,2.8,6,6.2H-343.9z"/>
</g>
<g>
	<circle class="st0" cx="855.5" cy="-1141.3" r="1.1"/>
	
		<linearGradient id="XMLID_50_" gradientUnits="userSpaceOnUse" x1="-13503.0713" y1="-1139.606" x2="-13492.8389" y2="-1106.9916" gradientTransform="matrix(-1 0 0 1 -12652.0986 0)">
		<stop  offset="0" style="stop-color:#6C8EC0"/>
		<stop  offset="0.2105" style="stop-color:#7D9AC7"/>
		<stop  offset="0.6392" style="stop-color:#AABCDA"/>
		<stop  offset="1" style="stop-color:#D8E1EF"/>
	</linearGradient>
	<path id="XMLID_71_" class="st14" d="M883.3-1108.4c0-0.2,0-0.3,0-0.5c0-5.1-3.9-9.2-8.7-9.2c-1.4,0-2.7,0.3-3.8,0.9
		c-0.6-4.8-4.6-8.5-9.3-8.5c-1.4,0-2.7,0.3-3.9,0.9c-3.1-4.6-8.1-7.6-13.8-7.6c-8.5,0-15.5,6.6-16.7,15.2c-2-2.7-5.1-4.5-8.6-4.5
		c-4.8,0-8.8,3.3-10.2,7.8c-0.9-0.5-1.9-0.8-2.9-0.8c-3.3,0-5.9,2.8-6,6.2H883.3z"/>
	<linearGradient id="XMLID_51_" gradientUnits="userSpaceOnUse" x1="933.8326" y1="-1167.3188" x2="969.941" y2="-1160.6282">
		<stop  offset="0" style="stop-color:#6C8EC0"/>
		<stop  offset="0.2105" style="stop-color:#7D9AC7"/>
		<stop  offset="0.6392" style="stop-color:#AABCDA"/>
		<stop  offset="1" style="stop-color:#D8E1EF"/>
	</linearGradient>
	<path id="XMLID_70_" class="st15" d="M918.5-1159.4c0-0.1,0-0.2,0-0.3c0-3.5,2.7-6.3,6-6.3c0.9,0,1.8,0.2,2.6,0.6
		c0.4-3.3,3.1-5.8,6.4-5.8c0.9,0,1.8,0.2,2.6,0.6c2.1-3.1,5.5-5.2,9.4-5.2c5.8,0,10.6,4.5,11.4,10.4c1.3-1.9,3.5-3.1,5.9-3.1
		c3.3,0,6,2.2,7,5.3c0.6-0.3,1.3-0.5,2-0.5c2.2,0,4.1,1.9,4.1,4.2H918.5z"/>
	<linearGradient id="XMLID_52_" gradientUnits="userSpaceOnUse" x1="1059.9902" y1="-1236.7925" x2="1096.0986" y2="-1230.1018">
		<stop  offset="0" style="stop-color:#6C8EC0"/>
		<stop  offset="0.2105" style="stop-color:#7D9AC7"/>
		<stop  offset="0.6392" style="stop-color:#AABCDA"/>
		<stop  offset="1" style="stop-color:#D8E1EF"/>
	</linearGradient>
	<path id="XMLID_69_" class="st16" d="M1044.7-1228.9c0-0.1,0-0.2,0-0.3c0-3.5,2.7-6.3,6-6.3c0.9,0,1.8,0.2,2.6,0.6
		c0.4-3.3,3.1-5.8,6.4-5.8c0.9,0,1.8,0.2,2.6,0.6c2.1-3.1,5.5-5.2,9.4-5.2c5.8,0,10.6,4.5,11.4,10.4c1.3-1.9,3.5-3.1,5.9-3.1
		c3.3,0,6,2.2,7,5.3c0.6-0.3,1.3-0.5,2-0.5c2.2,0,4.1,1.9,4.1,4.2H1044.7z"/>
	<ellipse class="st4" cx="821.1" cy="-1142.1" rx="2.8" ry="2.8"/>
	<linearGradient id="XMLID_53_" gradientUnits="userSpaceOnUse" x1="818.6028" y1="-1249.651" x2="828.8278" y2="-1217.0616">
		<stop  offset="0" style="stop-color:#6C8EC0"/>
		<stop  offset="0.2105" style="stop-color:#7D9AC7"/>
		<stop  offset="0.6392" style="stop-color:#AABCDA"/>
		<stop  offset="1" style="stop-color:#D8E1EF"/>
	</linearGradient>
	<path id="XMLID_68_" class="st17" d="M786.3-1218.5c0-0.2,0-0.3,0-0.5c0-5.1,3.9-9.2,8.7-9.2c1.4,0,2.7,0.3,3.8,0.9
		c0.6-4.8,4.5-8.5,9.3-8.5c1.4,0,2.7,0.3,3.9,0.9c3.1-4.6,8.1-7.6,13.8-7.6c8.5,0,15.5,6.6,16.7,15.2c2-2.7,5.1-4.5,8.6-4.5
		c4.8,0,8.8,3.3,10.2,7.8c0.9-0.5,1.9-0.8,2.9-0.8c3.3,0,5.9,2.8,6,6.2H786.3z"/>
	<g id="ic_search_white_12_" transform="translate(-932 1129)">
		<path id="path_15_" class="st7" d="M1820.5-2301.4h-19.8v-19.8h19.8V-2301.4z"/>
		<path id="path-2_12_" class="st6" d="M1813.5-2309.6h-0.7l-0.2-0.2c0.8-1,1.3-2.2,1.3-3.5c0-3-2.4-5.4-5.4-5.4c0,0,0,0,0,0
			c-3,0-5.4,2.4-5.4,5.4c0,0,0,0,0,0c0,3,2.4,5.4,5.4,5.4h0c1.3,0,2.5-0.5,3.5-1.3l0.2,0.2v0.7l4.1,4.1l1.2-1.2L1813.5-2309.6
			L1813.5-2309.6z M1808.5-2309.6c-2.1,0-3.7-1.7-3.7-3.7c0,0,0,0,0,0c0-2.1,1.7-3.7,3.7-3.7l0,0c2.1,0,3.7,1.7,3.7,3.7
			C1812.3-2311.3,1810.6-2309.6,1808.5-2309.6L1808.5-2309.6z"/>
	</g>
	<circle class="st8" cx="907.1" cy="-1190.3" r="2.2"/>
	<circle class="st9" cx="876.5" cy="-1269.4" r="2.2"/>
	<circle class="st10" cx="852" cy="-1264.3" r="1.4"/>
	<path class="st6" d="M785.7-1181.7v2.3c0,0.5,0.4,0.9,0.9,0.9h1.8l3.5,3.5v-11.1l-3.5,3.5h-1.8
		C786.1-1182.7,785.7-1182.3,785.7-1181.7z M795-1180.6c0-1.2-0.7-2.3-1.7-2.8v5.6C794.3-1178.3,795-1179.4,795-1180.6z
		 M793.3-1186.7v1.4c2,0.6,3.5,2.5,3.5,4.6s-1.5,4.1-3.5,4.6v1.4c2.8-0.6,4.8-3.1,4.8-6.1S796.1-1186.1,793.3-1186.7z"/>
	<ellipse class="st4" cx="960.4" cy="-1210.8" rx="2.8" ry="2.8"/>
	<ellipse class="st11" cx="696.1" cy="-1246.4" rx="2.8" ry="2.8"/>
	<linearGradient id="XMLID_54_" gradientUnits="userSpaceOnUse" x1="1006.0049" y1="-1139.5912" x2="1016.2299" y2="-1107.002">
		<stop  offset="0" style="stop-color:#6C8EC0"/>
		<stop  offset="0.2105" style="stop-color:#7D9AC7"/>
		<stop  offset="0.6392" style="stop-color:#AABCDA"/>
		<stop  offset="1" style="stop-color:#D8E1EF"/>
	</linearGradient>
	<path id="XMLID_67_" class="st18" d="M973.7-1108.4c0-0.2,0-0.3,0-0.5c0-5.1,3.9-9.2,8.7-9.2c1.4,0,2.7,0.3,3.8,0.9
		c0.6-4.8,4.5-8.5,9.3-8.5c1.4,0,2.7,0.3,3.9,0.9c3.1-4.6,8.1-7.6,13.8-7.6c8.5,0,15.5,6.6,16.7,15.2c2-2.7,5.1-4.5,8.6-4.5
		c4.8,0,8.8,3.3,10.2,7.8c0.9-0.5,1.9-0.8,2.9-0.8c3.3,0,5.9,2.8,6,6.2H973.7z"/>
	<linearGradient id="XMLID_55_" gradientUnits="userSpaceOnUse" x1="1032.647" y1="-1223.6185" x2="1042.8719" y2="-1191.0293">
		<stop  offset="0" style="stop-color:#6C8EC0"/>
		<stop  offset="0.2105" style="stop-color:#7D9AC7"/>
		<stop  offset="0.6392" style="stop-color:#AABCDA"/>
		<stop  offset="1" style="stop-color:#D8E1EF"/>
	</linearGradient>
	<path id="XMLID_66_" class="st19" d="M1000.4-1192.4c0-0.2,0-0.3,0-0.5c0-5.1,3.9-9.2,8.7-9.2c1.4,0,2.7,0.3,3.8,0.9
		c0.6-4.8,4.5-8.5,9.3-8.5c1.4,0,2.7,0.3,3.9,0.9c3.1-4.6,8.1-7.6,13.8-7.6c8.5,0,15.5,6.6,16.7,15.2c2-2.7,5.1-4.5,8.6-4.5
		c4.8,0,8.8,3.3,10.2,7.8c0.9-0.5,1.9-0.8,2.9-0.8c3.3,0,5.9,2.8,6,6.2H1000.4z"/>
</g>
<rect x="417.4" y="-865.5" transform="matrix(0.866 -0.5 0.5 0.866 488.2949 93.2532)" class="st20" width="1.5" height="2"/>
<g>
	<circle class="st0" cx="2899.7" cy="-731.2" r="1.1"/>
	
		<linearGradient id="XMLID_56_" gradientUnits="userSpaceOnUse" x1="-15748.2305" y1="-666.6278" x2="-15737.998" y2="-634.0134" gradientTransform="matrix(-1 0 0 1 -12652.0986 0)">
		<stop  offset="0" style="stop-color:#6C8EC0"/>
		<stop  offset="0.2105" style="stop-color:#7D9AC7"/>
		<stop  offset="0.6392" style="stop-color:#AABCDA"/>
		<stop  offset="1" style="stop-color:#D8E1EF"/>
	</linearGradient>
	<path id="XMLID_65_" class="st21" d="M3128.4-635.4c0-0.2,0-0.3,0-0.5c0-5.1-3.9-9.2-8.7-9.2c-1.4,0-2.7,0.3-3.8,0.9
		c-0.6-4.8-4.6-8.5-9.3-8.5c-1.4,0-2.7,0.3-3.9,0.9c-3.1-4.6-8.1-7.6-13.8-7.6c-8.5,0-15.5,6.6-16.7,15.2c-2-2.7-5.1-4.5-8.6-4.5
		c-4.8,0-8.8,3.3-10.2,7.8c-0.9-0.5-1.9-0.8-2.9-0.8c-3.3,0-5.9,2.8-6,6.2H3128.4z"/>
	<linearGradient id="XMLID_57_" gradientUnits="userSpaceOnUse" x1="2978.0452" y1="-757.2515" x2="3014.1536" y2="-750.5609">
		<stop  offset="0" style="stop-color:#6C8EC0"/>
		<stop  offset="0.2105" style="stop-color:#7D9AC7"/>
		<stop  offset="0.6392" style="stop-color:#AABCDA"/>
		<stop  offset="1" style="stop-color:#D8E1EF"/>
	</linearGradient>
	<path id="XMLID_64_" class="st22" d="M2962.7-749.3c0-0.1,0-0.2,0-0.3c0-3.5,2.7-6.3,6-6.3c0.9,0,1.8,0.2,2.6,0.6
		c0.4-3.3,3.1-5.8,6.4-5.8c0.9,0,1.8,0.2,2.6,0.6c2.1-3.1,5.5-5.2,9.4-5.2c5.8,0,10.6,4.5,11.4,10.4c1.3-1.9,3.5-3.1,5.9-3.1
		c3.3,0,6,2.2,7,5.3c0.6-0.3,1.3-0.5,2-0.5c2.2,0,4.1,1.9,4.1,4.2H2962.7z"/>
	<linearGradient id="XMLID_58_" gradientUnits="userSpaceOnUse" x1="3104.2029" y1="-826.7252" x2="3140.3113" y2="-820.0345">
		<stop  offset="0" style="stop-color:#6C8EC0"/>
		<stop  offset="0.2105" style="stop-color:#7D9AC7"/>
		<stop  offset="0.6392" style="stop-color:#AABCDA"/>
		<stop  offset="1" style="stop-color:#D8E1EF"/>
	</linearGradient>
	<path id="XMLID_63_" class="st23" d="M3088.9-818.8c0-0.1,0-0.2,0-0.3c0-3.5,2.7-6.3,6-6.3c0.9,0,1.8,0.2,2.6,0.6
		c0.4-3.3,3.1-5.8,6.4-5.8c0.9,0,1.8,0.2,2.6,0.6c2.1-3.1,5.5-5.2,9.4-5.2c5.8,0,10.6,4.5,11.4,10.4c1.3-1.9,3.5-3.1,5.9-3.1
		c3.3,0,6,2.2,7,5.3c0.6-0.3,1.3-0.5,2-0.5c2.2,0,4.1,1.9,4.1,4.2H3088.9z"/>
	<ellipse class="st4" cx="3065.9" cy="-670.8" rx="2.8" ry="2.8"/>
	<linearGradient id="XMLID_78_" gradientUnits="userSpaceOnUse" x1="2985.8245" y1="-608.7841" x2="2996.0496" y2="-576.1948">
		<stop  offset="0" style="stop-color:#6C8EC0"/>
		<stop  offset="0.2105" style="stop-color:#7D9AC7"/>
		<stop  offset="0.6392" style="stop-color:#AABCDA"/>
		<stop  offset="1" style="stop-color:#D8E1EF"/>
	</linearGradient>
	<path id="XMLID_62_" class="st24" d="M2953.6-577.6c0-0.2,0-0.3,0-0.5c0-5.1,3.9-9.2,8.7-9.2c1.4,0,2.7,0.3,3.8,0.9
		c0.6-4.8,4.5-8.5,9.3-8.5c1.4,0,2.7,0.3,3.9,0.9c3.1-4.6,8.1-7.6,13.8-7.6c8.5,0,15.5,6.6,16.7,15.2c2-2.7,5.1-4.5,8.6-4.5
		c4.8,0,8.8,3.3,10.2,7.8c0.9-0.5,1.9-0.8,2.9-0.8c3.3,0,5.9,2.8,6,6.2H2953.6z"/>
	<linearGradient id="XMLID_79_" gradientUnits="userSpaceOnUse" x1="3075.0815" y1="-558.4682" x2="3085.3064" y2="-525.8789">
		<stop  offset="0" style="stop-color:#6C8EC0"/>
		<stop  offset="0.2105" style="stop-color:#7D9AC7"/>
		<stop  offset="0.6392" style="stop-color:#AABCDA"/>
		<stop  offset="1" style="stop-color:#D8E1EF"/>
	</linearGradient>
	<path id="XMLID_61_" class="st25" d="M3042.8-527.3c0-0.2,0-0.3,0-0.5c0-5.1,3.9-9.2,8.7-9.2c1.4,0,2.7,0.3,3.8,0.9
		c0.6-4.8,4.5-8.5,9.3-8.5c1.4,0,2.7,0.3,3.9,0.9c3.1-4.6,8.1-7.6,13.8-7.6c8.5,0,15.5,6.6,16.7,15.2c2-2.7,5.1-4.5,8.6-4.5
		c4.8,0,8.8,3.3,10.2,7.8c0.9-0.5,1.9-0.8,2.9-0.8c3.3,0,5.9,2.8,6,6.2H3042.8z"/>
	<path class="st6" d="M3074.3-766.4h-7c-0.8,0-1.4,0.6-1.4,1.4l0,11.1l4.9-2.1l4.9,2.1V-765C3075.7-765.8,3075-766.4,3074.3-766.4z"
		/>
	<g id="ic_search_white_11_" transform="translate(-932 1129)">
		<path id="path_13_" class="st7" d="M3934.7-1911.3h-19.8v-19.8h19.8V-1911.3z"/>
		<path id="path-2_11_" class="st6" d="M3927.7-1919.5h-0.7l-0.2-0.2c0.8-1,1.3-2.2,1.3-3.5c0-3-2.4-5.4-5.4-5.4c0,0,0,0,0,0
			c-3,0-5.4,2.4-5.4,5.4c0,0,0,0,0,0c0,3,2.4,5.4,5.4,5.4h0c1.3,0,2.5-0.5,3.5-1.3l0.2,0.2v0.7l4.1,4.1l1.2-1.2L3927.7-1919.5
			L3927.7-1919.5z M3922.8-1919.5c-2.1,0-3.7-1.7-3.7-3.7c0,0,0,0,0,0c0-2.1,1.7-3.7,3.7-3.7l0,0c2.1,0,3.7,1.7,3.7,3.7
			C3926.5-1921.2,3924.8-1919.5,3922.8-1919.5L3922.8-1919.5z"/>
	</g>
	<circle class="st8" cx="3028.2" cy="-612.7" r="2.2"/>
	<circle class="st9" cx="2974.9" cy="-718.9" r="2.2"/>
	<circle class="st10" cx="3008.3" cy="-772.4" r="1.4"/>
	<path class="st6" d="M3012.3-683v2.3c0,0.5,0.4,0.9,0.9,0.9h1.8l3.5,3.5v-11.1l-3.5,3.5h-1.8C3012.7-684,3012.3-683.6,3012.3-683z
		 M3021.6-681.9c0-1.2-0.7-2.3-1.7-2.8v5.6C3020.9-679.6,3021.6-680.7,3021.6-681.9z M3019.9-688v1.4c2,0.6,3.5,2.5,3.5,4.6
		c0,2.2-1.5,4.1-3.5,4.6v1.4c2.8-0.6,4.8-3.1,4.8-6.1S3022.6-687.4,3019.9-688z"/>
	<ellipse class="st4" cx="3133.1" cy="-845.7" rx="2.8" ry="2.8"/>
	<ellipse class="st11" cx="2974.9" cy="-617.7" rx="2.8" ry="2.8"/>
	<linearGradient id="XMLID_80_" gradientUnits="userSpaceOnUse" x1="2994.9854" y1="-864.6721" x2="3005.2104" y2="-832.0828">
		<stop  offset="0" style="stop-color:#6C8EC0"/>
		<stop  offset="0.2105" style="stop-color:#7D9AC7"/>
		<stop  offset="0.6392" style="stop-color:#AABCDA"/>
		<stop  offset="1" style="stop-color:#D8E1EF"/>
	</linearGradient>
	<path id="XMLID_60_" class="st26" d="M2962.7-833.5c0-0.2,0-0.3,0-0.5c0-5.1,3.9-9.2,8.7-9.2c1.4,0,2.7,0.3,3.8,0.9
		c0.6-4.8,4.5-8.5,9.3-8.5c1.4,0,2.7,0.3,3.9,0.9c3.1-4.6,8.1-7.6,13.8-7.6c8.5,0,15.5,6.6,16.7,15.2c2-2.7,5.1-4.5,8.6-4.5
		c4.8,0,8.8,3.3,10.2,7.8c0.9-0.5,1.9-0.8,2.9-0.8c3.3,0,5.9,2.8,6,6.2H2962.7z"/>
	<linearGradient id="XMLID_81_" gradientUnits="userSpaceOnUse" x1="3076.8594" y1="-813.5513" x2="3087.0845" y2="-780.962">
		<stop  offset="0" style="stop-color:#6C8EC0"/>
		<stop  offset="0.2105" style="stop-color:#7D9AC7"/>
		<stop  offset="0.6392" style="stop-color:#AABCDA"/>
		<stop  offset="1" style="stop-color:#D8E1EF"/>
	</linearGradient>
	<path id="XMLID_59_" class="st27" d="M3044.6-782.4c0-0.2,0-0.3,0-0.5c0-5.1,3.9-9.2,8.7-9.2c1.4,0,2.7,0.3,3.8,0.9
		c0.6-4.8,4.5-8.5,9.3-8.5c1.4,0,2.7,0.3,3.9,0.9c3.1-4.6,8.1-7.6,13.8-7.6c8.5,0,15.5,6.6,16.7,15.2c2-2.7,5.1-4.5,8.6-4.5
		c4.8,0,8.8,3.3,10.2,7.8c0.9-0.5,1.9-0.8,2.9-0.8c3.3,0,5.9,2.8,6,6.2H3044.6z"/>
</g>
<g>
	<ellipse class="st0" cx="729.6" cy="-153.6" rx="1.9" ry="1.8"/>
	
		<linearGradient id="XMLID_82_" gradientUnits="userSpaceOnUse" x1="-13373.4697" y1="-151.4869" x2="-13357.0723" y2="-99.2264" gradientTransform="matrix(-1 0 0 1 -12652.0986 0)">
		<stop  offset="0" style="stop-color:#6C8EC0"/>
		<stop  offset="0.2105" style="stop-color:#7D9AC7"/>
		<stop  offset="0.6392" style="stop-color:#AABCDA"/>
		<stop  offset="1" style="stop-color:#D8E1EF"/>
	</linearGradient>
	<path id="XMLID_18_" class="st28" d="M775.5-102.1c0-0.3,0-0.5,0-0.8c0-7.9-6.5-14.4-14.4-14.4c-2.3,0-4.4,0.5-6.4,1.5
		c-1.1-7.5-7.5-13.4-15.4-13.4c-2.3,0-4.4,0.5-6.4,1.4c-5.1-7.2-13.4-11.8-22.9-11.8c-14.1,0-25.7,10.4-27.6,23.8
		c-3.3-4.3-8.4-7-14.2-7c-7.9,0-14.6,5.1-16.9,12.2c-1.4-0.8-3.1-1.2-4.8-1.2c-5.4,0-9.8,4.3-9.9,9.7H775.5z"/>
	<linearGradient id="XMLID_83_" gradientUnits="userSpaceOnUse" x1="859.1683" y1="-194.4393" x2="918.9442" y2="-183.3632">
		<stop  offset="0" style="stop-color:#6C8EC0"/>
		<stop  offset="0.2105" style="stop-color:#7D9AC7"/>
		<stop  offset="0.6392" style="stop-color:#AABCDA"/>
		<stop  offset="1" style="stop-color:#D8E1EF"/>
	</linearGradient>
	<path id="XMLID_17_" class="st29" d="M833.9-182c0-0.2,0-0.4,0-0.5c0-5.4,4.4-9.8,9.9-9.8c1.6,0,3,0.4,4.3,1
		c0.7-5.2,5.2-9.1,10.5-9.1c1.6,0,3,0.3,4.4,0.9c3.5-4.9,9.2-8.1,15.6-8.1c9.6,0,17.6,7.1,18.9,16.3c2.2-2.9,5.7-4.8,9.7-4.8
		c5.4,0,10,3.5,11.6,8.4c1-0.5,2.1-0.8,3.3-0.8c3.7,0,6.7,2.9,6.8,6.6H833.9z"/>
	<linearGradient id="XMLID_84_" gradientUnits="userSpaceOnUse" x1="1068.0723" y1="-303.2771" x2="1127.8481" y2="-292.201">
		<stop  offset="0" style="stop-color:#6C8EC0"/>
		<stop  offset="0.2105" style="stop-color:#7D9AC7"/>
		<stop  offset="0.6392" style="stop-color:#AABCDA"/>
		<stop  offset="1" style="stop-color:#D8E1EF"/>
	</linearGradient>
	<path id="XMLID_16_" class="st30" d="M1042.8-290.8c0-0.2,0-0.4,0-0.5c0-5.4,4.4-9.8,9.9-9.8c1.6,0,3,0.4,4.3,1
		c0.7-5.2,5.2-9.1,10.5-9.1c1.6,0,3,0.3,4.4,0.9c3.5-4.9,9.2-8.1,15.6-8.1c9.6,0,17.6,7.1,18.9,16.3c2.2-2.9,5.7-4.8,9.7-4.8
		c5.4,0,10,3.5,11.6,8.4c1-0.5,2.1-0.8,3.3-0.8c3.7,0,6.7,2.9,6.8,6.6H1042.8z"/>
	<ellipse class="st4" cx="672.6" cy="-154.9" rx="4.6" ry="4.4"/>
	<linearGradient id="XMLID_85_" gradientUnits="userSpaceOnUse" x1="669.1719" y1="-323.8835" x2="685.5562" y2="-271.6633">
		<stop  offset="0" style="stop-color:#6C8EC0"/>
		<stop  offset="0.2105" style="stop-color:#7D9AC7"/>
		<stop  offset="0.6392" style="stop-color:#AABCDA"/>
		<stop  offset="1" style="stop-color:#D8E1EF"/>
	</linearGradient>
	<path id="XMLID_15_" class="st31" d="M615-274.6c0-0.3,0-0.5,0-0.8c0-7.9,6.5-14.4,14.4-14.4c2.3,0,4.4,0.5,6.3,1.5
		c1.1-7.5,7.5-13.3,15.4-13.3c2.3,0,4.4,0.5,6.4,1.4c5.1-7.2,13.4-11.8,22.8-11.8c14.1,0,25.7,10.4,27.6,23.8c3.3-4.3,8.4-7,14.2-7
		c7.9,0,14.6,5.1,16.9,12.2c1.4-0.8,3.1-1.2,4.8-1.2c5.4,0,9.8,4.3,9.9,9.7H615z"/>
	<g id="ic_search_white_3_" transform="translate(-932 1129)">
		<path id="path_3_" class="st7" d="M1716.2-1331.3h-32.8v-31h32.8V-1331.3z"/>
		<path id="path-2_3_" class="st6" d="M1704.6-1344.3h-1.1l-0.4-0.4c1.4-1.5,2.1-3.5,2.1-5.5c0-4.6-4-8.4-8.9-8.4c0,0,0,0,0,0
			c-4.9,0-8.9,3.8-8.9,8.4c0,0,0,0,0,0c0,4.6,4,8.4,8.9,8.4h0c2.1,0,4.2-0.7,5.8-2l0.4,0.4v1l6.8,6.5l2-1.9L1704.6-1344.3
			L1704.6-1344.3z M1696.4-1344.3c-3.4,0-6.1-2.6-6.1-5.8c0,0,0,0,0,0c0-3.2,2.8-5.8,6.1-5.8l0,0c3.4,0,6.1,2.6,6.1,5.8
			C1702.6-1346.9,1699.8-1344.3,1696.4-1344.3L1696.4-1344.3z"/>
	</g>
	<ellipse class="st8" cx="815" cy="-230.4" rx="3.7" ry="3.5"/>
	<ellipse class="st9" cx="764.4" cy="-354.4" rx="3.7" ry="3.5"/>
	<ellipse class="st10" cx="723.8" cy="-346.4" rx="2.3" ry="2.2"/>
	<path class="st6" d="M613.9-217v3.5c0,0.8,0.7,1.5,1.6,1.5h3l5.7,5.4v-17.4l-5.7,5.4h-3C614.6-218.5,613.9-217.9,613.9-217z
		 M629.4-215.3c0-1.9-1.2-3.6-2.9-4.4v8.7C628.2-211.7,629.4-213.3,629.4-215.3z M626.6-224.8v2.2c3.3,0.9,5.7,3.8,5.7,7.3
		c0,3.4-2.4,6.3-5.7,7.3v2.2c4.6-1,8-4.9,8-9.5C634.6-219.9,631.1-223.8,626.6-224.8z"/>
	<ellipse class="st4" cx="903.3" cy="-262.5" rx="4.6" ry="4.4"/>
	<ellipse class="st11" cx="465.7" cy="-318.3" rx="4.6" ry="4.4"/>
	<linearGradient id="XMLID_86_" gradientUnits="userSpaceOnUse" x1="979.4903" y1="-151.4633" x2="995.8745" y2="-99.2431">
		<stop  offset="0" style="stop-color:#6C8EC0"/>
		<stop  offset="0.2105" style="stop-color:#7D9AC7"/>
		<stop  offset="0.6392" style="stop-color:#AABCDA"/>
		<stop  offset="1" style="stop-color:#D8E1EF"/>
	</linearGradient>
	<path id="XMLID_14_" class="st32" d="M925.4-102.2c0-0.3,0-0.5,0-0.8c0-7.9,6.5-14.4,14.4-14.4c2.3,0,4.4,0.5,6.3,1.5
		c1.1-7.5,7.5-13.3,15.4-13.3c2.3,0,4.4,0.5,6.4,1.4c5.1-7.2,13.4-11.8,22.8-11.8c14.1,0,25.7,10.4,27.6,23.8c3.3-4.3,8.4-7,14.2-7
		c7.9,0,14.6,5.1,16.9,12.2c1.4-0.8,3.1-1.2,4.8-1.2c5.4,0,9.8,4.3,9.9,9.7H925.4z"/>
	<linearGradient id="XMLID_87_" gradientUnits="userSpaceOnUse" x1="1023.6066" y1="-283.101" x2="1039.9908" y2="-230.8808">
		<stop  offset="0" style="stop-color:#6C8EC0"/>
		<stop  offset="0.2105" style="stop-color:#7D9AC7"/>
		<stop  offset="0.6392" style="stop-color:#AABCDA"/>
		<stop  offset="1" style="stop-color:#D8E1EF"/>
	</linearGradient>
	<path id="XMLID_13_" class="st33" d="M969.5-233.8c0-0.3,0-0.5,0-0.8c0-7.9,6.5-14.4,14.4-14.4c2.3,0,4.4,0.5,6.3,1.5
		c1.1-7.5,7.5-13.3,15.4-13.3c2.3,0,4.4,0.5,6.4,1.4c5.1-7.2,13.4-11.8,22.8-11.8c14.1,0,25.7,10.4,27.6,23.8c3.3-4.3,8.4-7,14.2-7
		c7.9,0,14.6,5.1,16.9,12.2c1.4-0.8,3.1-1.2,4.8-1.2c5.4,0,9.8,4.3,9.9,9.7H969.5z"/>
</g>
<g>
	<ellipse class="st0" cx="-526.3" cy="-201.4" rx="1.9" ry="1.8"/>
	
		<linearGradient id="XMLID_88_" gradientUnits="userSpaceOnUse" x1="-12137.2383" y1="-164.703" x2="-12120.2861" y2="-110.6729" gradientTransform="matrix(-1 0 0 1 -12652.0986 0)">
		<stop  offset="0" style="stop-color:#6C8EC0"/>
		<stop  offset="0.2105" style="stop-color:#7D9AC7"/>
		<stop  offset="0.6392" style="stop-color:#AABCDA"/>
		<stop  offset="1" style="stop-color:#D8E1EF"/>
	</linearGradient>
	<path id="XMLID_30_" class="st34" d="M-457.7-114c0-0.3,0-0.5,0-0.8c0-8.1-6.8-14.7-15.1-14.7c-2.4,0-4.7,0.6-6.7,1.5
		c-1.1-7.7-7.9-13.7-16.1-13.7c-2.4,0-4.7,0.5-6.7,1.4c-5.3-7.3-14.1-12.1-24-12.1c-14.8,0-27,10.6-29,24.4
		c-3.4-4.4-8.8-7.2-14.9-7.2c-8.3,0-15.3,5.3-17.8,12.5c-1.5-0.8-3.2-1.3-5.1-1.3c-5.7,0-10.3,4.4-10.4,9.9H-457.7z"/>
	<linearGradient id="XMLID_89_" gradientUnits="userSpaceOnUse" x1="-390.4156" y1="-243.1585" x2="-327.7148" y2="-231.5404">
		<stop  offset="0" style="stop-color:#6C8EC0"/>
		<stop  offset="0.2105" style="stop-color:#7D9AC7"/>
		<stop  offset="0.6392" style="stop-color:#AABCDA"/>
		<stop  offset="1" style="stop-color:#D8E1EF"/>
	</linearGradient>
	<path id="XMLID_29_" class="st35" d="M-416.9-230.4c0-0.2,0-0.4,0-0.6c0-5.6,4.6-10.1,10.4-10.1c1.6,0,3.2,0.4,4.6,1
		c0.8-5.3,5.4-9.3,11-9.3c1.6,0,3.2,0.4,4.6,1c3.6-5,9.6-8.3,16.4-8.3c10.1,0,18.4,7.2,19.8,16.7c2.3-3,6-4.9,10.2-4.9
		c5.7,0,10.5,3.6,12.1,8.6c1-0.6,2.2-0.9,3.5-0.9c3.9,0,7,3,7.1,6.8H-416.9z"/>
	<linearGradient id="XMLID_90_" gradientUnits="userSpaceOnUse" x1="-6.8297" y1="-316.7292" x2="55.8711" y2="-305.1111">
		<stop  offset="0" style="stop-color:#6C8EC0"/>
		<stop  offset="0.2105" style="stop-color:#7D9AC7"/>
		<stop  offset="0.6392" style="stop-color:#AABCDA"/>
		<stop  offset="1" style="stop-color:#D8E1EF"/>
	</linearGradient>
	<path id="XMLID_28_" class="st36" d="M-33.3-304c0-0.2,0-0.4,0-0.6c0-5.6,4.6-10.1,10.4-10.1c1.6,0,3.2,0.4,4.6,1
		c0.8-5.3,5.4-9.3,11-9.3c1.6,0,3.2,0.4,4.6,1c3.6-5,9.6-8.3,16.4-8.3c10.1,0,18.4,7.2,19.8,16.7c2.3-3,6-4.9,10.2-4.9
		c5.7,0,10.5,3.6,12.1,8.6c1-0.6,2.2-0.9,3.5-0.9c3.9,0,7,3,7.1,6.8H-33.3z"/>
	<ellipse class="st4" cx="-557.7" cy="-225.7" rx="4.9" ry="4.5"/>
	<linearGradient id="XMLID_91_" gradientUnits="userSpaceOnUse" x1="-589.361" y1="-375.8138" x2="-572.422" y2="-321.8252">
		<stop  offset="0" style="stop-color:#6C8EC0"/>
		<stop  offset="0.2105" style="stop-color:#7D9AC7"/>
		<stop  offset="0.6392" style="stop-color:#AABCDA"/>
		<stop  offset="1" style="stop-color:#D8E1EF"/>
	</linearGradient>
	<path id="XMLID_27_" class="st37" d="M-646.5-325.1c0-0.3,0-0.5,0-0.8c0-8.1,6.8-14.7,15.1-14.7c2.4,0,4.6,0.6,6.7,1.5
		c1.1-7.7,7.9-13.6,16.1-13.6c2.4,0,4.7,0.5,6.7,1.4c5.3-7.3,14.1-12.1,24-12.1c14.7,0,26.9,10.6,29,24.4c3.4-4.4,8.8-7.2,14.9-7.2
		c8.3,0,15.3,5.2,17.7,12.5c1.5-0.8,3.2-1.3,5-1.3c5.7,0,10.3,4.4,10.4,9.9H-646.5z"/>
	<path class="st6" d="M-223.1-257.9h-12.1c-1.3,0-2.4,1-2.4,2.2l0,17.9l8.5-3.3l8.5,3.3v-17.9C-220.7-256.9-221.7-257.9-223.1-257.9
		z"/>
	<g id="ic_search_white_5_" transform="translate(-932 1129)">
		<path id="path_5_" class="st7" d="M463-1380.2h-34.4v-31.7H463V-1380.2z"/>
		<path id="path-2_5_" class="st6" d="M450.8-1393.5h-1.1l-0.4-0.4c1.5-1.6,2.2-3.5,2.2-5.6c0-4.8-4.2-8.6-9.3-8.6c0,0,0,0,0,0
			c-5.1,0-9.3,3.8-9.3,8.6c0,0,0,0,0,0c0,4.8,4.2,8.6,9.3,8.6h0c2.2,0,4.4-0.7,6.1-2.1l0.4,0.4v1l7.2,6.6l2.1-2L450.8-1393.5
			L450.8-1393.5z M442.2-1393.5c-3.6,0-6.4-2.7-6.5-6c0,0,0,0,0,0c0-3.3,2.9-6,6.5-6l0,0c3.6,0,6.4,2.7,6.5,6
			C448.7-1396.1,445.8-1393.5,442.2-1393.5L442.2-1393.5z"/>
	</g>
	<ellipse class="st8" cx="-436.7" cy="-280" rx="3.9" ry="3.6"/>
	<ellipse class="st9" cx="-447.8" cy="-181.7" rx="3.9" ry="3.6"/>
	<ellipse class="st10" cx="-337.7" cy="-267.4" rx="2.4" ry="2.2"/>
	<path class="st6" d="M-471-350.6v3.6c0,0.8,0.7,1.5,1.6,1.5h3.2l6,5.6v-17.8l-6,5.6h-3.2C-470.3-352.1-471-351.5-471-350.6z
		 M-454.8-348.8c0-2-1.2-3.7-3-4.5v8.9C-456-345.2-454.8-346.8-454.8-348.8z M-457.8-358.5v2.3c3.5,1,6,3.9,6,7.5
		c0,3.5-2.5,6.5-6,7.5v2.3c4.8-1,8.4-5,8.4-9.7C-449.4-353.6-452.9-357.5-457.8-358.5z"/>
	<ellipse class="st4" cx="-120.8" cy="-384.9" rx="4.9" ry="4.5"/>
	<ellipse class="st11" cx="-543.4" cy="-379.8" rx="4.9" ry="4.5"/>
	<linearGradient id="XMLID_92_" gradientUnits="userSpaceOnUse" x1="-359.7665" y1="-416.024" x2="-342.8274" y2="-362.0354">
		<stop  offset="0" style="stop-color:#6C8EC0"/>
		<stop  offset="0.2105" style="stop-color:#7D9AC7"/>
		<stop  offset="0.6392" style="stop-color:#AABCDA"/>
		<stop  offset="1" style="stop-color:#D8E1EF"/>
	</linearGradient>
	<path id="XMLID_26_" class="st38" d="M-416.9-365.3c0-0.3,0-0.5,0-0.8c0-8.1,6.8-14.7,15.1-14.7c2.4,0,4.6,0.6,6.7,1.5
		c1.1-7.7,7.9-13.6,16.1-13.6c2.4,0,4.7,0.5,6.7,1.4c5.3-7.3,14.1-12.1,24-12.1c14.7,0,26.9,10.6,29,24.4c3.4-4.4,8.8-7.2,14.9-7.2
		c8.3,0,15.3,5.2,17.7,12.5c1.5-0.8,3.2-1.3,5-1.3c5.7,0,10.3,4.4,10.4,9.9H-416.9z"/>
	<linearGradient id="XMLID_93_" gradientUnits="userSpaceOnUse" x1="-217.542" y1="-334.0905" x2="-200.603" y2="-280.102">
		<stop  offset="0" style="stop-color:#6C8EC0"/>
		<stop  offset="0.2105" style="stop-color:#7D9AC7"/>
		<stop  offset="0.6392" style="stop-color:#AABCDA"/>
		<stop  offset="1" style="stop-color:#D8E1EF"/>
	</linearGradient>
	<path id="XMLID_25_" class="st39" d="M-274.7-283.4c0-0.3,0-0.5,0-0.8c0-8.1,6.8-14.7,15.1-14.7c2.4,0,4.6,0.6,6.7,1.5
		c1.1-7.7,7.9-13.6,16.1-13.6c2.4,0,4.7,0.5,6.7,1.4c5.3-7.3,14.1-12.1,24-12.1c14.7,0,26.9,10.6,29,24.4c3.4-4.4,8.8-7.2,14.9-7.2
		c8.3,0,15.3,5.2,17.7,12.5c1.5-0.8,3.2-1.3,5-1.3c5.7,0,10.3,4.4,10.4,9.9H-274.7z"/>
</g>
<g>
	<circle class="st0" cx="-1614" cy="-928.9" r="1.1"/>
	
		<linearGradient id="XMLID_94_" gradientUnits="userSpaceOnUse" x1="-11045.3213" y1="-905.6249" x2="-11035.0889" y2="-873.0104" gradientTransform="matrix(-1 0 0 1 -12652.0986 0)">
		<stop  offset="0" style="stop-color:#6C8EC0"/>
		<stop  offset="0.2105" style="stop-color:#7D9AC7"/>
		<stop  offset="0.6392" style="stop-color:#AABCDA"/>
		<stop  offset="1" style="stop-color:#D8E1EF"/>
	</linearGradient>
	<path id="XMLID_42_" class="st40" d="M-1574.5-874.4c0-0.2,0-0.3,0-0.5c0-5.1-3.9-9.2-8.7-9.2c-1.4,0-2.7,0.3-3.8,0.9
		c-0.6-4.8-4.6-8.5-9.3-8.5c-1.4,0-2.7,0.3-3.9,0.9c-3.1-4.6-8.1-7.6-13.8-7.6c-8.5,0-15.5,6.6-16.7,15.2c-2-2.7-5.1-4.5-8.6-4.5
		c-4.8,0-8.8,3.3-10.2,7.8c-0.9-0.5-1.9-0.8-2.9-0.8c-3.3,0-5.9,2.8-6,6.2H-1574.5z"/>
	<linearGradient id="XMLID_95_" gradientUnits="userSpaceOnUse" x1="-1535.65" y1="-955.0115" x2="-1499.5416" y2="-948.3209">
		<stop  offset="0" style="stop-color:#6C8EC0"/>
		<stop  offset="0.2105" style="stop-color:#7D9AC7"/>
		<stop  offset="0.6392" style="stop-color:#AABCDA"/>
		<stop  offset="1" style="stop-color:#D8E1EF"/>
	</linearGradient>
	<path id="XMLID_41_" class="st41" d="M-1551-947.1c0-0.1,0-0.2,0-0.3c0-3.5,2.7-6.3,6-6.3c0.9,0,1.8,0.2,2.6,0.6
		c0.4-3.3,3.1-5.8,6.4-5.8c0.9,0,1.8,0.2,2.6,0.6c2.1-3.1,5.5-5.2,9.4-5.2c5.8,0,10.6,4.5,11.4,10.4c1.3-1.9,3.5-3.1,5.9-3.1
		c3.3,0,6,2.2,7,5.3c0.6-0.3,1.3-0.5,2-0.5c2.2,0,4.1,1.9,4.1,4.2H-1551z"/>
	<linearGradient id="XMLID_96_" gradientUnits="userSpaceOnUse" x1="-1314.8322" y1="-1000.9146" x2="-1278.7238" y2="-994.2239">
		<stop  offset="0" style="stop-color:#6C8EC0"/>
		<stop  offset="0.2105" style="stop-color:#7D9AC7"/>
		<stop  offset="0.6392" style="stop-color:#AABCDA"/>
		<stop  offset="1" style="stop-color:#D8E1EF"/>
	</linearGradient>
	<path id="XMLID_40_" class="st42" d="M-1330.2-993c0-0.1,0-0.2,0-0.3c0-3.5,2.7-6.3,6-6.3c0.9,0,1.8,0.2,2.6,0.6
		c0.4-3.3,3.1-5.8,6.4-5.8c0.9,0,1.8,0.2,2.6,0.6c2.1-3.1,5.5-5.2,9.4-5.2c5.8,0,10.6,4.5,11.4,10.4c1.3-1.9,3.5-3.1,5.9-3.1
		c3.3,0,6,2.2,7,5.3c0.6-0.3,1.3-0.5,2-0.5c2.2,0,4.1,1.9,4.1,4.2H-1330.2z"/>
	<ellipse class="st4" cx="-1632" cy="-944.1" rx="2.8" ry="2.8"/>
	<linearGradient id="XMLID_97_" gradientUnits="userSpaceOnUse" x1="-1650.8798" y1="-1037.3438" x2="-1640.6548" y2="-1004.7545">
		<stop  offset="0" style="stop-color:#6C8EC0"/>
		<stop  offset="0.2105" style="stop-color:#7D9AC7"/>
		<stop  offset="0.6392" style="stop-color:#AABCDA"/>
		<stop  offset="1" style="stop-color:#D8E1EF"/>
	</linearGradient>
	<path id="XMLID_39_" class="st43" d="M-1683.1-1006.2c0-0.2,0-0.3,0-0.5c0-5.1,3.9-9.2,8.7-9.2c1.4,0,2.7,0.3,3.8,0.9
		c0.6-4.8,4.5-8.5,9.3-8.5c1.4,0,2.7,0.3,3.9,0.9c3.1-4.6,8.1-7.6,13.8-7.6c8.5,0,15.5,6.6,16.7,15.2c2-2.7,5.1-4.5,8.6-4.5
		c4.8,0,8.8,3.3,10.2,7.8c0.9-0.5,1.9-0.8,2.9-0.8c3.3,0,5.9,2.8,6,6.2H-1683.1z"/>
	<path class="st6" d="M-1439.4-964.2h-7c-0.8,0-1.4,0.6-1.4,1.4l0,11.1l4.9-2.1l4.9,2.1v-11.1
		C-1438-963.6-1438.6-964.2-1439.4-964.2z"/>
	<g id="ic_search_white_7_" transform="translate(-932 1129)">
		<path id="path_7_" class="st7" d="M-649-2089.1h-19.8v-19.8h19.8V-2089.1z"/>
		<path id="path-2_7_" class="st6" d="M-656-2097.3h-0.7l-0.2-0.2c0.8-1,1.3-2.2,1.3-3.5c0-3-2.4-5.4-5.4-5.4c0,0,0,0,0,0
			c-3,0-5.4,2.4-5.4,5.4c0,0,0,0,0,0c0,3,2.4,5.4,5.4,5.4h0c1.3,0,2.5-0.5,3.5-1.3l0.2,0.2v0.7l4.1,4.1l1.2-1.2L-656-2097.3
			L-656-2097.3z M-660.9-2097.3c-2.1,0-3.7-1.7-3.7-3.7c0,0,0,0,0,0c0-2.1,1.7-3.7,3.7-3.7l0,0c2.1,0,3.7,1.7,3.7,3.7
			C-657.2-2099-658.9-2097.3-660.9-2097.3L-660.9-2097.3z"/>
	</g>
	<circle class="st8" cx="-1562.4" cy="-978" r="2.2"/>
	<circle class="st9" cx="-1568.8" cy="-916.7" r="2.2"/>
	<circle class="st10" cx="-1505.4" cy="-970.2" r="1.4"/>
	<path class="st6" d="M-1582.1-1022.1v2.3c0,0.5,0.4,0.9,0.9,0.9h1.8l3.5,3.5v-11.1l-3.5,3.5h-1.8
		C-1581.7-1023-1582.1-1022.6-1582.1-1022.1z M-1572.8-1020.9c0-1.2-0.7-2.3-1.7-2.8v5.6
		C-1573.5-1018.7-1572.8-1019.7-1572.8-1020.9z M-1574.5-1027v1.4c2,0.6,3.5,2.5,3.5,4.6c0,2.2-1.5,4.1-3.5,4.6v1.4
		c2.8-0.6,4.8-3.1,4.8-6.1C-1569.7-1023.9-1571.7-1026.4-1574.5-1027z"/>
	<ellipse class="st4" cx="-1380.5" cy="-1043.5" rx="2.8" ry="2.8"/>
	<ellipse class="st11" cx="-1623.8" cy="-1040.3" rx="2.8" ry="2.8"/>
	<linearGradient id="XMLID_98_" gradientUnits="userSpaceOnUse" x1="-1518.7097" y1="-1062.4321" x2="-1508.4846" y2="-1029.8428">
		<stop  offset="0" style="stop-color:#6C8EC0"/>
		<stop  offset="0.2105" style="stop-color:#7D9AC7"/>
		<stop  offset="0.6392" style="stop-color:#AABCDA"/>
		<stop  offset="1" style="stop-color:#D8E1EF"/>
	</linearGradient>
	<path id="XMLID_38_" class="st44" d="M-1551-1031.3c0-0.2,0-0.3,0-0.5c0-5.1,3.9-9.2,8.7-9.2c1.4,0,2.7,0.3,3.8,0.9
		c0.6-4.8,4.5-8.5,9.3-8.5c1.4,0,2.7,0.3,3.9,0.9c3.1-4.6,8.1-7.6,13.8-7.6c8.5,0,15.5,6.6,16.7,15.2c2-2.7,5.1-4.5,8.6-4.5
		c4.8,0,8.8,3.3,10.2,7.8c0.9-0.5,1.9-0.8,2.9-0.8c3.3,0,5.9,2.8,6,6.2H-1551z"/>
	<linearGradient id="XMLID_99_" gradientUnits="userSpaceOnUse" x1="-1436.8357" y1="-1011.3113" x2="-1426.6107" y2="-978.722">
		<stop  offset="0" style="stop-color:#6C8EC0"/>
		<stop  offset="0.2105" style="stop-color:#7D9AC7"/>
		<stop  offset="0.6392" style="stop-color:#AABCDA"/>
		<stop  offset="1" style="stop-color:#D8E1EF"/>
	</linearGradient>
	<path id="XMLID_37_" class="st45" d="M-1469.1-980.1c0-0.2,0-0.3,0-0.5c0-5.1,3.9-9.2,8.7-9.2c1.4,0,2.7,0.3,3.8,0.9
		c0.6-4.8,4.5-8.5,9.3-8.5c1.4,0,2.7,0.3,3.9,0.9c3.1-4.6,8.1-7.6,13.8-7.6c8.5,0,15.5,6.6,16.7,15.2c2-2.7,5.1-4.5,8.6-4.5
		c4.8,0,8.8,3.3,10.2,7.8c0.9-0.5,1.9-0.8,2.9-0.8c3.3,0,5.9,2.8,6,6.2H-1469.1z"/>
</g>
<g>
	<circle class="st0" cx="474.4" cy="-452.6" r="1.1"/>
	
		<linearGradient id="XMLID_100_" gradientUnits="userSpaceOnUse" x1="-13122.002" y1="-450.9176" x2="-13111.7686" y2="-418.3032" gradientTransform="matrix(-1 0 0 1 -12652.0986 0)">
		<stop  offset="0" style="stop-color:#6C8EC0"/>
		<stop  offset="0.2105" style="stop-color:#7D9AC7"/>
		<stop  offset="0.6392" style="stop-color:#AABCDA"/>
		<stop  offset="1" style="stop-color:#D8E1EF"/>
	</linearGradient>
	<path id="XMLID_36_" class="st46" d="M502.2-419.7c0-0.2,0-0.3,0-0.5c0-5.1-3.9-9.2-8.7-9.2c-1.4,0-2.7,0.3-3.8,0.9
		c-0.6-4.8-4.6-8.5-9.3-8.5c-1.4,0-2.7,0.3-3.9,0.9c-3.1-4.6-8.1-7.6-13.8-7.6c-8.5,0-15.5,6.6-16.7,15.2c-2-2.7-5.1-4.5-8.6-4.5
		c-4.8,0-8.8,3.3-10.2,7.8c-0.9-0.5-1.9-0.8-2.9-0.8c-3.3,0-5.9,2.8-6,6.2H502.2z"/>
	<linearGradient id="XMLID_101_" gradientUnits="userSpaceOnUse" x1="552.7623" y1="-478.6304" x2="588.8707" y2="-471.9398">
		<stop  offset="0" style="stop-color:#6C8EC0"/>
		<stop  offset="0.2105" style="stop-color:#7D9AC7"/>
		<stop  offset="0.6392" style="stop-color:#AABCDA"/>
		<stop  offset="1" style="stop-color:#D8E1EF"/>
	</linearGradient>
	<path id="XMLID_35_" class="st47" d="M537.4-470.7c0-0.1,0-0.2,0-0.3c0-3.5,2.7-6.3,6-6.3c0.9,0,1.8,0.2,2.6,0.6
		c0.4-3.3,3.1-5.8,6.4-5.8c0.9,0,1.8,0.2,2.6,0.6c2.1-3.1,5.5-5.2,9.4-5.2c5.8,0,10.6,4.5,11.4,10.4c1.3-1.9,3.5-3.1,5.9-3.1
		c3.3,0,6,2.2,7,5.3c0.6-0.3,1.3-0.5,2-0.5c2.2,0,4.1,1.9,4.1,4.2H537.4z"/>
	<linearGradient id="XMLID_102_" gradientUnits="userSpaceOnUse" x1="678.92" y1="-548.1041" x2="715.0284" y2="-541.4134">
		<stop  offset="0" style="stop-color:#6C8EC0"/>
		<stop  offset="0.2105" style="stop-color:#7D9AC7"/>
		<stop  offset="0.6392" style="stop-color:#AABCDA"/>
		<stop  offset="1" style="stop-color:#D8E1EF"/>
	</linearGradient>
	<path id="XMLID_34_" class="st48" d="M663.6-540.2c0-0.1,0-0.2,0-0.3c0-3.5,2.7-6.3,6-6.3c0.9,0,1.8,0.2,2.6,0.6
		c0.4-3.3,3.1-5.8,6.4-5.8c0.9,0,1.8,0.2,2.6,0.6c2.1-3.1,5.5-5.2,9.4-5.2c5.8,0,10.6,4.5,11.4,10.4c1.3-1.9,3.5-3.1,5.9-3.1
		c3.3,0,6,2.2,7,5.3c0.6-0.3,1.3-0.5,2-0.5c2.2,0,4.1,1.9,4.1,4.2H663.6z"/>
	<ellipse class="st4" cx="440" cy="-453.4" rx="2.8" ry="2.8"/>
	<linearGradient id="XMLID_103_" gradientUnits="userSpaceOnUse" x1="437.5326" y1="-560.9626" x2="447.7576" y2="-528.3733">
		<stop  offset="0" style="stop-color:#6C8EC0"/>
		<stop  offset="0.2105" style="stop-color:#7D9AC7"/>
		<stop  offset="0.6392" style="stop-color:#AABCDA"/>
		<stop  offset="1" style="stop-color:#D8E1EF"/>
	</linearGradient>
	<path id="XMLID_33_" class="st49" d="M405.3-529.8c0-0.2,0-0.3,0-0.5c0-5.1,3.9-9.2,8.7-9.2c1.4,0,2.7,0.3,3.8,0.9
		c0.6-4.8,4.5-8.5,9.3-8.5c1.4,0,2.7,0.3,3.9,0.9c3.1-4.6,8.1-7.6,13.8-7.6c8.5,0,15.5,6.6,16.7,15.2c2-2.7,5.1-4.5,8.6-4.5
		c4.8,0,8.8,3.3,10.2,7.8c0.9-0.5,1.9-0.8,2.9-0.8c3.3,0,5.9,2.8,6,6.2H405.3z"/>
	<g id="ic_search_white_6_" transform="translate(-932 1129)">
		<path id="path_6_" class="st7" d="M1439.4-1612.7h-19.8v-19.8h19.8V-1612.7z"/>
		<path id="path-2_6_" class="st6" d="M1432.4-1620.9h-0.7l-0.2-0.2c0.8-1,1.3-2.2,1.3-3.5c0-3-2.4-5.4-5.4-5.4c0,0,0,0,0,0
			c-3,0-5.4,2.4-5.4,5.4c0,0,0,0,0,0c0,3,2.4,5.4,5.4,5.4h0c1.3,0,2.5-0.5,3.5-1.3l0.2,0.2v0.7l4.1,4.1l1.2-1.2L1432.4-1620.9
			L1432.4-1620.9z M1427.5-1620.9c-2.1,0-3.7-1.7-3.7-3.7c0,0,0,0,0,0c0-2.1,1.7-3.7,3.7-3.7l0,0c2.1,0,3.7,1.7,3.7,3.7
			C1431.2-1622.6,1429.5-1620.9,1427.5-1620.9L1427.5-1620.9z"/>
	</g>
	<circle class="st8" cx="526" cy="-501.6" r="2.2"/>
	<circle class="st9" cx="495.5" cy="-580.8" r="2.2"/>
	<circle class="st10" cx="471" cy="-575.7" r="1.4"/>
	<path class="st6" d="M404.6-493.1v2.3c0,0.5,0.4,0.9,0.9,0.9h1.8l3.5,3.5v-11.1l-3.5,3.5h-1.8C405-494,404.6-493.6,404.6-493.1z
		 M413.9-491.9c0-1.2-0.7-2.3-1.7-2.8v5.6C413.2-489.6,413.9-490.7,413.9-491.9z M412.2-498v1.4c2,0.6,3.5,2.5,3.5,4.6
		s-1.5,4.1-3.5,4.6v1.4c2.8-0.6,4.8-3.1,4.8-6.1C417.1-494.9,415-497.4,412.2-498z"/>
	<ellipse class="st4" cx="579.3" cy="-522.1" rx="2.8" ry="2.8"/>
	<ellipse class="st11" cx="315" cy="-557.7" rx="2.8" ry="2.8"/>
	<linearGradient id="XMLID_104_" gradientUnits="userSpaceOnUse" x1="624.9348" y1="-450.9028" x2="635.1597" y2="-418.3135">
		<stop  offset="0" style="stop-color:#6C8EC0"/>
		<stop  offset="0.2105" style="stop-color:#7D9AC7"/>
		<stop  offset="0.6392" style="stop-color:#AABCDA"/>
		<stop  offset="1" style="stop-color:#D8E1EF"/>
	</linearGradient>
	<path id="XMLID_32_" class="st50" d="M592.7-419.7c0-0.2,0-0.3,0-0.5c0-5.1,3.9-9.2,8.7-9.2c1.4,0,2.7,0.3,3.8,0.9
		c0.6-4.8,4.5-8.5,9.3-8.5c1.4,0,2.7,0.3,3.9,0.9c3.1-4.6,8.1-7.6,13.8-7.6c8.5,0,15.5,6.6,16.7,15.2c2-2.7,5.1-4.5,8.6-4.5
		c4.8,0,8.8,3.3,10.2,7.8c0.9-0.5,1.9-0.8,2.9-0.8c3.3,0,5.9,2.8,6,6.2H592.7z"/>
	<linearGradient id="XMLID_105_" gradientUnits="userSpaceOnUse" x1="651.5767" y1="-534.9302" x2="661.8017" y2="-502.3409">
		<stop  offset="0" style="stop-color:#6C8EC0"/>
		<stop  offset="0.2105" style="stop-color:#7D9AC7"/>
		<stop  offset="0.6392" style="stop-color:#AABCDA"/>
		<stop  offset="1" style="stop-color:#D8E1EF"/>
	</linearGradient>
	<path id="XMLID_31_" class="st51" d="M619.3-503.8c0-0.2,0-0.3,0-0.5c0-5.1,3.9-9.2,8.7-9.2c1.4,0,2.7,0.3,3.8,0.9
		c0.6-4.8,4.5-8.5,9.3-8.5c1.4,0,2.7,0.3,3.9,0.9c3.1-4.6,8.1-7.6,13.8-7.6c8.5,0,15.5,6.6,16.7,15.2c2-2.7,5.1-4.5,8.6-4.5
		c4.8,0,8.8,3.3,10.2,7.8c0.9-0.5,1.9-0.8,2.9-0.8c3.3,0,5.9,2.8,6,6.2H619.3z"/>
</g>
<g>
	<ellipse class="st0" cx="180" cy="624.9" rx="2" ry="1.9"/>
	
		<linearGradient id="XMLID_106_" gradientUnits="userSpaceOnUse" x1="-12823.54" y1="627.2712" x2="-12805.9307" y2="683.3972" gradientTransform="matrix(-1 0 0 1 -12652.0986 0)">
		<stop  offset="0" style="stop-color:#6C8EC0"/>
		<stop  offset="0.2105" style="stop-color:#7D9AC7"/>
		<stop  offset="0.6392" style="stop-color:#AABCDA"/>
		<stop  offset="1" style="stop-color:#D8E1EF"/>
	</linearGradient>
	<path id="XMLID_6_" class="st52" d="M228.9,680.5c0-0.3,0-0.6,0-0.9c0-8.6-6.9-15.5-15.4-15.5c-2.4,0-4.7,0.6-6.8,1.6
		c-1.1-8.1-8-14.4-16.4-14.4c-2.4,0-4.7,0.5-6.8,1.5c-5.4-7.7-14.3-12.8-24.3-12.8c-15,0-27.4,11.2-29.4,25.8
		c-3.5-4.6-8.9-7.6-15.1-7.6c-8.4,0-15.6,5.5-18,13.2c-1.5-0.9-3.3-1.3-5.1-1.3c-5.8,0-10.5,4.7-10.6,10.5H228.9z"/>
	<linearGradient id="XMLID_107_" gradientUnits="userSpaceOnUse" x1="318.0308" y1="580.7347" x2="381.6938" y2="592.5311">
		<stop  offset="0" style="stop-color:#6C8EC0"/>
		<stop  offset="0.2105" style="stop-color:#7D9AC7"/>
		<stop  offset="0.6392" style="stop-color:#AABCDA"/>
		<stop  offset="1" style="stop-color:#D8E1EF"/>
	</linearGradient>
	<path id="XMLID_5_" class="st53" d="M291.1,594.2c0-0.2,0-0.4,0-0.6c0-5.9,4.7-10.6,10.5-10.6c1.7,0,3.2,0.4,4.6,1.1
		c0.8-5.6,5.5-9.9,11.2-9.9c1.7,0,3.2,0.4,4.7,1c3.7-5.3,9.8-8.7,16.6-8.7c10.2,0,18.7,7.7,20.1,17.6c2.4-3.1,6.1-5.2,10.3-5.2
		c5.8,0,10.6,3.8,12.3,9c1-0.6,2.2-0.9,3.5-0.9c3.9,0,7.1,3.2,7.2,7.1H291.1z"/>
	<linearGradient id="XMLID_108_" gradientUnits="userSpaceOnUse" x1="540.5046" y1="463.1517" x2="604.1675" y2="474.9481">
		<stop  offset="0" style="stop-color:#6C8EC0"/>
		<stop  offset="0.2105" style="stop-color:#7D9AC7"/>
		<stop  offset="0.6392" style="stop-color:#AABCDA"/>
		<stop  offset="1" style="stop-color:#D8E1EF"/>
	</linearGradient>
	<path id="XMLID_4_" class="st54" d="M513.5,476.6c0-0.2,0-0.4,0-0.6c0-5.9,4.7-10.6,10.5-10.6c1.7,0,3.2,0.4,4.6,1.1
		c0.8-5.6,5.5-9.9,11.2-9.9c1.7,0,3.2,0.4,4.7,1c3.7-5.3,9.8-8.7,16.6-8.7c10.2,0,18.7,7.7,20.1,17.6c2.4-3.1,6.1-5.2,10.3-5.2
		c5.8,0,10.6,3.8,12.3,9c1-0.6,2.2-0.9,3.5-0.9c3.9,0,7.1,3.2,7.2,7.1H513.5z"/>
	<ellipse class="st4" cx="119.3" cy="623.5" rx="4.9" ry="4.8"/>
	<linearGradient id="XMLID_109_" gradientUnits="userSpaceOnUse" x1="115.4735" y1="441.0222" x2="133.0697" y2="497.105">
		<stop  offset="0" style="stop-color:#6C8EC0"/>
		<stop  offset="0.2105" style="stop-color:#7D9AC7"/>
		<stop  offset="0.6392" style="stop-color:#AABCDA"/>
		<stop  offset="1" style="stop-color:#D8E1EF"/>
	</linearGradient>
	<path id="XMLID_3_" class="st55" d="M58,494.2c0-0.3,0-0.6,0-0.9c0-8.6,6.9-15.5,15.4-15.5c2.4,0,4.7,0.6,6.8,1.6
		c1.1-8.1,8-14.4,16.4-14.4c2.4,0,4.7,0.5,6.8,1.5c5.4-7.7,14.3-12.8,24.3-12.8c15,0,27.4,11.2,29.4,25.7c3.5-4.6,8.9-7.6,15.1-7.6
		c8.4,0,15.5,5.5,18,13.2c1.5-0.9,3.3-1.3,5.1-1.3c5.8,0,10.4,4.7,10.6,10.4H58z"/>
	<g id="ic_search_white_1_" transform="translate(-932 1129)">
		<path id="path_1_" class="st7" d="M1170.2-556.8h-34.9v-33.5h34.9V-556.8z"/>
		<path id="path-2_1_" class="st6" d="M1157.8-570.8h-1.2l-0.4-0.4c1.5-1.6,2.3-3.7,2.3-5.9c0-5-4.2-9.1-9.5-9.1c0,0,0,0,0,0
			c-5.2,0-9.5,4.1-9.5,9.1c0,0,0,0,0,0c0,5,4.2,9.1,9.5,9.1h0c2.3,0,4.4-0.8,6.1-2.2l0.4,0.4v1.1l7.3,7l2.2-2.1L1157.8-570.8
			L1157.8-570.8z M1149.1-570.8c-3.6,0-6.5-2.8-6.5-6.3c0,0,0,0,0,0c0-3.5,2.9-6.3,6.5-6.3l0,0c3.6,0,6.5,2.8,6.5,6.3
			C1155.6-573.6,1152.7-570.8,1149.1-570.8L1149.1-570.8z"/>
	</g>
	<ellipse class="st8" cx="270.9" cy="541.8" rx="3.9" ry="3.8"/>
	<ellipse class="st9" cx="217.1" cy="407.9" rx="3.9" ry="3.8"/>
	<ellipse class="st10" cx="173.9" cy="416.5" rx="2.5" ry="2.4"/>
	<path class="st6" d="M56.8,556.3v3.8c0,0.9,0.7,1.6,1.7,1.6h3.2l6.1,5.9v-18.8l-6.1,5.9h-3.2C57.6,554.7,56.8,555.4,56.8,556.3z
		 M73.3,558.2c0-2.1-1.2-3.9-3.1-4.7v9.4C72.1,562.1,73.3,560.3,73.3,558.2z M70.3,548v2.4c3.5,1,6.1,4.2,6.1,7.9
		c0,3.7-2.6,6.9-6.1,7.9v2.4c4.9-1.1,8.5-5.3,8.5-10.3C78.8,553.2,75.2,549,70.3,548z"/>
	<ellipse class="st4" cx="365" cy="507.2" rx="4.9" ry="4.8"/>
	<ellipse class="st11" cx="-101.1" cy="447" rx="4.9" ry="4.8"/>
	<linearGradient id="XMLID_110_" gradientUnits="userSpaceOnUse" x1="445.9493" y1="627.2966" x2="463.5454" y2="683.3793">
		<stop  offset="0" style="stop-color:#6C8EC0"/>
		<stop  offset="0.2105" style="stop-color:#7D9AC7"/>
		<stop  offset="0.6392" style="stop-color:#AABCDA"/>
		<stop  offset="1" style="stop-color:#D8E1EF"/>
	</linearGradient>
	<path id="XMLID_2_" class="st56" d="M388.5,680.4c0-0.3,0-0.6,0-0.9c0-8.6,6.9-15.5,15.4-15.5c2.4,0,4.7,0.6,6.8,1.6
		c1.1-8.1,8-14.4,16.4-14.4c2.4,0,4.7,0.5,6.8,1.5c5.4-7.7,14.3-12.8,24.3-12.8c15,0,27.4,11.2,29.4,25.7c3.5-4.6,8.9-7.6,15.1-7.6
		c8.4,0,15.5,5.5,18,13.2c1.5-0.9,3.3-1.3,5.1-1.3c5.8,0,10.4,4.7,10.6,10.4H388.5z"/>
	<linearGradient id="XMLID_111_" gradientUnits="userSpaceOnUse" x1="492.9313" y1="485.0817" x2="510.5274" y2="541.1644">
		<stop  offset="0" style="stop-color:#6C8EC0"/>
		<stop  offset="0.2105" style="stop-color:#7D9AC7"/>
		<stop  offset="0.6392" style="stop-color:#AABCDA"/>
		<stop  offset="1" style="stop-color:#D8E1EF"/>
	</linearGradient>
	<path id="XMLID_1_" class="st57" d="M435.5,538.2c0-0.3,0-0.6,0-0.9c0-8.6,6.9-15.5,15.4-15.5c2.4,0,4.7,0.6,6.8,1.6
		c1.1-8.1,8-14.4,16.4-14.4c2.4,0,4.7,0.5,6.8,1.5c5.4-7.7,14.3-12.8,24.3-12.8c15,0,27.4,11.2,29.4,25.7c3.5-4.6,8.9-7.6,15.1-7.6
		c8.4,0,15.5,5.5,18,13.2c1.5-0.9,3.3-1.3,5.1-1.3c5.8,0,10.4,4.7,10.6,10.4H435.5z"/>
</g>
<g>
	<ellipse class="st0" cx="893.9" cy="536.6" rx="1.9" ry="2"/>
	
		<linearGradient id="XMLID_112_" gradientUnits="userSpaceOnUse" x1="-13538.7324" y1="539.8499" x2="-13520.7266" y2="597.2385" gradientTransform="matrix(-1 0 0 1 -12652.0986 0)">
		<stop  offset="0" style="stop-color:#6C8EC0"/>
		<stop  offset="0.2105" style="stop-color:#7D9AC7"/>
		<stop  offset="0.6392" style="stop-color:#AABCDA"/>
		<stop  offset="1" style="stop-color:#D8E1EF"/>
	</linearGradient>
	<path id="XMLID_12_" class="st58" d="M941.7,595.2c0-0.3,0-0.6,0-0.9c0-9-6.7-16.4-15-16.4c-2.4,0-4.6,0.6-6.6,1.7
		c-1.1-8.6-7.8-15.2-16-15.2c-2.4,0-4.6,0.6-6.6,1.6c-5.3-8.2-13.9-13.5-23.8-13.5c-14.6,0-26.7,11.8-28.7,27.2
		c-3.4-4.9-8.7-8-14.7-8c-8.2,0-15.2,5.8-17.6,13.9c-1.5-0.9-3.2-1.4-5-1.4c-5.6,0-10.2,4.9-10.3,11H941.7z"/>
	<linearGradient id="XMLID_113_" gradientUnits="userSpaceOnUse" x1="1028.8909" y1="490.071" x2="1091.0763" y2="501.5936">
		<stop  offset="0" style="stop-color:#6C8EC0"/>
		<stop  offset="0.2105" style="stop-color:#7D9AC7"/>
		<stop  offset="0.6392" style="stop-color:#AABCDA"/>
		<stop  offset="1" style="stop-color:#D8E1EF"/>
	</linearGradient>
	<path id="XMLID_11_" class="st59" d="M1002.4,504.2c0-0.2,0-0.4,0-0.6c0-6.2,4.6-11.2,10.3-11.2c1.6,0,3.2,0.4,4.5,1.2
		c0.7-5.9,5.4-10.4,10.9-10.4c1.6,0,3.2,0.4,4.5,1.1c3.6-5.6,9.5-9.2,16.2-9.2c10,0,18.3,8.1,19.7,18.6c2.3-3.3,6-5.5,10.1-5.5
		c5.6,0,10.4,4,12,9.5c1-0.6,2.2-1,3.4-1c3.9,0,7,3.4,7.1,7.5H1002.4z"/>
	<linearGradient id="XMLID_114_" gradientUnits="userSpaceOnUse" x1="1246.1178" y1="366.0845" x2="1308.3032" y2="377.6071">
		<stop  offset="0" style="stop-color:#6C8EC0"/>
		<stop  offset="0.2105" style="stop-color:#7D9AC7"/>
		<stop  offset="0.6392" style="stop-color:#AABCDA"/>
		<stop  offset="1" style="stop-color:#D8E1EF"/>
	</linearGradient>
	<path id="XMLID_10_" class="st60" d="M1219.6,380.2c0-0.2,0-0.4,0-0.6c0-6.2,4.6-11.2,10.3-11.2c1.6,0,3.2,0.4,4.5,1.2
		c0.7-5.9,5.4-10.4,10.9-10.4c1.6,0,3.2,0.4,4.5,1.1c3.6-5.6,9.5-9.2,16.2-9.2c10,0,18.3,8.1,19.7,18.6c2.3-3.3,6-5.5,10.1-5.5
		c5.6,0,10.4,4,12,9.5c1-0.6,2.2-1,3.4-1c3.9,0,7,3.4,7.1,7.5H1219.6z"/>
	<ellipse class="st4" cx="834.7" cy="535.1" rx="4.8" ry="5"/>
	<linearGradient id="XMLID_115_" gradientUnits="userSpaceOnUse" x1="829.9091" y1="343.4574" x2="847.9011" y2="400.8017">
		<stop  offset="0" style="stop-color:#6C8EC0"/>
		<stop  offset="0.2105" style="stop-color:#7D9AC7"/>
		<stop  offset="0.6392" style="stop-color:#AABCDA"/>
		<stop  offset="1" style="stop-color:#D8E1EF"/>
	</linearGradient>
	<path id="XMLID_9_" class="st61" d="M774.8,398.8c0-0.3,0-0.6,0-0.9c0-9,6.7-16.4,15-16.4c2.4,0,4.6,0.6,6.6,1.7
		c1.1-8.6,7.8-15.2,16-15.2c2.4,0,4.6,0.6,6.6,1.6c5.3-8.1,13.9-13.5,23.7-13.5c14.6,0,26.7,11.8,28.7,27.1c3.4-4.9,8.7-8,14.7-8
		c8.2,0,15.2,5.8,17.6,13.9c1.5-0.9,3.2-1.4,5-1.4c5.6,0,10.2,4.9,10.3,11H774.8z"/>
	<g id="ic_search_white_2_" transform="translate(-932 1129)">
		<path id="path_2_" class="st7" d="M1882.8-647.9h-34.1v-35.3h34.1V-647.9z"/>
		<path id="path-2_2_" class="st6" d="M1870.7-662.7h-1.1l-0.4-0.4c1.4-1.7,2.2-3.9,2.2-6.2c0-5.3-4.1-9.6-9.2-9.6c0,0,0,0,0,0
			c-5.1,0-9.2,4.3-9.2,9.6c0,0,0,0,0,0c0,5.3,4.1,9.6,9.2,9.6h0c2.2,0,4.3-0.8,6-2.3l0.4,0.4v1.2l7.1,7.4l2.1-2.2L1870.7-662.7
			L1870.7-662.7z M1862.2-662.7c-3.5,0-6.4-3-6.4-6.6c0,0,0,0,0,0c0-3.7,2.9-6.6,6.4-6.6l0,0c3.5,0,6.4,3,6.4,6.6
			C1868.6-665.6,1865.7-662.7,1862.2-662.7L1862.2-662.7z"/>
	</g>
	<ellipse class="st8" cx="982.8" cy="449" rx="3.8" ry="4"/>
	<ellipse class="st9" cx="930.2" cy="307.8" rx="3.8" ry="4"/>
	<ellipse class="st10" cx="888" cy="316.9" rx="2.4" ry="2.5"/>
	<path class="st6" d="M773.7,464.3v4c0,0.9,0.7,1.7,1.6,1.7h3.1l6,6.2v-19.8l-6,6.2h-3.1C774.4,462.6,773.7,463.4,773.7,464.3z
		 M789.8,466.3c0-2.2-1.2-4.1-3-5v10C788.6,470.4,789.8,468.5,789.8,466.3z M786.8,455.5v2.5c3.4,1.1,6,4.4,6,8.3s-2.5,7.2-6,8.3
		v2.5c4.8-1.1,8.3-5.6,8.3-10.8C795.2,461,791.6,456.6,786.8,455.5z"/>
	<ellipse class="st4" cx="1074.6" cy="412.5" rx="4.8" ry="5"/>
	<ellipse class="st11" cx="619.5" cy="349" rx="4.8" ry="5"/>
	<linearGradient id="XMLID_116_" gradientUnits="userSpaceOnUse" x1="1152.5909" y1="539.8761" x2="1170.5829" y2="597.2204">
		<stop  offset="0" style="stop-color:#6C8EC0"/>
		<stop  offset="0.2105" style="stop-color:#7D9AC7"/>
		<stop  offset="0.6392" style="stop-color:#AABCDA"/>
		<stop  offset="1" style="stop-color:#D8E1EF"/>
	</linearGradient>
	<path id="XMLID_8_" class="st62" d="M1097.5,595.2c0-0.3,0-0.6,0-0.9c0-9,6.7-16.4,15-16.4c2.4,0,4.6,0.6,6.6,1.7
		c1.1-8.6,7.8-15.2,16-15.2c2.4,0,4.6,0.6,6.6,1.6c5.3-8.1,13.9-13.5,23.7-13.5c14.6,0,26.7,11.8,28.7,27.1c3.4-4.9,8.7-8,14.7-8
		c8.2,0,15.2,5.8,17.6,13.9c1.5-0.9,3.2-1.4,5-1.4c5.6,0,10.2,4.9,10.3,11H1097.5z"/>
	<linearGradient id="XMLID_117_" gradientUnits="userSpaceOnUse" x1="1198.4648" y1="389.9163" x2="1216.4568" y2="447.2606">
		<stop  offset="0" style="stop-color:#6C8EC0"/>
		<stop  offset="0.2105" style="stop-color:#7D9AC7"/>
		<stop  offset="0.6392" style="stop-color:#AABCDA"/>
		<stop  offset="1" style="stop-color:#D8E1EF"/>
	</linearGradient>
	<path id="XMLID_7_" class="st63" d="M1143.4,445.2c0-0.3,0-0.6,0-0.9c0-9,6.7-16.4,15-16.4c2.4,0,4.6,0.6,6.6,1.7
		c1.1-8.6,7.8-15.2,16-15.2c2.4,0,4.6,0.6,6.6,1.6c5.3-8.1,13.9-13.5,23.7-13.5c14.6,0,26.7,11.8,28.7,27.1c3.4-4.9,8.7-8,14.7-8
		c8.2,0,15.2,5.8,17.6,13.9c1.5-0.9,3.2-1.4,5-1.4c5.6,0,10.2,4.9,10.3,11H1143.4z"/>
</g>
<g>
	<ellipse class="st0" cx="1036" cy="207.2" rx="2" ry="1.9"/>
	
		<linearGradient id="XMLID_118_" gradientUnits="userSpaceOnUse" x1="-13679.5342" y1="209.5965" x2="-13661.9248" y2="265.7225" gradientTransform="matrix(-1 0 0 1 -12652.0986 0)">
		<stop  offset="0" style="stop-color:#6C8EC0"/>
		<stop  offset="0.2105" style="stop-color:#7D9AC7"/>
		<stop  offset="0.6392" style="stop-color:#AABCDA"/>
		<stop  offset="1" style="stop-color:#D8E1EF"/>
	</linearGradient>
	<path id="XMLID_24_" class="st64" d="M1084.9,262.8c0-0.3,0-0.6,0-0.9c0-8.6-6.9-15.5-15.4-15.5c-2.4,0-4.7,0.6-6.8,1.6
		c-1.1-8.1-8-14.4-16.4-14.4c-2.4,0-4.7,0.5-6.8,1.5c-5.4-7.7-14.3-12.8-24.3-12.8c-15,0-27.4,11.2-29.4,25.8
		c-3.5-4.6-8.9-7.6-15.1-7.6c-8.4,0-15.6,5.5-18,13.2c-1.5-0.9-3.3-1.3-5.1-1.3c-5.8,0-10.5,4.7-10.6,10.5H1084.9z"/>
	<linearGradient id="XMLID_119_" gradientUnits="userSpaceOnUse" x1="1174.0249" y1="163.06" x2="1237.6879" y2="174.8563">
		<stop  offset="0" style="stop-color:#6C8EC0"/>
		<stop  offset="0.2105" style="stop-color:#7D9AC7"/>
		<stop  offset="0.6392" style="stop-color:#AABCDA"/>
		<stop  offset="1" style="stop-color:#D8E1EF"/>
	</linearGradient>
	<path id="XMLID_23_" class="st65" d="M1147.1,176.5c0-0.2,0-0.4,0-0.6c0-5.9,4.7-10.6,10.5-10.6c1.7,0,3.2,0.4,4.6,1.1
		c0.8-5.6,5.5-9.9,11.2-9.9c1.7,0,3.2,0.4,4.7,1c3.7-5.3,9.8-8.7,16.6-8.7c10.2,0,18.7,7.7,20.1,17.6c2.4-3.1,6.1-5.2,10.3-5.2
		c5.8,0,10.6,3.8,12.3,9c1-0.6,2.2-0.9,3.5-0.9c3.9,0,7.1,3.2,7.2,7.1H1147.1z"/>
	<linearGradient id="XMLID_120_" gradientUnits="userSpaceOnUse" x1="1396.4987" y1="45.477" x2="1460.1616" y2="57.2734">
		<stop  offset="0" style="stop-color:#6C8EC0"/>
		<stop  offset="0.2105" style="stop-color:#7D9AC7"/>
		<stop  offset="0.6392" style="stop-color:#AABCDA"/>
		<stop  offset="1" style="stop-color:#D8E1EF"/>
	</linearGradient>
	<path id="XMLID_22_" class="st66" d="M1369.5,58.9c0-0.2,0-0.4,0-0.6c0-5.9,4.7-10.6,10.5-10.6c1.7,0,3.2,0.4,4.6,1.1
		c0.8-5.6,5.5-9.9,11.2-9.9c1.7,0,3.2,0.4,4.7,1c3.7-5.3,9.8-8.7,16.6-8.7c10.2,0,18.7,7.7,20.1,17.6c2.4-3.1,6.1-5.2,10.3-5.2
		c5.8,0,10.6,3.8,12.3,9c1-0.6,2.2-0.9,3.5-0.9c3.9,0,7.1,3.2,7.2,7.1H1369.5z"/>
	<ellipse class="st4" cx="975.3" cy="205.8" rx="4.9" ry="4.8"/>
	<linearGradient id="XMLID_121_" gradientUnits="userSpaceOnUse" x1="971.4676" y1="23.3475" x2="989.0637" y2="79.4303">
		<stop  offset="0" style="stop-color:#6C8EC0"/>
		<stop  offset="0.2105" style="stop-color:#7D9AC7"/>
		<stop  offset="0.6392" style="stop-color:#AABCDA"/>
		<stop  offset="1" style="stop-color:#D8E1EF"/>
	</linearGradient>
	<path id="XMLID_21_" class="st67" d="M914,76.5c0-0.3,0-0.6,0-0.9c0-8.6,6.9-15.5,15.4-15.5c2.4,0,4.7,0.6,6.8,1.6
		c1.1-8.1,8-14.4,16.4-14.4c2.4,0,4.7,0.5,6.8,1.5c5.4-7.7,14.3-12.8,24.3-12.8c15,0,27.4,11.2,29.4,25.7c3.5-4.6,8.9-7.6,15.1-7.6
		c8.4,0,15.5,5.5,18,13.2c1.5-0.9,3.3-1.3,5.1-1.3c5.8,0,10.4,4.7,10.6,10.4H914z"/>
	<g id="ic_search_white_4_" transform="translate(-932 1129)">
		<path id="path_4_" class="st7" d="M2026.2-974.5h-34.9v-33.5h34.9V-974.5z"/>
		<path id="path-2_4_" class="st6" d="M2013.8-988.4h-1.2l-0.4-0.4c1.5-1.6,2.3-3.7,2.3-5.9c0-5-4.2-9.1-9.5-9.1c0,0,0,0,0,0
			c-5.2,0-9.5,4.1-9.5,9.1c0,0,0,0,0,0c0,5,4.2,9.1,9.5,9.1h0c2.3,0,4.4-0.8,6.1-2.2l0.4,0.4v1.1l7.3,7l2.2-2.1L2013.8-988.4
			L2013.8-988.4z M2005.1-988.4c-3.6,0-6.5-2.8-6.5-6.3c0,0,0,0,0,0c0-3.5,2.9-6.3,6.5-6.3l0,0c3.6,0,6.5,2.8,6.5,6.3
			C2011.6-991.3,2008.7-988.4,2005.1-988.4L2005.1-988.4z"/>
	</g>
	<ellipse class="st8" cx="1126.9" cy="124.2" rx="3.9" ry="3.8"/>
	<ellipse class="st9" cx="1073.1" cy="-9.8" rx="3.9" ry="3.8"/>
	<ellipse class="st10" cx="1029.9" cy="-1.2" rx="2.5" ry="2.4"/>
	<path class="st6" d="M912.8,138.6v3.8c0,0.9,0.7,1.6,1.7,1.6h3.2l6.1,5.9v-18.8l-6.1,5.9h-3.2C913.6,137,912.8,137.8,912.8,138.6z
		 M929.3,140.6c0-2.1-1.2-3.9-3.1-4.7v9.4C928.1,144.4,929.3,142.6,929.3,140.6z M926.3,130.3v2.4c3.5,1,6.1,4.2,6.1,7.9
		c0,3.7-2.6,6.9-6.1,7.9v2.4c4.9-1.1,8.5-5.3,8.5-10.3S931.2,131.3,926.3,130.3z"/>
	<ellipse class="st4" cx="1221" cy="89.5" rx="4.9" ry="4.8"/>
	<ellipse class="st11" cx="754.9" cy="29.3" rx="4.9" ry="4.8"/>
	<linearGradient id="XMLID_122_" gradientUnits="userSpaceOnUse" x1="1301.9434" y1="209.6218" x2="1319.5394" y2="265.7046">
		<stop  offset="0" style="stop-color:#6C8EC0"/>
		<stop  offset="0.2105" style="stop-color:#7D9AC7"/>
		<stop  offset="0.6392" style="stop-color:#AABCDA"/>
		<stop  offset="1" style="stop-color:#D8E1EF"/>
	</linearGradient>
	<path id="XMLID_20_" class="st68" d="M1244.5,262.8c0-0.3,0-0.6,0-0.9c0-8.6,6.9-15.5,15.4-15.5c2.4,0,4.7,0.6,6.8,1.6
		c1.1-8.1,8-14.4,16.4-14.4c2.4,0,4.7,0.5,6.8,1.5c5.4-7.7,14.3-12.8,24.3-12.8c15,0,27.4,11.2,29.4,25.7c3.5-4.6,8.9-7.6,15.1-7.6
		c8.4,0,15.5,5.5,18,13.2c1.5-0.9,3.3-1.3,5.1-1.3c5.8,0,10.4,4.7,10.6,10.4H1244.5z"/>
	<linearGradient id="XMLID_123_" gradientUnits="userSpaceOnUse" x1="1348.9253" y1="67.4069" x2="1366.5215" y2="123.4897">
		<stop  offset="0" style="stop-color:#6C8EC0"/>
		<stop  offset="0.2105" style="stop-color:#7D9AC7"/>
		<stop  offset="0.6392" style="stop-color:#AABCDA"/>
		<stop  offset="1" style="stop-color:#D8E1EF"/>
	</linearGradient>
	<path id="XMLID_19_" class="st69" d="M1291.5,120.5c0-0.3,0-0.6,0-0.9c0-8.6,6.9-15.5,15.4-15.5c2.4,0,4.7,0.6,6.8,1.6
		c1.1-8.1,8-14.4,16.4-14.4c2.4,0,4.7,0.5,6.8,1.5c5.4-7.7,14.3-12.8,24.3-12.8c15,0,27.4,11.2,29.4,25.7c3.5-4.6,8.9-7.6,15.1-7.6
		c8.4,0,15.5,5.5,18,13.2c1.5-0.9,3.3-1.3,5.1-1.3c5.8,0,10.4,4.7,10.6,10.4H1291.5z"/>
</g>
</svg>
