<svg xmlns="http://www.w3.org/2000/svg" xmlns:xlink="http://www.w3.org/1999/xlink" viewBox="0 0 480 480"><defs><style>.a{fill:#cce9e6;}.b{fill:#99d5cf;}.c{fill:#45baac;}.d{fill:#66c5ba;}.e{fill:#29afa0;}.f{fill:#fff;}.g{fill:url(#a);}.h{fill:#1c487d;}</style><linearGradient id="a" x1="176.99" y1="330.52" x2="247.05" y2="330.52" gradientUnits="userSpaceOnUse"><stop offset="0" stop-color="#20579c"/><stop offset="1" stop-color="#26ae9f"/></linearGradient></defs><path class="a" d="M437.23,402.49H42.73a14.61,14.61,0,0,1-14.61-14.61V92.12A14.61,14.61,0,0,1,42.73,77.51h394.5a14.62,14.62,0,0,1,14.62,14.61V387.88A14.62,14.62,0,0,1,437.23,402.49Z"/><path class="b" d="M437.21,114H42.76V92.12c0-8.07,6.09-14.61,13.6-14.61H423.61c7.51,0,13.6,6.54,13.6,14.61Z"/><rect class="c" x="378.82" y="77.51" width="36.53" height="36.53"/><rect class="d" x="342.29" y="77.51" width="36.53" height="36.53"/><path class="e" d="M451.88,114H415.35V77.51h18.26a18.26,18.26,0,0,1,18.27,18.26Z"/><path class="d" d="M28.12,114H64.65V77.51H46.39A18.26,18.26,0,0,0,28.12,95.77Z"/><path class="f" d="M397.9,219.49H272.56a7.3,7.3,0,0,1-7.3-7.3V197.58a7.3,7.3,0,0,1,7.3-7.31H397.9a7.3,7.3,0,0,1,7.3,7.31v14.61A7.3,7.3,0,0,1,397.9,219.49Z"/><path class="f" d="M397.9,266.35H272.56a7.3,7.3,0,0,1-7.3-7.31V244.43a7.3,7.3,0,0,1,7.3-7.31H397.9a7.3,7.3,0,0,1,7.3,7.31V259A7.3,7.3,0,0,1,397.9,266.35Z"/><path class="e" d="M401,300.72H369.3a4.19,4.19,0,0,1-4.19-4.19v-8.37A4.19,4.19,0,0,1,369.3,284H401a4.18,4.18,0,0,1,4.18,4.18v8.37A4.18,4.18,0,0,1,401,300.72Z"/><path class="f" d="M281.16,300.72H269.44a4.18,4.18,0,0,1-4.18-4.19v-8.37a4.18,4.18,0,0,1,4.18-4.18h11.72a4.19,4.19,0,0,1,4.19,4.18v8.37A4.19,4.19,0,0,1,281.16,300.72Z"/><path class="f" d="M212.62,284.86l-22.14-5.53a12.81,12.81,0,0,1-9.7-12.43v-9.17a25.51,25.51,0,0,0,12.81-22.07V190.83a32,32,0,0,0-32-32H148.75a32,32,0,0,0-32,32v44.83a25.51,25.51,0,0,0,12.81,22.07v9.17a12.81,12.81,0,0,1-9.7,12.43l-21,5.24-1.13.29h0l-.33.1a25.62,25.62,0,0,0-19,22.57c-.06.72-.09,1.45-.09,2.18v39.62a11.19,11.19,0,0,0,11.19,11.19H220.83A11.19,11.19,0,0,0,232,349.33V309.71h0A25.62,25.62,0,0,0,212.62,284.86Z"/><circle class="g" cx="212.02" cy="330.52" r="35.03"/><path class="h" d="M220.78,359.71a35,35,0,0,1-23.54-60.91,35,35,0,1,0,38.33,57.6A34.87,34.87,0,0,1,220.78,359.71Z"/><path class="f" d="M226.64,323.21h-7.31V315.9a7.31,7.31,0,0,0-14.62,0v7.31H197.4a7.31,7.31,0,1,0,0,14.62h7.31v7.31a7.31,7.31,0,0,0,14.62,0v-7.31h7.31a7.31,7.31,0,0,0,0-14.62Z"/></svg>