<svg xmlns="http://www.w3.org/2000/svg" xmlns:xlink="http://www.w3.org/1999/xlink" viewBox="0 0 480 480"><defs><style>.a{fill:url(#a);}.b{fill:#1c487d;}.c{fill:#faae17;}.d{fill:#f9b630;}.e{fill:#ffdb98;}.f{fill:#fcc966;}</style><linearGradient id="a" x1="178" y1="357.37" x2="281.73" y2="357.37" gradientUnits="userSpaceOnUse"><stop offset="0" stop-color="#20579c"/><stop offset="1" stop-color="#26ae9f"/></linearGradient></defs><path class="a" d="M178,276V425.75a13,13,0,0,0,18.76,11.6l33.1-16.55L263,437.35a13,13,0,0,0,18.77-11.6V276Z"/><path class="b" d="M281.73,332.06V276H178V425.75a13,13,0,0,0,18.76,11.6l33.1-16.55V366.56a26,26,0,0,1,21.87-25.44A130.54,130.54,0,0,0,281.73,332.06Z"/><circle class="c" cx="229.86" cy="213.35" r="90.76"/><path class="d" d="M229.86,262.71a49.37,49.37,0,1,1,49.37-49.36A49.42,49.42,0,0,1,229.86,262.71Z"/><path class="e" d="M229.86,166.48A46.87,46.87,0,1,1,183,213.35a46.93,46.93,0,0,1,46.86-46.87m0-5a51.87,51.87,0,1,0,51.87,51.87,51.86,51.86,0,0,0-51.87-51.87Z"/><path class="c" d="M376.1,102.77l2.07,8.44c3.35,13.7,12.87,23.35,25.76,29.05a2.06,2.06,0,0,1,0,3.42c-12.89,5.71-22.41,15.36-25.76,29l-2.07,8.45a1.71,1.71,0,0,1-3.32,0l-2.07-8.45c-3.35-13.69-12.86-23.34-25.76-29a2.06,2.06,0,0,1,0-3.42c12.9-5.7,22.41-15.35,25.76-29l2.07-8.44a1.71,1.71,0,0,1,3.32,0Zm0,0"/><path class="f" d="M384.4,140.26c-8.17-3.61-15-8.82-19.72-15.63-4.75,6.81-11.56,12-19.73,15.63a2.06,2.06,0,0,0,0,3.42c8.17,3.62,15,8.82,19.73,15.63,4.75-6.81,11.55-12,19.72-15.63a2.06,2.06,0,0,0,0-3.42Zm0,0"/><path class="c" d="M80,121.08,82,129.53c3.35,13.69,12.87,23.34,25.76,29.05a2.06,2.06,0,0,1,0,3.42c-12.9,5.7-22.41,15.36-25.76,29.05L80,199.49a1.71,1.71,0,0,1-3.33,0l-2.06-8.44C71.22,177.36,61.7,167.7,48.81,162a2.06,2.06,0,0,1,0-3.42c12.89-5.71,22.41-15.36,25.76-29.05l2.06-8.45a1.72,1.72,0,0,1,3.33,0Zm0,0"/><path class="f" d="M88.26,158.58c-8.17-3.62-15-8.82-19.73-15.63-4.74,6.81-11.55,12-19.72,15.63a2.06,2.06,0,0,0,0,3.42c8.17,3.61,15,8.82,19.72,15.63,4.75-6.81,11.56-12,19.73-15.63a2.06,2.06,0,0,0,0-3.42Zm0,0"/><path class="c" d="M110.06,271.9l1.7,6.94c2.76,11.25,10.57,19.17,21.16,23.86a1.69,1.69,0,0,1,0,2.81c-10.59,4.68-18.4,12.61-21.16,23.86l-1.7,6.94a1.4,1.4,0,0,1-2.73,0l-1.69-6.94c-2.76-11.25-10.57-19.18-21.16-23.86a1.69,1.69,0,0,1,0-2.81c10.59-4.69,18.4-12.61,21.16-23.86l1.69-6.94a1.4,1.4,0,0,1,2.73,0Zm0,0"/><path class="f" d="M116.88,302.7a38.12,38.12,0,0,1-16.2-12.84,38.12,38.12,0,0,1-16.2,12.84,1.69,1.69,0,0,0,0,2.81,38.19,38.19,0,0,1,16.2,12.84,38.19,38.19,0,0,1,16.2-12.84,1.68,1.68,0,0,0,0-2.81Zm0,0"/><path class="c" d="M339,329l1.7,6.93c2.75,11.25,10.57,19.18,21.16,23.86a1.7,1.7,0,0,1,0,2.82c-10.59,4.68-18.41,12.61-21.16,23.86L339,393.4a1.4,1.4,0,0,1-2.73,0l-1.7-6.93c-2.75-11.25-10.57-19.18-21.16-23.86a1.7,1.7,0,0,1,0-2.82c10.59-4.68,18.41-12.61,21.16-23.86l1.7-6.93a1.4,1.4,0,0,1,2.73,0Zm0,0"/><path class="f" d="M345.86,359.79A38.19,38.19,0,0,1,329.65,347a38,38,0,0,1-16.2,12.83,1.7,1.7,0,0,0,0,2.82,38,38,0,0,1,16.2,12.83,38.19,38.19,0,0,1,16.21-12.83,1.7,1.7,0,0,0,0-2.82Zm0,0"/><path class="c" d="M122.25,71,123.46,76c2,8,7.55,13.69,15.11,17a1.21,1.21,0,0,1,0,2c-7.57,3.34-13.15,9-15.11,17l-1.21,5a1,1,0,0,1-2,0l-1.22-5c-2-8-7.54-13.69-15.1-17a1.21,1.21,0,0,1,0-2c7.56-3.35,13.14-9,15.1-17L120.3,71a1,1,0,0,1,2,0Zm0,0"/><path class="f" d="M127.11,93a27.25,27.25,0,0,1-11.57-9.17A27.16,27.16,0,0,1,104,93a1.21,1.21,0,0,0,0,2,27.22,27.22,0,0,1,11.56,9.16A27.31,27.31,0,0,1,127.11,95a1.21,1.21,0,0,0,0-2Zm0,0"/><path class="c" d="M415.25,242.21l1.21,5c2,8,7.55,13.69,15.11,17a1.21,1.21,0,0,1,0,2c-7.56,3.35-13.14,9-15.11,17l-1.21,4.95a1,1,0,0,1-1.95,0l-1.21-4.95c-2-8-7.55-13.69-15.11-17a1.21,1.21,0,0,1,0-2c7.56-3.34,13.14-9,15.11-17l1.21-5a1,1,0,0,1,1.95,0Zm0,0"/><path class="f" d="M420.12,264.2A27.25,27.25,0,0,1,408.55,255,27.25,27.25,0,0,1,397,264.2a1.21,1.21,0,0,0,0,2,27.27,27.27,0,0,1,11.57,9.17,27.27,27.27,0,0,1,11.57-9.17,1.21,1.21,0,0,0,0-2Zm0,0"/><path class="c" d="M274.66,41.73l.75,3.05c1.2,4.93,4.63,8.4,9.27,10.45a.74.74,0,0,1,0,1.23c-4.64,2.06-8.07,5.53-9.27,10.46l-.75,3a.61.61,0,0,1-1.19,0l-.75-3c-1.2-4.93-4.63-8.4-9.27-10.46a.74.74,0,0,1,0-1.23c4.64-2,8.07-5.52,9.27-10.45l.75-3.05a.61.61,0,0,1,1.19,0Zm0,0"/><path class="c" d="M69.13,233.79l.75,3.05c1.2,4.93,4.63,8.4,9.27,10.45a.74.74,0,0,1,0,1.23c-4.64,2.06-8.07,5.53-9.27,10.46l-.75,3a.61.61,0,0,1-1.19,0l-.75-3c-1.21-4.93-4.63-8.4-9.27-10.46a.74.74,0,0,1,0-1.23c4.64-2,8.06-5.52,9.27-10.45l.75-3.05a.61.61,0,0,1,1.19,0Zm0,0"/><path class="c" d="M362.57,220.23l.74,3c1.21,4.93,4.64,8.4,9.28,10.45a.76.76,0,0,1,0,1.24c-4.65,2-8.07,5.52-9.28,10.45l-.74,3a.62.62,0,0,1-1.2,0l-.74-3c-1.21-4.93-4.63-8.4-9.27-10.45a.75.75,0,0,1,0-1.24c4.64-2.05,8.06-5.52,9.27-10.45l.74-3a.62.62,0,0,1,1.2,0Zm0,0"/><path class="c" d="M101.28,380.36l.74,3c1.21,4.93,4.64,8.41,9.28,10.46a.75.75,0,0,1,0,1.23c-4.65,2.05-8.07,5.53-9.28,10.46l-.74,3a.62.62,0,0,1-1.2,0l-.74-3c-1.21-4.93-4.63-8.41-9.27-10.46a.74.74,0,0,1,0-1.23c4.64-2.05,8.06-5.53,9.27-10.46l.74-3a.62.62,0,0,1,1.2,0Zm0,0"/><path class="c" d="M134.27,329.92,135,333c1.2,4.92,4.63,8.4,9.27,10.45a.74.74,0,0,1,0,1.23c-4.64,2.06-8.07,5.53-9.27,10.46l-.75,3a.62.62,0,0,1-1.2,0l-.74-3c-1.21-4.93-4.63-8.4-9.27-10.46a.74.74,0,0,1,0-1.23c4.64-2.05,8.06-5.53,9.27-10.45l.74-3.05a.62.62,0,0,1,1.2,0Zm0,0"/><path class="c" d="M246,62.87l.89,3.65c1.45,5.9,5.55,10.06,11.11,12.52a.89.89,0,0,1,0,1.47C252.47,83,248.37,87.13,246.92,93L246,96.67a.74.74,0,0,1-1.43,0L243.71,93c-1.45-5.9-5.55-10.06-11.1-12.52a.88.88,0,0,1,0-1.47c5.55-2.46,9.65-6.62,11.1-12.52l.89-3.65a.74.74,0,0,1,1.43,0Zm0,0"/></svg>