<svg xmlns="http://www.w3.org/2000/svg" xmlns:xlink="http://www.w3.org/1999/xlink" viewBox="0 0 480 480"><defs><style>.a{fill:url(#a);}.b{clip-path:url(#c);}.c{fill:#fff;}.d{fill:#faae17;}.e{fill:#f9b630;}</style><linearGradient id="a" x1="89.14" y1="240" x2="385.32" y2="240" gradientUnits="userSpaceOnUse"><stop offset="0" stop-color="#20579c"/><stop offset="1" stop-color="#26ae9f"/></linearGradient><clipPath id="c"><path class="a" d="M373.93,410.88H100.53a11.4,11.4,0,0,1-11.39-11.4v-319a11.4,11.4,0,0,1,11.39-11.4h273.4a11.4,11.4,0,0,1,11.39,11.4v319A11.4,11.4,0,0,1,373.93,410.88Z"/></clipPath></defs><path class="a" d="M373.93,410.88H100.53a11.4,11.4,0,0,1-11.39-11.4v-319a11.4,11.4,0,0,1,11.39-11.4h273.4a11.4,11.4,0,0,1,11.39,11.4v319A11.4,11.4,0,0,1,373.93,410.88Z"/><g class="b"><path class="c" d="M348.1,417.12A13.87,13.87,0,0,0,362,403.26V367.8A27.7,27.7,0,0,0,343,341.51l-54.75-18.25a13.84,13.84,0,0,1-9.47-13.12l-.06-24.64A27.73,27.73,0,0,0,294,263l3-33a27.53,27.53,0,0,0,9.53-20.77v-69.3a13.86,13.86,0,0,0-13.85-13.86H209.51a41.58,41.58,0,0,0-41.57,41.58v41.58A27.53,27.53,0,0,0,177.47,230l3,33a27.7,27.7,0,0,0,15.23,22.49l-.06,24.64a13.84,13.84,0,0,1-9.47,13.12l-54.75,18.25A27.7,27.7,0,0,0,112.5,367.8v35.46a13.86,13.86,0,0,0,13.86,13.86Z"/></g><path class="c" d="M318,144.56a51.15,51.15,0,0,0,68.35,48.28V96.28A51.15,51.15,0,0,0,318,144.56Z"/><circle class="d" cx="369.23" cy="144.56" r="39.87"/><path class="c" d="M365.43,161.65a5.66,5.66,0,0,1-3.7-1.37l-13.29-11.39a5.69,5.69,0,1,1,7.41-8.65L365,148l17.16-18.72a5.7,5.7,0,1,1,8.4,7.7L369.63,159.8A5.65,5.65,0,0,1,365.43,161.65Z"/><path class="c" d="M142.58,218.82a40.24,40.24,0,0,1-53.76,38v-76a40.24,40.24,0,0,1,53.76,38Z"/><circle class="e" cx="102.26" cy="218.82" r="31.36"/><path class="c" d="M99.13,232.91a4.66,4.66,0,0,1-3.06-1.13l-10.95-9.39a4.69,4.69,0,1,1,6.1-7.13l7.51,6.43,14.15-15.43a4.7,4.7,0,0,1,6.93,6.34l-17.22,18.79A4.68,4.68,0,0,1,99.13,232.91Z"/><path class="c" d="M348,364.65a28,28,0,0,0,37.47,26.46V338.18A28,28,0,0,0,348,364.65Z"/><circle class="e" cx="376.08" cy="364.65" r="21.85"/><path class="c" d="M374.06,373.74a3.06,3.06,0,0,1-2-.73L365,367a3,3,0,1,1,3.94-4.6l4.85,4.15,9.12-10a3,3,0,0,1,4.47,4.1l-11.11,12.11A3,3,0,0,1,374.06,373.74Z"/></svg>