<svg xmlns="http://www.w3.org/2000/svg" xmlns:xlink="http://www.w3.org/1999/xlink" viewBox="0 0 480 480"><defs><style>.a{fill:url(#a);}.b{fill:#173f6d;}.c{fill:#fff;}</style><linearGradient id="a" x1="86.5" y1="240" x2="393.5" y2="240" gradientUnits="userSpaceOnUse"><stop offset="0" stop-color="#20579c"/><stop offset="1" stop-color="#26ae9f"/></linearGradient></defs><path class="a" d="M86.5,42.64A14.61,14.61,0,0,1,101.11,28h219.3l73.09,73.09V437.36A14.61,14.61,0,0,1,378.89,452H101.11A14.61,14.61,0,0,1,86.5,437.36Z"/><path class="b" d="M320.41,28V86.5A14.61,14.61,0,0,0,335,101.11H393.5Z"/><path class="c" d="M286.91,181.52l4.52,16.54a7.29,7.29,0,0,0,7,5.39,7.12,7.12,0,0,0,1.93-.26,7.3,7.3,0,0,0,5.13-9l-19.72-72.34a18.35,18.35,0,0,0-17.63-13.46h-12.5a18.34,18.34,0,0,0-17.63,13.47l-19.72,72.33a7.31,7.31,0,1,0,14.1,3.84l4.51-16.54Zm-34.75-55.77a3.67,3.67,0,0,1,3.52-2.71h12.5a3.67,3.67,0,0,1,3.52,2.69l11.23,41.17h-42Z"/><path class="c" d="M349.65,152.28h-7.31V145a7.31,7.31,0,0,0-14.62,0v7.31h-7.31a7.31,7.31,0,1,0,0,14.62h7.31v7.31a7.31,7.31,0,0,0,14.62,0V166.9h7.31a7.31,7.31,0,0,0,0-14.62Z"/><path class="b" d="M342.34,254.62H240a7.31,7.31,0,0,0,0,14.62H342.34a7.31,7.31,0,0,0,0-14.62Z"/><path class="b" d="M240,298.48h58.48a7.31,7.31,0,0,0,0-14.62H240a7.31,7.31,0,0,0,0,14.62Z"/><path class="c" d="M197.9,242.56,160,286.8l-16.46-21.94a7.3,7.3,0,1,0-11.69,8.76l21.93,29.24a7.26,7.26,0,0,0,5.61,2.92h.23a7.29,7.29,0,0,0,5.55-2.56L209,252.06a7.31,7.31,0,1,0-11.1-9.5Z"/><path class="b" d="M342.34,342.34H240A7.31,7.31,0,0,0,240,357H342.34a7.31,7.31,0,1,0,0-14.62Z"/><path class="b" d="M298.48,371.58H240a7.31,7.31,0,0,0,0,14.62h58.48a7.31,7.31,0,0,0,0-14.62Z"/><path class="c" d="M197.9,330.27,160,374.52l-16.46-21.95a7.31,7.31,0,1,0-11.69,8.77l21.93,29.24a7.29,7.29,0,0,0,5.61,2.92h.23a7.28,7.28,0,0,0,5.55-2.55L209,339.78a7.31,7.31,0,0,0-11.1-9.51Z"/><path class="b" d="M210.76,93.8h-73.1a7.31,7.31,0,0,0,0,14.62h73.1a7.31,7.31,0,0,0,0-14.62Z"/><path class="b" d="M137.66,137.66h43.86a7.31,7.31,0,1,0,0-14.62H137.66a7.31,7.31,0,0,0,0,14.62Z"/></svg>