<svg xmlns="http://www.w3.org/2000/svg" xmlns:xlink="http://www.w3.org/1999/xlink" viewBox="0 0 480 480"><defs><style>.a{fill:#cce9e6;}.b{fill:#99d5cf;}.c{fill:#1c487d;}.d{fill:#20579c;}.e{fill:#132e50;}.f{fill:#fff;}.g{fill:url(#a);}.h{fill:url(#b);}</style><linearGradient id="a" x1="227.8" y1="146.67" x2="453.28" y2="146.67" gradientUnits="userSpaceOnUse"><stop offset="0" stop-color="#20579c"/><stop offset="1" stop-color="#26ae9f"/></linearGradient><linearGradient id="b" x1="26.72" y1="149.46" x2="190.96" y2="149.46" xlink:href="#a"/></defs><path class="a" d="M344.43,446.07H72.29a13.61,13.61,0,0,1-13.61-13.61V61.14a13.6,13.6,0,0,1,13.61-13.6H344.43A13.6,13.6,0,0,1,358,61.14V432.46A13.6,13.6,0,0,1,344.43,446.07Z"/><path class="b" d="M358,122.38l-98.16,98.16-17.45,37.38a5.48,5.48,0,0,0,7.28,7.28l37.38-17.45L358,176.8Z"/><path class="b" d="M344.43,47.54H85.89V68a6.8,6.8,0,0,0,6.81,6.8H358V61.14A13.6,13.6,0,0,0,344.43,47.54Z"/><rect class="c" x="303.6" y="47.54" width="27.21" height="27.21"/><rect class="d" x="276.39" y="47.54" width="27.21" height="27.21"/><path class="e" d="M358,74.75H330.82V47.54h13.61A13.6,13.6,0,0,1,358,61.14Z"/><path class="f" d="M344.43,95.16v330.5a6.8,6.8,0,0,1-6.8,6.8H79.09a6.8,6.8,0,0,1-6.8-6.8V95.16a6.8,6.8,0,0,1,6.8-6.8H337.63A6.8,6.8,0,0,1,344.43,95.16Z"/><path class="a" d="M344.43,136l-84.56,84.56-17.45,37.39a5.47,5.47,0,0,0,7.28,7.27l37.38-17.44,57.35-57.35Z"/><path class="g" d="M451.29,53.52,433.7,35.92a6.83,6.83,0,0,0-9.63,0l-15.59,15.6h0L256,204h0l-6.82,6.81a27.26,27.26,0,0,0-5.41,7.74l-15.42,33a5.46,5.46,0,0,0,7.28,7.27l33-15.41a27.36,27.36,0,0,0,7.74-5.42L451.29,63.14a6.81,6.81,0,0,0,0-9.62Z"/><path class="c" d="M422.08,65.13,229.42,257.79a5.39,5.39,0,0,0,6.19,1.09l33-15.41a27.36,27.36,0,0,0,7.74-5.42L435.69,78.74Z"/><path class="d" d="M194.75,231.23H99.5a6.81,6.81,0,0,1,0-13.61h95.25a6.81,6.81,0,0,1,0,13.61Z"/><path class="d" d="M303.6,122.38h-68a6.81,6.81,0,0,1,0-13.61h68a6.81,6.81,0,1,1,0,13.61Z"/><path class="d" d="M276.39,149.59H235.57a6.81,6.81,0,0,1,0-13.61h40.82a6.81,6.81,0,0,1,0,13.61Z"/><path class="d" d="M167.53,258.45h-68a6.81,6.81,0,0,1,0-13.61h68a6.81,6.81,0,1,1,0,13.61Z"/><path class="d" d="M208.36,318.19H303.6a6.81,6.81,0,1,1,0,13.61H208.36a6.81,6.81,0,1,1,0-13.61Z"/><path class="d" d="M235.57,291h68a6.81,6.81,0,1,1,0,13.61h-68a6.81,6.81,0,0,1,0-13.61Z"/><path class="c" d="M269.59,217.62l-40.17,40.17a5.39,5.39,0,0,0,6.19,1.09l33-15.42a27.12,27.12,0,0,0,7.74-5.41l6.81-6.82Z"/><path class="c" d="M451.29,53.52l-8.8-8.8L422.08,65.13l13.61,13.61,15.6-15.6A6.8,6.8,0,0,0,451.29,53.52Z"/><path class="a" d="M180.36,197.15H58.68V101.78H180.36A21.19,21.19,0,0,1,201.55,123v53A21.2,21.2,0,0,1,180.36,197.15Z"/><rect class="b" x="58.68" y="101.78" width="13.61" height="95.37"/><path class="h" d="M180.36,186.55h-143A10.59,10.59,0,0,1,26.72,176V123a10.59,10.59,0,0,1,10.59-10.59H180.36A10.6,10.6,0,0,1,191,123v53A10.6,10.6,0,0,1,180.36,186.55Z"/><path class="f" d="M125.48,129.5a5.31,5.31,0,0,0-7.47.68l-9.17,11-9.18-11A5.3,5.3,0,0,0,91.52,137l10.42,12.5L91.52,162a5.3,5.3,0,1,0,8.14,6.79l9.18-11,9.17,11a5.3,5.3,0,1,0,8.14-6.79l-10.41-12.5L126.15,137A5.3,5.3,0,0,0,125.48,129.5Z"/><path class="f" d="M79.7,128.27H47.91a5.3,5.3,0,1,0,0,10.6h10.6v26.49a5.3,5.3,0,1,0,10.59,0V138.87H79.7a5.3,5.3,0,0,0,0-10.6Z"/><path class="f" d="M169.76,128.27H138a5.3,5.3,0,1,0,0,10.6h10.59v26.49a5.3,5.3,0,1,0,10.6,0V138.87h10.59a5.3,5.3,0,1,0,0-10.6Z"/><path class="d" d="M269.74,357.17H99.25a6.56,6.56,0,0,1,0-13.11H269.74a6.56,6.56,0,1,1,0,13.11Z"/><path class="d" d="M204.17,409.63H99.25a6.56,6.56,0,0,1,0-13.12H204.17a6.56,6.56,0,0,1,0,13.12Z"/><path class="d" d="M138.6,383.4H99.25a6.56,6.56,0,0,1,0-13.11H138.6a6.56,6.56,0,0,1,0,13.11Z"/><path class="d" d="M269.74,383.4H164.82a6.56,6.56,0,0,1,0-13.11H269.74a6.56,6.56,0,1,1,0,13.11Z"/></svg>