<svg xmlns="http://www.w3.org/2000/svg" xmlns:xlink="http://www.w3.org/1999/xlink" viewBox="0 0 480 480"><defs><style>.a{fill:#20579c;}.b{fill:#257c71;}.c{fill:#fff;}.d{fill:#2d9e90;}.e{fill:#faae17;}.f,.j,.m{opacity:0.85;}.f{fill:url(#a);}.g,.k,.n{opacity:0.65;}.g{fill:url(#b);}.h{fill:#29afa0;}.i{fill:#ccd9e8;}.j{fill:url(#c);}.k{fill:url(#d);}.l{fill:#66c5ba;}.m{fill:url(#e);}.n{fill:url(#f);}</style><linearGradient id="a" x1="180.9" y1="184.13" x2="254.7" y2="184.13" gradientUnits="userSpaceOnUse"><stop offset="0" stop-color="#20579c"/><stop offset="1" stop-color="#26ae9f"/></linearGradient><linearGradient id="b" x1="-796.5" y1="-117.52" x2="-722.7" y2="-117.52" gradientTransform="translate(977.41 301.65)" xlink:href="#a"/><linearGradient id="c" x1="341.59" y1="237.66" x2="398.75" y2="237.66" xlink:href="#a"/><linearGradient id="d" x1="-651.76" y1="-31.09" x2="-594.6" y2="-31.09" gradientTransform="translate(993.35 268.75)" xlink:href="#a"/><linearGradient id="e" x1="274.66" y1="307.1" x2="304.74" y2="307.1" xlink:href="#a"/><linearGradient id="f" x1="-732.25" y1="18.47" x2="-702.17" y2="18.47" gradientTransform="translate(1006.91 288.63)" xlink:href="#a"/></defs><path class="a" d="M89.45,359.63A9,9,0,0,0,92.52,357a9.24,9.24,0,0,0,1.69-5.56,9.58,9.58,0,0,0-4.73-8.58C86.43,341,82,340,76.23,340H60.62a.81.81,0,0,0-.85.76v38.77a.81.81,0,0,0,.85.76H78.27c5.46,0,9.66-1.07,12.5-3.08s4.37-5.13,4.37-9.15a8.75,8.75,0,0,0-2-5.78A9.36,9.36,0,0,0,89.45,359.63ZM71.94,348.7h4.29a8.55,8.55,0,0,1,4.59.92,3.29,3.29,0,0,1,1.25,2.94,3.07,3.07,0,0,1-1.16,2.65,7.76,7.76,0,0,1-4.35,1H71.94Zm9.83,21.9a6.35,6.35,0,0,1-3.81,1h-6V363.8h6.49c3.16,0,4.56,1.28,4.56,4.11A3.16,3.16,0,0,1,81.77,370.6Z"/><path class="a" d="M138.52,340H127.21a.85.85,0,0,0-.78.46l-7.22,15.19L112,340.45a.85.85,0,0,0-.78-.46H99.93a.9.9,0,0,0-.73.36.7.7,0,0,0,0,.74l13.88,24.68v13.75a.81.81,0,0,0,.85.76h10.62a.81.81,0,0,0,.85-.76V365.77l13.91-24.68a.68.68,0,0,0,0-.74A.9.9,0,0,0,138.52,340Z"/><path class="a" d="M173.8,341.91a22.94,22.94,0,0,0-20.69,0,17.06,17.06,0,0,0-7,7,21.68,21.68,0,0,0-2.43,10.38v2.2a21,21,0,0,0,2.61,10.05,17.29,17.29,0,0,0,7,6.82,21.78,21.78,0,0,0,10.29,2.38,21.37,21.37,0,0,0,10.33-2.47,17.15,17.15,0,0,0,7-7,21.58,21.58,0,0,0,2.44-10.37v-1.78a21.15,21.15,0,0,0-2.52-10.26A17.48,17.48,0,0,0,173.8,341.91ZM171,361.09c0,3.6-.71,6.38-2.05,8.25a6.2,6.2,0,0,1-5.4,2.66,6.28,6.28,0,0,1-5.58-2.7c-1.32-1.91-2-4.73-2-8.36l0-2.83c.28-6.6,2.72-9.81,7.48-9.81a6.3,6.3,0,0,1,5.48,2.64c1.34,1.87,2,4.68,2,8.37Z"/><path class="a" d="M225.1,349.29a18.29,18.29,0,0,0-7.51-6.87A23.57,23.57,0,0,0,206.82,340h-14a.81.81,0,0,0-.85.76v38.77a.81.81,0,0,0,.85.76h14.3a23.13,23.13,0,0,0,10.65-2.51,18.35,18.35,0,0,0,7.42-6.91,19,19,0,0,0,2.63-9.9v-1.79A19,19,0,0,0,225.1,349.29ZM215.43,361c0,3.58-.76,6.29-2.25,8.05a7.63,7.63,0,0,1-6.24,2.57h-2.8V348.72h2.68c2.83,0,4.91.84,6.36,2.55s2.25,4.45,2.25,8Z"/><path class="b" d="M360.76,73.67H74.85A19.48,19.48,0,0,0,55.36,93.16V301.09H380.25V93.16A19.49,19.49,0,0,0,360.76,73.67Z"/><path class="c" d="M354.26,275.1H81.35a6.5,6.5,0,0,1-6.5-6.5V99.66a6.5,6.5,0,0,1,6.5-6.5H354.26a6.5,6.5,0,0,1,6.5,6.5V268.6A6.5,6.5,0,0,1,354.26,275.1Z"/><path class="d" d="M351.66,320.59H84a64.88,64.88,0,0,1-17.85-2.5l-32-9.15a6.51,6.51,0,0,1-4.72-6.25v-1.6a6.49,6.49,0,0,1,6.5-6.49H399.75a6.49,6.49,0,0,1,6.49,6.49v1.6a6.5,6.5,0,0,1-4.71,6.25l-32,9.15A65,65,0,0,1,351.66,320.59Z"/><path class="e" d="M121.57,123.05l-9.22-6.14-9.21,6.14a2.07,2.07,0,0,1-3.22-1.72v-50a4.14,4.14,0,0,1,4.14-4.14h16.59a4.14,4.14,0,0,1,4.14,4.14v50A2.07,2.07,0,0,1,121.57,123.05Z"/><rect class="f" x="180.9" y="154.75" width="73.8" height="58.76" rx="1.61"/><rect class="g" x="180.9" y="154.75" width="73.8" height="58.76" rx="1.61" transform="translate(-35.84 53.71) rotate(-13)"/><path class="c" d="M244.64,195.92a14.56,14.56,0,0,1-8.88,3,13.91,13.91,0,1,1,8.88-24.72,1.71,1.71,0,0,0,2.32-.28,1.59,1.59,0,0,0-.21-2.32,17.94,17.94,0,0,0-27.05,6,17.11,17.11,0,0,0-3.4-4.84,17.8,17.8,0,0,0-5.5-3.72,17.34,17.34,0,0,0-13.51,0,17.85,17.85,0,0,0-5.51,3.72,17.48,17.48,0,0,0-3.72,5.53,17.41,17.41,0,0,0,0,13.54,17.62,17.62,0,0,0,3.72,5.51,17.85,17.85,0,0,0,5.51,3.72,17.34,17.34,0,0,0,13.51,0,17.8,17.8,0,0,0,5.5-3.72,17.42,17.42,0,0,0,3.42-4.86,18,18,0,0,0,26.89,6.16,1.68,1.68,0,0,0,.35-2.47A1.72,1.72,0,0,0,244.64,195.92Zm-27.89-5.48a13.72,13.72,0,0,1-3,4.38,14.45,14.45,0,0,1-4.37,3,13.46,13.46,0,0,1-10.66,0,14.45,14.45,0,0,1-4.37-3,13.72,13.72,0,0,1-3-4.38,13.56,13.56,0,0,1-1.07-5.35,13.38,13.38,0,0,1,1.07-5.32,13.88,13.88,0,0,1,7.33-7.33,13.69,13.69,0,0,1,10.66,0,13.88,13.88,0,0,1,7.33,7.33,13.38,13.38,0,0,1,1.07,5.32A13.56,13.56,0,0,1,216.75,190.44Z"/><path class="h" d="M439.14,153.67H301.2a11.5,11.5,0,0,0-11.5,11.5v229.9a11.5,11.5,0,0,0,11.5,11.5H427.65a23,23,0,0,0,23-23V165.17A11.5,11.5,0,0,0,439.14,153.67Z"/><path class="c" d="M433.39,372.08H307a5.74,5.74,0,0,1-5.75-5.75V193.91a5.74,5.74,0,0,1,5.75-5.75H433.39a5.74,5.74,0,0,1,5.75,5.75V366.33A5.74,5.74,0,0,1,433.39,372.08Z"/><path class="i" d="M323.67,352.35H391a4.73,4.73,0,0,0,0-9.46H323.67a4.73,4.73,0,1,0,0,9.46Z"/><path class="i" d="M323.67,333.42h93a4.73,4.73,0,0,0,0-9.46h-93a4.73,4.73,0,0,0,0,9.46Z"/><path class="i" d="M323.67,314.5h93a4.74,4.74,0,0,0,0-9.47h-93a4.74,4.74,0,0,0,0,9.47Z"/><path class="i" d="M323.67,295.57h93a4.73,4.73,0,1,0,0-9.46h-93a4.73,4.73,0,0,0,0,9.46Z"/><rect class="j" x="341.59" y="214.9" width="57.17" height="45.51" rx="1.24"/><rect class="k" x="341.59" y="214.9" width="57.17" height="45.51" rx="1.24" transform="translate(-43.97 89.36) rotate(-13)"/><path class="c" d="M391,246.78a11.22,11.22,0,0,1-6.88,2.35A10.78,10.78,0,1,1,391,230a1.33,1.33,0,0,0,1.79-.22,1.22,1.22,0,0,0-.16-1.8,13.92,13.92,0,0,0-20.95,4.65,13.28,13.28,0,0,0-2.63-3.74,13.71,13.71,0,0,0-4.27-2.89,13.43,13.43,0,0,0-10.46,0,13.53,13.53,0,0,0-7.15,7.17,13.48,13.48,0,0,0,0,10.48,13.49,13.49,0,0,0,7.15,7.15,13.43,13.43,0,0,0,10.46,0,13.49,13.49,0,0,0,6.92-6.64,13.91,13.91,0,0,0,20.82,4.77,1.28,1.28,0,0,0,.27-1.91A1.34,1.34,0,0,0,391,246.78Zm-21.61-4.23a10.42,10.42,0,0,1-2.29,3.38,11,11,0,0,1-3.39,2.29,10.43,10.43,0,0,1-8.25,0,11.26,11.26,0,0,1-3.39-2.29,10.62,10.62,0,0,1-3.12-7.53,10.19,10.19,0,0,1,.84-4.12,10.65,10.65,0,0,1,2.28-3.39,10.91,10.91,0,0,1,3.39-2.29,10.67,10.67,0,0,1,8.25,0,10.76,10.76,0,0,1,5.68,5.68,10.18,10.18,0,0,1,.83,4.12A10.39,10.39,0,0,1,369.35,242.55Z"/><path class="l" d="M257,412.83H322.4a10.9,10.9,0,0,0,10.9-10.9V271.14a10.9,10.9,0,0,0-10.9-10.9H257a10.9,10.9,0,0,0-10.9,10.9V401.93A10.9,10.9,0,0,0,257,412.83Z"/><path class="c" d="M320.42,398H259a6.14,6.14,0,0,1-6.15-6.14V281.24A6.14,6.14,0,0,1,259,275.1h61.43a6.14,6.14,0,0,1,6.15,6.14V391.83A6.14,6.14,0,0,1,320.42,398Z"/><rect class="m" x="274.66" y="295.13" width="30.08" height="23.95" rx="0.65"/><rect class="n" x="274.66" y="295.13" width="30.08" height="23.95" rx="0.65" transform="translate(-61.66 73.04) rotate(-13)"/><path class="c" d="M300.64,311.9a5.89,5.89,0,0,1-3.62,1.24,5.67,5.67,0,1,1,3.62-10.08.71.71,0,0,0,.95-.11.65.65,0,0,0-.09-.95,7.31,7.31,0,0,0-11,2.45,6.94,6.94,0,0,0-1.39-2,7.1,7.1,0,0,0-2.24-1.52,6.85,6.85,0,0,0-2.74-.56,6.93,6.93,0,0,0-2.77.56,7.17,7.17,0,0,0-3.76,3.77,7.08,7.08,0,0,0,0,5.52,7.22,7.22,0,0,0,1.52,2.24,7.1,7.1,0,0,0,2.24,1.52,6.93,6.93,0,0,0,2.77.56,6.85,6.85,0,0,0,2.74-.56,7.18,7.18,0,0,0,3.64-3.5A7.3,7.3,0,0,0,301.44,313a.67.67,0,0,0,.15-1A.71.71,0,0,0,300.64,311.9Zm-11.37-2.23a5.52,5.52,0,0,1-1.2,1.79,6.07,6.07,0,0,1-1.78,1.2,5.48,5.48,0,0,1-4.35,0,6.07,6.07,0,0,1-1.78-1.2,5.52,5.52,0,0,1-1.2-1.79,5.6,5.6,0,0,1,0-4.35,5.62,5.62,0,0,1,3-3,5.6,5.6,0,0,1,4.35,0,5.62,5.62,0,0,1,3,3,5.6,5.6,0,0,1,0,4.35Z"/><path class="i" d="M272.91,379.65h6.72a2.86,2.86,0,1,0,0-5.63h-6.72a2.86,2.86,0,1,0,0,5.63Z"/><path class="i" d="M272.91,368.39H306.5a2.86,2.86,0,1,0,0-5.63H272.91a2.86,2.86,0,1,0,0,5.63Z"/><path class="i" d="M272.91,357.13H306.5a2.86,2.86,0,1,0,0-5.63H272.91a2.86,2.86,0,1,0,0,5.63Z"/><path class="i" d="M272.91,345.87H306.5a2.86,2.86,0,1,0,0-5.62H272.91a2.86,2.86,0,1,0,0,5.62Z"/></svg>