<svg xmlns="http://www.w3.org/2000/svg" xmlns:xlink="http://www.w3.org/1999/xlink" viewBox="0 0 480 480"><defs><style>.a{fill:url(#a);}.b,.f{fill:#1c487d;}.c{fill:#99d5cf;}.d{fill:#e8f5f3;}.e{fill:#cce9e6;}.f{stroke:#1c487d;stroke-linecap:round;stroke-linejoin:round;stroke-width:1.91px;}</style><linearGradient id="a" x1="17.1" y1="244.46" x2="462.9" y2="244.46" gradientUnits="userSpaceOnUse"><stop offset="0" stop-color="#20579c"/><stop offset="1" stop-color="#26ae9f"/></linearGradient></defs><path class="a" d="M445.06,400.48H34.94A17.83,17.83,0,0,1,17.1,382.65V106.26A17.83,17.83,0,0,1,34.94,88.43H445.06a17.83,17.83,0,0,1,17.84,17.83V382.65A17.83,17.83,0,0,1,445.06,400.48Z"/><path class="b" d="M248.92,409.4H231.08a8.91,8.91,0,0,1-8.91-8.92V373.74h35.66v26.74A8.91,8.91,0,0,1,248.92,409.4Z"/><path class="c" d="M43.85,382.65h392.3a8.91,8.91,0,0,0,8.91-8.91V347H34.94v26.75A8.91,8.91,0,0,0,43.85,382.65Z"/><path class="d" d="M257.83,70.6a17.8,17.8,0,0,0-14.39,7.3,4.36,4.36,0,0,1-6.88,0,17.8,17.8,0,0,0-14.39-7.3H43.85a8.91,8.91,0,0,0-8.91,8.92V355.91a8.91,8.91,0,0,0,8.91,8.91H222.17a17.83,17.83,0,0,1,14.39,7.3,4.36,4.36,0,0,0,6.88,0,17.79,17.79,0,0,1,14.39-7.3H436.15a8.91,8.91,0,0,0,8.91-8.91V79.52a8.91,8.91,0,0,0-8.91-8.92Z"/><path class="e" d="M248.92,73.07A18.16,18.16,0,0,0,243.44,78a4.32,4.32,0,0,1-6.88,0,18.16,18.16,0,0,0-5.48-4.91V367.3a17.86,17.86,0,0,1,5.48,4.82,4.36,4.36,0,0,0,6.88,0,17.86,17.86,0,0,1,5.48-4.82V73.07Z"/><path class="f" d="M150.56,242.88H118.2l-5.65,18.3H87.32l35.92-98h22.2l36.2,98H156.28Zm-26.71-18.23h21.06l-10.57-34Z"/><path class="f" d="M345.86,243h46.82v18.17H316.39V248.73l46.69-67.27h-47V163.22h76.09v12.11Z"/><path class="b" d="M256.63,235.13a28.68,28.68,0,0,1-12.52-2.71c-3.62-1.73-7.49-4.66-11.83-8.94-2.83-2.79-5.43-4.33-7.31-4.33-.41,0-1.18,0-2.25,1.57a11.19,11.19,0,0,0-1.69,6.51,5,5,0,0,1-5,5l-18.29-.31a5,5,0,0,1-4.91-5c0-11.08,2.65-20.12,7.89-26.88,5.53-7.15,13.1-10.77,22.49-10.77A29.73,29.73,0,0,1,236,192a43.4,43.4,0,0,1,11.93,9c2.73,2.74,5.21,4.25,7,4.25.45,0,1.2,0,2.2-1.54a12.1,12.1,0,0,0,1.68-6.69,5,5,0,0,1,5-5l18.45.08a5,5,0,0,1,5,5c0,11.08-2.7,20.19-8,27.07A27.17,27.17,0,0,1,256.63,235.13Z"/><path class="d" d="M223.21,194.27a24.65,24.65,0,0,1,10.63,2.26,39.2,39.2,0,0,1,10.52,8q5.7,5.72,10.51,5.72,3.9,0,6.39-3.81a16.84,16.84,0,0,0,2.48-9.42l18.44.08q0,15-7,24a22.31,22.31,0,0,1-18.55,9,23.8,23.8,0,0,1-10.36-2.21q-4.62-2.22-10.48-8T225,214.15c-2.55,0-4.67,1.25-6.38,3.75a16.15,16.15,0,0,0-2.56,9.33l-18.21-.31q0-15,6.85-23.82t18.54-8.83m0-10c-10.86,0-20,4.39-26.45,12.71-5.93,7.65-8.94,17.73-8.94,29.94a10,10,0,0,0,9.84,10l18.2.31H216a10,10,0,0,0,10-10,9.79,9.79,0,0,1,.24-2.32,19.86,19.86,0,0,1,2.5,2.13c4.74,4.68,9,7.91,13.18,9.89a33.58,33.58,0,0,0,14.68,3.2,32.38,32.38,0,0,0,26.45-12.89c6-7.79,9.1-17.93,9.1-30.14a10,10,0,0,0-10-10L263.79,187h-.05a10,10,0,0,0-10,10,11.2,11.2,0,0,1-.21,2.3,18.79,18.79,0,0,1-2.08-1.85c-4.67-4.68-9-7.95-13.35-10a34.63,34.63,0,0,0-14.89-3.22Z"/></svg>