<svg xmlns="http://www.w3.org/2000/svg" xmlns:xlink="http://www.w3.org/1999/xlink" viewBox="0 0 480 480"><defs><style>.a{fill:#cce9e6;}.b{fill:url(#a);}.c{fill:#fff;}.d{fill:#1c487d;}.e{fill:#1f518c;}.f{fill:#f9b630;}.g{fill:#faae17;}.h{fill:#29afa0;}.i{fill:#45baac;}.j{fill:#fcc966;}</style><linearGradient id="a" x1="82.61" y1="221.68" x2="391.27" y2="221.68" gradientUnits="userSpaceOnUse"><stop offset="0" stop-color="#20579c"/><stop offset="1" stop-color="#26ae9f"/></linearGradient></defs><path class="a" d="M386.9,346.47h-300A16.67,16.67,0,0,1,70.19,329.8v-175a16.66,16.66,0,0,1,16.67-16.66h300a16.66,16.66,0,0,1,16.67,16.66v175A16.67,16.67,0,0,1,386.9,346.47Z"/><path class="b" d="M292.5,111.23c-43.22,0-55.56,13.16-55.56,13.16s-12.35-13.16-55.56-13.16c-38.25,0-82.71,9.47-95.3,12.34A4.48,4.48,0,0,0,82.61,128V327.57A4.5,4.5,0,0,0,88.09,332c14.78-3.29,56.85-11.89,93.29-11.89,29.4,0,44.52,6.09,51.17,10a8.71,8.71,0,0,0,8.77,0c6.66-3.9,21.77-10,51.18-10,36.43,0,78.5,8.6,93.29,11.89a4.5,4.5,0,0,0,5.48-4.44V128a4.48,4.48,0,0,0-3.48-4.42C375.21,120.7,330.75,111.23,292.5,111.23Z"/><path class="c" d="M200.55,275.68a8.48,8.48,0,0,1-1-.05,209.84,209.84,0,0,0-34.78-.37,9.21,9.21,0,0,1-9.63-8.5,9.09,9.09,0,0,1,8.5-9.63,229.94,229.94,0,0,1,37.9.44,9.08,9.08,0,0,1-1,18.11Z"/><path class="c" d="M118.78,280.66a9.08,9.08,0,0,1-1.48-18c3-.5,6.07-1,9.25-1.45a9.08,9.08,0,1,1,2.66,18q-4.61.69-8.93,1.41A8.43,8.43,0,0,1,118.78,280.66Z"/><path class="c" d="M118.78,244.33a9.08,9.08,0,0,1-1.48-18c33.82-5.62,62.1-7.48,84.24-5a9.08,9.08,0,0,1-2,18.06c-20.37-2.22-47.2-.41-79.27,4.91A8.5,8.5,0,0,1,118.78,244.33Z"/><path class="c" d="M200.55,203a8,8,0,0,1-1-.06c-2.67-.28-5.53-.51-8.59-.67a9.09,9.09,0,0,1,.94-18.15c3.42.18,6.61.45,9.58.76a9.09,9.09,0,0,1-1,18.12Z"/><path class="c" d="M118.78,208a9.08,9.08,0,0,1-1.47-18c13.07-2.16,25.52-3.78,37-4.79a9.09,9.09,0,1,1,1.6,18.1c-11,1-23,2.53-35.66,4.61A8.32,8.32,0,0,1,118.78,208Z"/><path class="c" d="M118.78,171.67a9.08,9.08,0,0,1-1.48-18c33.82-5.61,62.1-7.47,84.24-5a9.08,9.08,0,0,1-2,18c-20.37-2.22-47.2-.4-79.27,4.91A8.5,8.5,0,0,1,118.78,171.67Z"/><path class="c" d="M273.19,275.68a9.08,9.08,0,0,1-1-18.11,231,231,0,0,1,37.89-.44,9.08,9.08,0,0,1,8.49,9.63,9.21,9.21,0,0,1-9.63,8.5,208.88,208.88,0,0,0-34.78.37A8.37,8.37,0,0,1,273.19,275.68Z"/><path class="c" d="M355,280.66a8.5,8.5,0,0,1-1.5-.12c-2.87-.48-5.85-1-8.92-1.4a9.08,9.08,0,0,1,2.66-18q4.77.7,9.24,1.45a9.08,9.08,0,0,1-1.48,18Z"/><path class="c" d="M355,244.33a8.58,8.58,0,0,1-1.5-.12c-32-5.32-58.79-7.14-79.27-4.91a9.08,9.08,0,1,1-2-18.05c22.15-2.43,50.44-.57,84.22,5a9.08,9.08,0,0,1-1.48,18Z"/><path class="c" d="M273.19,203a9.08,9.08,0,0,1-.95-18.11c3-.32,6.16-.59,9.57-.77a9.09,9.09,0,1,1,.94,18.15c-3.05.16-5.91.39-8.58.67A8.18,8.18,0,0,1,273.19,203Z"/><path class="c" d="M355,208a8.39,8.39,0,0,1-1.49-.12c-12.61-2.09-24.6-3.64-35.65-4.61a9.09,9.09,0,0,1,1.6-18.1c11.49,1,23.95,2.63,37,4.79A9.08,9.08,0,0,1,355,208Z"/><path class="c" d="M355,171.67a8.58,8.58,0,0,1-1.5-.12c-32-5.31-58.79-7.13-79.27-4.91a9.08,9.08,0,1,1-2-18c22.15-2.42,50.44-.57,84.22,5a9.08,9.08,0,0,1-1.48,18Z"/><path class="d" d="M383.66,336.07a30.42,30.42,0,1,1-30.41-30.41,30.41,30.41,0,0,1,30.41,30.41Zm0,0"/><path class="e" d="M353.26,305.66a30.66,30.66,0,0,0-8.12,1.1,30.41,30.41,0,0,1,0,58.63,30.41,30.41,0,1,0,8.12-59.73Zm0,0"/><path class="f" d="M111,371.26l11.25,79.54a3.14,3.14,0,0,0,5,2l63.25-49.52a3.14,3.14,0,0,0-.76-5.38l-74.52-30a3.13,3.13,0,0,0-4.27,3.35Zm0,0"/><path class="g" d="M189.68,397.9l-18.41-7.41s0,.05-.08.07l-51.76,40.52,2.78,19.64a3.19,3.19,0,0,0,5.12,2.06l63.12-49.42a3.18,3.18,0,0,0-.77-5.46Zm0,0"/><path class="h" d="M457.71,218.94,460,181.29a1.47,1.47,0,0,0-2.13-1.41l-33.75,16.85a1.48,1.48,0,0,0-.15,2.55l31.47,20.8a1.47,1.47,0,0,0,2.28-1.14Zm0,0"/><path class="i" d="M424,199.3l7.77,5.14.05,0,27.61-13.79.57-9.3a1.49,1.49,0,0,0-2.16-1.42l-33.69,16.82a1.49,1.49,0,0,0-.15,2.58Zm0,0"/><path class="j" d="M246.38,31.61l23.47,61.9a3.18,3.18,0,0,0,4.54,1.65,36.63,36.63,0,0,0-25.7-67.79,3.19,3.19,0,0,0-2.31,4.24Zm0,0"/><path class="f" d="M264.29,27.33a36.63,36.63,0,0,1,2.6,58.39l3,7.79a3.18,3.18,0,0,0,4.54,1.65,36.63,36.63,0,0,0-10.1-67.83Zm0,0"/><path class="i" d="M49.55,126.14,20.73,97.33a2.49,2.49,0,0,1,0-3.52L49.55,65a2.48,2.48,0,0,1,3.51,0L81.88,93.81a2.49,2.49,0,0,1,0,3.52L53.06,126.14a2.48,2.48,0,0,1-3.51,0Zm0,0"/><path class="h" d="M81.85,93.79,53.09,65a2.52,2.52,0,0,0-3.56,0l-6.62,6.61L65.07,93.79a2.5,2.5,0,0,1,0,3.56L42.91,119.51l6.62,6.61a2.52,2.52,0,0,0,3.56,0L81.85,97.35a2.5,2.5,0,0,0,0-3.56Zm0,0"/></svg>