<svg xmlns="http://www.w3.org/2000/svg" xmlns:xlink="http://www.w3.org/1999/xlink" viewBox="0 0 480 480"><defs><style>.a{fill:#e8f5f3;}.b{fill:#e4eaf2;}.c{fill:#cce9e6;}.d{fill:#ccd9e8;}.e{fill:#99b2d2;}.f{fill:#4a77af;}.g{fill:#1f518c;}.h{fill:url(#a);}.i{fill:#faae17;}</style><linearGradient id="a" x1="160.55" y1="371.08" x2="319.45" y2="371.08" gradientUnits="userSpaceOnUse"><stop offset="0" stop-color="#20579c"/><stop offset="1" stop-color="#26ae9f"/></linearGradient></defs><path class="a" d="M461.49,24.12v24.3a4.05,4.05,0,0,0-4.05-4.05H377.11a12.67,12.67,0,0,1-12.84-11.5v-.65a12.15,12.15,0,0,1,12.15-12.15h81a4,4,0,0,1,4.05,4.05Zm0,0"/><path class="b" d="M461.49,48.42v89.13a4,4,0,0,1-4.05,4h-81a12.15,12.15,0,0,1-12.15-12.15V32.87a12.67,12.67,0,0,0,12.84,11.5h80.33a4.05,4.05,0,0,1,4.05,4.05Zm0,0"/><path class="a" d="M445.29,64.63H380.47a4,4,0,0,1,0-8.1h64.82a4.05,4.05,0,0,1,0,8.1Zm0,0"/><path class="a" d="M445.29,80.83H380.47a4,4,0,0,1,0-8.1h64.82a4,4,0,0,1,0,8.1Zm0,0"/><path class="c" d="M435.76,76.64V101a4.05,4.05,0,0,0-4.05-4.06H351.38a12.67,12.67,0,0,1-12.84-11.5v-.65a12.15,12.15,0,0,1,12.15-12.15h81a4,4,0,0,1,4.05,4Zm0,0"/><path class="d" d="M435.76,101v89.12a4,4,0,0,1-4.05,4.05h-81A12.15,12.15,0,0,1,338.54,182V85.39a12.67,12.67,0,0,0,12.84,11.5h80.33a4.05,4.05,0,0,1,4.05,4.06Zm0,0"/><path class="e" d="M419.56,117.15H354.74a4.05,4.05,0,0,1,0-8.1h64.82a4.05,4.05,0,1,1,0,8.1Zm0,0"/><path class="e" d="M419.56,133.35H354.74a4,4,0,0,1,0-8.1h64.82a4,4,0,1,1,0,8.1Zm0,0"/><path class="c" d="M411.58,130.2v29.05a4.84,4.84,0,0,0-4.84-4.84h-96a15.15,15.15,0,0,1-15.35-13.75v-.78a14.54,14.54,0,0,1,14.53-14.53h96.85a4.85,4.85,0,0,1,4.84,4.85Zm0,0"/><path class="e" d="M411.58,159.25V265.79a4.84,4.84,0,0,1-4.84,4.84H309.89a14.54,14.54,0,0,1-14.53-14.53V140.66a15.15,15.15,0,0,0,15.35,13.75h96a4.84,4.84,0,0,1,4.84,4.84Zm0,0"/><path class="f" d="M392.21,178.62H314.73a4.84,4.84,0,0,1,0-9.68h77.48a4.84,4.84,0,1,1,0,9.68Zm0,0"/><path class="f" d="M392.21,198H314.73a4.84,4.84,0,0,1,0-9.68h77.48a4.84,4.84,0,1,1,0,9.68Zm0,0"/><path class="c" d="M384.53,193.93v33.69a5.62,5.62,0,0,0-5.61-5.62H267.59a17.55,17.55,0,0,1-17.79-15.94v-.9a16.84,16.84,0,0,1,16.84-16.84H378.92a5.61,5.61,0,0,1,5.61,5.61Zm0,0"/><path class="f" d="M384.53,227.62v123.5a5.61,5.61,0,0,1-5.61,5.61H266.64a16.84,16.84,0,0,1-16.84-16.84V206.06A17.55,17.55,0,0,0,267.59,222H378.92a5.62,5.62,0,0,1,5.61,5.62Zm0,0"/><path class="g" d="M362.07,250.07H272.25a5.61,5.61,0,0,1,0-11.22h89.82a5.61,5.61,0,1,1,0,11.22Zm0,0"/><path class="g" d="M362.07,272.53H272.25a5.62,5.62,0,0,1,0-11.23h89.82a5.62,5.62,0,1,1,0,11.23Zm0,0"/><path class="a" d="M18.51,24.12a4,4,0,0,1,4-4.05h81a12.15,12.15,0,0,1,12.15,12.15v.65a12.67,12.67,0,0,1-12.84,11.5H22.56a4.05,4.05,0,0,0-4,4.05V24.12Zm0,0"/><path class="b" d="M18.51,48.42a4.05,4.05,0,0,1,4-4.05h80.33a12.67,12.67,0,0,0,12.84-11.5v96.58a12.15,12.15,0,0,1-12.15,12.15h-81a4,4,0,0,1-4-4V48.42Zm0,0"/><path class="a" d="M34.71,64.63a4,4,0,0,1,0-8.1H99.53a4,4,0,1,1,0,8.1Zm0,0"/><path class="a" d="M34.71,80.83a4,4,0,0,1,0-8.1H99.53a4,4,0,0,1,0,8.1Zm0,0"/><path class="c" d="M44.24,76.64a4,4,0,0,1,4-4h81a12.15,12.15,0,0,1,12.15,12.15v.65a12.67,12.67,0,0,1-12.84,11.5H48.29a4.05,4.05,0,0,0-4,4.06V76.64Zm0,0"/><path class="d" d="M44.24,101a4.05,4.05,0,0,1,4-4.06h80.33a12.67,12.67,0,0,0,12.84-11.5V182a12.15,12.15,0,0,1-12.15,12.15h-81a4,4,0,0,1-4-4.05V101Zm0,0"/><path class="e" d="M60.44,117.15a4.05,4.05,0,1,1,0-8.1h64.82a4,4,0,0,1,0,8.1Zm0,0"/><path class="e" d="M60.44,133.35a4,4,0,1,1,0-8.1h64.82a4,4,0,0,1,0,8.1Zm0,0"/><path class="c" d="M68.42,130.2a4.85,4.85,0,0,1,4.84-4.85h96.85a14.54,14.54,0,0,1,14.53,14.53v.78a15.15,15.15,0,0,1-15.35,13.75h-96a4.84,4.84,0,0,0-4.84,4.84V130.2Zm0,0"/><path class="e" d="M68.42,159.25a4.84,4.84,0,0,1,4.84-4.84h96a15.15,15.15,0,0,0,15.35-13.75V256.1a14.54,14.54,0,0,1-14.53,14.53H73.26a4.84,4.84,0,0,1-4.84-4.84V159.25Zm0,0"/><path class="f" d="M87.79,178.62a4.84,4.84,0,1,1,0-9.68h77.48a4.84,4.84,0,0,1,0,9.68Zm0,0"/><path class="f" d="M87.79,198a4.84,4.84,0,1,1,0-9.68h77.48a4.84,4.84,0,0,1,0,9.68Zm0,0"/><path class="c" d="M95.47,193.93a5.61,5.61,0,0,1,5.61-5.61H213.36a16.84,16.84,0,0,1,16.84,16.84v.9A17.55,17.55,0,0,1,212.41,222H101.08a5.62,5.62,0,0,0-5.61,5.62V193.93Zm0,0"/><path class="f" d="M95.47,227.62a5.62,5.62,0,0,1,5.61-5.62H212.41a17.55,17.55,0,0,0,17.79-15.94V339.89a16.84,16.84,0,0,1-16.84,16.84H101.08a5.61,5.61,0,0,1-5.61-5.61V227.62Zm0,0"/><path class="g" d="M117.93,250.07a5.61,5.61,0,1,1,0-11.22h89.82a5.61,5.61,0,0,1,0,11.22Zm0,0"/><path class="g" d="M117.93,272.53a5.62,5.62,0,1,1,0-11.23h89.82a5.62,5.62,0,0,1,0,11.23Zm0,0"/><path class="c" d="M319.45,267.93v39.73a6.62,6.62,0,0,0-6.62-6.62H181.54a20.72,20.72,0,0,1-21-18.81v-1.05a19.87,19.87,0,0,1,19.86-19.87H312.83a6.62,6.62,0,0,1,6.62,6.62Zm0,0"/><path class="h" d="M319.45,307.66V453.31a6.62,6.62,0,0,1-6.62,6.62H180.41a19.86,19.86,0,0,1-19.86-19.86V282.23a20.72,20.72,0,0,0,21,18.81H312.83a6.62,6.62,0,0,1,6.62,6.62Zm0,0"/><path class="c" d="M293,334.14H187a6.62,6.62,0,1,1,0-13.24H293a6.62,6.62,0,1,1,0,13.24Zm0,0"/><path class="c" d="M293,360.62H187a6.62,6.62,0,1,1,0-13.24H293a6.62,6.62,0,1,1,0,13.24Zm0,0"/><path class="i" d="M102.9,278.09h14.38v12.18H102.9v16.48H89.63V290.27H75.21V278.09H89.63v-16H102.9Z"/><path class="i" d="M410.27,303.43h9.6v8.14h-9.6v11H401.4v-11h-9.63v-8.14h9.63v-10.7h8.87Z"/><path class="i" d="M331,139h6V144h-6v6.87h-5.54V144h-6V139h6v-6.68H331Z"/><path class="i" d="M229.7,180.73h-5.94V161.82l-5.84,1.71V159l11.24-3.89h.54Z"/><path class="i" d="M229.7,181.23h-5.94a.5.5,0,0,1-.5-.5V162.49l-5.2,1.51a.49.49,0,0,1-.44-.07.54.54,0,0,1-.2-.4V159a.51.51,0,0,1,.34-.48L229,154.67a.51.51,0,0,1,.17,0h.54a.5.5,0,0,1,.5.5v25.59A.5.5,0,0,1,229.7,181.23Zm-5.44-1h4.94V155.65l-10.78,3.73v3.48l5.2-1.52a.47.47,0,0,1,.44.08.48.48,0,0,1,.2.4Z"/><path class="i" d="M208.47,166.79h4.89v4.14h-4.89v5.6H204v-5.6h-4.9v-4.14H204v-5.45h4.51Z"/><path class="i" d="M365.76,400.19h-5.94V381.28L354,383v-4.5l11.23-3.88h.54Z"/><path class="i" d="M365.76,400.69h-5.94a.5.5,0,0,1-.5-.5V381.94l-5.19,1.52a.49.49,0,0,1-.44-.08.48.48,0,0,1-.2-.4v-4.5a.5.5,0,0,1,.33-.47l11.23-3.89.17,0h.54a.5.5,0,0,1,.5.5v25.59A.5.5,0,0,1,365.76,400.69Zm-5.44-1h4.94V375.11l-10.77,3.73v3.47l5.19-1.51a.46.46,0,0,1,.44.08.48.48,0,0,1,.2.4Z"/><path class="i" d="M344.53,386.24h4.89v4.15h-4.89V396H340v-5.6h-4.9v-4.15H340V380.8h4.51Z"/><path class="i" d="M185.18,85.53h-5.94V66.61l-5.83,1.71v-4.5l11.23-3.89h.54Z"/><path class="i" d="M185.18,86h-5.94a.51.51,0,0,1-.5-.5V67.28l-5.19,1.52a.53.53,0,0,1-.44-.08.51.51,0,0,1-.2-.4v-4.5a.5.5,0,0,1,.33-.48l11.24-3.88a.41.41,0,0,1,.16,0h.54a.5.5,0,0,1,.5.5v25.6A.5.5,0,0,1,185.18,86Zm-5.44-1h4.94V60.45l-10.77,3.72v3.48l5.19-1.52a.53.53,0,0,1,.44.08.49.49,0,0,1,.2.4Z"/><path class="i" d="M164,71.58h4.88v4.14H164v5.61h-4.52V75.72h-4.9V71.58h4.9V66.13H164Z"/><path class="i" d="M276.7,103.37h5.21v4.42H276.7v6h-4.82v-6h-5.24v-4.42h5.24V97.55h4.82Z"/><path class="i" d="M364.83,56.36H373v7h-8.21v9.41h-7.59V63.32H349v-7h8.23V47.21h7.59Z"/><path class="i" d="M53.14,41h6.29v5.33H53.14v7.22H47.32V46.36H41V41h6.3V34h5.82Z"/><path class="i" d="M286.63,117a.47.47,0,0,1-.48-.48v-3.72a.51.51,0,0,1,.13-.33l7.92-8.32c1.85-2.11,2.79-3.79,2.79-5a3.28,3.28,0,0,0-.58-2.11,2.23,2.23,0,0,0-3.37.26,4.07,4.07,0,0,0-.72,2.48.49.49,0,0,1-.48.48h-5.72a.49.49,0,0,1-.48-.48,8.56,8.56,0,0,1,4.53-7.61,9.84,9.84,0,0,1,4.73-1.14,9.63,9.63,0,0,1,6.46,2,7.06,7.06,0,0,1,2.33,5.66,8.21,8.21,0,0,1-.58,3,12.81,12.81,0,0,1-1.74,3,44.93,44.93,0,0,1-3.73,4.1l-2.47,2.85h8.64a.49.49,0,0,1,.49.48v4.4a.48.48,0,0,1-.49.48Z"/><path class="i" d="M294.9,91.53a9.2,9.2,0,0,1,6.15,1.84,6.57,6.57,0,0,1,2.15,5.3,7.69,7.69,0,0,1-.54,2.83,12.4,12.4,0,0,1-1.68,2.89,42.22,42.22,0,0,1-3.68,4l-3.18,3.67h9.69v4.4H286.63v-3.72l7.91-8.32c2-2.22,2.93-4,2.93-5.3a3.71,3.71,0,0,0-.69-2.42,2.72,2.72,0,0,0-4.13.28,4.57,4.57,0,0,0-.81,2.77h-5.72a8.15,8.15,0,0,1,1.13-4.19,8,8,0,0,1,3.15-3,9.35,9.35,0,0,1,4.5-1.08"/><path class="i" d="M66.85,55.8a.49.49,0,0,1-.48-.48V51.59a.49.49,0,0,1,.13-.33l7.94-8.34c1.85-2.11,2.8-3.79,2.8-5a3.22,3.22,0,0,0-.59-2.11A2,2,0,0,0,75,35.17a2,2,0,0,0-1.73.92,4.07,4.07,0,0,0-.72,2.48.48.48,0,0,1-.49.48H66.35a.48.48,0,0,1-.49-.48,8.61,8.61,0,0,1,1.21-4.44,8.48,8.48,0,0,1,3.34-3.19,11.11,11.11,0,0,1,11.21.82A7.12,7.12,0,0,1,84,37.44a8.26,8.26,0,0,1-.58,3,12.53,12.53,0,0,1-1.75,3,42.13,42.13,0,0,1-3.73,4.11l-2.47,2.86h8.65a.48.48,0,0,1,.49.48v4.41a.49.49,0,0,1-.49.48Z"/><path class="i" d="M75.14,30.28a9.21,9.21,0,0,1,6.16,1.85,6.6,6.6,0,0,1,2.16,5.31,7.69,7.69,0,0,1-.54,2.83,12.25,12.25,0,0,1-1.68,2.9,43.89,43.89,0,0,1-3.69,4.06l-3.19,3.68h9.71v4.41H66.85V51.59l7.94-8.34q2.92-3.34,2.93-5.31a3.64,3.64,0,0,0-.7-2.42,2.47,2.47,0,0,0-2-.83,2.51,2.51,0,0,0-2.12,1.11,4.57,4.57,0,0,0-.82,2.77H66.35a8.06,8.06,0,0,1,1.13-4.19,7.94,7.94,0,0,1,3.15-3,9.31,9.31,0,0,1,4.51-1.09"/><path class="i" d="M437.25,189h6v5.08h-6V201h-5.54v-6.87h-6V189h6v-6.68h5.54Z"/><path class="i" d="M449.33,203.68a.48.48,0,0,1-.48-.49v-3.72a.51.51,0,0,1,.13-.34l7.93-8.34c1.86-2.11,2.8-3.79,2.8-5a3.22,3.22,0,0,0-.58-2.11,2,2,0,0,0-1.65-.66,2.05,2.05,0,0,0-1.73.91,4.17,4.17,0,0,0-.72,2.49.48.48,0,0,1-.48.48h-5.73a.49.49,0,0,1-.48-.48,8.58,8.58,0,0,1,1.2-4.44,8.41,8.41,0,0,1,3.34-3.19,9.86,9.86,0,0,1,4.74-1.14,9.71,9.71,0,0,1,6.47,2,7.07,7.07,0,0,1,2.33,5.67,8.3,8.3,0,0,1-.57,3,13.24,13.24,0,0,1-1.75,3,44.78,44.78,0,0,1-3.73,4.11l-2.48,2.86h8.66a.47.47,0,0,1,.48.48v4.4a.48.48,0,0,1-.48.49Z"/><path class="i" d="M457.62,178.16a9.21,9.21,0,0,1,6.16,1.85,6.59,6.59,0,0,1,2.16,5.3,7.74,7.74,0,0,1-.54,2.84,12.51,12.51,0,0,1-1.69,2.9,43.32,43.32,0,0,1-3.68,4.06l-3.19,3.68h9.71v4.4H449.33v-3.72l7.93-8.34q2.94-3.34,2.94-5.31a3.69,3.69,0,0,0-.7-2.42,2.47,2.47,0,0,0-2-.83,2.52,2.52,0,0,0-2.12,1.11,4.57,4.57,0,0,0-.81,2.77h-5.73a8.1,8.1,0,0,1,1.14-4.2,8,8,0,0,1,3.15-3,9.39,9.39,0,0,1,4.51-1.08"/></svg>