<svg xmlns="http://www.w3.org/2000/svg" xmlns:xlink="http://www.w3.org/1999/xlink" viewBox="0 0 480 480"><defs><style>.a{fill:#ccd9e8;}.b{fill:#20579c;}.c{fill:url(#a);}.d{fill:#cce9e6;}.e{fill:#132e50;}.f{fill:url(#b);}.g{fill:#173f6d;}.h{fill:url(#c);}</style><linearGradient id="a" x1="102.89" y1="220.54" x2="172.7" y2="220.54" gradientUnits="userSpaceOnUse"><stop offset="0" stop-color="#20579c"/><stop offset="1" stop-color="#26ae9f"/></linearGradient><linearGradient id="b" x1="307.3" y1="320.54" x2="377.11" y2="320.54" xlink:href="#a"/><linearGradient id="c" x1="205.1" y1="170.54" x2="274.9" y2="170.54" xlink:href="#a"/></defs><path class="a" d="M367.58,378V102a25.37,25.37,0,0,0-50.74,0V378a25.37,25.37,0,0,0,50.74,0Z"/><path class="a" d="M265.37,378V102a25.37,25.37,0,0,0-50.74,0V378a25.37,25.37,0,0,0,50.74,0Z"/><path class="a" d="M163.16,378V102a25.37,25.37,0,0,0-50.74,0V378a25.37,25.37,0,0,0,50.74,0Z"/><path class="b" d="M112.42,221.19V378a25.37,25.37,0,0,0,50.74,0V221.19a25.37,25.37,0,0,0-50.74,0Z"/><circle class="c" cx="137.79" cy="220.54" r="34.9"/><circle class="d" cx="137.79" cy="220.54" r="20.94"/><circle class="b" cx="137.79" cy="220.54" r="12.88"/><path class="e" d="M316.84,321.19V378a25.37,25.37,0,0,0,50.74,0V321.19a25.37,25.37,0,0,0-50.74,0Z"/><circle class="f" cx="342.21" cy="320.54" r="34.9"/><circle class="d" cx="342.21" cy="320.54" r="20.94"/><circle class="e" cx="342.21" cy="320.54" r="12.88"/><path class="g" d="M214.63,171.19V378a25.37,25.37,0,0,0,50.74,0V171.19a25.37,25.37,0,0,0-50.74,0Z"/><circle class="h" cx="240" cy="170.54" r="34.9"/><circle class="d" cx="240" cy="170.54" r="20.94"/><circle class="g" cx="240" cy="170.54" r="12.88"/></svg>