<svg xmlns="http://www.w3.org/2000/svg" xmlns:xlink="http://www.w3.org/1999/xlink" viewBox="0 0 480 480"><defs><style>.a{fill:#132e50;}.b{fill:#e8f5f3;}.c{fill:#99d5cf;}.d{fill:url(#a);}.e{fill:#cce9e6;}.f{fill:#29afa0;}</style><linearGradient id="a" x1="185.13" y1="279.12" x2="253.8" y2="279.12" gradientTransform="translate(58.64 -27.95) rotate(3.11)" gradientUnits="userSpaceOnUse"><stop offset="0" stop-color="#20579c"/><stop offset="1" stop-color="#26ae9f"/></linearGradient></defs><path class="a" d="M20.86,370.34V109.66A11.48,11.48,0,0,1,32.34,98.19h195a11.48,11.48,0,0,1,11.48,11.47V370.34a11.48,11.48,0,0,1-11.48,11.47h-195A11.48,11.48,0,0,1,20.86,370.34Z"/><path class="b" d="M38.11,362.25V117.75a6.11,6.11,0,0,1,6.11-6.12H215.45a6.11,6.11,0,0,1,6.11,6.12v244.5a6.11,6.11,0,0,1-6.11,6.12H44.22A6.11,6.11,0,0,1,38.11,362.25Z"/><path class="c" d="M104.4,189.14H63.71a5.09,5.09,0,0,1,0-10.18H104.4a5.09,5.09,0,0,1,0,10.18Z"/><path class="c" d="M94.23,158.62H63.71a5.09,5.09,0,0,1,0-10.18H94.23a5.09,5.09,0,0,1,0,10.18Z"/><path class="c" d="M129.84,158.62H114.58a5.09,5.09,0,0,1,0-10.18h15.26a5.09,5.09,0,0,1,0,10.18Z"/><path class="c" d="M165.44,189.14H124.75a5.09,5.09,0,0,1,0-10.18h40.69a5.09,5.09,0,0,1,0,10.18Z"/><path class="c" d="M196,189.14H185.79a5.09,5.09,0,0,1,0-10.18H196a5.09,5.09,0,0,1,0,10.18Z"/><path class="c" d="M196,209.48H155.27a5.09,5.09,0,1,1,0-10.17H196a5.09,5.09,0,0,1,0,10.17Z"/><path class="c" d="M134.92,209.48H94.23a5.09,5.09,0,1,1,0-10.17h40.69a5.09,5.09,0,1,1,0,10.17Z"/><path class="c" d="M104.4,229.83H63.71a5.09,5.09,0,0,1,0-10.18H104.4a5.09,5.09,0,0,1,0,10.18Z"/><path class="c" d="M165.44,229.83H124.75a5.09,5.09,0,0,1,0-10.18h40.69a5.09,5.09,0,0,1,0,10.18Z"/><path class="c" d="M196,229.83H185.79a5.09,5.09,0,0,1,0-10.18H196a5.09,5.09,0,0,1,0,10.18Z"/><path class="c" d="M196,270.52H175.61a5.09,5.09,0,0,1,0-10.17H196a5.09,5.09,0,0,1,0,10.17Z"/><path class="c" d="M196,250.17H155.27a5.09,5.09,0,1,1,0-10.17H196a5.09,5.09,0,0,1,0,10.17Z"/><path class="c" d="M196,280.69H79v10.17H196a5.09,5.09,0,0,0,0-10.17Z"/><path class="c" d="M134.92,250.17H94.23a5.09,5.09,0,1,1,0-10.17h40.69a5.09,5.09,0,1,1,0,10.17Z"/><path class="c" d="M155.27,270.52H63.71a5.09,5.09,0,0,1,0-10.17h91.56a5.09,5.09,0,0,1,0,10.17Z"/><path class="c" d="M58.63,265.43a5.08,5.08,0,0,0,5.08,5.09h40.05a20.36,20.36,0,0,0-6.25-10.17H63.71A5.07,5.07,0,0,0,58.63,265.43Z"/><path class="c" d="M196,321.38H79v10.18H196a5.09,5.09,0,0,0,0-10.18Z"/><path class="c" d="M150.18,311.21H129.84a5.09,5.09,0,1,1,0-10.17h20.34a5.09,5.09,0,1,1,0,10.17Z"/><path class="c" d="M109.49,311.21H63.71a5.09,5.09,0,0,1,0-10.17h45.78a5.09,5.09,0,1,1,0,10.17Z"/><path class="c" d="M73.88,209.48H63.71a5.09,5.09,0,0,1,0-10.17H73.88a5.09,5.09,0,1,1,0,10.17Z"/><path class="c" d="M73.88,250.17H63.71a5.09,5.09,0,0,1,0-10.17H73.88a5.09,5.09,0,1,1,0,10.17Z"/><path class="c" d="M155.27,331.56H63.71a5.09,5.09,0,0,1,0-10.18h91.56a5.09,5.09,0,0,1,0,10.18Z"/><path class="c" d="M155.27,290.86H63.71a5.09,5.09,0,0,1,0-10.17h91.56a5.09,5.09,0,0,1,0,10.17Z"/><path class="d" d="M234.26,153l12.4,221.84a7.4,7.4,0,0,0,7.8,7L284,380.14a7.39,7.39,0,0,0,7-7.8L278.63,150.5a7.41,7.41,0,0,0-7.81-7l-29.58,1.65A7.41,7.41,0,0,0,234.26,153Z"/><path class="e" d="M274.14,370.83l-9.73.55a4.87,4.87,0,1,1-.55-9.73l9.73-.55a4.87,4.87,0,0,1,.55,9.73Z"/><path class="a" d="M378.54,248.62l37.67,127.87a7.4,7.4,0,0,0,9.19,5l28.42-8.38a7.4,7.4,0,0,0,5-9.19L421.16,236.06a7.4,7.4,0,0,0-9.19-5l-28.42,8.37A7.4,7.4,0,0,0,378.54,248.62Z"/><path class="e" d="M441.84,367l-9.35,2.73a4.87,4.87,0,0,1-2.73-9.35l9.35-2.73a4.87,4.87,0,1,1,2.73,9.35Z"/><path class="c" d="M282.43,213.2l17.46,162a7.42,7.42,0,0,0,8.16,6.57l29.45-3.18a7.4,7.4,0,0,0,6.57-8.16l-17.46-162a7.4,7.4,0,0,0-8.15-6.57L289,205A7.4,7.4,0,0,0,282.43,213.2Z"/><path class="e" d="M329,371.37l-13.33,1.5a3.61,3.61,0,1,1-.74-7.19l13.33-1.5a3.61,3.61,0,0,1,.74,7.19Z"/><path class="f" d="M323.1,185.17l29.1,190.35a7.4,7.4,0,0,0,8.44,6.2l29.28-4.47a7.41,7.41,0,0,0,6.2-8.44L367,178.46a7.39,7.39,0,0,0-8.44-6.2l-29.28,4.47A7.41,7.41,0,0,0,323.1,185.17Z"/><path class="e" d="M380.52,370.05l-13.26,2.07a3.61,3.61,0,1,1-1.05-7.15l13.26-2.07a3.61,3.61,0,0,1,1,7.15Z"/></svg>