<svg xmlns="http://www.w3.org/2000/svg" xmlns:xlink="http://www.w3.org/1999/xlink" viewBox="0 0 480 480"><defs><style>.a{fill:#66c5ba;}.b{fill:#e8f5f3;}.c{fill:#99d5cf;}.d{fill:#cce9e6;}.e{fill:url(#a);}.f{fill:#fff;}.g{fill:#20579c;}</style><linearGradient id="a" x1="102.3" y1="207.21" x2="325.24" y2="207.21" gradientUnits="userSpaceOnUse"><stop offset="0" stop-color="#20579c"/><stop offset="1" stop-color="#26ae9f"/></linearGradient></defs><path class="a" d="M371.14,377.7H161.31A19.67,19.67,0,0,1,141.64,358V69.51a19.67,19.67,0,0,1,19.67-19.67H371.14a19.67,19.67,0,0,1,19.67,19.67V358A19.67,19.67,0,0,1,371.14,377.7Z"/><path class="b" d="M371.14,246.56H161.31a6.56,6.56,0,0,1-6.55-6.56V69.51A6.55,6.55,0,0,1,161.31,63H371.14a6.56,6.56,0,0,1,6.56,6.55V240A6.56,6.56,0,0,1,371.14,246.56Z"/><path class="c" d="M344.91,403.93H135.09a19.68,19.68,0,0,1-19.68-19.67V95.74a19.68,19.68,0,0,1,19.68-19.67H344.91a19.68,19.68,0,0,1,19.68,19.67V384.26A19.68,19.68,0,0,1,344.91,403.93Z"/><path class="b" d="M344.91,272.79H135.09a6.56,6.56,0,0,1-6.56-6.56V95.74a6.55,6.55,0,0,1,6.56-6.55H344.91a6.55,6.55,0,0,1,6.56,6.55V266.23A6.56,6.56,0,0,1,344.91,272.79Z"/><path class="d" d="M318.69,430.16H108.86a19.67,19.67,0,0,1-19.67-19.67V122a19.67,19.67,0,0,1,19.67-19.67H318.69A19.67,19.67,0,0,1,338.36,122V410.49A19.67,19.67,0,0,1,318.69,430.16Z"/><path class="e" d="M318.69,299H108.86a6.56,6.56,0,0,1-6.56-6.55V122a6.56,6.56,0,0,1,6.56-6.56H318.69a6.56,6.56,0,0,1,6.55,6.56V292.46A6.55,6.55,0,0,1,318.69,299Z"/><path class="f" d="M198.11,155.6A21.39,21.39,0,0,0,177.57,140h-6.29a21.39,21.39,0,0,0-20.53,15.61L120.63,264a8.19,8.19,0,0,0,15.79,4.39l7.44-26.78H205l7.44,26.78a8.2,8.2,0,0,0,7.89,6,8.06,8.06,0,0,0,2.21-.3,8.19,8.19,0,0,0,5.7-10.09Zm-49.69,69.65L166.54,160a4.94,4.94,0,0,1,4.74-3.6h6.29a4.94,4.94,0,0,1,4.75,3.6l18.12,65.25Z"/><path class="f" d="M300.65,258.2V200.66A8.14,8.14,0,0,0,284.8,198a34.08,34.08,0,0,0-18.57-5.53,34.47,34.47,0,0,0-34.43,34.42V240a34.47,34.47,0,0,0,34.43,34.42,34.1,34.1,0,0,0,20.38-6.83,14.7,14.7,0,0,0,12.4,6.83,8.19,8.19,0,0,0,1.64-16.22ZM266.23,258a18,18,0,0,1-18-18V226.88a18,18,0,1,1,36.06,0V240A18.05,18.05,0,0,1,266.23,258Z"/><path class="g" d="M299,344.91H128.53a6.56,6.56,0,1,1,0-13.11H299a6.56,6.56,0,1,1,0,13.11Z"/><path class="g" d="M233.44,397.37H128.53a6.56,6.56,0,1,1,0-13.11H233.44a6.56,6.56,0,1,1,0,13.11Z"/><path class="g" d="M167.87,371.14H128.53a6.56,6.56,0,1,1,0-13.11h39.34a6.56,6.56,0,1,1,0,13.11Z"/><path class="g" d="M299,371.14H194.1a6.56,6.56,0,1,1,0-13.11H299a6.56,6.56,0,1,1,0,13.11Z"/></svg>