<svg xmlns="http://www.w3.org/2000/svg" xmlns:xlink="http://www.w3.org/1999/xlink" viewBox="0 0 480 480"><defs><style>.a{fill:url(#a);}.b{fill:url(#b);}.c{fill:#66c5ba;}.d{fill:#cce9e6;}.e{fill:#29afa0;}.f{fill:#257c71;}.g{fill:#99d5cf;}.h{fill:#2a8d81;}</style><linearGradient id="a" x1="62.53" y1="180.84" x2="454.44" y2="180.84" gradientUnits="userSpaceOnUse"><stop offset="0" stop-color="#20579c"/><stop offset="1" stop-color="#26ae9f"/></linearGradient><linearGradient id="b" x1="25.56" y1="299.16" x2="417.47" y2="299.16" xlink:href="#a"/></defs><path class="a" d="M240,25.56A213.17,213.17,0,0,0,81.05,96.12L84.64,71A7.39,7.39,0,1,0,70,68.88l-7.4,51.76a7.41,7.41,0,0,0,7.33,8.44,7.3,7.3,0,0,0,2.34-.38l44.36-14.79a7.39,7.39,0,1,0-4.68-14l-20.61,6.87A198.48,198.48,0,0,1,240,40.35c110.09,0,199.65,89.56,199.65,199.65a197.77,197.77,0,0,1-19.21,85.56,7.39,7.39,0,0,0,3.51,9.85,7.3,7.3,0,0,0,3.17.72,7.39,7.39,0,0,0,6.68-4.23A212.53,212.53,0,0,0,454.44,240C454.44,121.76,358.24,25.56,240,25.56Z"/><path class="b" d="M407.73,351.3l-44.36,14.79a7.39,7.39,0,1,0,4.68,14l20.54-6.84A198.06,198.06,0,0,1,240,439.65C129.91,439.65,40.35,350.09,40.35,240a197.77,197.77,0,0,1,19.21-85.56A7.39,7.39,0,0,0,46.2,148.1,212.53,212.53,0,0,0,25.56,240c0,118.24,96.2,214.44,214.44,214.44a212.71,212.71,0,0,0,159-70.61l-3.6,25.2a7.4,7.4,0,0,0,6.27,8.37,7.65,7.65,0,0,0,1.06.07,7.4,7.4,0,0,0,7.31-6.35l7.4-51.76a7.41,7.41,0,0,0-9.67-8.06Z"/><path class="c" d="M263.88,87.34c14.83,2.83,21.28,7.48,23.67,9.78a2.62,2.62,0,0,0,2.83.54c3.07-1.25,10.78-3.21,25.61-.37,16,3,33.62,10.08,41.26,13.32a5.23,5.23,0,0,1,3.08,5.82L343.17,206.3a2.61,2.61,0,0,1-3.59,1.94c-7.07-3-25.5-10.53-42.16-13.71a66.86,66.86,0,0,0-17.34-1.33c-2.4.18-4.24,1.14-4.7,3.51h0a5.26,5.26,0,0,1-10.34-2h0c.45-2.37-.9-3.94-3.07-5a66.92,66.92,0,0,0-16.66-5.18c-16.66-3.18-36.56-3-44.24-2.79a2.61,2.61,0,0,1-2.63-3.13L215.6,88.79a5.23,5.23,0,0,1,5-4.27C228.91,84.32,247.89,84.28,263.88,87.34Z"/><path class="d" d="M231.9,115.67a6.82,6.82,0,0,0,.79.09c17.31.67,30.69,2.87,39.53,6.83a5.26,5.26,0,1,0,4.31-9.6c-10.17-4.56-24.65-7-43.43-7.76a5.27,5.27,0,0,0-1.2,10.44Z"/><path class="d" d="M224,157a6.82,6.82,0,0,0,.79.1c17.31.67,30.69,2.87,39.53,6.83a5.26,5.26,0,1,0,4.31-9.6c-10.17-4.56-24.65-7-43.43-7.76A5.26,5.26,0,0,0,224,157Z"/><path class="d" d="M269.44,143.65a5.27,5.27,0,0,0,3.13-10c-1.59-.71-3.4-1.43-5.46-2.12a5.26,5.26,0,1,0-3.35,10c1.71.58,3.21,1.16,4.52,1.75A5.58,5.58,0,0,0,269.44,143.65Z"/><path class="d" d="M228,136.35a5.16,5.16,0,0,0,.79.09c5.55.21,10.75.6,15.46,1.14a5.26,5.26,0,1,0,1.2-10.46c-5-.57-10.44-1-16.25-1.2a5.26,5.26,0,0,0-1.2,10.43Z"/><path class="d" d="M335.33,135.42a5.27,5.27,0,0,0,2.73-10.14C320.33,119,306,116,294.83,116.48a5.27,5.27,0,0,0,.46,10.52c9.69-.43,22.93,2.46,39.27,8.21A5.51,5.51,0,0,0,335.33,135.42Z"/><path class="d" d="M327.43,176.78a5.26,5.26,0,0,0,2.73-10.13c-17.73-6.24-32.11-9.29-43.23-8.8a5.26,5.26,0,1,0,.46,10.51c9.69-.42,22.93,2.47,39.27,8.22A4.37,4.37,0,0,0,327.43,176.78Z"/><path class="d" d="M290.12,147.59a5.44,5.44,0,0,0,1.22.1,46.66,46.66,0,0,1,4.84,0,5.27,5.27,0,1,0,.56-10.52c-2.17-.12-4.11-.12-5.86-.05a5.26,5.26,0,0,0-.76,10.43Z"/><path class="d" d="M331.38,156.1A5.27,5.27,0,0,0,334.11,146c-5.49-1.93-10.72-3.57-15.55-4.87a5.18,5.18,0,0,0-6.45,3.72,5.27,5.27,0,0,0,3.71,6.45c4.58,1.23,9.55,2.79,14.79,4.64A7.27,7.27,0,0,0,331.38,156.1Z"/><rect class="e" x="280.52" y="331.29" width="24.08" height="36.12" transform="translate(-86.68 601.96) rotate(-83.72)"/><path class="f" d="M227.4,336.12,359,350.6A12,12,0,0,0,372.31,340l9.22-83.76a12.05,12.05,0,0,0-10.65-13.29L239.25,228.43A12,12,0,0,0,226,239.08l-9.21,83.76A12,12,0,0,0,227.4,336.12Z"/><path class="c" d="M266.65,364.66l47.87,5.27a6,6,0,1,0,1.31-12L268,352.7a6,6,0,1,0-1.32,12Z"/><path class="c" d="M227.4,336.12,359,350.6A12,12,0,0,0,372.31,340l.66-6L217.41,316.86l-.66,6A12,12,0,0,0,227.4,336.12Z"/><path class="d" d="M233.68,306.54l125.65,13.82a3,3,0,0,0,3.32-2.67l6.58-59.83a3,3,0,0,0-2.66-3.32L240.92,240.72a3,3,0,0,0-3.32,2.66L231,303.22A3,3,0,0,0,233.68,306.54Z"/><path class="c" d="M157.57,180.69l-72.18,2.74a6,6,0,0,0-5.78,6.24L84.17,310a6,6,0,0,0,6.24,5.79l66.17-2.51a12,12,0,0,0,11.57-12.49l-4.33-114.28A6,6,0,0,0,157.57,180.69Z"/><path class="f" d="M156.58,313.25l-24.06.91-3-78.19a18.05,18.05,0,0,1,17.36-18.73l18.05-.69,3.19,84.21A12,12,0,0,1,156.58,313.25Z"/><path class="d" d="M158.9,295.09,92.74,297.6a3,3,0,0,1-3.13-2.9l-3.42-90.22a3,3,0,0,1,2.9-3.12l66.16-2.51a3,3,0,0,1,3.12,2.89L161.79,292A3,3,0,0,1,158.9,295.09Z"/><path class="g" d="M146.91,217.24A18.05,18.05,0,0,0,129.55,236l2.28,60.15,27.07-1a3,3,0,0,0,2.89-3.12l-2.85-75.19Z"/><path class="h" d="M150.56,313.48l36.09-1.37a6,6,0,0,0,5.79-6.25l-2.74-72.18a6,6,0,0,0-6.24-5.78l-36.09,1.37a6,6,0,0,0-5.79,6.24l2.74,72.18A6,6,0,0,0,150.56,313.48Z"/><path class="d" d="M183.19,300.19l-30.08,1.14a3,3,0,0,1-3.12-2.89l-2.05-54.14a3,3,0,0,1,2.89-3.12L180.91,240a3,3,0,0,1,3.12,2.9l2.05,54.13A3,3,0,0,1,183.19,300.19Z"/></svg>