<svg xmlns="http://www.w3.org/2000/svg" xmlns:xlink="http://www.w3.org/1999/xlink" viewBox="0 0 480 480"><defs><style>.a{fill:#2a8d81;}.b{fill:#fff;}.c{fill:url(#a);}.d{fill:#29afa0;}.e{fill:#20579c;}.f{fill:#173f6d;}.g{fill:url(#b);}.h{fill:#e4eaf2;}</style><linearGradient id="a" x1="239.89" y1="286.49" x2="373.03" y2="286.49" gradientUnits="userSpaceOnUse"><stop offset="0" stop-color="#20579c"/><stop offset="1" stop-color="#26ae9f"/></linearGradient><linearGradient id="b" x1="57.61" y1="197.31" x2="240.35" y2="197.31" xlink:href="#a"/></defs><path class="a" d="M232.54,137.88H134.88a7.81,7.81,0,0,1-7.81-7.81V71.47a7.81,7.81,0,0,1,7.81-7.81h7.82V48.85A2,2,0,0,1,146,47.47l16.2,16.19h70.31a7.81,7.81,0,0,1,7.81,7.81v58.6A7.81,7.81,0,0,1,232.54,137.88Z"/><path class="b" d="M153.5,101.77a15.93,15.93,0,0,1-6.32-3.07,5.88,5.88,0,0,1-2-4.49,6.18,6.18,0,0,1,2.41-5,9.61,9.61,0,0,1,6.29-2,10.47,10.47,0,0,1,4.7,1,7.77,7.77,0,0,1,3.2,2.81A7.24,7.24,0,0,1,162.94,95h-3.39a4.67,4.67,0,0,0-1.48-3.66A6,6,0,0,0,153.91,90a6.2,6.2,0,0,0-3.9,1.1,3.67,3.67,0,0,0-1.39,3.06,3.33,3.33,0,0,0,1.32,2.65,13.12,13.12,0,0,0,4.52,2,21,21,0,0,1,5,2,7.61,7.61,0,0,1,2.68,2.52,6.43,6.43,0,0,1,.87,3.39,6,6,0,0,1-2.43,5,10.34,10.34,0,0,1-6.49,1.88,12.1,12.1,0,0,1-4.92-1,8.32,8.32,0,0,1-3.52-2.77,6.72,6.72,0,0,1-1.24-4h3.39a4.4,4.4,0,0,0,1.71,3.66,7.21,7.21,0,0,0,4.58,1.35,6.7,6.7,0,0,0,4.1-1.09,3.54,3.54,0,0,0,1.42-3,3.46,3.46,0,0,0-1.32-2.91A15,15,0,0,0,153.5,101.77Z"/><path class="b" d="M178.55,113.18a6.92,6.92,0,0,1-.46-2,7.25,7.25,0,0,1-5.41,2.36,6.71,6.71,0,0,1-4.61-1.59,5.17,5.17,0,0,1-1.81-4,5.38,5.38,0,0,1,2.26-4.61,10.65,10.65,0,0,1,6.36-1.65H178v-1.49a3.67,3.67,0,0,0-1-2.72,4.11,4.11,0,0,0-3-1,4.78,4.78,0,0,0-2.92.88,2.59,2.59,0,0,0-1.18,2.13h-3.27a4.5,4.5,0,0,1,1-2.75,6.87,6.87,0,0,1,2.74-2.1,9.21,9.21,0,0,1,3.81-.78,7.5,7.5,0,0,1,5.15,1.65,5.89,5.89,0,0,1,1.93,4.52v8.76a10.78,10.78,0,0,0,.67,4.16v.29Zm-5.39-2.48a5.83,5.83,0,0,0,2.9-.79,4.83,4.83,0,0,0,2-2.06V104h-2.55q-6,0-6,3.49a3,3,0,0,0,1,2.4A3.94,3.94,0,0,0,173.16,110.7Z"/><path class="b" d="M189.92,113.18h-3.25v-27h3.25Z"/><path class="b" d="M206.87,111.29a6.91,6.91,0,0,1-5.57,2.24,5.9,5.9,0,0,1-4.63-1.77,7.64,7.64,0,0,1-1.61-5.23V94.16h3.25v12.28q0,4.34,3.52,4.33,3.72,0,4.95-2.78V94.16H210v19h-3.09Z"/><path class="b" d="M219.39,89.55v4.61h3.55v2.51h-3.55v11.81a2.6,2.6,0,0,0,.47,1.71,2,2,0,0,0,1.62.58,7.84,7.84,0,0,0,1.54-.21v2.62a9.52,9.52,0,0,1-2.49.35,4.06,4.06,0,0,1-3.29-1.32,5.67,5.67,0,0,1-1.11-3.75V96.67h-3.46V94.16h3.46V89.55Z"/><path class="c" d="M249.76,236h113.4a9.87,9.87,0,0,1,9.87,9.87v60a9.87,9.87,0,0,1-9.87,9.87h-9.87v18.73a2.47,2.47,0,0,1-4.21,1.74l-20.47-20.47H249.76a9.87,9.87,0,0,1-9.87-9.87v-60A9.87,9.87,0,0,1,249.76,236Z"/><path class="b" d="M288.68,279.53a11.93,11.93,0,0,1-1.85,6,11.08,11.08,0,0,1-4.73,4.06,16.08,16.08,0,0,1-7,1.44q-6.45,0-10.16-4.21T261.28,275v-1.62A19.77,19.77,0,0,1,263,265a12.64,12.64,0,0,1,4.82-5.57,13.43,13.43,0,0,1,7.28-2q6,0,9.57,3.14a12.39,12.39,0,0,1,4.11,8.64h-7.86a5.84,5.84,0,0,0-1.51-4.29,6.17,6.17,0,0,0-4.31-1.31,4.72,4.72,0,0,0-4.32,2.21q-1.37,2.2-1.44,7v2.32q0,5.24,1.32,7.48a4.81,4.81,0,0,0,4.53,2.25,6,6,0,0,0,4.15-1.28,5.45,5.45,0,0,0,1.53-4.07Z"/><path class="b" d="M292,260a3.37,3.37,0,0,1,1.17-2.65,5,5,0,0,1,6.07,0,3.59,3.59,0,0,1,0,5.3,4.95,4.95,0,0,1-6.07,0A3.37,3.37,0,0,1,292,260Zm8.05,30.59h-7.6V266.29h7.6Z"/><path class="b" d="M318.41,290.61a8.61,8.61,0,0,1-.72-2.18,7.06,7.06,0,0,1-5.85,2.63A8.65,8.65,0,0,1,306,289a6.63,6.63,0,0,1-2.4-5.23,6.81,6.81,0,0,1,2.92-6c2-1.34,4.78-2,8.49-2h2.34v-1.28q0-3.37-2.9-3.37a2.37,2.37,0,0,0-2.7,2.66h-7.57a6.8,6.8,0,0,1,3-5.72,12.65,12.65,0,0,1,7.65-2.2,11.08,11.08,0,0,1,7.35,2.27,7.91,7.91,0,0,1,2.77,6.23V285.1a11,11,0,0,0,1,5.12v.39Zm-4.74-4.95a4.24,4.24,0,0,0,2.34-.6,3.86,3.86,0,0,0,1.34-1.37V279.8h-2.2q-4,0-4,3.55a2.17,2.17,0,0,0,.7,1.67A2.51,2.51,0,0,0,313.67,285.66Z"/><path class="b" d="M328.18,278.22a14.29,14.29,0,0,1,1.42-6.48,10.13,10.13,0,0,1,4.07-4.37,12.21,12.21,0,0,1,6.22-1.53,11.21,11.21,0,0,1,8.61,3.38q3.13,3.39,3.14,9.21v.27q0,5.69-3.15,9a12.66,12.66,0,0,1-16.89.22,12.16,12.16,0,0,1-3.4-8.43Zm7.58.48a9.1,9.1,0,0,0,1.05,4.94,3.53,3.53,0,0,0,3.13,1.57q4,0,4.13-6.22v-.77q0-6.54-4.18-6.54c-2.53,0-3.9,1.89-4.11,5.65Z"/><path class="d" d="M317,326.51H155.71a11.56,11.56,0,0,0-11.56,11.56v49.32A11.56,11.56,0,0,0,155.71,399h11.55v21.91a2.89,2.89,0,0,0,4.94,2.05l24-24H317a11.56,11.56,0,0,0,11.55-11.56V338.07A11.56,11.56,0,0,0,317,326.51Z"/><path class="b" d="M184.28,369.41a7.25,7.25,0,0,1-3.39,2.6,13.55,13.55,0,0,1-5.06.86,9.77,9.77,0,0,1-5.19-1.37,9.07,9.07,0,0,1-3.5-3.89,13.56,13.56,0,0,1-1.28-5.87v-2.08q0-5.4,2.52-8.37a8.8,8.8,0,0,1,7.09-3,9,9,0,0,1,6,1.91,8.32,8.32,0,0,1,2.79,5.42h-3.15q-.88-4.75-5.65-4.76a5.59,5.59,0,0,0-4.8,2.23q-1.63,2.22-1.65,6.45v1.95a10.21,10.21,0,0,0,1.84,6.4,6,6,0,0,0,5,2.38,10.7,10.7,0,0,0,3.1-.4,4.77,4.77,0,0,0,2.2-1.32v-5.36h-5.53v-2.58h8.66Z"/><path class="b" d="M200,370.79a6.45,6.45,0,0,1-5.21,2.08,5.54,5.54,0,0,1-4.32-1.64,7.15,7.15,0,0,1-1.5-4.89V354.78h3v11.48q0,4,3.29,4,3.48,0,4.63-2.6V354.78h3v17.77h-2.89Z"/><path class="b" d="M211.72,350.48v4.3H215v2.35h-3.31v11a2.43,2.43,0,0,0,.44,1.6,1.86,1.86,0,0,0,1.51.54,7.44,7.44,0,0,0,1.44-.2v2.45a8.66,8.66,0,0,1-2.33.32,3.79,3.79,0,0,1-3.07-1.23,5.27,5.27,0,0,1-1-3.49v-11h-3.23v-2.35h3.23v-4.3Z"/><path class="b" d="M226,372.87a7.77,7.77,0,0,1-5.88-2.37,8.79,8.79,0,0,1-2.26-6.34v-.56a10.56,10.56,0,0,1,1-4.72,7.85,7.85,0,0,1,2.82-3.25,7.12,7.12,0,0,1,3.93-1.17,6.66,6.66,0,0,1,5.39,2.28q1.92,2.28,1.92,6.53v1.27h-12a6.34,6.34,0,0,0,1.54,4.24,4.81,4.81,0,0,0,3.73,1.62,5.28,5.28,0,0,0,2.73-.66,7,7,0,0,0,1.95-1.74l1.86,1.44A7.45,7.45,0,0,1,226,372.87ZM225.57,357a4.05,4.05,0,0,0-3.08,1.34,6.46,6.46,0,0,0-1.55,3.75h8.9v-.23a5.79,5.79,0,0,0-1.25-3.59A3.8,3.8,0,0,0,225.57,357Z"/><path class="b" d="M239.26,354.78l.1,2.24a6.47,6.47,0,0,1,5.32-2.56q5.64,0,5.68,6.35v11.74h-3V360.79a4.1,4.1,0,0,0-.87-2.84,3.55,3.55,0,0,0-2.69-.92,4.41,4.41,0,0,0-2.59.79,5.32,5.32,0,0,0-1.74,2.07v12.66h-3V354.78Z"/><path class="b" d="M267.39,350.48v4.3h3.31v2.35h-3.31v11a2.43,2.43,0,0,0,.44,1.6,1.85,1.85,0,0,0,1.51.54,7.44,7.44,0,0,0,1.44-.2v2.45a8.66,8.66,0,0,1-2.33.32,3.79,3.79,0,0,1-3.07-1.23,5.27,5.27,0,0,1-1-3.49v-11h-3.24v-2.35h3.24v-4.3Z"/><path class="b" d="M285.21,372.55a6.68,6.68,0,0,1-.42-1.87,6.79,6.79,0,0,1-5.06,2.19,6.27,6.27,0,0,1-4.31-1.48,4.82,4.82,0,0,1-1.68-3.77,5,5,0,0,1,2.11-4.31,9.94,9.94,0,0,1,5.93-1.53h3v-1.4a3.4,3.4,0,0,0-.95-2.53,3.84,3.84,0,0,0-2.81-1,4.51,4.51,0,0,0-2.73.82,2.43,2.43,0,0,0-1.1,2h-3a4.18,4.18,0,0,1,.94-2.57,6.41,6.41,0,0,1,2.57-2,8.6,8.6,0,0,1,3.55-.72A7,7,0,0,1,286,356a5.55,5.55,0,0,1,1.81,4.23v8.17a9.91,9.91,0,0,0,.62,3.89v.27Zm-5-2.32a5.24,5.24,0,0,0,2.71-.74,4.4,4.4,0,0,0,1.86-1.92v-3.64h-2.38q-5.58,0-5.58,3.26a2.76,2.76,0,0,0,1,2.24A3.68,3.68,0,0,0,280.17,370.23Z"/><path class="b" d="M291.81,363.52a10.45,10.45,0,0,1,1.92-6.61,6.64,6.64,0,0,1,10.17-.16l.14-2h2.78v17.34a7.18,7.18,0,0,1-2.05,5.43,7.51,7.51,0,0,1-5.49,2,9.11,9.11,0,0,1-3.76-.82,6.49,6.49,0,0,1-2.8-2.25l1.57-1.82a6,6,0,0,0,4.78,2.41,4.63,4.63,0,0,0,3.46-1.25,4.78,4.78,0,0,0,1.24-3.51v-1.53a6.27,6.27,0,0,1-5,2.1,6.06,6.06,0,0,1-5.05-2.51A11,11,0,0,1,291.81,363.52Zm3.06.34a8,8,0,0,0,1.23,4.72,4,4,0,0,0,3.45,1.72,4.46,4.46,0,0,0,4.22-2.61v-8.11a4.52,4.52,0,0,0-4.19-2.55,4,4,0,0,0-3.46,1.73A8.61,8.61,0,0,0,294.87,363.86Z"/><path class="e" d="M260.68,129.18H412.29a10.11,10.11,0,0,1,10.1,10.11v75.8a10.1,10.1,0,0,1-10.1,10.11H402.18v19.17a2.53,2.53,0,0,1-4.31,1.79l-21-21H260.68a10.1,10.1,0,0,1-10.1-10.11v-75.8A10.11,10.11,0,0,1,260.68,129.18Z"/><path class="b" d="M307.63,195h-5.05v-17.6H283.39V195h-5V156.93h5v16.36h19.19V156.93h5.05Z"/><path class="b" d="M327.52,195.51a12.37,12.37,0,0,1-9.36-3.78q-3.6-3.78-3.61-10.1v-.89a17,17,0,0,1,1.61-7.52,12.54,12.54,0,0,1,4.5-5.17,11.25,11.25,0,0,1,6.26-1.87,10.59,10.59,0,0,1,8.57,3.63c2,2.43,3.06,5.89,3.06,10.41v2H319.39a10.06,10.06,0,0,0,2.44,6.76,7.71,7.71,0,0,0,5.95,2.57,8.48,8.48,0,0,0,4.34-1,10.89,10.89,0,0,0,3.11-2.77l2.95,2.3Q334.63,195.51,327.52,195.51Zm-.6-25.36a6.47,6.47,0,0,0-4.92,2.13,10.38,10.38,0,0,0-2.45,6h14.16v-.37a9.17,9.17,0,0,0-2-5.71A6.09,6.09,0,0,0,326.92,170.15Z"/><path class="b" d="M349.4,195h-4.84V154.84h4.84Z"/><path class="b" d="M362.39,195h-4.84V154.84h4.84Z"/><path class="b" d="M368.85,180.58a16.66,16.66,0,0,1,1.63-7.47A12.24,12.24,0,0,1,375,168a12.39,12.39,0,0,1,6.65-1.8,11.93,11.93,0,0,1,9.35,4q3.57,4,3.57,10.64v.34a16.79,16.79,0,0,1-1.59,7.41,12,12,0,0,1-4.52,5.11,12.52,12.52,0,0,1-6.76,1.83,11.86,11.86,0,0,1-9.31-4q-3.57-4-3.57-10.59Zm4.86.58a12.11,12.11,0,0,0,2.18,7.55,7.4,7.4,0,0,0,11.7,0q2.18-2.88,2.17-8.09a12.1,12.1,0,0,0-2.21-7.54,7,7,0,0,0-5.87-2.89,6.92,6.92,0,0,0-5.77,2.85Q373.71,175.85,373.71,181.16Z"/><path class="f" d="M221.05,236H116a8.4,8.4,0,0,0-8.4,8.4v63a8.4,8.4,0,0,0,8.4,8.4h8.4v15.93a2.09,2.09,0,0,0,3.58,1.48l17.42-17.41h75.61a8.4,8.4,0,0,0,8.4-8.4v-63A8.4,8.4,0,0,0,221.05,236Z"/><path class="b" d="M150.86,289.91h-4V276.07H131.8v13.84h-4V260h4v12.87h15.09V260h4Z"/><path class="b" d="M156.27,278.58a13.09,13.09,0,0,1,1.28-5.88,9.57,9.57,0,0,1,3.58-4,9.7,9.7,0,0,1,5.23-1.42,9.4,9.4,0,0,1,7.35,3.14,12.12,12.12,0,0,1,2.81,8.37V279a13.23,13.23,0,0,1-1.24,5.83,9.48,9.48,0,0,1-3.56,4,9.86,9.86,0,0,1-5.32,1.44,9.36,9.36,0,0,1-7.33-3.15,12,12,0,0,1-2.8-8.33Zm3.82.45a9.46,9.46,0,0,0,1.72,5.94,5.82,5.82,0,0,0,9.2,0,10.37,10.37,0,0,0,1.71-6.36,9.48,9.48,0,0,0-1.74-5.93,5.52,5.52,0,0,0-4.62-2.28,5.46,5.46,0,0,0-4.54,2.24A10.37,10.37,0,0,0,160.09,279Z"/><path class="b" d="M185.42,289.91h-3.8V258.32h3.8Z"/><path class="b" d="M205.25,289.91a8,8,0,0,1-.54-2.35,8.48,8.48,0,0,1-6.33,2.76,7.84,7.84,0,0,1-5.4-1.86,6,6,0,0,1-2.11-4.72,6.29,6.29,0,0,1,2.64-5.4c1.77-1.28,4.24-1.92,7.44-1.92h3.7v-1.75a4.3,4.3,0,0,0-1.19-3.18,4.84,4.84,0,0,0-3.52-1.18,5.51,5.51,0,0,0-3.41,1,3,3,0,0,0-1.38,2.49h-3.83a5.24,5.24,0,0,1,1.19-3.22,8.08,8.08,0,0,1,3.2-2.46,10.87,10.87,0,0,1,4.46-.9,8.79,8.79,0,0,1,6,1.92,6.93,6.93,0,0,1,2.26,5.29V284.7a12.56,12.56,0,0,0,.78,4.88v.33Zm-6.32-2.9a6.67,6.67,0,0,0,3.4-.93,5.63,5.63,0,0,0,2.32-2.4v-4.57h-3c-4.66,0-7,1.37-7,4.09a3.44,3.44,0,0,0,1.19,2.8A4.59,4.59,0,0,0,198.93,287Z"/><path class="g" d="M230.49,147.88h-163a9.85,9.85,0,0,0-9.85,9.86v58a9.86,9.86,0,0,0,9.85,9.86h9.86v18.69a2.46,2.46,0,0,0,4.2,1.74L102,225.59H230.49a9.86,9.86,0,0,0,9.86-9.86v-58A9.85,9.85,0,0,0,230.49,147.88Z"/><path class="b" d="M77.29,198.72V169.44H87.81c3.77,0,6.63.69,8.6,2.07a6.9,6.9,0,0,1,2.94,6,7.06,7.06,0,0,1-1,3.89,6.14,6.14,0,0,1-3.08,2.37A6.16,6.16,0,0,1,98.75,186a6.54,6.54,0,0,1,1.23,4q0,4.3-2.73,6.47t-8.07,2.2Zm7.06-17.07H88a5.29,5.29,0,0,0,3.3-.85,3,3,0,0,0,1-2.44,3.14,3.14,0,0,0-1.06-2.67,5.67,5.67,0,0,0-3.44-.82H84.35Zm0,4.62v7H89a4.4,4.4,0,0,0,2.93-.87,3.07,3.07,0,0,0,1-2.47c0-2.44-1.22-3.66-3.64-3.68Z"/><path class="b" d="M102.69,187.64a12.75,12.75,0,0,1,1.27-5.8,9,9,0,0,1,3.64-3.91,10.88,10.88,0,0,1,5.57-1.37,10,10,0,0,1,7.7,3,11.58,11.58,0,0,1,2.82,8.23v.24a11.26,11.26,0,0,1-2.83,8.08,10,10,0,0,1-7.65,3,10.17,10.17,0,0,1-7.46-2.78,10.91,10.91,0,0,1-3-7.55Zm6.78.42a8.13,8.13,0,0,0,.94,4.43,3.15,3.15,0,0,0,2.8,1.4c2.41,0,3.65-1.85,3.7-5.57v-.68q0-5.85-3.74-5.85c-2.27,0-3.49,1.68-3.68,5.05Z"/><path class="b" d="M132.9,177l.22,2.55a7.37,7.37,0,0,1,6.21-2.95,6.22,6.22,0,0,1,5.08,2q1.68,2,1.74,6.11v14h-6.8V185a3.71,3.71,0,0,0-.66-2.43,3.09,3.09,0,0,0-2.41-.77,3.22,3.22,0,0,0-3,1.57v15.36h-6.78V177Z"/><path class="b" d="M157.19,177v22.51a7.9,7.9,0,0,1-2.21,5.95,8.51,8.51,0,0,1-6.11,2.09,14.34,14.34,0,0,1-3.2-.34V202a13,13,0,0,0,1.91.18,2.48,2.48,0,0,0,2.82-2.79V177Zm-7.3-5.61a3,3,0,0,1,1.05-2.37,4.43,4.43,0,0,1,5.43,0,3.22,3.22,0,0,1,0,4.74,4.43,4.43,0,0,1-5.43,0A3,3,0,0,1,149.89,171.35Z"/><path class="b" d="M160.17,187.64a12.75,12.75,0,0,1,1.27-5.8,9,9,0,0,1,3.64-3.91,10.88,10.88,0,0,1,5.57-1.37,10,10,0,0,1,7.7,3,11.58,11.58,0,0,1,2.82,8.23v.24a11.3,11.3,0,0,1-2.83,8.08,10,10,0,0,1-7.65,3,10.15,10.15,0,0,1-7.46-2.78,10.91,10.91,0,0,1-3-7.55Zm6.78.42a8.13,8.13,0,0,0,.94,4.43,3.14,3.14,0,0,0,2.8,1.4c2.41,0,3.64-1.85,3.7-5.57v-.68q0-5.85-3.74-5.85c-2.27,0-3.49,1.68-3.68,5.05Z"/><path class="b" d="M197.11,196.37a7,7,0,0,1-5.81,2.75,6.86,6.86,0,0,1-5.42-2.08,8.79,8.79,0,0,1-1.84-6V177h6.78V191.1c0,1.86.9,2.79,2.71,2.79a3.53,3.53,0,0,0,3.32-1.66V177h6.82v21.76h-6.35Z"/><path class="b" d="M220.54,183.09l-2.23-.16q-3.19,0-4.1,2v13.78h-6.78V177h6.36l.22,2.8c1.14-2.14,2.73-3.2,4.76-3.2a6.58,6.58,0,0,1,1.89.24Z"/><path class="h" d="M254.57,111h8a4,4,0,0,1,0,8h-8a4,4,0,0,1,0-8Z"/><path class="h" d="M254.57,95.06h31.95a4,4,0,0,1,0,8H254.57a4,4,0,0,1,0-8Z"/><path class="h" d="M302.49,95.06h31.95a4,4,0,0,1,0,8H302.49a4,4,0,0,1,0-8Z"/><path class="h" d="M286.52,79.09H358.4a4,4,0,1,1,0,8H286.52a4,4,0,1,1,0-8Z"/><path class="h" d="M350.41,95.06h8a4,4,0,0,1,0,8h-8a4,4,0,0,1,0-8Z"/><path class="h" d="M350.54,401.16h-8a4,4,0,0,1,0-8h8a4,4,0,0,1,0,8Z"/><path class="h" d="M350.54,417.14h-32a4,4,0,0,1,0-8h32a4,4,0,0,1,0,8Z"/><path class="h" d="M302.62,417.14H270.67a4,4,0,0,1,0-8h31.95a4,4,0,0,1,0,8Z"/><path class="h" d="M318.59,433.11H246.71a4,4,0,0,1,0-8h71.88a4,4,0,1,1,0,8Z"/><path class="h" d="M254.7,417.14h-28a4,4,0,0,1,0-8h28a4,4,0,0,1,0,8Z"/></svg>