<svg xmlns="http://www.w3.org/2000/svg" xmlns:xlink="http://www.w3.org/1999/xlink" viewBox="0 0 480 480"><defs><style>.a{isolation:isolate;}.b{fill:url(#a);}.c{fill:#fff;}.d{fill:#66c5ba;}.e{fill:#45baac;}.f{fill:#2d9e90;}.g{fill:#257c71;}.h{fill:#e4eaf2;mix-blend-mode:multiply;}.i{fill:#fdd7ad;}.j{fill:#f9c795;}</style><linearGradient id="a" x1="47.64" y1="234.74" x2="354.64" y2="234.74" gradientUnits="userSpaceOnUse"><stop offset="0" stop-color="#20579c"/><stop offset="1" stop-color="#26ae9f"/></linearGradient></defs><g class="a"><path class="b" d="M325.41,446.73H76.87a29.24,29.24,0,0,1-29.23-29.24V52A29.24,29.24,0,0,1,76.87,22.76H325.41A29.24,29.24,0,0,1,354.64,52V244.07Zm0,0"/><path class="c" d="M325.41,52V231.17L301.36,388.25H76.87V52Zm0,0"/><path class="d" d="M97.87,388.25H142V87.56a8.83,8.83,0,0,0-8.82-8.83H106.69a8.83,8.83,0,0,0-8.82,8.83Z"/><path class="e" d="M152,388.25h44.14V188.18a8.83,8.83,0,0,0-8.83-8.83H160.83a8.84,8.84,0,0,0-8.83,8.83Z"/><path class="f" d="M206.14,388.25h44.14V128.8a8.83,8.83,0,0,0-8.83-8.83H215a8.83,8.83,0,0,0-8.83,8.83Z"/><path class="g" d="M260.28,388.25h44.14V152.94a8.83,8.83,0,0,0-8.83-8.83H269.11a8.83,8.83,0,0,0-8.83,8.83Z"/><path class="h" d="M325.41,167.5v63.67L301.36,388.25H76.87V286.79C122,240.67,207.43,173.2,325.41,167.5Zm0,0"/><path class="c" d="M223.07,424.8H179.21a7.31,7.31,0,0,1,0-14.62h43.86a7.31,7.31,0,1,1,0,14.62Zm0,0"/><path class="i" d="M432.36,302.93v43.49a142.94,142.94,0,0,1-7.31,45,143.23,143.23,0,0,0-7.31,45v13.45a7.31,7.31,0,0,1-7.3,7.31H308.1a7.31,7.31,0,0,1-7.31-7.31V409.65a7.22,7.22,0,0,0-2.85-5.77L244.79,362.5a28.72,28.72,0,0,1-11-19.95L230,304.83a28.81,28.81,0,0,1,18.64-30l-26.32-52a20.15,20.15,0,0,1,10.82-27.27,20.46,20.46,0,0,1,7.45-1.46,20.23,20.23,0,0,1,17.77,10.59l27.63,48,1.1-.66,10.59-6.36a28.63,28.63,0,0,1,15.72-4.16,29,29,0,0,1,11.26,2.56c5.77-2.56,15.86-13.09,31.94-8.92a31.52,31.52,0,0,1,10.68,5.33,47.43,47.43,0,0,1,7.59-4.09,29.16,29.16,0,0,1,36,12l6.87,11.48,8.48,16.88a59.08,59.08,0,0,1,6.14,26.17Zm0,0"/><path class="j" d="M308.1,291.16,286,252.71l1.1-.66,10.59-6.36,1.77.46,11.9,20.62a20.2,20.2,0,0,1-3.21,24.39Zm0,0"/><path class="j" d="M266.29,305.64l-1.1.65a13.1,13.1,0,0,1-6.87,1.9,13.46,13.46,0,0,1-11.7-6.72l-10.31-17.84a29.29,29.29,0,0,1,12.29-8.77Zm0,0"/><path class="j" d="M346.27,266.78l-1.63.41-6.87-11.48a28.76,28.76,0,0,0-13.15-11.62l9.06-5.41a29.13,29.13,0,0,1,18.71,13.45,9.85,9.85,0,0,1-6.12,14.65Zm0,0"/><path class="j" d="M381.2,259.88l-6.88-11.48a27.42,27.42,0,0,0-7.08-7.9l3.5-2.12a24.82,24.82,0,0,1,4.09-2,29.17,29.17,0,0,1,7,4.09l.08.06A11.19,11.19,0,0,1,384,255.72Zm0,0"/></g></svg>