<svg xmlns="http://www.w3.org/2000/svg" xmlns:xlink="http://www.w3.org/1999/xlink" viewBox="0 0 480 480"><defs><style>.a{fill:#cce9e6;}.b{fill:url(#a);}.c{fill:url(#b);}.d{fill:url(#c);}.e{fill:#1c487d;}.f{fill:#f9b630;}.g{fill:#fff;}.h{fill:#e8f5f3;}.i{fill:#faae17;}</style><linearGradient id="a" x1="100.96" y1="220.14" x2="379.04" y2="220.14" gradientUnits="userSpaceOnUse"><stop offset="0" stop-color="#20579c"/><stop offset="1" stop-color="#26ae9f"/></linearGradient><linearGradient id="b" x1="134.07" y1="379.03" x2="379.04" y2="379.03" xlink:href="#a"/><linearGradient id="c" x1="134.07" y1="405.52" x2="379.04" y2="405.52" xlink:href="#a"/></defs><path class="a" d="M379,332.69v79.45A19.87,19.87,0,0,1,359.17,432H140.69a39.73,39.73,0,1,1,0-79.45H359.17A19.87,19.87,0,0,0,379,332.69Zm0,0"/><path class="b" d="M379,67.86V332.69a19.87,19.87,0,0,1-19.87,19.86H140.69A39.73,39.73,0,0,0,101,392.28V87.72A39.72,39.72,0,0,1,140.69,48H359.17A19.87,19.87,0,0,1,379,67.86Zm0,0"/><path class="c" d="M379,372.41v13.25H140.69a6.63,6.63,0,0,1,0-13.25Zm0,0"/><path class="d" d="M379,398.9v13.24H140.69a6.62,6.62,0,0,1,0-13.24Zm0,0"/><path class="e" d="M140.69,48V352.55A39.73,39.73,0,0,0,101,392.28V87.72A39.72,39.72,0,0,1,140.69,48Zm0,0"/><path class="f" d="M203.76,184.31a19.92,19.92,0,1,1-19.92-19.92,19.92,19.92,0,0,1,19.92,19.92Zm0,0"/><path class="g" d="M224.18,187.23a1.37,1.37,0,0,0-1.25,1.72c4.28,18.55,19.79,32.29,38.26,32.29s34-13.74,38.26-32.29a1.36,1.36,0,0,0-1.25-1.72Zm0,0"/><path class="h" d="M298.2,187.23H281.6a1.36,1.36,0,0,1,1.25,1.72c-3.62,15.69-15.27,27.93-30,31.34a36.73,36.73,0,0,0,8.3.94c18.48,0,34-13.73,38.26-32.28a1.36,1.36,0,0,0-1.25-1.72Zm0,0"/><path class="f" d="M358.46,184.31a19.92,19.92,0,1,1-19.92-19.92,19.92,19.92,0,0,1,19.92,19.92Zm0,0"/><path class="i" d="M194.68,167.61a19.91,19.91,0,0,1-27.54,27.54,19.91,19.91,0,1,0,27.54-27.54Zm0,0"/><path class="i" d="M349.38,167.61a19.91,19.91,0,0,1-27.55,27.54,19.92,19.92,0,1,0,27.55-27.54Zm0,0"/><path class="g" d="M314.31,151.09a5.8,5.8,0,0,1-4.92-2.71,9.78,9.78,0,0,0-16.39-.27,5.8,5.8,0,1,1-9.62-6.49,21.38,21.38,0,0,1,35.83.58,5.8,5.8,0,0,1-4.9,8.89Zm0,0"/><path class="g" d="M234.2,151.09a5.8,5.8,0,0,1-4.92-2.71,9.77,9.77,0,0,0-16.38-.27,5.81,5.81,0,0,1-9.63-6.49,21.39,21.39,0,0,1,35.84.58,5.8,5.8,0,0,1-4.91,8.89Zm0,0"/></svg>