<svg xmlns="http://www.w3.org/2000/svg" xmlns:xlink="http://www.w3.org/1999/xlink" viewBox="0 0 480 480"><defs><style>.a{fill:#1f518c;}.b{fill:url(#a);}.c{fill:#faae17;}.d{fill:#f9b630;}</style><linearGradient id="a" x1="137.24" y1="240" x2="260.14" y2="240" gradientUnits="userSpaceOnUse"><stop offset="0" stop-color="#20579c"/><stop offset="1" stop-color="#26ae9f"/></linearGradient></defs><path class="a" d="M96.27,171.72h41V308.28h-41a41,41,0,0,1-41-41V212.69a41,41,0,0,1,41-41Zm0,0"/><path class="b" d="M137.24,171.72,238.1,93.27a13.65,13.65,0,0,1,22,10.79V375.94a13.65,13.65,0,0,1-22,10.79L137.24,308.28Zm0,0"/><path class="c" d="M367.07,359.9a13.66,13.66,0,0,1-9.69-23.3,136.65,136.65,0,0,0,0-193.2,13.66,13.66,0,1,1,19.37-19.27,164,164,0,0,1,0,231.74,13.6,13.6,0,0,1-9.68,4Zm0,0"/><path class="d" d="M328.42,321.25a13.65,13.65,0,0,1-9.65-23.31,81.94,81.94,0,0,0,0-115.88,13.65,13.65,0,0,1,19.3-19.31,109.24,109.24,0,0,1,0,154.5,13.53,13.53,0,0,1-9.65,4Zm0,0"/></svg>