<svg xmlns="http://www.w3.org/2000/svg" xmlns:xlink="http://www.w3.org/1999/xlink" viewBox="0 0 480 480"><defs><style>.a{fill:url(#a);}.b{clip-path:url(#c);}.c{fill:#ccd9e8;}.d{fill:#173f6d;}.e{fill:#1c487d;}.f{fill:url(#d);}.g{fill:#20579c;}</style><linearGradient id="a" x1="164.89" y1="180.98" x2="315.11" y2="180.98" gradientUnits="userSpaceOnUse"><stop offset="0" stop-color="#20579c"/><stop offset="1" stop-color="#26ae9f"/></linearGradient><clipPath id="c"><path class="a" d="M240,309.75h0a75.11,75.11,0,0,1-75.11-75.12V127.33A75.11,75.11,0,0,1,240,52.22h0a75.11,75.11,0,0,1,75.11,75.11v107.3A75.11,75.11,0,0,1,240,309.75Z"/></clipPath><linearGradient id="d" x1="164.89" y1="245.37" x2="315.11" y2="245.37" xlink:href="#a"/></defs><path class="a" d="M240,309.75h0a75.11,75.11,0,0,1-75.11-75.12V127.33A75.11,75.11,0,0,1,240,52.22h0a75.11,75.11,0,0,1,75.11,75.11v107.3A75.11,75.11,0,0,1,240,309.75Z"/><g class="b"><path class="c" d="M240,43a74.43,74.43,0,0,0-10.73.86v74.26a10.73,10.73,0,0,0,21.46,0V43.85A74.43,74.43,0,0,0,240,43Z"/><path class="c" d="M293.65,65.59a75,75,0,0,0-21.46-15.27v67.79a10.73,10.73,0,1,0,21.46,0Z"/><path class="c" d="M186.35,65.59v52.52a10.73,10.73,0,1,0,21.46,0V50.32A75,75,0,0,0,186.35,65.59Z"/></g><path class="d" d="M293.65,406.32H266.83a10.72,10.72,0,0,1-10.73-10.73V341.94H223.9v53.65a10.72,10.72,0,0,1-10.73,10.73H186.35a10.73,10.73,0,1,0,0,21.46h107.3a10.73,10.73,0,1,0,0-21.46Z"/><path class="e" d="M336.57,181v53.65a96.57,96.57,0,1,1-193.14,0V181H122v53.65a118,118,0,0,0,236.08,0V181Z"/><path class="f" d="M240,309.75h0a75.11,75.11,0,0,1-75.11-75.12V181H315.11v53.65A75.11,75.11,0,0,1,240,309.75Z"/><path class="g" d="M358,191.71H122a10.73,10.73,0,1,1,0-21.46H358a10.73,10.73,0,0,1,0,21.46Z"/></svg>