<svg xmlns="http://www.w3.org/2000/svg" xmlns:xlink="http://www.w3.org/1999/xlink" viewBox="0 0 480 480"><defs><style>.a{fill:#29afa0;}.b{fill:url(#a);}.c{fill:url(#b);}.d{fill:#cce9e6;}.e{fill:#e8f5f3;}.f{fill:url(#c);}.g{fill:#1c487d;}</style><linearGradient id="a" x1="239.63" y1="273.58" x2="275.77" y2="273.58" gradientTransform="translate(129.58 -72.88) rotate(20.07)" gradientUnits="userSpaceOnUse"><stop offset="0" stop-color="#20579c"/><stop offset="1" stop-color="#26ae9f"/></linearGradient><linearGradient id="b" x1="101.08" y1="149.52" x2="323.67" y2="149.52" gradientTransform="translate(-71.25 133.07) rotate(-24.93)" xlink:href="#a"/><linearGradient id="c" x1="247.33" y1="362.86" x2="333.29" y2="362.86" gradientTransform="translate(-71.25 133.07) rotate(-24.93)" xlink:href="#a"/></defs><path class="a" d="M125.2,300.87V404.19a7.95,7.95,0,0,1-15.9,0V300.87a8,8,0,0,1,15.9,0Z"/><path class="a" d="M157,388.29v15.9a7.95,7.95,0,1,1-15.89,0v-15.9a7.95,7.95,0,0,1,15.89,0Z"/><path class="a" d="M157,308.82V356.5a7.95,7.95,0,1,1-15.89,0V308.82a7.95,7.95,0,1,1,15.89,0Z"/><path class="a" d="M188.78,316.76v87.43a7.95,7.95,0,1,1-15.89,0V316.76a7.95,7.95,0,0,1,15.89,0Z"/><path class="a" d="M220.57,356.5v47.69a7.95,7.95,0,1,1-15.89,0V356.5a7.95,7.95,0,1,1,15.89,0Z"/><path class="a" d="M220.57,308.82v15.89a7.95,7.95,0,1,1-15.89,0V308.82a7.95,7.95,0,1,1,15.89,0Z"/><path class="a" d="M252.37,300.87V356.5a7.95,7.95,0,0,1-15.9,0V300.87a8,8,0,0,1,15.9,0Z"/><path class="a" d="M252.37,388.29v15.9a7.95,7.95,0,0,1-15.9,0v-15.9a8,8,0,0,1,15.9,0Z"/><rect class="b" x="269.81" y="241.61" width="15.89" height="61.82" transform="translate(-111.35 276.23) rotate(-45)"/><circle class="c" cx="184.37" cy="179.13" r="111.27"/><circle class="d" cx="184.37" cy="179.13" r="87.43"/><path class="e" d="M234.76,229.79a4,4,0,0,1-6.79-3c.07-1.32.11-2.64.11-4a87.43,87.43,0,0,0-87.43-87.43c-1.33,0-2.66,0-4,.11a4,4,0,0,1-3-6.79,71.45,71.45,0,1,1,101,101Z"/><path class="f" d="M368.53,397l-80.84-80.84a15.89,15.89,0,0,1,0-22.48l11.24-11.23a15.89,15.89,0,0,1,22.48,0l80.84,80.84a15.89,15.89,0,0,1,0,22.48L391,397A15.89,15.89,0,0,1,368.53,397Z"/><path class="g" d="M382.1,383.44,301.26,302.6a15.83,15.83,0,0,1-1.05-21.19,15.85,15.85,0,0,0-1.28,1l-11.24,11.23a15.89,15.89,0,0,0,0,22.48L368.53,397A15.89,15.89,0,0,0,391,397l11.24-11.23c.4-.4.7-.86,1.05-1.28A15.86,15.86,0,0,1,382.1,383.44Z"/></svg>