<svg xmlns="http://www.w3.org/2000/svg" xmlns:xlink="http://www.w3.org/1999/xlink" viewBox="0 0 480 480"><defs><style>.a{fill:#cce9e6;}.b{fill:#99d5cf;}.c{fill:#45baac;}.d{fill:#66c5ba;}.e{fill:#29afa0;}.f{fill:#fff;}.g{fill:#20579c;}.h{fill:url(#a);}.i{fill:url(#b);}.j{fill:url(#c);}.k{fill:url(#d);}.l{fill:url(#e);}.m{fill:url(#f);}</style><linearGradient id="a" x1="117.3" y1="178.76" x2="184.84" y2="178.76" gradientUnits="userSpaceOnUse"><stop offset="0" stop-color="#20579c"/><stop offset="1" stop-color="#26ae9f"/></linearGradient><linearGradient id="b" x1="115.78" y1="178.76" x2="186.36" y2="178.76" xlink:href="#a"/><linearGradient id="c" x1="202.36" y1="178.76" x2="269.9" y2="178.76" xlink:href="#a"/><linearGradient id="d" x1="200.84" y1="178.76" x2="271.42" y2="178.76" xlink:href="#a"/><linearGradient id="e" x1="287.72" y1="178.76" x2="362.66" y2="178.76" xlink:href="#a"/><linearGradient id="f" x1="286.19" y1="178.76" x2="364.18" y2="178.76" xlink:href="#a"/></defs><path class="a" d="M437.23,422.49H42.73a14.61,14.61,0,0,1-14.61-14.61V72.12A14.61,14.61,0,0,1,42.73,57.51h394.5a14.62,14.62,0,0,1,14.62,14.61V407.88A14.62,14.62,0,0,1,437.23,422.49Z"/><path class="b" d="M437.21,94H42.76V72.12c0-8.07,6.09-14.61,13.6-14.61H423.61c7.51,0,13.6,6.54,13.6,14.61Z"/><rect class="c" x="378.82" y="57.51" width="36.53" height="36.53"/><rect class="d" x="342.29" y="57.51" width="36.53" height="36.53"/><path class="e" d="M451.88,94H415.35V57.51h18.26a18.26,18.26,0,0,1,18.27,18.26Z"/><path class="d" d="M28.12,94H64.65V57.51H46.39A18.26,18.26,0,0,0,28.12,75.77Z"/><path class="b" d="M72.49,263.49h335a11.35,11.35,0,0,1,11.35,11.35V376.49a11.35,11.35,0,0,1-11.35,11.35h-335a11.36,11.36,0,0,1-11.36-11.35V274.84A11.36,11.36,0,0,1,72.49,263.49Z"/><path class="f" d="M387.24,317.66h-112a8,8,0,0,1,0-16H387.24a8,8,0,0,1,0,16Z"/><path class="f" d="M355.22,349.67h-80a8,8,0,0,1,0-16h80a8,8,0,1,1,0,16Z"/><path class="g" d="M236.08,324.05,222,311.63a2.13,2.13,0,0,0-1.42-.54H157.1a37.61,37.61,0,1,0,0,29.15h18.21a2.17,2.17,0,0,0,1.39-.51l7-6,7.18,6a2.15,2.15,0,0,0,2.81-.05l7.83-7,7.8,7a2.15,2.15,0,0,0,1.43.55h9.79a2.13,2.13,0,0,0,1.42-.54l14.1-12.42a.47.47,0,0,0,.1-.1,2.14,2.14,0,0,0-.1-3.13Zm-121.22,8.46a9.68,9.68,0,1,1,0-13.7A9.69,9.69,0,0,1,114.86,332.51ZM160,327.59c0-.64.05-1.28.05-1.93C160,326.31,160,327,160,327.59Zm0-3.93s0,.07,0,.11S160,323.7,160,323.66Z"/><circle class="e" cx="387.22" cy="341.65" r="8.02"/><path class="f" d="M395.06,334.13,387.48,343l-3.29-4.39a1.46,1.46,0,0,0-2.34,1.75l4.39,5.85a1.47,1.47,0,0,0,1.12.58h.05a1.42,1.42,0,0,0,1.1-.51L397.28,336a1.46,1.46,0,0,0-2.22-1.9Z"/><path class="h" d="M164.19,197a7.46,7.46,0,0,0-3.2-6.42q-3.21-2.29-11.27-4.76a115.33,115.33,0,0,1-13.18-4.76q-16.65-7.44-16.65-20.43A17.3,17.3,0,0,1,124,149.21a26.9,26.9,0,0,1,11.74-7.7,49.64,49.64,0,0,1,17.06-2.75,43.53,43.53,0,0,1,16.56,3,25.81,25.81,0,0,1,11.38,8.53,20.82,20.82,0,0,1,4.06,12.65H164.25a9,9,0,0,0-3.2-7.38q-3.21-2.62-8.68-2.62t-8.74,2.22a6.63,6.63,0,0,0-3.2,5.64c0,2,1.17,3.81,3.53,5.43s6.49,3.3,12.41,5A80.34,80.34,0,0,1,171,176.84q13.88,7.26,13.88,20a18.43,18.43,0,0,1-8.47,16q-8.48,5.83-23.24,5.83a50.15,50.15,0,0,1-18.85-3.39q-8.44-3.41-12.71-9.31a22.6,22.6,0,0,1-4.27-13.61H138q0,6.26,3.56,9.23t11.56,3a14.26,14.26,0,0,0,8.09-2A6.43,6.43,0,0,0,164.19,197Z"/><path class="i" d="M153.13,220.29a51.74,51.74,0,0,1-19.42-3.51c-5.87-2.36-10.37-5.67-13.37-9.83a24.24,24.24,0,0,1-4.56-14.5,1.52,1.52,0,0,1,1.52-1.52H138a1.52,1.52,0,0,1,1.52,1.52c0,3.73,1,6.37,3,8.06s5.64,2.61,10.58,2.61a12.9,12.9,0,0,0,7.24-1.74,4.88,4.88,0,0,0,2.3-4.38,6,6,0,0,0-2.57-5.18c-2-1.43-5.64-3-10.82-4.55a115.49,115.49,0,0,1-13.36-4.82c-11.64-5.2-17.55-12.54-17.55-21.82a18.83,18.83,0,0,1,4.5-12.39,28.43,28.43,0,0,1,12.39-8.16,51.41,51.41,0,0,1,17.58-2.84,45.12,45.12,0,0,1,17.13,3.1,27.45,27.45,0,0,1,12,9,22.42,22.42,0,0,1,4.35,13.55,1.52,1.52,0,0,1-1.52,1.52H164.25a1.52,1.52,0,0,1-1.52-1.52,7.48,7.48,0,0,0-2.65-6.2c-1.85-1.51-4.44-2.28-7.71-2.28s-6,.66-7.87,2a5.15,5.15,0,0,0-2.55,4.39c0,1.48.94,2.84,2.87,4.18,2.21,1.52,6.24,3.14,12,4.82a82.08,82.08,0,0,1,14.88,5.7c9.75,5.11,14.69,12.31,14.69,21.4a20,20,0,0,1-9.13,17.3C171.35,218.23,163.24,220.29,153.13,220.29ZM118.87,194a21.05,21.05,0,0,0,3.93,11.2c2.66,3.69,6.72,6.64,12,8.79a48.79,48.79,0,0,0,18.28,3.28c9.49,0,17-1.87,22.38-5.56a16.86,16.86,0,0,0,7.81-14.79c0-8-4.27-14.1-13.07-18.71a79.08,79.08,0,0,0-14.31-5.47c-6.13-1.8-10.34-3.51-12.85-5.24-2.78-1.91-4.19-4.16-4.19-6.68a8.09,8.09,0,0,1,3.87-6.89c2.38-1.65,5.61-2.49,9.6-2.49s7.23,1,9.64,3a10.1,10.1,0,0,1,3.68,7h17.58a19.24,19.24,0,0,0-3.72-10.23,24.41,24.41,0,0,0-10.73-8,42.11,42.11,0,0,0-16-2.88,48.45,48.45,0,0,0-16.55,2.66,25.56,25.56,0,0,0-11.08,7.25,15.6,15.6,0,0,0-3.8,10.44c0,8.08,5.16,14.31,15.75,19a114.38,114.38,0,0,0,13,4.69c5.59,1.71,9.42,3.34,11.71,5a8.94,8.94,0,0,1,3.84,7.66,7.88,7.88,0,0,1-3.64,6.9,15.85,15.85,0,0,1-8.94,2.27c-5.75,0-9.85-1.09-12.53-3.33-2.42-2-3.78-5-4-8.87Z"/><path class="j" d="M249.25,197a7.46,7.46,0,0,0-3.2-6.42q-3.21-2.29-11.27-4.76a114.63,114.63,0,0,1-13.18-4.76Q205,173.62,205,160.63a17.3,17.3,0,0,1,4.15-11.42,26.87,26.87,0,0,1,11.73-7.7,49.7,49.7,0,0,1,17.07-2.75,43.6,43.6,0,0,1,16.56,3,25.81,25.81,0,0,1,11.38,8.53,20.82,20.82,0,0,1,4.06,12.65H249.31a9,9,0,0,0-3.21-7.38c-2.13-1.75-5-2.62-8.67-2.62s-6.6.74-8.74,2.22a6.64,6.64,0,0,0-3.21,5.64q0,3,3.53,5.43c2.36,1.62,6.49,3.3,12.42,5A80.34,80.34,0,0,1,256,176.84q13.88,7.26,13.88,20a18.43,18.43,0,0,1-8.47,16q-8.48,5.83-23.24,5.83a50.15,50.15,0,0,1-18.85-3.39q-8.44-3.41-12.71-9.31a22.6,22.6,0,0,1-4.27-13.61h20.71q0,6.26,3.56,9.23t11.56,3a14.26,14.26,0,0,0,8.09-2A6.43,6.43,0,0,0,249.25,197Z"/><path class="k" d="M238.19,220.29a51.74,51.74,0,0,1-19.42-3.51c-5.87-2.36-10.37-5.67-13.37-9.83a24.17,24.17,0,0,1-4.56-14.5,1.52,1.52,0,0,1,1.52-1.52h20.71a1.52,1.52,0,0,1,1.52,1.52c0,3.73,1,6.37,3,8.06s5.64,2.61,10.58,2.61a12.9,12.9,0,0,0,7.24-1.74,4.88,4.88,0,0,0,2.3-4.38,6,6,0,0,0-2.57-5.18c-2-1.43-5.64-3-10.83-4.55A115.94,115.94,0,0,1,221,182.45c-11.65-5.2-17.55-12.54-17.55-21.82a18.78,18.78,0,0,1,4.5-12.39,28.43,28.43,0,0,1,12.39-8.16,51.41,51.41,0,0,1,17.58-2.84,45.12,45.12,0,0,1,17.13,3.1,27.45,27.45,0,0,1,12,9,22.42,22.42,0,0,1,4.35,13.55,1.52,1.52,0,0,1-1.52,1.52H249.31a1.52,1.52,0,0,1-1.52-1.52,7.48,7.48,0,0,0-2.65-6.2c-1.85-1.51-4.44-2.28-7.71-2.28s-6,.66-7.87,2a5.15,5.15,0,0,0-2.55,4.39c0,1.48.94,2.84,2.87,4.18,2.21,1.52,6.24,3.14,12,4.82a82,82,0,0,1,14.87,5.7c9.76,5.11,14.7,12.31,14.7,21.4a20,20,0,0,1-9.13,17.3C256.41,218.23,248.3,220.29,238.19,220.29ZM203.93,194a21.05,21.05,0,0,0,3.93,11.2c2.66,3.69,6.72,6.64,12,8.79a48.75,48.75,0,0,0,18.28,3.28c9.49,0,17-1.87,22.37-5.56a16.87,16.87,0,0,0,7.82-14.79c0-8-4.28-14.1-13.07-18.71A79.37,79.37,0,0,0,241,172.71c-6.14-1.79-10.34-3.51-12.85-5.24-2.78-1.91-4.19-4.16-4.19-6.68a8.09,8.09,0,0,1,3.87-6.89c2.38-1.65,5.61-2.49,9.6-2.49s7.23,1,9.64,3a10.1,10.1,0,0,1,3.68,7h17.58a19.24,19.24,0,0,0-3.72-10.23,24.41,24.41,0,0,0-10.73-8,42.11,42.11,0,0,0-16-2.88,48.45,48.45,0,0,0-16.55,2.66,25.59,25.59,0,0,0-11.09,7.25,15.66,15.66,0,0,0-3.79,10.44c0,8.08,5.15,14.31,15.75,19a112.47,112.47,0,0,0,13,4.69c5.59,1.71,9.42,3.34,11.71,5a8.94,8.94,0,0,1,3.84,7.66,7.88,7.88,0,0,1-3.64,6.9,15.85,15.85,0,0,1-8.94,2.27c-5.76,0-9.85-1.09-12.53-3.32-2.42-2-3.78-5-4.06-8.88Z"/><path class="l" d="M362.66,180.36A42.42,42.42,0,0,1,358,200.53,32.44,32.44,0,0,1,344.81,214a39.59,39.59,0,0,1-19.5,4.73,40.22,40.22,0,0,1-19.42-4.57,32.57,32.57,0,0,1-13.2-13.07,41.22,41.22,0,0,1-5-19.53v-4.38A42.47,42.47,0,0,1,292.34,157a32.31,32.31,0,0,1,13.23-13.5,42.62,42.62,0,0,1,39-.06,33.06,33.06,0,0,1,13.27,13.4,41.38,41.38,0,0,1,4.79,19.92Zm-21-3.26q0-11.59-4.26-17.62t-12.21-6q-15.53,0-16.41,21.18l-.06,5.72q0,11.44,4.18,17.6t12.41,6.15a13.86,13.86,0,0,0,12.06-6q4.23-6,4.29-17.38Z"/><path class="m" d="M325.31,220.29a41.87,41.87,0,0,1-20.14-4.76,34.16,34.16,0,0,1-13.81-13.67,43,43,0,0,1-5.17-20.23v-4.42a44.28,44.28,0,0,1,4.8-20.9,34,34,0,0,1,13.85-14.12,44.13,44.13,0,0,1,40.5-.06,34.69,34.69,0,0,1,13.87,14,43.05,43.05,0,0,1,5,20.64v3.59a44.11,44.11,0,0,1-4.82,20.88,34.05,34.05,0,0,1-13.81,14.12A41.29,41.29,0,0,1,325.31,220.29Zm-.12-80a38.59,38.59,0,0,0-18.88,4.57,30.93,30.93,0,0,0-12.63,12.88,41.25,41.25,0,0,0-4.44,19.48v4.38A39.94,39.94,0,0,0,294,200.37a31.15,31.15,0,0,0,12.6,12.48,38.79,38.79,0,0,0,18.69,4.39,38.33,38.33,0,0,0,18.76-4.54,31,31,0,0,0,12.6-12.89,41,41,0,0,0,4.47-19.45v-3.58a40,40,0,0,0-4.61-19.19,31.65,31.65,0,0,0-12.66-12.8A38.27,38.27,0,0,0,325.19,140.28Zm.12,65.35c-6,0-10.6-2.29-13.67-6.82-2.95-4.33-4.44-10.54-4.44-18.45l.06-5.73c.62-15.07,6.66-22.69,17.93-22.69,5.79,0,10.32,2.24,13.45,6.66,3,4.26,4.54,10.48,4.54,18.5v3.59c0,7.85-1.58,14-4.57,18.25A15.35,15.35,0,0,1,325.31,205.63ZM325.19,155c-9.47,0-14.34,6.45-14.89,19.72l-.06,5.67c0,7.27,1.32,12.9,3.91,16.72s6.16,5.49,11.16,5.49c4.73,0,8.27-1.77,10.81-5.4s4-9.3,4-16.51V177.1c0-7.38-1.34-13-4-16.74S330,155,325.19,155Z"/></svg>