<svg xmlns="http://www.w3.org/2000/svg" viewBox="0 0 480 480"><defs><style>.a{fill:#f9b630;}.b{fill:#fdedcc;}.c{fill:#faae17;}.d{fill:#ffdb98;}.e{fill:#1c487d;}</style></defs><path class="a" d="M283,330.89l-2.44,43.23a6.09,6.09,0,0,0,10.24,4.78l31.58-29.62a36.38,36.38,0,0,0,8.1-11.18L451.06,79.84a12.18,12.18,0,0,0-5.88-16.18l-22.05-10.3A12.18,12.18,0,0,0,407,59.24L286.35,317.5A36.37,36.37,0,0,0,283,330.89Z"/><path class="b" d="M280.54,374.12,283,330.89a36.37,36.37,0,0,1,3.37-13.39l2.17-4.66,44.12,20.6-2.18,4.66a36.67,36.67,0,0,1-8.1,11.18L290.78,378.9A6.09,6.09,0,0,1,280.54,374.12Z"/><path class="b" d="M391.5,92.32l44.11,20.6,15.45-33.08a12.18,12.18,0,0,0-5.88-16.18l-22.06-10.3A12.17,12.17,0,0,0,407,59.24Z"/><rect class="c" x="251.41" y="205.86" width="243.38" height="24.34" transform="translate(17.68 463.83) rotate(-64.97)"/><path class="d" d="M413.55,102.62l22.06,10.3,15.45-33.08a12.18,12.18,0,0,0-5.88-16.18l-11-5.15Z"/><path class="d" d="M332.64,333.44l-2.18,4.66a36.67,36.67,0,0,1-8.1,11.18L290.78,378.9A6,6,0,0,1,284,380l26.54-56.83Z"/><path class="e" d="M308.36,362.4l-17.58,16.5a6.09,6.09,0,0,1-10.24-4.78L281.9,350Z"/><path class="e" d="M243.63,364.12H38.9a11.12,11.12,0,0,0,0,22.23H243.63a11.12,11.12,0,0,0,0-22.23Z"/><path class="e" d="M199.19,319.68H38.9a11.11,11.11,0,0,0,0,22.22H199.19a11.11,11.11,0,1,0,0-22.22Z"/><path class="e" d="M143.38,427.78H356.49a10.71,10.71,0,1,0,0-21.41H143.38a10.71,10.71,0,1,0,0,21.41Z"/><path class="e" d="M38.5,427.78h64.26a10.71,10.71,0,1,0,0-21.41H38.5a10.71,10.71,0,1,0,0,21.41Z"/></svg>