<svg xmlns="http://www.w3.org/2000/svg" xmlns:xlink="http://www.w3.org/1999/xlink" viewBox="0 0 480 480"><defs><style>.a{fill:url(#a);}.b{fill:#29afa0;}.c{fill:#173f6d;}.d{fill:#fcc966;}.e{fill:#faae17;}.f{fill:#1f518c;}.g{fill:#2a8d81;}.h{fill:#fff;}</style><linearGradient id="a" x1="85.47" y1="244.41" x2="332.64" y2="244.41" gradientUnits="userSpaceOnUse"><stop offset="0" stop-color="#20579c"/><stop offset="1" stop-color="#26ae9f"/></linearGradient></defs><path class="a" d="M332.64,407.72H85.47V89.93A8.83,8.83,0,0,1,94.3,81.1H323.82a8.83,8.83,0,0,1,8.82,8.83Z"/><path class="b" d="M279.68,231.17H173.75a8.83,8.83,0,1,1,0-17.65H279.68a8.83,8.83,0,1,1,0,17.65Z"/><path class="c" d="M120.78,407.72H85.47V89.93A8.83,8.83,0,0,1,94.3,81.1h26.48Z"/><path class="d" d="M184.23,154.81l-14.9-11.91-14.89,11.91a4.42,4.42,0,0,1-7.18-3.44V81.1a8.83,8.83,0,0,1,8.83-8.82h26.49a8.82,8.82,0,0,1,8.82,8.82v70.27A4.41,4.41,0,0,1,184.23,154.81Z"/><path class="e" d="M156.09,72.28a8.83,8.83,0,0,0-8.83,8.82v70.27a4.42,4.42,0,0,0,7.18,3.44l14.89-11.91V72.28Z"/><path class="b" d="M287.33,266.48H156.09a8.83,8.83,0,1,1,0-17.65H287.33a8.83,8.83,0,1,1,0,17.65Z"/><path class="f" d="M332.57,197.57v34.52A35.5,35.5,0,0,0,300,267.42v3.11H285.31a22.8,22.8,0,0,0-4.63.48c-.38.08-.75.16-1.11.26s-.73.2-1.09.32-.72.23-1.07.37a10.28,10.28,0,0,0-1,.42l-.75.34a5,5,0,0,0-.52.26c-.32.16-.63.33-.94.5l-.68.4c-.46.29-.91.59-1.35.91-.22.15-.44.31-.65.48-.43.33-.84.68-1.25,1l-.54.5-.09.09-.45.45a22.5,22.5,0,0,0-4.74,7.19c-.1.24-.2.48-.28.72a20,20,0,0,0-.64,2c-.05.17-.09.33-.13.5s-.12.48-.17.73l0,.18c-.05.24-.1.49-.14.74a20.55,20.55,0,0,0-.25,2.23c0,.18,0,.37,0,.55s0,.63,0,.95V267.42A69.94,69.94,0,0,1,332.57,197.57Z"/><path class="f" d="M307.91,281.31v22.6h-45.2V293.13c0-.32,0-.63,0-.95s0-.37,0-.55a20.55,20.55,0,0,1,.25-2.23c0-.25.09-.5.14-.74l0-.18c.05-.25.11-.49.17-.73s.08-.33.13-.5a20,20,0,0,1,.64-2c.08-.24.18-.48.28-.72a22.5,22.5,0,0,1,4.74-7.19l.45-.45.09-.09.54-.5c.41-.36.82-.71,1.25-1,.21-.17.43-.33.65-.48.44-.32.89-.62,1.35-.91l.68-.4c.31-.17.62-.34.94-.5l.52-.26.75-.34c.34-.15.69-.29,1-.42s.71-.26,1.07-.37.72-.22,1.09-.32.73-.18,1.11-.26a22.8,22.8,0,0,1,4.63-.48H300v10.78Z"/><path class="f" d="M332.57,281.31V386.62a70,70,0,0,1-69.86-69.86V303.91h45.2v-22.6Z"/><path class="f" d="M307.91,281.31v22.6h-45.2V293.13c0-.32,0-.63,0-.95s0-.37,0-.55a20.55,20.55,0,0,1,.25-2.23c0-.25.09-.5.14-.74l0-.18c.05-.25.11-.49.17-.73s.08-.33.13-.5a20,20,0,0,1,.64-2c.08-.24.18-.48.28-.72a22.5,22.5,0,0,1,4.74-7.19l.45-.45.09-.09.54-.5c.41-.36.82-.71,1.25-1,.21-.17.43-.33.65-.48.44-.32.89-.62,1.35-.91l.68-.4c.31-.17.62-.34.94-.5l.52-.26.75-.34c.34-.15.69-.29,1-.42s.71-.26,1.07-.37.72-.22,1.09-.32.73-.18,1.11-.26a22.8,22.8,0,0,1,4.63-.48H300v10.78Z"/><path class="g" d="M285.58,215.78a59.08,59.08,0,0,0-12.77,15.39h6.87a8.83,8.83,0,0,0,8.83-8.83C288.51,217.47,285.58,215.78,285.58,215.78Z"/><path class="g" d="M287.33,248.83H265c-2,5.68-2.28,11.48-2.28,17.65h24.62a8.83,8.83,0,1,0,0-17.65Z"/><path class="d" d="M394.53,267.42v25.71H370.9V267.42A35.48,35.48,0,0,0,335.45,232c-1,0-1.93,0-2.88.11A35.5,35.5,0,0,0,300,267.42v25.71H276.37V267.42a59.16,59.16,0,0,1,56.2-59c.95,0,1.91-.07,2.88-.07A59.15,59.15,0,0,1,394.53,267.42Z"/><path class="e" d="M394.53,293.13v23.63a59.09,59.09,0,0,1-59.08,59.08c-1,0-1.93,0-2.88-.07a59.09,59.09,0,0,1-56.2-59V293.13a11.82,11.82,0,0,1,11.82-11.82h94.52A11.82,11.82,0,0,1,394.53,293.13Z"/><path class="h" d="M344.26,333.85H332.7q.19,4.86,2.65,7.19t8.13,2.33a17.65,17.65,0,0,0,6.52-1.12l1.59,10a44.19,44.19,0,0,1-9.74,1.12q-10,0-15.94-5.19t-6.25-14.33h-6.11v-5.93h6.11v-4.48h-6.11v-5.93h6.23q.69-9.18,6.89-14.33T343,298a35.9,35.9,0,0,1,8.59,1.15l-1.59,10a16.53,16.53,0,0,0-6.19-1.15c-3.4,0-6,.77-7.81,2.31s-2.87,3.94-3.19,7.17h11.45v5.93H332.7v4.48h11.56Z"/><path class="h" d="M314.61,332.79h5.05a1.06,1.06,0,0,1,1.06,1c.18,5.77,2.16,10.34,5.88,13.58s8.88,4.92,15.25,4.92a42.65,42.65,0,0,0,8.55-.88l-1.24-7.77a20.32,20.32,0,0,1-5.68.76c-4.1,0-7-.85-8.85-2.61s-2.85-4.41-3-7.92a1.06,1.06,0,0,1,1.05-1.1h10.51V329H332.7a1,1,0,0,1-1.05-1.05v-4.48a1.06,1.06,0,0,1,1.05-1.06h10.51v-3.81h-10.4a1.07,1.07,0,0,1-.78-.35,1,1,0,0,1-.26-.81c.34-3.5,1.54-6.15,3.54-7.87s4.85-2.56,8.5-2.56a18.12,18.12,0,0,1,5.35.78L350.4,300a33.87,33.87,0,0,0-7.4-.9c-6.48,0-11.75,1.65-15.66,4.91s-6.07,7.8-6.51,13.6a1.06,1.06,0,0,1-1.05,1h-5.17v3.81h5.05a1.06,1.06,0,0,1,1.06,1.06v4.48a1.05,1.05,0,0,1-1.06,1.05h-5.05Z"/></svg>