<svg xmlns="http://www.w3.org/2000/svg" xmlns:xlink="http://www.w3.org/1999/xlink" viewBox="0 0 480 480"><defs><style>.a{fill:#fcc966;}.b{fill:#faae17;}.c{fill:url(#a);}.d{fill:#1c487d;}.e{fill:#e4eaf2;}.f{fill:#ccd9e8;}.g{fill:#29afa0;}.h{fill:#f9b630;}</style><linearGradient id="a" x1="111.2" y1="140.55" x2="369.06" y2="140.55" gradientUnits="userSpaceOnUse"><stop offset="0" stop-color="#20579c"/><stop offset="1" stop-color="#26ae9f"/></linearGradient></defs><path class="a" d="M240,167.48,151.2,321.29H328.81Zm0,0"/><path class="b" d="M240,167.48,222.41,198l71.21,123.34h35.19Zm0,0"/><path class="c" d="M167.8,202.13H312.47a15.6,15.6,0,0,0,8.51-2.54c25.93-17,48.08-37.22,48.08-56.54C369.06,96.44,311.34,79,240.13,79S111.2,96.44,111.2,143.05c0,19.32,22.15,39.52,48.09,56.54a15.57,15.57,0,0,0,8.51,2.54Zm0,0"/><path class="d" d="M331.36,93.56a46.33,46.33,0,0,1,9.45,28.79c0,19.32-22.15,39.51-48.09,56.54a15.53,15.53,0,0,1-8.5,2.53H139.54a15.5,15.5,0,0,1-5.76-1.12,215.11,215.11,0,0,0,25.51,19.29,15.57,15.57,0,0,0,8.51,2.54H312.47a15.6,15.6,0,0,0,8.51-2.54c25.93-17,48.08-37.22,48.08-56.53,0-23.29-14.41-39.3-37.7-49.5Zm0,0"/><path class="e" d="M378.26,172.48H100.72a66.19,66.19,0,0,1-24.67-4.77l-42.2-16.94a4.71,4.71,0,0,1,0-8.74l42.2-16.94a66,66,0,0,1,24.67-4.77H378.26a66.2,66.2,0,0,1,24.17,4.57L446.11,142a4.71,4.71,0,0,1,0,8.77l-43.68,17.13a66.2,66.2,0,0,1-24.17,4.57Zm0,0"/><path class="f" d="M446.11,142l-9.49-3.72-36.48,14.3A66.29,66.29,0,0,1,376,157.16H98.43a66.25,66.25,0,0,1-24.68-4.77L40.9,139.2l-7,2.83a4.71,4.71,0,0,0,0,8.74l42.2,16.94a66.19,66.19,0,0,0,24.67,4.77H378.26a66.2,66.2,0,0,0,24.17-4.57l43.68-17.13a4.71,4.71,0,0,0,0-8.77Zm0,0"/><path class="b" d="M93.31,144a6.74,6.74,0,0,1-1.26-.13,7,7,0,0,1-1.21-.36,6.69,6.69,0,0,1-1.12-.6,6.3,6.3,0,0,1-1-.81,6.46,6.46,0,0,1,0-9.13,6.85,6.85,0,0,1,1-.8,6,6,0,0,1,1.12-.59,5.64,5.64,0,0,1,1.21-.37,6,6,0,0,1,2.52,0,5.82,5.82,0,0,1,1.21.37,5.38,5.38,0,0,1,1.11.59,5.81,5.81,0,0,1,1,.8,5,5,0,0,1,.8,1,5.65,5.65,0,0,1,.6,1.11,7.24,7.24,0,0,1,.37,1.2,6.93,6.93,0,0,1,.13,1.27,6.55,6.55,0,0,1-.13,1.25,6.37,6.37,0,0,1-.37,1.22,5.65,5.65,0,0,1-.6,1.11,5,5,0,0,1-.8,1,6.39,6.39,0,0,1-1,.81,5.91,5.91,0,0,1-1.11.59,6.5,6.5,0,0,1-1.21.37,6.74,6.74,0,0,1-1.26.13Zm0,0"/><path class="b" d="M112,137.54a6.46,6.46,0,1,1,6.46,6.46,6.46,6.46,0,0,1-6.46-6.46Zm0,0"/><path class="b" d="M143.61,144a6.44,6.44,0,0,1-4.56-1.9,5.86,5.86,0,0,1-.81-1,5.65,5.65,0,0,1-.6-1.11,6.6,6.6,0,0,1-.36-1.2,6.27,6.27,0,0,1,0-2.54,6.37,6.37,0,0,1,.36-1.2,5.65,5.65,0,0,1,.6-1.11,6.36,6.36,0,0,1,1.79-1.79,5.61,5.61,0,0,1,1.11-.59,5.74,5.74,0,0,1,1.2-.37,6.43,6.43,0,0,1,3.74.37,5.14,5.14,0,0,1,1.11.59,5.43,5.43,0,0,1,1,.8,6.48,6.48,0,0,1,.81,1,6.19,6.19,0,0,1,.59,1.11,6.4,6.4,0,0,1,.37,1.2,6.15,6.15,0,0,1,.13,1.27,6.93,6.93,0,0,1-.13,1.27,6.63,6.63,0,0,1-.37,1.2,6.19,6.19,0,0,1-.59,1.11,6.39,6.39,0,0,1-.81,1,5.49,5.49,0,0,1-1,.81,5.61,5.61,0,0,1-1.11.59,6.54,6.54,0,0,1-2.47.5Zm0,0"/><path class="b" d="M215.21,144a6.69,6.69,0,0,1-2.47-.49,6.69,6.69,0,0,1-1.12-.6,6.37,6.37,0,0,1-1-.81,6.48,6.48,0,0,1,0-9.13,6.93,6.93,0,0,1,1-.8,6,6,0,0,1,1.12-.59,5.56,5.56,0,0,1,1.2-.37,6.43,6.43,0,0,1,3.74.37,5.38,5.38,0,0,1,1.11.59,5.81,5.81,0,0,1,1,.8,5.88,5.88,0,0,1,.8,1,5.65,5.65,0,0,1,.6,1.11,7.24,7.24,0,0,1,.37,1.2,6.93,6.93,0,0,1,.13,1.27,6.55,6.55,0,0,1-.13,1.25,7.17,7.17,0,0,1-.37,1.22,5.65,5.65,0,0,1-.6,1.11,5.81,5.81,0,0,1-.8,1,6.39,6.39,0,0,1-1,.81,5.91,5.91,0,0,1-1.11.59,6.73,6.73,0,0,1-1.21.37,6.65,6.65,0,0,1-1.26.13Zm0,0"/><path class="b" d="M233.9,137.54a6.46,6.46,0,1,1,6.45,6.46,6.46,6.46,0,0,1-6.45-6.46Zm0,0"/><path class="b" d="M265.51,144a6.46,6.46,0,0,1-4.57-1.9,6.39,6.39,0,0,1-.81-1,6.19,6.19,0,0,1-.59-1.11,6.6,6.6,0,0,1-.36-1.2,6.27,6.27,0,0,1,0-2.54,6.37,6.37,0,0,1,.36-1.2,6.19,6.19,0,0,1,.59-1.11,6.48,6.48,0,0,1,.81-1,5.9,5.9,0,0,1,1-.8,6,6,0,0,1,1.12-.59,5.74,5.74,0,0,1,1.2-.37,6.47,6.47,0,0,1,3.74.37,5.38,5.38,0,0,1,1.11.59,5.81,5.81,0,0,1,1,.8,5.88,5.88,0,0,1,.8,1,6.23,6.23,0,0,1,.6,1.11,5.71,5.71,0,0,1,.36,1.2,5.83,5.83,0,0,1,0,2.54,5.89,5.89,0,0,1-.36,1.2,6.23,6.23,0,0,1-.6,1.11,6.5,6.5,0,0,1-1.78,1.79,5.91,5.91,0,0,1-1.11.59,6.64,6.64,0,0,1-2.47.5Zm0,0"/><path class="b" d="M337.11,144a6.84,6.84,0,0,1-1.27-.13,6.93,6.93,0,0,1-1.2-.36,6.69,6.69,0,0,1-1.12-.6,6.37,6.37,0,0,1-1-.81,6.48,6.48,0,0,1,0-9.13,6.93,6.93,0,0,1,1-.8,6,6,0,0,1,1.12-.59,5.56,5.56,0,0,1,1.2-.37,6.43,6.43,0,0,1,3.74.37,5.38,5.38,0,0,1,1.11.59,5.81,5.81,0,0,1,1,.8,5.88,5.88,0,0,1,.8,1,5.65,5.65,0,0,1,.6,1.11,7.24,7.24,0,0,1,.37,1.2,6.91,6.91,0,0,1,.12,1.27,6.54,6.54,0,0,1-.12,1.25,7.17,7.17,0,0,1-.37,1.22,5.65,5.65,0,0,1-.6,1.11,5.81,5.81,0,0,1-.8,1,6.39,6.39,0,0,1-1,.81,5.91,5.91,0,0,1-1.11.59,6.54,6.54,0,0,1-2.47.5Zm0,0"/><path class="b" d="M355.79,137.54a6.46,6.46,0,1,1,6.46,6.46,6.46,6.46,0,0,1-6.46-6.46Zm0,0"/><path class="b" d="M387.41,144a6.46,6.46,0,0,1-4.57-1.9,6.39,6.39,0,0,1-.81-1,6.19,6.19,0,0,1-.59-1.11,5.89,5.89,0,0,1-.36-1.2,6.27,6.27,0,0,1,0-2.54,5.71,5.71,0,0,1,.36-1.2A6.19,6.19,0,0,1,382,134a6.48,6.48,0,0,1,.81-1,6,6,0,0,1,1-.8,6.64,6.64,0,0,1,2.31-1,6.47,6.47,0,0,1,3.74.37,5.14,5.14,0,0,1,1.11.59,5.81,5.81,0,0,1,1,.8,5.88,5.88,0,0,1,.8,1,5.61,5.61,0,0,1,.59,1.11,5.2,5.2,0,0,1,.37,1.2,5.83,5.83,0,0,1,0,2.54,5.35,5.35,0,0,1-.37,1.2,5.61,5.61,0,0,1-.59,1.11,6.5,6.5,0,0,1-1.78,1.79,5.61,5.61,0,0,1-1.11.59,6.64,6.64,0,0,1-2.47.5Zm0,0"/><path class="d" d="M135.46,240.18A6.31,6.31,0,0,1,131,229.41l35-35a6.31,6.31,0,1,1,8.92,8.93l-35,35a6.26,6.26,0,0,1-4.46,1.85Zm0,0"/><path class="d" d="M344.81,240.18a6.28,6.28,0,0,1-4.47-1.85l-35-35a6.31,6.31,0,0,1,8.93-8.93l35,35a6.31,6.31,0,0,1,0,8.93,6.24,6.24,0,0,1-4.46,1.85Zm0,0"/><path class="d" d="M240.13,246.33a6.32,6.32,0,0,1-6.31-6.32v-41.1a6.32,6.32,0,1,1,12.63,0V240a6.32,6.32,0,0,1-6.32,6.32Zm0,0"/><path class="e" d="M359.25,385.59H144.4a28.17,28.17,0,0,1-28.17-28.17v-8.7a28.17,28.17,0,0,1,28.17-28.16H359.25s-7,17.51-7,32.51,7,32.52,7,32.52Zm0,0"/><path class="f" d="M359.25,320.56H334.6s-7,17.51-7,32.51,7,32.52,7,32.52h24.65s-7-17.52-7-32.52,7-32.51,7-32.51Zm0,0"/><path class="g" d="M363.77,390.65H144.4a33.27,33.27,0,0,1-33.23-33.23v-8.7A33.26,33.26,0,0,1,144.4,315.5H363.77a5.06,5.06,0,0,1,0,10.12H144.4a23.13,23.13,0,0,0-23.11,23.1v8.7a23.14,23.14,0,0,0,23.11,23.11H363.77a5.06,5.06,0,0,1,0,10.12Zm0,0"/><path class="h" d="M186.37,400.62,171.83,390,157.3,400.62A2.05,2.05,0,0,1,154,399V349.45h35.59V399a2.05,2.05,0,0,1-3.26,1.66Zm0,0"/><path class="b" d="M171.83,349.45V390l14.54,10.63a2.05,2.05,0,0,0,3.26-1.66V349.45Zm0,0"/><path class="f" d="M255.55,354.51H147.74a5.07,5.07,0,1,1,0-10.13H255.55a5.07,5.07,0,0,1,0,10.13Zm0,0"/><path class="f" d="M281,371.79H218.79a5.07,5.07,0,0,1,0-10.13H281a5.07,5.07,0,0,1,0,10.13Zm0,0"/></svg>