<svg xmlns="http://www.w3.org/2000/svg" xmlns:xlink="http://www.w3.org/1999/xlink" viewBox="0 0 480 480"><defs><style>.a{fill:#257c71;}.b{fill:#29afa0;}.c{fill:#2a8d81;}.d{fill:url(#a);}.e{fill:#173f6d;}.f{fill:#fff;}.g{fill:#1c487d;}.h{fill:#20579c;}</style><linearGradient id="a" x1="133.42" y1="185.51" x2="322.54" y2="185.51" gradientUnits="userSpaceOnUse"><stop offset="0" stop-color="#20579c"/><stop offset="1" stop-color="#26ae9f"/></linearGradient></defs><path class="a" d="M449.3,372.35c0,48.17-93.71,87.21-209.3,87.21s-209.3-39-209.3-87.21,93.71-87.2,209.3-87.2S449.3,324.19,449.3,372.35Z"/><path class="b" d="M449.3,354.91c0,48.16-93.71,87.21-209.3,87.21S30.7,403.07,30.7,354.91s93.71-87.2,209.3-87.2S449.3,306.75,449.3,354.91Z"/><path class="c" d="M366.45,396.27c0,3-5.86,5.46-13.1,5.46s-13.1-2.45-13.1-5.46,5.86-5.46,13.1-5.46S366.45,393.25,366.45,396.27Z"/><path class="c" d="M150.67,390.81c0,3-5.86,5.46-13.1,5.46s-13.1-2.45-13.1-5.46,5.86-5.46,13.1-5.46S150.67,387.79,150.67,390.81Z"/><path class="c" d="M241.08,350.58c0,3-5.86,5.47-13.1,5.47s-13.11-2.45-13.11-5.47,5.87-5.46,13.11-5.46S241.08,347.57,241.08,350.58Z"/><path class="d" d="M322.54,115c0,52.22-94.56,235.58-94.56,235.58S133.42,167.22,133.42,115a94.56,94.56,0,0,1,189.12,0Z"/><path class="e" d="M188,240.68c0,27.83-50.38,151.15-50.38,151.15S87.19,268.51,87.19,240.68a50.38,50.38,0,0,1,100.76,0Z"/><path class="f" d="M307.05,114.84A79.08,79.08,0,1,1,228,35.77,79.08,79.08,0,0,1,307.05,114.84Z"/><path class="f" d="M175.69,240.68a38.12,38.12,0,1,1-38.12-38.11A38.12,38.12,0,0,1,175.69,240.68Z"/><path class="g" d="M425.27,180.5c0,39.73-71.92,215.77-71.92,215.77s-71.92-176-71.92-215.77a71.92,71.92,0,1,1,143.84,0Z"/><circle class="f" cx="353.35" cy="180.5" r="60.18"/><path class="b" d="M266,151.47a5.88,5.88,0,0,1-5.89,6H195.86a5.87,5.87,0,0,1-5.87-6l1.51-64.22a6.2,6.2,0,0,1,6.15-6h60.89a6.17,6.17,0,0,1,6.13,6Z"/><path class="h" d="M252.14,87.18h-1.9c0-15.36-9.91-27.87-22.09-27.87s-22.09,12.51-22.09,27.87h-1.91a33.55,33.55,0,0,1,7-21c4.54-5.68,10.59-8.8,17-8.8s12.5,3.12,17,8.8A33.6,33.6,0,0,1,252.14,87.18Z"/><path class="h" d="M252.74,87.78h-3.1v-.6c0-15-9.64-27.26-21.49-27.26s-21.49,12.23-21.49,27.26v.6h-3.11v-.6a34.19,34.19,0,0,1,7.09-21.35c4.65-5.82,10.87-9,17.51-9s12.85,3.2,17.51,9a34.19,34.19,0,0,1,7.08,21.35Zm-1.91-1.2h.71a32.92,32.92,0,0,0-6.82-20C240.3,61.05,234.41,58,228.15,58s-12.15,3-16.57,8.57a32.86,32.86,0,0,0-6.82,20h.7c.26-15.42,10.34-27.87,22.69-27.87S250.58,71.16,250.83,86.58Z"/><path class="b" d="M383,208.94a5.88,5.88,0,0,1-5.88,6H329.63a5.87,5.87,0,0,1-5.87-6l1.11-47.44a6.21,6.21,0,0,1,6.16-6h44.83a6.19,6.19,0,0,1,6.13,6Z"/><path class="h" d="M372.19,160.13h-1.48c0-12-7.73-21.73-17.23-21.73s-17.22,9.75-17.22,21.73h-1.49a26.2,26.2,0,0,1,5.43-16.36c3.53-4.42,8.25-6.86,13.28-6.86s9.75,2.44,13.29,6.86A26.19,26.19,0,0,1,372.19,160.13Z"/><path class="h" d="M372.66,160.6h-2.42v-.47c0-11.73-7.52-21.26-16.76-21.26s-16.75,9.53-16.75,21.26v.47H334.3v-.47a26.62,26.62,0,0,1,5.53-16.65c3.63-4.54,8.48-7,13.65-7s10,2.5,13.65,7a26.62,26.62,0,0,1,5.53,16.65Zm-1.49-.94h.55a25.66,25.66,0,0,0-5.32-15.59c-3.45-4.32-8-6.69-12.92-6.69s-9.47,2.37-12.92,6.69a25.66,25.66,0,0,0-5.32,15.59h.55c.2-12,8.06-21.73,17.69-21.73S371,147.63,371.17,159.66Z"/><path class="h" d="M372.6,160.13a1.15,1.15,0,0,1-2.3,0,1.15,1.15,0,0,1,2.3,0Z"/><path class="h" d="M336.66,160.13a1.15,1.15,0,1,1-1.15-1.15A1.15,1.15,0,0,1,336.66,160.13Z"/><path class="b" d="M154.4,253.33a5.9,5.9,0,0,1-5.89,6H126.63a5.87,5.87,0,0,1-5.87-6l.51-21.88a6.21,6.21,0,0,1,6.16-6h20.39a6.18,6.18,0,0,1,6.13,6Z"/><path class="h" d="M148.31,228.08h-.85c0-6.83-4.4-12.39-9.82-12.39s-9.82,5.56-9.82,12.39H127a14.89,14.89,0,0,1,3.09-9.32,9.29,9.29,0,0,1,15.15,0A15,15,0,0,1,148.31,228.08Z"/><path class="h" d="M148.58,228.35H147.2v-.27c0-6.68-4.29-12.12-9.56-12.12s-9.55,5.44-9.55,12.12v.27h-1.38v-.27a15.22,15.22,0,0,1,3.15-9.49,9.56,9.56,0,0,1,15.57,0,15.2,15.2,0,0,1,3.15,9.49Zm-.85-.53H148a14.54,14.54,0,0,0-3-8.89,9,9,0,0,0-14.73,0,14.54,14.54,0,0,0-3,8.89h.31c.11-6.86,4.59-12.39,10.08-12.39S147.62,221,147.73,227.82Z"/><path class="h" d="M148.54,228.08a.65.65,0,0,1-.65.66.66.66,0,1,1,0-1.31A.65.65,0,0,1,148.54,228.08Z"/><path class="h" d="M128.06,228.08a.66.66,0,1,1-.66-.65A.66.66,0,0,1,128.06,228.08Z"/></svg>