<svg xmlns="http://www.w3.org/2000/svg" viewBox="0 0 480 480"><defs><style>.a{fill:#20579c;}.b{fill:#1c487d;}.c{fill:#cce9e6;}.d{fill:#e8f5f3;}.e{fill:#fff;}.f{fill:#66c5ba;}.g{fill:#29afa0;}.h{fill:#ccd9e8;}</style></defs><path class="a" d="M373.63,294.11c11.85,11.85,24.28,21.05,35.15,26.61a7.86,7.86,0,0,0,9.12-1.48l9.35-9.34a7.88,7.88,0,0,0,1.48-9.12c-5.56-10.88-14.76-23.31-26.61-35.15S377.84,244.58,367,239a7.85,7.85,0,0,0-9.12,1.48l-9.34,9.34A7.85,7.85,0,0,0,347,259c5.55,10.88,14.75,23.3,26.6,35.15Zm0,0"/><path class="b" d="M428.73,300.78a109.48,109.48,0,0,0-5.82-9.92l-7.1,7.09a7.85,7.85,0,0,1-9.11,1.48c-10.88-5.56-23.3-14.76-35.16-26.61a162,162,0,0,1-20.79-25.23l-2.24,2.25A7.85,7.85,0,0,0,347,259c5.55,10.88,14.75,23.3,26.6,35.15s24.28,21.05,35.15,26.61a7.86,7.86,0,0,0,9.12-1.48l9.35-9.35a7.86,7.86,0,0,0,1.48-9.11Zm0,0"/><path class="c" d="M387.5,158.82A114.64,114.64,0,1,1,272.86,44.18,114.64,114.64,0,0,1,387.5,158.82Zm0,0"/><path class="d" d="M341.31,66.84A114.65,114.65,0,0,1,180.89,227.26,114.65,114.65,0,1,0,341.31,66.84Zm0,0"/><path d="M272.86,287.41c-70.9,0-128.58-57.69-128.58-128.59A128.59,128.59,0,1,1,272.86,287.41Zm0-239.36A110.77,110.77,0,1,0,383.63,158.82,110.89,110.89,0,0,0,272.86,48.05Zm0,0"/><path class="a" d="M358.57,63.05A128.51,128.51,0,0,1,177.1,244.53,128.52,128.52,0,1,0,358.57,63.05Zm0,0"/><path class="e" d="M350.77,139a9.92,9.92,0,0,1,0,13.13c-12.73,14.41-46.26,47.53-85.63,47.53s-72.9-33.12-85.63-47.53a9.92,9.92,0,0,1,0-13.13c12.73-14.41,46.26-47.53,85.63-47.53S338,124.54,350.77,139Zm0,0"/><path class="d" d="M350.77,139a190.11,190.11,0,0,0-17-16.95,9.92,9.92,0,0,1-.43,12.61C320.56,149,287,182.13,247.67,182.13c-27.36,0-51.88-16-68.58-30.57a5.3,5.3,0,0,0,.42.52c12.73,14.41,46.26,47.53,85.63,47.53s72.9-33.12,85.63-47.53a9.92,9.92,0,0,0,0-13.13Zm0,0"/><path class="a" d="M294.43,161.54a29.29,29.29,0,1,1-29.29-29.3,29.29,29.29,0,0,1,29.29,29.3Zm0,0"/><path class="b" d="M279.56,136A29.29,29.29,0,0,1,239.65,176,29.29,29.29,0,1,0,279.56,136Zm0,0"/><path class="f" d="M345.75,449.77a22,22,0,1,0-22-22A22,22,0,0,0,345.75,449.77Zm0-33.1a11.1,11.1,0,1,1-11.1,11.1A11.1,11.1,0,0,1,345.75,416.67Z"/><path class="g" d="M407.57,400.67a22,22,0,1,0-22-22A22,22,0,0,0,407.57,400.67Zm0-33.09a11.09,11.09,0,1,1-11.09,11.08A11.09,11.09,0,0,1,407.57,367.58Z"/><path class="f" d="M297.85,400.67a22,22,0,1,0-22-22A22,22,0,0,0,297.85,400.67Zm0-33.09a11.09,11.09,0,1,1-11.09,11.08A11.08,11.08,0,0,1,297.85,367.58Z"/><rect class="h" x="407.57" y="409.36" width="16.85" height="36.81"/><rect class="h" x="378.44" y="409.36" width="16.84" height="36.81"/><rect class="h" x="297.85" y="409.36" width="16.85" height="36.81"/><rect class="h" x="270.05" y="409.36" width="16.85" height="36.81"/><rect class="h" x="356.75" y="360.26" width="16.85" height="36.81"/><rect class="h" x="251.33" y="360.26" width="16.85" height="36.81"/><rect class="h" x="328.96" y="360.26" width="16.85" height="36.81"/><rect class="h" x="242.9" y="409.36" width="16.85" height="36.81"/><path class="g" d="M218.38,400.67a22,22,0,1,0-22-22A22,22,0,0,0,218.38,400.67Zm0-33.09a11.09,11.09,0,1,1-11.1,11.08A11.08,11.08,0,0,1,218.38,367.58Z"/><path class="f" d="M108.66,400.67a22,22,0,1,0-22-22A22,22,0,0,0,108.66,400.67Zm0-33.09a11.09,11.09,0,1,1-11.1,11.08A11.09,11.09,0,0,1,108.66,367.58Z"/><rect class="h" x="215.1" y="409.36" width="16.85" height="36.81"/><rect class="h" x="185.97" y="409.36" width="16.84" height="36.81"/><rect class="h" x="105.38" y="409.36" width="16.85" height="36.81"/><rect class="h" x="77.58" y="409.36" width="16.85" height="36.81"/><rect class="h" x="167.56" y="360.26" width="16.85" height="36.81"/><rect class="h" x="62.13" y="360.26" width="16.85" height="36.81"/><rect class="h" x="139.76" y="360.26" width="16.85" height="36.81"/><rect class="h" x="50.43" y="409.36" width="16.85" height="36.81"/><path class="g" d="M264.9,351.57a22,22,0,1,0-22-22A22,22,0,0,0,264.9,351.57Zm0-33.09a11.09,11.09,0,1,1-11.09,11.08A11.07,11.07,0,0,1,264.9,318.48Z"/><rect class="b" x="325.31" y="311.16" width="16.85" height="36.82"/><rect class="b" x="297.85" y="311.16" width="16.85" height="36.82"/><path class="g" d="M180.81,351.57a22,22,0,1,0-22-22A22,22,0,0,0,180.81,351.57Zm0-33.09a11.09,11.09,0,1,1-11.09,11.08A11.07,11.07,0,0,1,180.81,318.48Z"/><path class="f" d="M153.28,303a22,22,0,1,0-22-22A22,22,0,0,0,153.28,303Zm0-33.09A11.09,11.09,0,1,1,142.19,281,11.09,11.09,0,0,1,153.28,269.89Z"/><path class="g" d="M108.66,253.88a22,22,0,1,0-22-22A22,22,0,0,0,108.66,253.88Zm0-33.09a11.09,11.09,0,1,1-11.1,11.08A11.09,11.09,0,0,1,108.66,220.79Z"/><path class="g" d="M72.43,351.57a22,22,0,1,0-22-22A22,22,0,0,0,72.43,351.57Zm0-33.09a11.09,11.09,0,1,1-11.09,11.08A11.07,11.07,0,0,1,72.43,318.48Z"/><rect class="b" x="215.1" y="311.16" width="16.85" height="36.82"/><rect class="b" x="132.84" y="311.16" width="16.85" height="36.82"/><rect class="b" x="105.38" y="262.57" width="16.85" height="36.82"/><rect class="b" x="77.58" y="262.57" width="16.85" height="36.82"/><rect class="b" x="105.38" y="311.16" width="16.85" height="36.82"/></svg>