<svg xmlns="http://www.w3.org/2000/svg" xmlns:xlink="http://www.w3.org/1999/xlink" viewBox="0 0 480 480"><defs><style>.a{fill:url(#a);}.b{fill:#fff;}.c{fill:#faae17;}.d{fill:url(#b);}.e{fill:url(#c);}</style><linearGradient id="a" x1="37.88" y1="240" x2="442.12" y2="240" gradientUnits="userSpaceOnUse"><stop offset="0" stop-color="#20579c"/><stop offset="1" stop-color="#26ae9f"/></linearGradient><linearGradient id="b" x1="114.73" y1="240" x2="365.27" y2="240" xlink:href="#a"/><linearGradient id="c" x1="109.82" y1="240" x2="370.18" y2="240" xlink:href="#a"/></defs><circle class="a" cx="240" cy="240" r="202.12"/><circle class="b" cx="240" cy="240" r="166.06"/><path class="c" d="M277.36,274h-55q.89,20.3,12.6,30t38.66,9.69q17.44,0,31-4.63l7.57,41.66a237.53,237.53,0,0,1-46.33,4.65q-47.57,0-75.84-21.61T160.39,274H131.32v-24.7h29.07V230.58H131.32V205.89h29.6q3.35-38.28,32.77-59.73t77.68-21.46a195,195,0,0,1,40.87,4.79l-7.57,41.67a88.85,88.85,0,0,0-29.42-4.78q-24.31,0-37.17,9.64t-15.15,29.87h54.43v24.69h-55v18.68h55Z"/><path class="c" d="M136.33,269.57h24.06c2.7,0,4.92,1.87,5,4.24.88,24,10.3,43.06,28,56.57s42.22,20.53,72.54,20.53a231.84,231.84,0,0,0,40.64-3.68l-5.89-32.4a108,108,0,0,1-27,3.18c-19.48,0-33.25-3.55-42.11-10.89s-13.52-18.34-14.16-33a4.13,4.13,0,0,1,1.4-3.21,5.39,5.39,0,0,1,3.61-1.34h50V253.65h-50c-2.77,0-5-2-5-4.39V230.58c0-2.42,2.24-4.39,5-4.39h50V210.28H222.93a5.33,5.33,0,0,1-3.71-1.44,4,4,0,0,1-1.27-3.39c1.64-14.58,7.32-25.6,16.87-32.76S257.89,162,275.25,162a97,97,0,0,1,25.42,3.28l5.9-32.44a183.78,183.78,0,0,0-35.2-3.74c-30.82,0-55.88,6.88-74.47,20.44s-28.88,32.52-31,56.69a4.8,4.8,0,0,1-5,4.06H136.33v15.91h24.06c2.77,0,5,2,5,4.39v18.68c0,2.43-2.24,4.39-5,4.39H136.33Z"/><path class="d" d="M365.27,131,131,365.27c-1.95-1.68-3.84-3.4-5.69-5.17s-3.64-3.57-5.41-5.41-3.49-3.74-5.17-5.69L349,114.73q2.91,2.52,5.69,5.17t5.41,5.41Q362.76,128.08,365.27,131Z"/><path class="e" d="M365.27,131q-2.52-2.91-5.17-5.69L125.31,360.1c1.85,1.77,3.74,3.49,5.69,5.17s3.89,3.33,5.9,4.93L370.18,136.91Q367.81,133.88,365.27,131ZM349,114.73q-2.88-2.53-5.9-4.93L109.82,343.09q2.37,3,4.91,5.91c1.68,1.95,3.4,3.84,5.17,5.69L354.69,119.9Q351.92,117.24,349,114.73Z"/></svg>