<svg xmlns="http://www.w3.org/2000/svg" xmlns:xlink="http://www.w3.org/1999/xlink" viewBox="0 0 1045.68 901.75"><defs><style>.a,.al,.b,.h{fill:none;}.a,.al,.b,.e,.f,.g,.h,.l,.m,.n{stroke:#132e50;}.a,.h,.l,.m{stroke-miterlimit:10;}.b,.e,.f,.g,.n{stroke-linecap:round;}.al,.b,.e,.f,.g,.n{stroke-linejoin:round;}.al,.b,.e,.f,.g,.h{stroke-width:4px;}.c{fill:#e8f5f3;}.d{fill:#e4eaf2;}.e,.j{fill:#fff;}.ac,.ag,.am,.f,.k,.l,.o{fill:#132e50;}.i{clip-path:url(#a);}.n{stroke-width:4.02px;}.ac,.o{font-size:29px;}.ac,.ag,.am,.o{font-family:Menco-Black, Menco;font-weight:800;}.p{letter-spacing:0em;}.q{letter-spacing:-0.01em;}.r{letter-spacing:0em;}.s{letter-spacing:-0.02em;}.t{letter-spacing:-0.01em;}.u{letter-spacing:0em;}.v{letter-spacing:0.01em;}.w{letter-spacing:0em;}.x{letter-spacing:0em;}.y{clip-path:url(#b);}.z{letter-spacing:0em;}.aa{letter-spacing:0em;}.ab{letter-spacing:-0.01em;}.ac{letter-spacing:-0.06em;}.ad{letter-spacing:0.01em;}.ae{letter-spacing:0.01em;}.af{letter-spacing:0.01em;}.ag{font-size:53.03px;}.ah{letter-spacing:0em;}.ai{clip-path:url(#c);}.aj{letter-spacing:0em;}.ak{letter-spacing:0em;}.am{font-size:21px;}.an{letter-spacing:0.02em;}.ao{letter-spacing:-0.04em;}.ap{letter-spacing:-0.02em;}.aq{letter-spacing:0em;}.ar{letter-spacing:0.01em;}.as{letter-spacing:0.01em;}.at{letter-spacing:-0.01em;}.au{letter-spacing:-0.01em;}.av{letter-spacing:-0.02em;}.aw{letter-spacing:0em;}.ax{letter-spacing:0em;}.ay{letter-spacing:0em;}</style><clipPath id="a"><path class="a" d="M542.59,333.55c-1,8.85-4.4,16.1-9.2,19.41s-10.36,2.54-15.84,1.86-11.2-1.39-14.55,2.94-1.48,9.4.62,15.35c1.88,5.36,4,11.43,3.35,18.56-.54,5.77-4.73,9.37-9.16,13.19-4.94,4.26-10.54,9.09-11.3,17.51a25.36,25.36,0,0,0,.45,7.45h-271c-10.26-10.29-19.42-28.9-26.07-53.18A123.79,123.79,0,0,1,188,317.33c9-40.49,35.42-61,78.55-61a138.2,138.2,0,0,1,33.81,4.21,15,15,0,0,0,19.19-14.16c.67-41.75,18.38-77.05,51.23-102.08,29.7-22.63,70.93-35.61,113.12-35.61a197.33,197.33,0,0,1,55.88,7.83c-16.17,6.09-26.83,21.57-25.51,37.36.53,6.35,4.75,10.25,8.83,14,3.88,3.59,7.55,7,8.74,12.53,2.43,11.24-6.8,22.39-12.9,29.77l-.56.68c-7.53,9.11-13.94,12.8-19.59,16.06s-10.7,6.15-14.28,13.56c-7,14.48-3.55,35.49,7.69,46.84,7.35,7.42,15.36,8.35,23.1,9.24,7,.81,13.68,1.58,19.23,7.52C540.75,310.76,543.84,322.05,542.59,333.55Z"/></clipPath><clipPath id="b"><path class="a" d="M857.93,332.05c0,.39-.08.77-.13,1.16H771.1V269.93h75.58C852.9,288.89,860.15,310.31,857.93,332.05Z"/></clipPath><clipPath id="c"><path class="b" d="M846.29,269.93H771.1V205.24l4.82,1.41q26.61,8.19,45.05,26a111.93,111.93,0,0,1,22.2,30.57Q844.82,266.49,846.29,269.93Z"/></clipPath></defs><path class="c" d="M913.59,294.13c-1.71-5.27-3.69-10.52-5.92-15.69-12.13-28.1-29.5-49.44-47.67-58.55a55.52,55.52,0,0,0-24.89-6.26c-17.24,0-33.2,9.51-44.94,26.79a39.47,39.47,0,0,0-2.38,4.17c-.34.67-.69,1.35-1.06,2l-31.8,56.5a3.77,3.77,0,0,0-.34.8c-5.31,17.44-12.63,34.28-20.38,52.1-7.93,18.24-16.13,37.1-22,56.8C691.89,480.43,652,537.69,593.54,583c-18.8,14.57-36.42,32.06-53.87,53.48-27.23,33.42-24.88,79.28,5.85,114.1A230.29,230.29,0,0,0,577,780.24c-6.61-1-13.18-2-19.72-3-88.46-13.74-177.24-7.86-266-8.27-34.4-.16-68.94-2.65-100.43-14.87-56.54-22-74.28-64.63-86-107.84-21.34-78.45-39.41-157.6-31.9-238.46,2.85-30.74,20-52.37,44.29-69-5.44,39.3-1.37,52.37,3.67,58.78a14.72,14.72,0,0,0,12,5.77c17.09,0,43.79-25.13,74.72-54.23,31.5-29.64,67.21-63.23,96-72.71,43.86-14.45,83-34.48,110.29-56.41,28.3-22.75,40.62-45.19,34.69-63.18-3.46-10.5-12.64-18.47-26.81-23.6,14-14.59,29.25-28.46,45.12-42.05,13-11.1,27.21-18.75,45.49-22.26,16.07-10.43,37.8-6.93,55.29-13.86,125.22-1.71,229.25,33.91,311.26,108.64C922.44,203.31,924.62,248.31,913.59,294.13Z"/><path class="d" d="M444.73,158c11.1,33.69-52.67,85-142.44,114.53S66.35,551,137.58,258c8.38-34.46,34.77-77.91,124.53-107.48S433.63,124.32,444.73,158Z"/><path class="d" d="M758.41,305.05c-11,36.1-31,70.76-42.41,108.89-21.26,70.89-62.41,127.55-120,172.19-19.73,15.28-37.28,33.27-53.22,52.84-26.44,32.45-23.37,75.93,5.74,108.93,48,54.43,110.38,75.38,180.56,81,40.84,3.24,81.87-2.25,122.74-.32,24,1.14,44.61,11.54,67.11,16.43,5.47,1.19,10.63,3.81,16.15,4.65,15.78,2.4,32.69,6.94,45.73-8,13.85-15.93,10.53-34.09,5.24-52-6.44-21.81-17-41.69-23.15-63.77-7.76-27.82-5-54.2,11.21-77.95,35-51.2,23-115.1-16.26-152.93-37.56-36.13-50.91-78-41.52-132.59,9-52.15-22.49-121-58.12-138.85-24.29-12.17-48.22-5.09-64.72,19.2-1.26,1.84-2.16,3.93-3.27,5.89C780,266.79,769.68,285,758.41,305.05Z"/><path class="e" d="M865.65,279a138.65,138.65,0,0,0-24.42-46.36C808.55,192.52,748.46,170.5,648,194.77,592.55,40.69,307.43,66.61,304.55,246.13c0,0-109-31.77-131.19,67.95a138.36,138.36,0,0,0,2,66.53C181.26,402,192,430.4,210.23,444.82h633.6C869.43,410.42,884.35,338.52,865.65,279Z"/><polygon class="f" points="794.56 690.43 433.1 658.81 426.71 650.82 460.44 499.56 814.99 522.6 821.64 530.89 794.56 690.43"/><polygon class="e" points="787.91 682.14 426.71 650.82 453.79 491.28 814.99 522.6 787.91 682.14"/><line class="b" x1="787.91" y1="682.14" x2="794.56" y2="690.43"/><path class="b" d="M695.28,545.58,470.62,525.93a5,5,0,0,1-4.55-5.42l1.1-5.69a5,5,0,0,1,5.42-4.54l224.66,19.65a5,5,0,0,1,4.54,5.42l-1.1,5.69A5,5,0,0,1,695.28,545.58Z"/><path class="b" d="M787.72,553.67l-70.21-6.14a5,5,0,0,1-4.54-5.42l1.1-5.69a5,5,0,0,1,5.41-4.54L789.7,538a5,5,0,0,1,4.54,5.42l-1.1,5.69A5,5,0,0,1,787.72,553.67Z"/><path class="b" d="M676.49,657.05,451.83,637.39a5,5,0,0,1-4.55-5.42l15.14-92.63a5,5,0,0,1,5.41-4.55l224.66,19.66a5,5,0,0,1,4.55,5.41L681.91,652.5A5,5,0,0,1,676.49,657.05Z"/><path class="b" d="M768.94,665.13,698.73,659a5,5,0,0,1-4.55-5.42l15.13-92.63a5,5,0,0,1,5.42-4.55l70.21,6.15a5,5,0,0,1,4.55,5.41l-15.13,92.64A5,5,0,0,1,768.94,665.13Z"/><path class="e" d="M695.45,543.59,470.79,523.93a5,5,0,0,1-4.55-5.41l1.1-5.69a5,5,0,0,1,5.42-4.55l224.66,19.66a5,5,0,0,1,4.55,5.42l-1.1,5.68A5,5,0,0,1,695.45,543.59Z"/><path class="e" d="M787.9,551.68l-70.21-6.14a5,5,0,0,1-4.55-5.42l1.1-5.69a5,5,0,0,1,5.42-4.55L789.87,536a5,5,0,0,1,4.55,5.41l-1.1,5.69A5,5,0,0,1,787.9,551.68Z"/><path class="e" d="M676.75,654.06,452.09,634.4a5,5,0,0,1-4.54-5.41l15.13-92.64a5,5,0,0,1,5.41-4.55l224.67,19.66a5,5,0,0,1,4.54,5.42l-15.13,92.63A5,5,0,0,1,676.75,654.06Z"/><path class="e" d="M769.2,662.15,699,656a5,5,0,0,1-4.55-5.41L709.57,558A5,5,0,0,1,715,553.4l70.21,6.15a5,5,0,0,1,4.55,5.41L774.62,657.6A5,5,0,0,1,769.2,662.15Z"/><line class="g" x1="489.56" y1="533.68" x2="472.58" y2="637.59"/><line class="g" x1="515.67" y1="535.97" x2="498.55" y2="640.54"/><line class="g" x1="541.71" y1="538.24" x2="528.29" y2="620.31"/><line class="g" x1="567.78" y1="540.52" x2="554.36" y2="622.59"/><line class="g" x1="593.86" y1="542.81" x2="580.43" y2="624.87"/><line class="g" x1="619.93" y1="545.09" x2="602.7" y2="650.59"/><line class="g" x1="646.01" y1="547.37" x2="628.91" y2="651.99"/><line class="g" x1="668.66" y1="570.16" x2="654.61" y2="655.13"/><line class="g" x1="730.1" y1="556.02" x2="717.25" y2="636.84"/><line class="g" x1="750.43" y1="557.55" x2="734.52" y2="657.6"/><line class="g" x1="770.68" y1="560.07" x2="754.76" y2="660.12"/><line class="h" x1="460.13" y1="551.92" x2="694.32" y2="572.4"/><line class="h" x1="691.41" y1="592.96" x2="456.5" y2="572.41"/><line class="h" x1="453.43" y1="592.95" x2="687.21" y2="613.4"/><line class="h" x1="684.71" y1="633.99" x2="449.91" y2="613.45"/><line class="h" x1="706.18" y1="573.44" x2="787.41" y2="580.55"/><line class="h" x1="765.06" y1="599.4" x2="702.74" y2="593.95"/><line class="h" x1="700.49" y1="614.56" x2="779.18" y2="621.45"/><line class="h" x1="757.85" y1="640.39" x2="698.09" y2="635.16"/><line class="g" x1="734.6" y1="531.19" x2="731.61" y2="548.76"/><line class="g" x1="754.91" y1="532.97" x2="751.92" y2="550.54"/><line class="g" x1="775.13" y1="535.26" x2="772.34" y2="551.64"/><line class="g" x1="494.23" y1="510.16" x2="491.23" y2="527.73"/><line class="g" x1="519.6" y1="512.38" x2="516.6" y2="529.95"/><line class="g" x1="545.54" y1="515.17" x2="542.75" y2="531.55"/><line class="g" x1="572.1" y1="516.97" x2="569.1" y2="534.54"/><line class="g" x1="597.47" y1="519.19" x2="594.48" y2="536.76"/><line class="g" x1="623.41" y1="521.99" x2="620.62" y2="538.36"/><line class="g" x1="649.8" y1="524.54" x2="646.95" y2="541.27"/><line class="g" x1="675.75" y1="526.57" x2="672.97" y2="542.94"/><g class="i"><path class="j" d="M426.56,247.66a3.49,3.49,0,0,1-2.61-1.17,5.44,5.44,0,0,0-4-1.72H374.64a4.16,4.16,0,0,1-4-4.28v-78.7a4.16,4.16,0,0,1,4-4.28H502.31a4.16,4.16,0,0,1,4,4.28v78.7a4.16,4.16,0,0,1-4,4.28H457a5.44,5.44,0,0,0-4,1.72,3.5,3.5,0,0,1-2.62,1.17Z"/><path class="k" d="M502.31,158.51a3.16,3.16,0,0,1,3,3.28v78.7a3.16,3.16,0,0,1-3,3.28H457a6.38,6.38,0,0,0-4.73,2,2.54,2.54,0,0,1-1.88.84H426.56a2.56,2.56,0,0,1-1.88-.84,6.34,6.34,0,0,0-4.72-2H374.64a3.16,3.16,0,0,1-3-3.28v-78.7a3.16,3.16,0,0,1,3-3.28H502.31m0-2H374.64a5.16,5.16,0,0,0-5,5.28v78.7a5.16,5.16,0,0,0,5,5.28H420a4.34,4.34,0,0,1,3.25,1.4,4.54,4.54,0,0,0,3.35,1.49h23.82a4.54,4.54,0,0,0,3.36-1.49,4.32,4.32,0,0,1,3.25-1.4h45.32a5.16,5.16,0,0,0,5-5.28v-78.7a5.16,5.16,0,0,0-5-5.28Z"/><path class="j" d="M501.93,240.42a1,1,0,0,1-.8-.41l-4.92-6.62a1,1,0,0,1-.19-.59V154.32a1,1,0,0,1,.68-.95,1.13,1.13,0,0,1,.32-.05,1,1,0,0,1,.8.41l4.91,6.62a1,1,0,0,1,.2.6v78.47a1,1,0,0,1-.69,1A1.12,1.12,0,0,1,501.93,240.42Z"/><path class="k" d="M497,154.32l4.91,6.63v78.47L497,232.8V154.32m0-2a2.24,2.24,0,0,0-.63.1,2,2,0,0,0-1.37,1.9V232.8a2,2,0,0,0,.39,1.19l4.91,6.62a2,2,0,0,0,1.61.81,2.3,2.3,0,0,0,.63-.1,2,2,0,0,0,1.37-1.9V161a2.07,2.07,0,0,0-.39-1.2l-4.92-6.62a2,2,0,0,0-1.6-.81Z"/><path class="j" d="M375,240.42a1.19,1.19,0,0,1-.32,0,1,1,0,0,1-.68-1V161a1,1,0,0,1,.2-.6l4.91-6.62a1,1,0,0,1,.8-.41,1.06,1.06,0,0,1,.31.05,1,1,0,0,1,.69.95v78.47a1,1,0,0,1-.2.6L375.82,240A1,1,0,0,1,375,240.42Z"/><path class="k" d="M379.93,154.32v78.47L375,239.42V161l4.91-6.63m0-2a2,2,0,0,0-1.6.81l-4.92,6.62A2.07,2.07,0,0,0,373,161v78.47a2,2,0,0,0,1.37,1.9,2.3,2.3,0,0,0,.63.1,2,2,0,0,0,1.6-.81l4.92-6.62a2.07,2.07,0,0,0,.39-1.2V154.32a2,2,0,0,0-1.37-1.9,2.3,2.3,0,0,0-.63-.1Z"/><path class="j" d="M438,242.73a1,1,0,0,1-1-.73,11.3,11.3,0,0,0-10.83-8.21H379.93a1,1,0,0,1-1-1V154.32a1,1,0,0,1,1-1h46.29a13.27,13.27,0,0,1,13.25,13.27v75.14a1,1,0,0,1-1,1Z"/><path class="k" d="M426.22,154.32a12.25,12.25,0,0,1,12.25,12.26v75.15H438a12.26,12.26,0,0,0-11.79-8.94H379.93V154.32h46.29m0-2H379.93a2,2,0,0,0-2,2v78.47a2,2,0,0,0,2,2h46.29a10.3,10.3,0,0,1,9.87,7.48,2,2,0,0,0,1.92,1.46h.46a2,2,0,0,0,2-2V166.58a14.27,14.27,0,0,0-14.25-14.26Z"/><path class="j" d="M438.93,242.73a1,1,0,0,1-.79-.4,1,1,0,0,1-.17-.87c0-.19.11-.38.17-.56V166.59a13.28,13.28,0,0,1,13.25-13.27H497a1,1,0,0,1,1,1v78.47a1,1,0,0,1-1,1H450.73a11.27,11.27,0,0,0-10.59,7.44v.5a1,1,0,0,1-1,1Z"/><path class="k" d="M497,154.32v78.47H450.73a12.27,12.27,0,0,0-11.59,8.27V166.58a12.26,12.26,0,0,1,12.25-12.26H497m-57.88,86.74v.67h-.21l.21-.67M497,152.32H451.39a14.27,14.27,0,0,0-14.25,14.26v74.16c-.05.15-.09.3-.13.45a2,2,0,0,0,1.92,2.54h.21a2,2,0,0,0,2-2v-.32a10.27,10.27,0,0,1,9.59-6.62H497a2,2,0,0,0,2-2V154.32a2,2,0,0,0-2-2Z"/><path class="l" d="M447.94,247.4H429c-.71,0-1.4.81-2,.43-1.87-1.18-4-2.81-6.26-2.81H374a1,1,0,0,1-.95-1c0-.57,0-5,0-5h47.75A13.55,13.55,0,0,1,428,241a1.86,1.86,0,0,0,1,.3h18.91a1.86,1.86,0,0,0,1-.3A13.55,13.55,0,0,1,456.2,239h47.73s0,4.47,0,5a1,1,0,0,1-1,1H456.2c-2.23,0-4.39,1.63-6.26,2.81C449.34,248.21,448.65,247.4,447.94,247.4Z"/><path class="j" d="M429.32,242.73a3.71,3.71,0,0,1-2-.58,11.26,11.26,0,0,0-6-1.73H376a1,1,0,0,1-.86-.5,1,1,0,0,1,0-1l3.65-6.62a1,1,0,0,1,.88-.52h46.54A13.31,13.31,0,0,1,439,241.46a1,1,0,0,1-1,1.27Z"/><path class="k" d="M426.22,232.79A12.26,12.26,0,0,1,438,241.73h-8.69a2.79,2.79,0,0,1-1.48-.42,12.14,12.14,0,0,0-6.53-1.89H376l3.66-6.63h46.54m0-2H379.68a2,2,0,0,0-1.75,1l-3.66,6.62a2,2,0,0,0,1.75,3h45.29a10.13,10.13,0,0,1,5.46,1.58,4.76,4.76,0,0,0,2.55.73H438a2,2,0,0,0,1.6-.79,2,2,0,0,0,.33-1.75,14.3,14.3,0,0,0-13.72-10.4Z"/><path class="j" d="M438.93,242.73a1,1,0,0,1-.79-.4,1,1,0,0,1-.17-.87,13.31,13.31,0,0,1,12.76-9.67H497.2a1,1,0,0,1,.85.48l4.06,6.62a1,1,0,0,1-.85,1.53H455.85a11.24,11.24,0,0,0-6,1.73,3.71,3.71,0,0,1-2,.58Z"/><path class="k" d="M497.2,232.79l4.06,6.63H455.85a12.14,12.14,0,0,0-6.53,1.89,2.79,2.79,0,0,1-1.48.42h-8.91a12.27,12.27,0,0,1,11.8-8.94H497.2m0-2H450.73A14.3,14.3,0,0,0,437,241.19a2,2,0,0,0,1.92,2.54h8.91a4.76,4.76,0,0,0,2.55-.73,10.13,10.13,0,0,1,5.46-1.58h45.41a2,2,0,0,0,1.71-3l-4.06-6.62a2,2,0,0,0-1.71-1Z"/><path class="m" d="M424.83,164.09H387.3a.67.67,0,0,1,0-1.34h37.53a.67.67,0,1,1,0,1.34Z"/><path class="m" d="M424.83,169.6H387.3a.67.67,0,0,1,0-1.34h37.53a.67.67,0,1,1,0,1.34Z"/><path class="m" d="M424.83,175.11H387.3a.67.67,0,0,1,0-1.34h37.53a.67.67,0,1,1,0,1.34Z"/><path class="m" d="M424.83,180.62H387.3a.67.67,0,0,1,0-1.34h37.53a.67.67,0,1,1,0,1.34Z"/><path class="m" d="M424.83,186.13H387.3a.67.67,0,0,1,0-1.34h37.53a.67.67,0,1,1,0,1.34Z"/><path class="m" d="M424.83,191.64H387.3a.67.67,0,0,1,0-1.34h37.53a.67.67,0,1,1,0,1.34Z"/><path class="m" d="M424.83,197.15H387.3a.67.67,0,0,1,0-1.34h37.53a.67.67,0,1,1,0,1.34Z"/><path class="m" d="M424.83,202.66H387.3a.67.67,0,0,1,0-1.34h37.53a.67.67,0,1,1,0,1.34Z"/><path class="m" d="M424.83,208.17H387.3a.67.67,0,0,1,0-1.34h37.53a.67.67,0,1,1,0,1.34Z"/><path class="m" d="M424.9,213.76H387.37a.67.67,0,0,1,0-1.34H424.9a.67.67,0,1,1,0,1.34Z"/><path class="m" d="M424.9,219.27H387.37a.67.67,0,0,1,0-1.34H424.9a.67.67,0,1,1,0,1.34Z"/><path class="m" d="M424.9,224.78H387.37a.67.67,0,0,1,0-1.34H424.9a.67.67,0,1,1,0,1.34Z"/><path class="m" d="M489.58,164.09H452a.67.67,0,1,1,0-1.34h37.54a.67.67,0,0,1,0,1.34Z"/><path class="m" d="M489.58,169.6H452a.67.67,0,0,1,0-1.34h37.54a.67.67,0,0,1,0,1.34Z"/><path class="m" d="M489.58,175.11H452a.67.67,0,1,1,0-1.34h37.54a.67.67,0,0,1,0,1.34Z"/><path class="m" d="M489.58,180.62H452a.67.67,0,1,1,0-1.34h37.54a.67.67,0,0,1,0,1.34Z"/><path class="m" d="M489.58,186.13H452a.67.67,0,0,1,0-1.34h37.54a.67.67,0,0,1,0,1.34Z"/><path class="m" d="M489.58,191.64H452a.67.67,0,0,1,0-1.34h37.54a.67.67,0,0,1,0,1.34Z"/><path class="m" d="M489.58,197.15H452a.67.67,0,0,1,0-1.34h37.54a.67.67,0,0,1,0,1.34Z"/><path class="m" d="M489.58,202.66H452a.67.67,0,0,1,0-1.34h37.54a.67.67,0,0,1,0,1.34Z"/><path class="m" d="M489.58,208.17H452a.67.67,0,0,1,0-1.34h37.54a.67.67,0,0,1,0,1.34Z"/><path class="m" d="M489.65,213.76H452.12a.67.67,0,0,1,0-1.34h37.53a.67.67,0,0,1,0,1.34Z"/><path class="m" d="M489.65,219.27H452.12a.67.67,0,0,1,0-1.34h37.53a.67.67,0,1,1,0,1.34Z"/><path class="m" d="M489.65,224.78H452.12a.67.67,0,0,1,0-1.34h37.53a.67.67,0,0,1,0,1.34Z"/><path class="j" d="M426.56,134.12A3.53,3.53,0,0,1,424,133a5.41,5.41,0,0,0-4-1.73H374.64a4.16,4.16,0,0,1-4-4.28V48.24a4.15,4.15,0,0,1,4-4.27H502.31a4.15,4.15,0,0,1,4,4.27v78.7a4.16,4.16,0,0,1-4,4.28H457a5.44,5.44,0,0,0-4,1.72,3.51,3.51,0,0,1-2.62,1.18Z"/><path class="k" d="M502.31,45a3.15,3.15,0,0,1,3,3.27v78.7a3.16,3.16,0,0,1-3,3.28H457a6.42,6.42,0,0,0-4.73,2.05,2.55,2.55,0,0,1-1.88.85H426.56a2.57,2.57,0,0,1-1.88-.85,6.38,6.38,0,0,0-4.72-2.05H374.64a3.16,3.16,0,0,1-3-3.28V48.24a3.15,3.15,0,0,1,3-3.27H502.31m0-2H374.64a5.15,5.15,0,0,0-5,5.27v78.7a5.16,5.16,0,0,0,5,5.28H420a4.37,4.37,0,0,1,3.25,1.4,4.51,4.51,0,0,0,3.35,1.5h23.82a4.52,4.52,0,0,0,3.36-1.5,4.36,4.36,0,0,1,3.25-1.4h45.32a5.16,5.16,0,0,0,5-5.28V48.24a5.15,5.15,0,0,0-5-5.27Z"/><path class="j" d="M501.93,126.87a1,1,0,0,1-.8-.4l-4.92-6.63a1,1,0,0,1-.19-.59V40.78a1,1,0,0,1,.68-1,.86.86,0,0,1,.32,0,1,1,0,0,1,.8.4l4.91,6.62a1,1,0,0,1,.2.6v78.47a1,1,0,0,1-.69.95A1.12,1.12,0,0,1,501.93,126.87Z"/><path class="k" d="M497,40.78l4.91,6.62v78.47L497,119.25V40.78m0-2a1.93,1.93,0,0,0-.63.1,2,2,0,0,0-1.37,1.9v78.47a2,2,0,0,0,.39,1.19l4.91,6.62a2,2,0,0,0,1.61.81,2,2,0,0,0,.63-.1,2,2,0,0,0,1.37-1.9V47.4a2,2,0,0,0-.39-1.19l-4.92-6.63a2,2,0,0,0-1.6-.8Z"/><path class="j" d="M375,126.87a1.19,1.19,0,0,1-.32-.05,1,1,0,0,1-.68-.95V47.4a1,1,0,0,1,.2-.6l4.91-6.62a1,1,0,0,1,.8-.4.81.81,0,0,1,.31,0,1,1,0,0,1,.69,1v78.47a1,1,0,0,1-.2.59l-4.91,6.63A1,1,0,0,1,375,126.87Z"/><path class="k" d="M379.93,40.78v78.47L375,125.87V47.4l4.91-6.62m0-2a2,2,0,0,0-1.6.8l-4.92,6.63A2,2,0,0,0,373,47.4v78.47a2,2,0,0,0,1.37,1.9,2,2,0,0,0,2.23-.71l4.92-6.62a2,2,0,0,0,.39-1.19V40.78a2,2,0,0,0-2-2Z"/><path class="j" d="M438,129.18a1,1,0,0,1-1-.73,11.29,11.29,0,0,0-10.83-8.2H379.93a1,1,0,0,1-1-1V40.78a1,1,0,0,1,1-1h46.29A13.27,13.27,0,0,1,439.47,53v75.14a1,1,0,0,1-1,1Z"/><path class="k" d="M426.22,40.78A12.25,12.25,0,0,1,438.47,53v75.14H438a12.25,12.25,0,0,0-11.79-8.93H379.93V40.78h46.29m0-2H379.93a2,2,0,0,0-2,2v78.47a2,2,0,0,0,2,2h46.29a10.29,10.29,0,0,1,9.87,7.47,2,2,0,0,0,1.92,1.46h.46a2,2,0,0,0,2-2V53a14.27,14.27,0,0,0-14.25-14.26Z"/><path class="j" d="M438.93,129.18a1,1,0,0,1-.79-.39,1,1,0,0,1-.17-.88c0-.19.11-.37.17-.56V53a13.27,13.27,0,0,1,13.25-13.26H497a1,1,0,0,1,1,1v78.47a1,1,0,0,1-1,1H450.73a11.26,11.26,0,0,0-10.59,7.43v.5a1,1,0,0,1-1,1Z"/><path class="k" d="M497,40.78v78.47H450.73a12.27,12.27,0,0,0-11.59,8.26V53a12.26,12.26,0,0,1,12.25-12.26H497m-57.88,86.73v.67h-.21l.21-.67M497,38.78H451.39A14.27,14.27,0,0,0,437.14,53v74.15c-.05.15-.09.3-.13.45a2,2,0,0,0,1.92,2.54h.21a2,2,0,0,0,2-2v-.32a10.26,10.26,0,0,1,9.59-6.61H497a2,2,0,0,0,2-2V40.78a2,2,0,0,0-2-2Z"/><path class="l" d="M447.94,133.86H429c-.71,0-1.4.8-2,.42-1.87-1.18-4-2.81-6.26-2.81H374a1,1,0,0,1-.95-1c0-.57,0-5,0-5h47.75A13.46,13.46,0,0,1,428,127.5a1.94,1.94,0,0,0,1,.29h18.91a1.94,1.94,0,0,0,1-.29,13.46,13.46,0,0,1,7.22-2.09h47.73s0,4.46,0,5a1,1,0,0,1-1,1H456.2c-2.23,0-4.39,1.63-6.26,2.81C449.34,134.66,448.65,133.86,447.94,133.86Z"/><path class="j" d="M429.32,129.18a3.79,3.79,0,0,1-2-.57,11.18,11.18,0,0,0-6-1.74H376a1,1,0,0,1-.86-.49,1,1,0,0,1,0-1l3.65-6.63a1,1,0,0,1,.88-.51h46.54A13.3,13.3,0,0,1,439,127.91a1,1,0,0,1-.17.88,1,1,0,0,1-.8.39Z"/><path class="k" d="M426.22,119.25A12.25,12.25,0,0,1,438,128.18h-8.69a2.7,2.7,0,0,1-1.48-.42,12.14,12.14,0,0,0-6.53-1.89H376l3.66-6.62h46.54m0-2H379.68a2,2,0,0,0-1.75,1l-3.66,6.62a2,2,0,0,0,0,2,2,2,0,0,0,1.72,1h45.29a10.21,10.21,0,0,1,5.46,1.58,4.76,4.76,0,0,0,2.55.73H438a2,2,0,0,0,1.6-.79,2,2,0,0,0,.33-1.75,14.3,14.3,0,0,0-13.72-10.39Z"/><path class="j" d="M438.93,129.18a1,1,0,0,1-.79-.39,1,1,0,0,1-.17-.88,13.3,13.3,0,0,1,12.76-9.66H497.2a1,1,0,0,1,.85.47l4.06,6.63a1,1,0,0,1,0,1,1,1,0,0,1-.87.51H455.85a11.16,11.16,0,0,0-6,1.74,3.79,3.79,0,0,1-2,.57Z"/><path class="k" d="M497.2,119.25l4.06,6.62H455.85a12.14,12.14,0,0,0-6.53,1.89,2.7,2.7,0,0,1-1.48.42h-8.91a12.26,12.26,0,0,1,11.8-8.93H497.2m0-2H450.73A14.3,14.3,0,0,0,437,127.64a2,2,0,0,0,1.92,2.54h8.91a4.76,4.76,0,0,0,2.55-.73,10.21,10.21,0,0,1,5.46-1.58h45.41a2,2,0,0,0,1.75-1,2,2,0,0,0,0-2l-4.06-6.62a2,2,0,0,0-1.71-1Z"/><path class="m" d="M424.83,50.54H387.3a.67.67,0,1,1,0-1.33h37.53a.67.67,0,1,1,0,1.33Z"/><path class="m" d="M424.83,56.05H387.3a.66.66,0,0,1-.67-.66.67.67,0,0,1,.67-.67h37.53a.67.67,0,0,1,.67.67A.66.66,0,0,1,424.83,56.05Z"/><path class="m" d="M424.83,61.56H387.3a.67.67,0,1,1,0-1.33h37.53a.67.67,0,1,1,0,1.33Z"/><path class="m" d="M424.83,67.07H387.3a.67.67,0,1,1,0-1.33h37.53a.67.67,0,1,1,0,1.33Z"/><path class="m" d="M424.83,72.58H387.3a.67.67,0,1,1,0-1.33h37.53a.67.67,0,1,1,0,1.33Z"/><path class="m" d="M424.83,78.09H387.3a.67.67,0,1,1,0-1.33h37.53a.67.67,0,1,1,0,1.33Z"/><path class="m" d="M424.83,83.6H387.3a.67.67,0,1,1,0-1.33h37.53a.67.67,0,1,1,0,1.33Z"/><path class="m" d="M424.83,89.11H387.3a.67.67,0,1,1,0-1.33h37.53a.67.67,0,1,1,0,1.33Z"/><path class="m" d="M424.83,94.62H387.3a.67.67,0,1,1,0-1.33h37.53a.67.67,0,1,1,0,1.33Z"/><path class="m" d="M424.9,100.21H387.37a.67.67,0,0,1,0-1.34H424.9a.67.67,0,1,1,0,1.34Z"/><path class="m" d="M424.9,105.72H387.37a.67.67,0,0,1,0-1.34H424.9a.67.67,0,1,1,0,1.34Z"/><path class="m" d="M424.9,111.23H387.37a.67.67,0,0,1,0-1.34H424.9a.67.67,0,1,1,0,1.34Z"/><path class="m" d="M489.58,50.54H452a.67.67,0,1,1,0-1.33h37.54a.67.67,0,0,1,0,1.33Z"/><path class="m" d="M489.58,56.05H452a.66.66,0,0,1-.67-.66.67.67,0,0,1,.67-.67h37.54a.67.67,0,0,1,.66.67A.66.66,0,0,1,489.58,56.05Z"/><path class="m" d="M489.58,61.56H452a.67.67,0,1,1,0-1.33h37.54a.67.67,0,0,1,0,1.33Z"/><path class="m" d="M489.58,67.07H452a.67.67,0,1,1,0-1.33h37.54a.67.67,0,0,1,0,1.33Z"/><path class="m" d="M489.58,72.58H452a.67.67,0,1,1,0-1.33h37.54a.67.67,0,0,1,0,1.33Z"/><path class="m" d="M489.58,78.09H452a.67.67,0,1,1,0-1.33h37.54a.67.67,0,0,1,0,1.33Z"/><path class="m" d="M489.58,83.6H452a.67.67,0,1,1,0-1.33h37.54a.67.67,0,0,1,0,1.33Z"/><path class="m" d="M489.58,89.11H452a.67.67,0,1,1,0-1.33h37.54a.67.67,0,0,1,0,1.33Z"/><path class="m" d="M489.58,94.62H452a.67.67,0,1,1,0-1.33h37.54a.67.67,0,0,1,0,1.33Z"/><path class="m" d="M489.65,100.21H452.12a.67.67,0,0,1,0-1.34h37.53a.67.67,0,1,1,0,1.34Z"/><path class="m" d="M489.65,105.72H452.12a.67.67,0,0,1,0-1.34h37.53a.67.67,0,1,1,0,1.34Z"/><path class="m" d="M489.65,111.23H452.12a.67.67,0,0,1,0-1.34h37.53a.67.67,0,1,1,0,1.34Z"/><path class="j" d="M426.56,361.63a3.49,3.49,0,0,1-2.61-1.17,5.46,5.46,0,0,0-4-1.72H374.64a4.16,4.16,0,0,1-4-4.28v-78.7a4.16,4.16,0,0,1,4-4.28H502.31a4.16,4.16,0,0,1,4,4.28v78.7a4.16,4.16,0,0,1-4,4.28H457a5.44,5.44,0,0,0-4,1.72,3.5,3.5,0,0,1-2.62,1.17Z"/><path class="k" d="M502.31,272.48a3.16,3.16,0,0,1,3,3.28v78.7a3.16,3.16,0,0,1-3,3.28H457a6.38,6.38,0,0,0-4.73,2.05,2.54,2.54,0,0,1-1.88.84H426.56a2.56,2.56,0,0,1-1.88-.84,6.34,6.34,0,0,0-4.72-2.05H374.64a3.16,3.16,0,0,1-3-3.28v-78.7a3.16,3.16,0,0,1,3-3.28H502.31m0-2H374.64a5.16,5.16,0,0,0-5,5.28v78.7a5.16,5.16,0,0,0,5,5.28H420a4.34,4.34,0,0,1,3.25,1.4,4.54,4.54,0,0,0,3.35,1.49h23.82a4.54,4.54,0,0,0,3.36-1.49,4.32,4.32,0,0,1,3.25-1.4h45.32a5.16,5.16,0,0,0,5-5.28v-78.7a5.16,5.16,0,0,0-5-5.28Z"/><path class="j" d="M501.93,354.39a1,1,0,0,1-.8-.41l-4.92-6.62a1,1,0,0,1-.19-.59V268.29a1,1,0,0,1,.68-1,1.13,1.13,0,0,1,.32,0,1,1,0,0,1,.8.41l4.91,6.62a1,1,0,0,1,.2.6v78.47a1,1,0,0,1-.69.95A1.12,1.12,0,0,1,501.93,354.39Z"/><path class="k" d="M497,268.29l4.91,6.63v78.47L497,346.77V268.29m0-2a2.24,2.24,0,0,0-.63.1,2,2,0,0,0-1.37,1.9v78.48a2,2,0,0,0,.39,1.19l4.91,6.62a2,2,0,0,0,1.61.81,2.3,2.3,0,0,0,.63-.1,2,2,0,0,0,1.37-1.9V274.92a2.07,2.07,0,0,0-.39-1.2l-4.92-6.62a2,2,0,0,0-1.6-.81Z"/><path class="j" d="M375,354.39a1.19,1.19,0,0,1-.32-.05,1,1,0,0,1-.68-.95V274.92a1,1,0,0,1,.2-.6l4.91-6.62a1,1,0,0,1,.8-.41,1.06,1.06,0,0,1,.31,0,1,1,0,0,1,.69,1v78.47a1,1,0,0,1-.2.6L375.82,354A1,1,0,0,1,375,354.39Z"/><path class="k" d="M379.93,268.29v78.47L375,353.39V274.92l4.91-6.63m0-2a2,2,0,0,0-1.6.81l-4.92,6.62a2.07,2.07,0,0,0-.39,1.2v78.47a2,2,0,0,0,1.37,1.9,2.3,2.3,0,0,0,.63.1,2,2,0,0,0,1.6-.81l4.92-6.62a2.07,2.07,0,0,0,.39-1.2V268.29a2,2,0,0,0-1.37-1.9,2.3,2.3,0,0,0-.63-.1Z"/><path class="j" d="M438,356.7a1,1,0,0,1-1-.73,11.3,11.3,0,0,0-10.83-8.21H379.93a1,1,0,0,1-1-1V268.29a1,1,0,0,1,1-1h46.29a13.27,13.27,0,0,1,13.25,13.27V355.7a1,1,0,0,1-1,1Z"/><path class="k" d="M426.22,268.29a12.25,12.25,0,0,1,12.25,12.27V355.7H438a12.26,12.26,0,0,0-11.79-8.94H379.93V268.29h46.29m0-2H379.93a2,2,0,0,0-2,2v78.47a2,2,0,0,0,2,2h46.29a10.3,10.3,0,0,1,9.87,7.48A2,2,0,0,0,438,357.7h.46a2,2,0,0,0,2-2V280.56a14.27,14.27,0,0,0-14.25-14.27Z"/><path class="j" d="M438.93,356.7a1,1,0,0,1-.79-.4,1,1,0,0,1-.17-.87c0-.19.11-.38.17-.56V280.56a13.28,13.28,0,0,1,13.25-13.27H497a1,1,0,0,1,1,1v78.47a1,1,0,0,1-1,1H450.73a11.27,11.27,0,0,0-10.59,7.44v.5a1,1,0,0,1-1,1Z"/><path class="k" d="M497,268.29v78.47H450.73A12.27,12.27,0,0,0,439.14,355V280.56a12.26,12.26,0,0,1,12.25-12.27H497M439.14,355v.67h-.21l.21-.67M497,266.29H451.39a14.27,14.27,0,0,0-14.25,14.27v74.15c-.05.15-.09.3-.13.45a2,2,0,0,0,1.92,2.54h.21a2,2,0,0,0,2-2v-.32a10.27,10.27,0,0,1,9.59-6.62H497a2,2,0,0,0,2-2V268.29a2,2,0,0,0-2-2Z"/><path class="l" d="M447.94,361.37H429c-.71,0-1.4.81-2,.43-1.87-1.18-4-2.81-6.26-2.81H374a1,1,0,0,1-.95-1c0-.57,0-5,0-5h47.75A13.55,13.55,0,0,1,428,355a1.86,1.86,0,0,0,1,.3h18.91a1.86,1.86,0,0,0,1-.3,13.55,13.55,0,0,1,7.22-2.09h47.73s0,4.47,0,5a1,1,0,0,1-1,1H456.2c-2.23,0-4.39,1.63-6.26,2.81C449.34,362.18,448.65,361.37,447.94,361.37Z"/><path class="j" d="M429.32,356.7a3.71,3.71,0,0,1-2-.58,11.26,11.26,0,0,0-6-1.73H376a1,1,0,0,1-.86-.5,1,1,0,0,1,0-1l3.65-6.62a1,1,0,0,1,.88-.52h46.54A13.31,13.31,0,0,1,439,355.43a1,1,0,0,1-1,1.27Z"/><path class="k" d="M426.22,346.76A12.26,12.26,0,0,1,438,355.7h-8.69a2.79,2.79,0,0,1-1.48-.42,12.14,12.14,0,0,0-6.53-1.89H376l3.66-6.63h46.54m0-2H379.68a2,2,0,0,0-1.75,1l-3.66,6.62a2,2,0,0,0,1.75,3h45.29a10.13,10.13,0,0,1,5.46,1.58,4.76,4.76,0,0,0,2.55.73H438a2,2,0,0,0,1.6-.79,2,2,0,0,0,.33-1.75,14.3,14.3,0,0,0-13.72-10.4Z"/><path class="j" d="M438.93,356.7a1,1,0,0,1-.79-.4,1,1,0,0,1-.17-.87,13.31,13.31,0,0,1,12.76-9.67H497.2a1,1,0,0,1,.85.48l4.06,6.62a1,1,0,0,1-.85,1.53H455.85a11.26,11.26,0,0,0-6,1.73,3.71,3.71,0,0,1-2,.58Z"/><path class="k" d="M497.2,346.76l4.06,6.63H455.85a12.14,12.14,0,0,0-6.53,1.89,2.79,2.79,0,0,1-1.48.42h-8.91a12.27,12.27,0,0,1,11.8-8.94H497.2m0-2H450.73A14.3,14.3,0,0,0,437,355.16a2,2,0,0,0,1.92,2.54h8.91a4.76,4.76,0,0,0,2.55-.73,10.13,10.13,0,0,1,5.46-1.58h45.41a2,2,0,0,0,1.71-3.05l-4.06-6.62a2,2,0,0,0-1.71-1Z"/><path class="m" d="M424.83,278.06H387.3a.67.67,0,1,1,0-1.34h37.53a.67.67,0,0,1,0,1.34Z"/><path class="m" d="M424.83,283.57H387.3a.67.67,0,1,1,0-1.34h37.53a.67.67,0,0,1,0,1.34Z"/><path class="m" d="M424.83,289.08H387.3a.67.67,0,1,1,0-1.34h37.53a.67.67,0,0,1,0,1.34Z"/><path class="m" d="M424.83,294.59H387.3a.67.67,0,1,1,0-1.34h37.53a.67.67,0,0,1,0,1.34Z"/><path class="m" d="M424.83,300.1H387.3a.67.67,0,0,1,0-1.34h37.53a.67.67,0,0,1,0,1.34Z"/><path class="m" d="M424.83,305.61H387.3a.67.67,0,0,1,0-1.34h37.53a.67.67,0,0,1,0,1.34Z"/><path class="m" d="M424.83,311.12H387.3a.67.67,0,0,1,0-1.34h37.53a.67.67,0,0,1,0,1.34Z"/><path class="m" d="M424.83,316.63H387.3a.67.67,0,1,1,0-1.34h37.53a.67.67,0,0,1,0,1.34Z"/><path class="m" d="M424.83,322.14H387.3a.67.67,0,1,1,0-1.34h37.53a.67.67,0,0,1,0,1.34Z"/><path class="m" d="M424.9,327.73H387.37a.67.67,0,1,1,0-1.34H424.9a.67.67,0,1,1,0,1.34Z"/><path class="m" d="M424.9,333.24H387.37a.67.67,0,1,1,0-1.34H424.9a.67.67,0,1,1,0,1.34Z"/><path class="m" d="M424.9,338.75H387.37a.67.67,0,1,1,0-1.34H424.9a.67.67,0,0,1,0,1.34Z"/><path class="m" d="M489.58,278.06H452a.67.67,0,1,1,0-1.34h37.54a.67.67,0,0,1,0,1.34Z"/><path class="m" d="M489.58,283.57H452a.67.67,0,1,1,0-1.34h37.54a.67.67,0,0,1,0,1.34Z"/><path class="m" d="M489.58,289.08H452a.67.67,0,1,1,0-1.34h37.54a.67.67,0,0,1,0,1.34Z"/><path class="m" d="M489.58,294.59H452a.67.67,0,1,1,0-1.34h37.54a.67.67,0,0,1,0,1.34Z"/><path class="m" d="M489.58,300.1H452a.67.67,0,0,1,0-1.34h37.54a.67.67,0,0,1,0,1.34Z"/><path class="m" d="M489.58,305.61H452a.67.67,0,0,1,0-1.34h37.54a.67.67,0,0,1,0,1.34Z"/><path class="m" d="M489.58,311.12H452a.67.67,0,0,1,0-1.34h37.54a.67.67,0,0,1,0,1.34Z"/><path class="m" d="M489.58,316.63H452a.67.67,0,1,1,0-1.34h37.54a.67.67,0,0,1,0,1.34Z"/><path class="m" d="M489.58,322.14H452a.67.67,0,1,1,0-1.34h37.54a.67.67,0,0,1,0,1.34Z"/><path class="m" d="M489.65,327.73H452.12a.67.67,0,1,1,0-1.34h37.53a.67.67,0,1,1,0,1.34Z"/><path class="m" d="M489.65,333.24H452.12a.67.67,0,1,1,0-1.34h37.53a.67.67,0,1,1,0,1.34Z"/><path class="m" d="M489.65,338.75H452.12a.67.67,0,1,1,0-1.34h37.53a.67.67,0,0,1,0,1.34Z"/><path class="j" d="M426.56,475.61a3.5,3.5,0,0,1-2.61-1.18,5.44,5.44,0,0,0-4-1.72H374.64a4.16,4.16,0,0,1-4-4.28v-78.7a4.16,4.16,0,0,1,4-4.28H502.31a4.16,4.16,0,0,1,4,4.28v78.7a4.16,4.16,0,0,1-4,4.28H457a5.44,5.44,0,0,0-4,1.72,3.51,3.51,0,0,1-2.62,1.18Z"/><path class="k" d="M502.31,386.45a3.16,3.16,0,0,1,3,3.28v78.7a3.16,3.16,0,0,1-3,3.28H457a6.38,6.38,0,0,0-4.73,2.05,2.55,2.55,0,0,1-1.88.85H426.56a2.57,2.57,0,0,1-1.88-.85,6.34,6.34,0,0,0-4.72-2.05H374.64a3.16,3.16,0,0,1-3-3.28v-78.7a3.16,3.16,0,0,1,3-3.28H502.31m0-2H374.64a5.16,5.16,0,0,0-5,5.28v78.7a5.16,5.16,0,0,0,5,5.28H420a4.37,4.37,0,0,1,3.25,1.4,4.55,4.55,0,0,0,3.35,1.5h23.82a4.55,4.55,0,0,0,3.36-1.5,4.32,4.32,0,0,1,3.25-1.4h45.32a5.16,5.16,0,0,0,5-5.28v-78.7a5.16,5.16,0,0,0-5-5.28Z"/><path class="j" d="M501.93,468.36a1,1,0,0,1-.8-.41l-4.92-6.62a1,1,0,0,1-.19-.59V382.26a1,1,0,0,1,.68-.95,1.13,1.13,0,0,1,.32-.05,1,1,0,0,1,.8.41l4.91,6.62a1,1,0,0,1,.2.6v78.47a1,1,0,0,1-.69.95A1.12,1.12,0,0,1,501.93,468.36Z"/><path class="k" d="M497,382.26l4.91,6.63v78.47L497,460.74V382.26m0-2a2.24,2.24,0,0,0-.63.1,2,2,0,0,0-1.37,1.9v78.48a2,2,0,0,0,.39,1.19l4.91,6.62a2,2,0,0,0,1.61.81,2.3,2.3,0,0,0,.63-.1,2,2,0,0,0,1.37-1.9V388.89a2.07,2.07,0,0,0-.39-1.2l-4.92-6.62a2,2,0,0,0-1.6-.81Z"/><path class="j" d="M375,468.36a1.19,1.19,0,0,1-.32-.05,1,1,0,0,1-.68-.95V388.89a1,1,0,0,1,.2-.6l4.91-6.62a1,1,0,0,1,.8-.41,1.06,1.06,0,0,1,.31.05,1,1,0,0,1,.69.95v78.48a1,1,0,0,1-.2.59L375.82,468A1,1,0,0,1,375,468.36Z"/><path class="k" d="M379.93,382.26v78.48L375,467.36V388.89l4.91-6.63m0-2a2,2,0,0,0-1.6.81l-4.92,6.62a2.07,2.07,0,0,0-.39,1.2v78.47a2,2,0,0,0,1.37,1.9,2.3,2.3,0,0,0,.63.1,2,2,0,0,0,1.6-.81l4.92-6.62a2.06,2.06,0,0,0,.39-1.19V382.26a2,2,0,0,0-1.37-1.9,2.3,2.3,0,0,0-.63-.1Z"/><path class="j" d="M438,470.67a1,1,0,0,1-1-.73,11.29,11.29,0,0,0-10.83-8.2H379.93a1,1,0,0,1-1-1V382.26a1,1,0,0,1,1-1h46.29a13.27,13.27,0,0,1,13.25,13.27v75.14a1,1,0,0,1-1,1Z"/><path class="k" d="M426.22,382.26a12.25,12.25,0,0,1,12.25,12.27v75.14H438a12.25,12.25,0,0,0-11.79-8.93H379.93V382.26h46.29m0-2H379.93a2,2,0,0,0-2,2v78.48a2,2,0,0,0,2,2h46.29a10.29,10.29,0,0,1,9.87,7.47,2,2,0,0,0,1.92,1.46h.46a2,2,0,0,0,2-2V394.53a14.27,14.27,0,0,0-14.25-14.27Z"/><path class="j" d="M438.93,470.67a1,1,0,0,1-.79-.4,1,1,0,0,1-.17-.87c0-.19.11-.38.17-.56V394.53a13.28,13.28,0,0,1,13.25-13.27H497a1,1,0,0,1,1,1v78.48a1,1,0,0,1-1,1H450.73a11.26,11.26,0,0,0-10.59,7.43v.5a1,1,0,0,1-1,1Z"/><path class="k" d="M497,382.26v78.48H450.73A12.26,12.26,0,0,0,439.14,469V394.53a12.26,12.26,0,0,1,12.25-12.27H497M439.14,469v.67h-.21l.21-.67M497,380.26H451.39a14.27,14.27,0,0,0-14.25,14.27v74.15c-.05.15-.09.3-.13.45a2,2,0,0,0,1.92,2.54h.21a2,2,0,0,0,2-2v-.32a10.26,10.26,0,0,1,9.59-6.61H497a2,2,0,0,0,2-2V382.26a2,2,0,0,0-2-2Z"/><path class="l" d="M447.94,475.34H429c-.71,0-1.4.81-2,.43-1.87-1.18-4-2.81-6.26-2.81H374a1,1,0,0,1-.95-1c0-.57,0-5,0-5h47.75A13.47,13.47,0,0,1,428,469a1.94,1.94,0,0,0,1,.29h18.91a1.94,1.94,0,0,0,1-.29,13.47,13.47,0,0,1,7.22-2.1h47.73s0,4.47,0,5a1,1,0,0,1-1,1H456.2c-2.23,0-4.39,1.63-6.26,2.81C449.34,476.15,448.65,475.34,447.94,475.34Z"/><path class="j" d="M429.32,470.67a3.71,3.71,0,0,1-2-.58,11.26,11.26,0,0,0-6-1.73H376a1,1,0,0,1-.86-.49,1,1,0,0,1,0-1l3.65-6.62a1,1,0,0,1,.88-.51h46.54A13.3,13.3,0,0,1,439,469.4a1,1,0,0,1-1,1.27Z"/><path class="k" d="M426.22,460.74A12.25,12.25,0,0,1,438,469.67h-8.69a2.79,2.79,0,0,1-1.48-.42,12.14,12.14,0,0,0-6.53-1.89H376l3.66-6.62h46.54m0-2H379.68a2,2,0,0,0-1.75,1l-3.66,6.62a2,2,0,0,0,1.75,3h45.29a10.13,10.13,0,0,1,5.46,1.58,4.76,4.76,0,0,0,2.55.73H438a2,2,0,0,0,1.6-.79,2,2,0,0,0,.33-1.75,14.3,14.3,0,0,0-13.72-10.39Z"/><path class="j" d="M438.93,470.67a1,1,0,0,1-.79-.4,1,1,0,0,1-.17-.87,13.3,13.3,0,0,1,12.76-9.66H497.2a1,1,0,0,1,.85.47l4.06,6.63a1,1,0,0,1,0,1,1,1,0,0,1-.87.51H455.85a11.24,11.24,0,0,0-6,1.73,3.71,3.71,0,0,1-2,.58Z"/><path class="k" d="M497.2,460.74l4.06,6.62H455.85a12.14,12.14,0,0,0-6.53,1.89,2.79,2.79,0,0,1-1.48.42h-8.91a12.26,12.26,0,0,1,11.8-8.93H497.2m0-2H450.73A14.3,14.3,0,0,0,437,469.13a2,2,0,0,0,1.92,2.54h8.91a4.76,4.76,0,0,0,2.55-.73,10.13,10.13,0,0,1,5.46-1.58h45.41a2,2,0,0,0,1.71-3.05l-4.06-6.62a2,2,0,0,0-1.71-.95Z"/><path class="m" d="M424.83,392H387.3a.67.67,0,1,1,0-1.34h37.53a.67.67,0,0,1,0,1.34Z"/><path class="m" d="M424.83,397.54H387.3a.67.67,0,0,1,0-1.34h37.53a.67.67,0,0,1,0,1.34Z"/><path class="m" d="M424.83,403.05H387.3a.67.67,0,0,1-.67-.67.66.66,0,0,1,.67-.66h37.53a.66.66,0,0,1,.67.66A.67.67,0,0,1,424.83,403.05Z"/><path class="m" d="M424.83,408.56H387.3a.67.67,0,0,1-.67-.67.66.66,0,0,1,.67-.66h37.53a.66.66,0,0,1,.67.66A.67.67,0,0,1,424.83,408.56Z"/><path class="m" d="M424.83,414.07H387.3a.67.67,0,0,1-.67-.67.66.66,0,0,1,.67-.66h37.53a.66.66,0,0,1,.67.66A.67.67,0,0,1,424.83,414.07Z"/><path class="m" d="M424.83,419.58H387.3a.67.67,0,0,1-.67-.67.66.66,0,0,1,.67-.66h37.53a.66.66,0,0,1,.67.66A.67.67,0,0,1,424.83,419.58Z"/><path class="m" d="M424.83,425.09H387.3a.67.67,0,1,1,0-1.34h37.53a.67.67,0,0,1,0,1.34Z"/><path class="m" d="M424.83,430.6H387.3a.67.67,0,0,1,0-1.34h37.53a.67.67,0,0,1,0,1.34Z"/><path class="m" d="M424.83,436.11H387.3a.67.67,0,0,1,0-1.34h37.53a.67.67,0,0,1,0,1.34Z"/><path class="m" d="M424.9,441.7H387.37a.67.67,0,1,1,0-1.34H424.9a.67.67,0,0,1,0,1.34Z"/><path class="m" d="M424.9,447.21H387.37a.67.67,0,1,1,0-1.34H424.9a.67.67,0,0,1,0,1.34Z"/><path class="m" d="M424.9,452.72H387.37a.67.67,0,1,1,0-1.34H424.9a.67.67,0,1,1,0,1.34Z"/><path class="m" d="M489.58,392H452a.67.67,0,1,1,0-1.34h37.54a.67.67,0,0,1,0,1.34Z"/><path class="m" d="M489.58,397.54H452a.67.67,0,0,1,0-1.34h37.54a.67.67,0,0,1,0,1.34Z"/><path class="m" d="M489.58,403.05H452a.67.67,0,0,1-.67-.67.66.66,0,0,1,.67-.66h37.54a.66.66,0,0,1,.66.66A.67.67,0,0,1,489.58,403.05Z"/><path class="m" d="M489.58,408.56H452a.67.67,0,0,1-.67-.67.66.66,0,0,1,.67-.66h37.54a.66.66,0,0,1,.66.66A.67.67,0,0,1,489.58,408.56Z"/><path class="m" d="M489.58,414.07H452a.67.67,0,0,1-.67-.67.66.66,0,0,1,.67-.66h37.54a.66.66,0,0,1,.66.66A.67.67,0,0,1,489.58,414.07Z"/><path class="m" d="M489.58,419.58H452a.67.67,0,0,1-.67-.67.66.66,0,0,1,.67-.66h37.54a.66.66,0,0,1,.66.66A.67.67,0,0,1,489.58,419.58Z"/><path class="m" d="M489.58,425.09H452a.67.67,0,1,1,0-1.34h37.54a.67.67,0,0,1,0,1.34Z"/><path class="m" d="M489.58,430.6H452a.67.67,0,0,1,0-1.34h37.54a.67.67,0,0,1,0,1.34Z"/><path class="m" d="M489.58,436.11H452a.67.67,0,0,1,0-1.34h37.54a.67.67,0,0,1,0,1.34Z"/><path class="m" d="M489.65,441.7H452.12a.67.67,0,1,1,0-1.34h37.53a.67.67,0,0,1,0,1.34Z"/><path class="m" d="M489.65,447.21H452.12a.67.67,0,1,1,0-1.34h37.53a.67.67,0,0,1,0,1.34Z"/><path class="m" d="M489.65,452.72H452.12a.67.67,0,1,1,0-1.34h37.53a.67.67,0,1,1,0,1.34Z"/><path class="j" d="M263.3,296a3.54,3.54,0,0,1-2.62-1.18,5.42,5.42,0,0,0-4-1.72H211.38a4.15,4.15,0,0,1-4-4.28v-78.7a4.15,4.15,0,0,1,4-4.28H339.05a4.16,4.16,0,0,1,4,4.28v78.7a4.16,4.16,0,0,1-4,4.28H293.73a5.44,5.44,0,0,0-4,1.72,3.51,3.51,0,0,1-2.62,1.18Z"/><path class="k" d="M339.05,206.84a3.16,3.16,0,0,1,3,3.28v78.7a3.16,3.16,0,0,1-3,3.28H293.73a6.36,6.36,0,0,0-4.73,2,2.55,2.55,0,0,1-1.88.85H263.3a2.57,2.57,0,0,1-1.88-.85,6.36,6.36,0,0,0-4.72-2H211.38a3.15,3.15,0,0,1-3-3.28v-78.7a3.15,3.15,0,0,1,3-3.28H339.05m0-2H211.38a5.15,5.15,0,0,0-5,5.28v78.7a5.15,5.15,0,0,0,5,5.28H256.7a4.37,4.37,0,0,1,3.25,1.4,4.48,4.48,0,0,0,3.35,1.5h23.82a4.52,4.52,0,0,0,3.36-1.5,4.36,4.36,0,0,1,3.25-1.4h45.32a5.16,5.16,0,0,0,5-5.28v-78.7a5.16,5.16,0,0,0-5-5.28Z"/><path class="j" d="M338.67,288.75a1,1,0,0,1-.81-.41L333,281.72a1,1,0,0,1-.2-.59V202.66a1,1,0,0,1,.69-.95.84.84,0,0,1,.31-.05,1,1,0,0,1,.81.4l4.91,6.62a1,1,0,0,1,.2.6v78.47a1,1,0,0,1-.69.95A1.12,1.12,0,0,1,338.67,288.75Z"/><path class="k" d="M333.75,202.66l4.92,6.62v78.47l-4.92-6.62V202.66m0-2a1.88,1.88,0,0,0-.62.11,2,2,0,0,0-1.38,1.9v78.47a2,2,0,0,0,.4,1.19l4.91,6.62a2,2,0,0,0,1.61.81,1.87,1.87,0,0,0,.62-.1,2,2,0,0,0,1.38-1.9V209.28a2,2,0,0,0-.4-1.19l-4.91-6.63a2,2,0,0,0-1.61-.81Z"/><path class="j" d="M211.76,288.75a1.13,1.13,0,0,1-.32-.05,1,1,0,0,1-.68-.95V209.28a1,1,0,0,1,.19-.6l4.92-6.62a1,1,0,0,1,.8-.4.84.84,0,0,1,.31.05,1,1,0,0,1,.69.95v78.47a1,1,0,0,1-.2.59l-4.91,6.62A1,1,0,0,1,211.76,288.75Z"/><path class="k" d="M216.67,202.66v78.47l-4.91,6.62V209.28l4.91-6.62m0-2a2,2,0,0,0-1.61.81l-4.91,6.63a2,2,0,0,0-.39,1.19v78.47a2,2,0,0,0,1.37,1.9,1.93,1.93,0,0,0,.63.1,2,2,0,0,0,1.6-.81l4.92-6.62a2,2,0,0,0,.39-1.19V202.66a2,2,0,0,0-2-2Z"/><path class="j" d="M274.75,291.06a1,1,0,0,1-1-.73,11.29,11.29,0,0,0-10.83-8.2H216.67a1,1,0,0,1-1-1V202.66a1,1,0,0,1,1-1H263a13.26,13.26,0,0,1,13.25,13.26v75.14a1,1,0,0,1-1,1Z"/><path class="k" d="M263,202.66a12.25,12.25,0,0,1,12.25,12.26v75.14h-.46A12.26,12.26,0,0,0,263,281.13H216.67V202.66H263m0-2H216.67a2,2,0,0,0-2,2v78.47a2,2,0,0,0,2,2H263a10.27,10.27,0,0,1,9.86,7.47,2,2,0,0,0,1.93,1.46h.46a2,2,0,0,0,2-2V214.92A14.27,14.27,0,0,0,263,200.66Z"/><path class="j" d="M275.67,291.06a1,1,0,0,1-.8-.39,1,1,0,0,1-.16-.88c.05-.19.11-.38.17-.56V214.92a13.26,13.26,0,0,1,13.25-13.26h45.62a1,1,0,0,1,1,1v78.47a1,1,0,0,1-1,1H287.46a11.26,11.26,0,0,0-10.58,7.43v.5a1,1,0,0,1-1,1Z"/><path class="k" d="M333.75,202.66v78.47H287.46a12.25,12.25,0,0,0-11.58,8.26V214.92a12.25,12.25,0,0,1,12.25-12.26h45.62m-57.87,86.73v.67h-.21c.06-.22.13-.45.21-.67m57.87-88.73H288.13a14.27,14.27,0,0,0-14.25,14.26v74.15c-.05.15-.09.3-.13.45a2,2,0,0,0,.33,1.75,2,2,0,0,0,1.59.79h.21a2,2,0,0,0,2-2v-.32a10.26,10.26,0,0,1,9.58-6.61h46.29a2,2,0,0,0,2-2V202.66a2,2,0,0,0-2-2Z"/><path class="l" d="M284.68,295.74H265.77c-.71,0-1.4.8-2,.42-1.87-1.18-4-2.81-6.26-2.81H210.72a1,1,0,0,1-.94-1c0-.57,0-5,0-5h47.75a13.49,13.49,0,0,1,7.22,2.09,1.94,1.94,0,0,0,1,.29h18.91a1.94,1.94,0,0,0,1-.29,13.46,13.46,0,0,1,7.22-2.09h47.73s0,4.46,0,5a1,1,0,0,1-.95,1H292.94c-2.23,0-4.39,1.63-6.26,2.81C286.08,296.54,285.39,295.74,284.68,295.74Z"/><path class="j" d="M266.06,291.06a3.79,3.79,0,0,1-2-.57,11.18,11.18,0,0,0-6-1.74H212.76a1,1,0,0,1-.88-1.48l3.66-6.63a1,1,0,0,1,.88-.51H263a13.29,13.29,0,0,1,12.75,9.66,1,1,0,0,1-.16.88,1,1,0,0,1-.8.39Z"/><path class="k" d="M263,281.13a12.26,12.26,0,0,1,11.79,8.93h-8.69a2.79,2.79,0,0,1-1.48-.42,12.14,12.14,0,0,0-6.53-1.89H212.76l3.66-6.62H263m0-2H216.42a2,2,0,0,0-1.75,1L211,286.78a2,2,0,0,0,1.75,3h45.29a10.21,10.21,0,0,1,5.46,1.58,4.71,4.71,0,0,0,2.55.73h8.69a2,2,0,0,0,1.59-.79,2,2,0,0,0,.34-1.75A14.3,14.3,0,0,0,263,279.13Z"/><path class="j" d="M275.67,291.06a1,1,0,0,1-.8-.39,1,1,0,0,1-.16-.88,13.29,13.29,0,0,1,12.75-9.66h46.48a1,1,0,0,1,.85.47l4.06,6.63a1,1,0,0,1,0,1,1,1,0,0,1-.87.51H292.59a11.16,11.16,0,0,0-6,1.74,3.82,3.82,0,0,1-2,.57Z"/><path class="k" d="M333.94,281.13l4.06,6.62H292.59a12.15,12.15,0,0,0-6.54,1.89,2.73,2.73,0,0,1-1.47.42h-8.91a12.26,12.26,0,0,1,11.79-8.93h46.48m0-2H287.46a14.29,14.29,0,0,0-13.71,10.39,2,2,0,0,0,.33,1.75,2,2,0,0,0,1.59.79h8.91a4.76,4.76,0,0,0,2.55-.73,10.21,10.21,0,0,1,5.46-1.58H338a2,2,0,0,0,1.7-3.05l-4.05-6.62a2,2,0,0,0-1.71-.95Z"/><path class="m" d="M261.57,212.42H224a.67.67,0,0,1-.67-.67.66.66,0,0,1,.67-.66h37.53a.66.66,0,0,1,.67.66A.67.67,0,0,1,261.57,212.42Z"/><path class="m" d="M261.57,217.93H224a.67.67,0,1,1,0-1.33h37.53a.67.67,0,1,1,0,1.33Z"/><path class="m" d="M261.57,223.44H224a.67.67,0,1,1,0-1.33h37.53a.67.67,0,1,1,0,1.33Z"/><path class="m" d="M261.57,229H224a.67.67,0,1,1,0-1.33h37.53a.67.67,0,1,1,0,1.33Z"/><path class="m" d="M261.57,234.46H224a.67.67,0,1,1,0-1.33h37.53a.67.67,0,1,1,0,1.33Z"/><path class="m" d="M261.57,240H224a.67.67,0,1,1,0-1.33h37.53a.67.67,0,1,1,0,1.33Z"/><path class="m" d="M261.57,245.48H224a.67.67,0,1,1,0-1.33h37.53a.67.67,0,1,1,0,1.33Z"/><path class="m" d="M261.57,251H224a.67.67,0,1,1,0-1.33h37.53a.67.67,0,1,1,0,1.33Z"/><path class="m" d="M261.57,256.5H224a.67.67,0,0,1-.67-.67.66.66,0,0,1,.67-.66h37.53a.66.66,0,0,1,.67.66A.67.67,0,0,1,261.57,256.5Z"/><path class="m" d="M261.64,262.09H224.11a.67.67,0,0,1,0-1.34h37.53a.67.67,0,1,1,0,1.34Z"/><path class="m" d="M261.64,267.6H224.11a.67.67,0,1,1,0-1.34h37.53a.67.67,0,1,1,0,1.34Z"/><path class="m" d="M261.64,273.11H224.11a.67.67,0,1,1,0-1.34h37.53a.67.67,0,1,1,0,1.34Z"/><path class="m" d="M326.31,212.42H288.78a.67.67,0,0,1-.67-.67.66.66,0,0,1,.67-.66h37.53a.66.66,0,0,1,.67.66A.67.67,0,0,1,326.31,212.42Z"/><path class="m" d="M326.31,217.93H288.78a.67.67,0,1,1,0-1.33h37.53a.67.67,0,1,1,0,1.33Z"/><path class="m" d="M326.31,223.44H288.78a.67.67,0,1,1,0-1.33h37.53a.67.67,0,1,1,0,1.33Z"/><path class="m" d="M326.31,229H288.78a.67.67,0,1,1,0-1.33h37.53a.67.67,0,1,1,0,1.33Z"/><path class="m" d="M326.31,234.46H288.78a.67.67,0,1,1,0-1.33h37.53a.67.67,0,1,1,0,1.33Z"/><path class="m" d="M326.31,240H288.78a.67.67,0,1,1,0-1.33h37.53a.67.67,0,1,1,0,1.33Z"/><path class="m" d="M326.31,245.48H288.78a.67.67,0,1,1,0-1.33h37.53a.67.67,0,1,1,0,1.33Z"/><path class="m" d="M326.31,251H288.78a.67.67,0,1,1,0-1.33h37.53a.67.67,0,1,1,0,1.33Z"/><path class="m" d="M326.31,256.5H288.78a.67.67,0,0,1-.67-.67.66.66,0,0,1,.67-.66h37.53a.66.66,0,0,1,.67.66A.67.67,0,0,1,326.31,256.5Z"/><path class="m" d="M326.39,262.09H288.85a.67.67,0,0,1,0-1.34h37.54a.67.67,0,0,1,0,1.34Z"/><path class="m" d="M326.39,267.6H288.85a.67.67,0,0,1,0-1.34h37.54a.67.67,0,0,1,0,1.34Z"/><path class="m" d="M326.39,273.11H288.85a.67.67,0,0,1,0-1.34h37.54a.67.67,0,0,1,0,1.34Z"/><path class="j" d="M263.3,410a3.54,3.54,0,0,1-2.62-1.18,5.42,5.42,0,0,0-4-1.72H211.38a4.15,4.15,0,0,1-4-4.28v-78.7a4.14,4.14,0,0,1,4-4.27H339.05a4.15,4.15,0,0,1,4,4.27v78.7a4.16,4.16,0,0,1-4,4.28H293.73a5.44,5.44,0,0,0-4,1.72,3.52,3.52,0,0,1-2.62,1.18Z"/><path class="k" d="M339.05,320.82a3.15,3.15,0,0,1,3,3.27v78.7a3.16,3.16,0,0,1-3,3.28H293.73a6.36,6.36,0,0,0-4.73,2.05,2.55,2.55,0,0,1-1.88.85H263.3a2.57,2.57,0,0,1-1.88-.85,6.36,6.36,0,0,0-4.72-2.05H211.38a3.15,3.15,0,0,1-3-3.28v-78.7a3.14,3.14,0,0,1,3-3.27H339.05m0-2H211.38a5.14,5.14,0,0,0-5,5.27v78.7a5.15,5.15,0,0,0,5,5.28H256.7a4.37,4.37,0,0,1,3.25,1.4,4.48,4.48,0,0,0,3.35,1.5h23.82a4.52,4.52,0,0,0,3.36-1.5,4.36,4.36,0,0,1,3.25-1.4h45.32a5.16,5.16,0,0,0,5-5.28v-78.7a5.15,5.15,0,0,0-5-5.27Z"/><path class="j" d="M338.67,402.72a1,1,0,0,1-.81-.41L333,395.69a1,1,0,0,1-.2-.59V316.63a1,1,0,0,1,.69-.95.84.84,0,0,1,.31-.05,1,1,0,0,1,.81.4l4.91,6.62a1,1,0,0,1,.2.6v78.47a1,1,0,0,1-.69.95A1.12,1.12,0,0,1,338.67,402.72Z"/><path class="k" d="M333.75,316.63l4.92,6.62v78.47l-4.92-6.62V316.63m0-2a1.87,1.87,0,0,0-.62.1,2,2,0,0,0-1.38,1.9V395.1a2,2,0,0,0,.4,1.19l4.91,6.62a2,2,0,0,0,1.61.81,1.87,1.87,0,0,0,.62-.1,2,2,0,0,0,1.38-1.9V323.25a2,2,0,0,0-.4-1.19l-4.91-6.63a2,2,0,0,0-1.61-.8Z"/><path class="j" d="M211.76,402.72a1.13,1.13,0,0,1-.32-.05,1,1,0,0,1-.68-.95V323.25a1,1,0,0,1,.19-.6l4.92-6.62a1,1,0,0,1,.8-.4.84.84,0,0,1,.31.05,1,1,0,0,1,.69.95V395.1a1,1,0,0,1-.2.59l-4.91,6.62A1,1,0,0,1,211.76,402.72Z"/><path class="k" d="M216.67,316.63V395.1l-4.91,6.62V323.25l4.91-6.62m0-2a2,2,0,0,0-1.61.8l-4.91,6.63a2,2,0,0,0-.39,1.19v78.47a2,2,0,0,0,1.37,1.9,1.93,1.93,0,0,0,.63.1,2,2,0,0,0,1.6-.81l4.92-6.62a2,2,0,0,0,.39-1.19V316.63a2,2,0,0,0-2-2Z"/><path class="j" d="M274.75,405a1,1,0,0,1-1-.73A11.29,11.29,0,0,0,263,396.1H216.67a1,1,0,0,1-1-1V316.63a1,1,0,0,1,1-1H263a13.26,13.26,0,0,1,13.25,13.26V404a1,1,0,0,1-1,1Z"/><path class="k" d="M263,316.63a12.25,12.25,0,0,1,12.25,12.26V404h-.46A12.26,12.26,0,0,0,263,395.1H216.67V316.63H263m0-2H216.67a2,2,0,0,0-2,2V395.1a2,2,0,0,0,2,2H263a10.27,10.27,0,0,1,9.86,7.47,2,2,0,0,0,1.93,1.46h.46a2,2,0,0,0,2-2V328.89A14.27,14.27,0,0,0,263,314.63Z"/><path class="j" d="M275.67,405a1,1,0,0,1-.8-.4,1,1,0,0,1-.16-.87c.05-.19.11-.38.17-.56V328.89a13.26,13.26,0,0,1,13.25-13.26h45.62a1,1,0,0,1,1,1V395.1a1,1,0,0,1-1,1H287.46a11.26,11.26,0,0,0-10.58,7.43v.5a1,1,0,0,1-1,1Z"/><path class="k" d="M333.75,316.63V395.1H287.46a12.25,12.25,0,0,0-11.58,8.26V328.89a12.25,12.25,0,0,1,12.25-12.26h45.62m-57.87,86.73V404h-.21c.06-.22.13-.45.21-.67m57.87-88.73H288.13a14.27,14.27,0,0,0-14.25,14.26V403c-.05.15-.09.3-.13.45a2,2,0,0,0,.33,1.75,2,2,0,0,0,1.59.79h.21a2,2,0,0,0,2-2v-.32a10.26,10.26,0,0,1,9.58-6.61h46.29a2,2,0,0,0,2-2V316.63a2,2,0,0,0-2-2Z"/><path class="l" d="M284.68,409.71H265.77c-.71,0-1.4.8-2,.42-1.87-1.18-4-2.81-6.26-2.81H210.72a1,1,0,0,1-.94-1c0-.57,0-5,0-5h47.75a13.49,13.49,0,0,1,7.22,2.09,1.94,1.94,0,0,0,1,.29h18.91a1.94,1.94,0,0,0,1-.29,13.46,13.46,0,0,1,7.22-2.09h47.73s0,4.46,0,5a1,1,0,0,1-.95,1H292.94c-2.23,0-4.39,1.63-6.26,2.81C286.08,410.51,285.39,409.71,284.68,409.71Z"/><path class="j" d="M266.06,405a3.75,3.75,0,0,1-2-.58,11.2,11.2,0,0,0-6-1.73H212.76a1,1,0,0,1-.88-1.48l3.66-6.63a1,1,0,0,1,.88-.51H263a13.29,13.29,0,0,1,12.75,9.66,1,1,0,0,1-.16.87,1,1,0,0,1-.8.4Z"/><path class="k" d="M263,395.1A12.26,12.26,0,0,1,274.75,404h-8.69a2.79,2.79,0,0,1-1.48-.42,12.14,12.14,0,0,0-6.53-1.89H212.76l3.66-6.62H263m0-2H216.42a2,2,0,0,0-1.75,1L211,400.75a2,2,0,0,0,1.75,3h45.29a10.21,10.21,0,0,1,5.46,1.58,4.71,4.71,0,0,0,2.55.73h8.69a2,2,0,0,0,1.59-.79,2,2,0,0,0,.34-1.75A14.3,14.3,0,0,0,263,393.1Z"/><path class="j" d="M275.67,405a1,1,0,0,1-.8-.4,1,1,0,0,1-.16-.87,13.29,13.29,0,0,1,12.75-9.66h46.48a1,1,0,0,1,.85.47l4.06,6.63a1,1,0,0,1,0,1,1,1,0,0,1-.87.51H292.59a11.16,11.16,0,0,0-6,1.74,3.79,3.79,0,0,1-2,.57Z"/><path class="k" d="M333.94,395.1l4.06,6.62H292.59a12.15,12.15,0,0,0-6.54,1.89,2.73,2.73,0,0,1-1.47.42h-8.91a12.26,12.26,0,0,1,11.79-8.93h46.48m0-2H287.46a14.29,14.29,0,0,0-13.71,10.39,2,2,0,0,0,.33,1.75,2,2,0,0,0,1.59.79h8.91a4.76,4.76,0,0,0,2.55-.73,10.21,10.21,0,0,1,5.46-1.58H338a2,2,0,0,0,1.7-3.05l-4.05-6.62a2,2,0,0,0-1.71-.95Z"/><path class="m" d="M261.57,326.39H224a.67.67,0,1,1,0-1.33h37.53a.67.67,0,1,1,0,1.33Z"/><path class="m" d="M261.57,331.9H224a.67.67,0,1,1,0-1.33h37.53a.67.67,0,1,1,0,1.33Z"/><path class="m" d="M261.57,337.41H224a.67.67,0,1,1,0-1.33h37.53a.67.67,0,1,1,0,1.33Z"/><path class="m" d="M261.57,342.92H224a.67.67,0,1,1,0-1.33h37.53a.67.67,0,1,1,0,1.33Z"/><path class="m" d="M261.57,348.43H224a.67.67,0,1,1,0-1.33h37.53a.67.67,0,1,1,0,1.33Z"/><path class="m" d="M261.57,353.94H224a.67.67,0,1,1,0-1.33h37.53a.67.67,0,1,1,0,1.33Z"/><path class="m" d="M261.57,359.45H224a.67.67,0,1,1,0-1.33h37.53a.67.67,0,1,1,0,1.33Z"/><path class="m" d="M261.57,365H224a.67.67,0,1,1,0-1.33h37.53a.67.67,0,1,1,0,1.33Z"/><path class="m" d="M261.57,370.47H224a.67.67,0,1,1,0-1.33h37.53a.67.67,0,1,1,0,1.33Z"/><path class="m" d="M261.64,376.06H224.11a.67.67,0,1,1,0-1.34h37.53a.67.67,0,0,1,0,1.34Z"/><path class="m" d="M261.64,381.57H224.11a.67.67,0,1,1,0-1.34h37.53a.67.67,0,0,1,0,1.34Z"/><path class="m" d="M261.64,387.08H224.11a.67.67,0,1,1,0-1.34h37.53a.67.67,0,0,1,0,1.34Z"/><path class="m" d="M326.31,326.39H288.78a.67.67,0,1,1,0-1.33h37.53a.67.67,0,1,1,0,1.33Z"/><path class="m" d="M326.31,331.9H288.78a.67.67,0,1,1,0-1.33h37.53a.67.67,0,1,1,0,1.33Z"/><path class="m" d="M326.31,337.41H288.78a.67.67,0,1,1,0-1.33h37.53a.67.67,0,1,1,0,1.33Z"/><path class="m" d="M326.31,342.92H288.78a.67.67,0,1,1,0-1.33h37.53a.67.67,0,1,1,0,1.33Z"/><path class="m" d="M326.31,348.43H288.78a.67.67,0,1,1,0-1.33h37.53a.67.67,0,1,1,0,1.33Z"/><path class="m" d="M326.31,353.94H288.78a.67.67,0,1,1,0-1.33h37.53a.67.67,0,1,1,0,1.33Z"/><path class="m" d="M326.31,359.45H288.78a.67.67,0,1,1,0-1.33h37.53a.67.67,0,1,1,0,1.33Z"/><path class="m" d="M326.31,365H288.78a.67.67,0,1,1,0-1.33h37.53a.67.67,0,1,1,0,1.33Z"/><path class="m" d="M326.31,370.47H288.78a.67.67,0,1,1,0-1.33h37.53a.67.67,0,1,1,0,1.33Z"/><path class="m" d="M326.39,376.06H288.85a.67.67,0,0,1,0-1.34h37.54a.67.67,0,0,1,0,1.34Z"/><path class="m" d="M326.39,381.57H288.85a.67.67,0,0,1,0-1.34h37.54a.67.67,0,0,1,0,1.34Z"/><path class="m" d="M326.39,387.08H288.85a.67.67,0,0,1,0-1.34h37.54a.67.67,0,0,1,0,1.34Z"/></g><path class="a" d="M542.59,333.55c-1,8.85-4.4,16.1-9.2,19.41s-10.36,2.54-15.84,1.86-11.2-1.39-14.55,2.94-1.48,9.4.62,15.35c1.88,5.36,4,11.43,3.35,18.56-.54,5.77-4.73,9.37-9.16,13.19-4.94,4.26-10.54,9.09-11.3,17.51a25.36,25.36,0,0,0,.45,7.45h-271c-10.26-10.29-19.42-28.9-26.07-53.18A123.79,123.79,0,0,1,188,317.33c9-40.49,35.42-61,78.55-61a138.2,138.2,0,0,1,33.81,4.21,15,15,0,0,0,19.19-14.16c.67-41.75,18.38-77.05,51.23-102.08,29.7-22.63,70.93-35.61,113.12-35.61a197.33,197.33,0,0,1,55.88,7.83c-16.17,6.09-26.83,21.57-25.51,37.36.53,6.35,4.75,10.25,8.83,14,3.88,3.59,7.55,7,8.74,12.53,2.43,11.24-6.8,22.39-12.9,29.77l-.56.68c-7.53,9.11-13.94,12.8-19.59,16.06s-10.7,6.15-14.28,13.56c-7,14.48-3.55,35.49,7.69,46.84,7.35,7.42,15.36,8.35,23.1,9.24,7,.81,13.68,1.58,19.23,7.52C540.75,310.76,543.84,322.05,542.59,333.55Z"/><rect class="e" x="855.55" y="597.17" width="53.52" height="99.36" rx="26.41" transform="translate(-37.95 55.23) rotate(-3.51)"/><path class="e" d="M856,641.85c15.54-11.19,35.83-12.41,51.46-3.15"/><line class="e" x1="878.92" y1="597.28" x2="881.09" y2="632.64"/><path class="b" d="M863.35,515.64c54.88,18.13,37.53,44.65,18.64,44.65-15.84,0-35-12.87-35,10.8,0,10.68,10.49,11.59,19.92,14.4,4.71,1.4,11.16,3.24,12,11.79"/><path class="k" d="M170.44,322.27c-1.91,11.47-6.52,22.3-11.57,32.69s-10.49,20.65-14.13,31.52A81.75,81.75,0,0,0,141,403.13a73.23,73.23,0,0,0,0,17c1.3,11.3,5.12,22.21,10.11,32.46,2.49,5.14,5.33,10.12,8.31,15s6.22,9.57,9.42,14.48c6.29,9.77,12.27,19.92,16.17,31.12a67.66,67.66,0,0,1,2.31,8.6,52.06,52.06,0,0,1,.9,8.91,46.12,46.12,0,0,1-3.52,17.42,68.75,68.75,0,0,1-3.78,7.94c-1.38,2.58-2.93,5.05-4.52,7.48-3.2,4.85-6.57,9.56-10,14.19a.19.19,0,0,1-.28,0,.2.2,0,0,1,0-.26c3.07-4.91,6.19-9.78,9-14.78a95.42,95.42,0,0,0,7.38-15.45,46.1,46.1,0,0,0,2.12-8.17,44.89,44.89,0,0,0,.52-8.34,47.55,47.55,0,0,0-1.1-8.3,67.88,67.88,0,0,0-2.41-8.07,107.52,107.52,0,0,0-7.27-15.4c-2.76-5-5.78-9.88-8.93-14.68-1.59-2.39-3.21-4.75-4.8-7.22s-3.12-4.93-4.61-7.44a166,166,0,0,1-8.13-15.53c-4.83-10.64-8.54-22-9.68-33.7a75.71,75.71,0,0,1,.32-17.61,84.2,84.2,0,0,1,4.22-17.05c3.91-11,9.71-21.15,15-31.4s10.14-20.81,12.34-32.18a.21.21,0,0,1,.24-.15A.21.21,0,0,1,170.44,322.27Z"/><path class="k" d="M157.85,518.17a36.44,36.44,0,0,1,3.67,11.93,59.08,59.08,0,0,1,.43,12.54A83.74,83.74,0,0,1,156.16,567,116.68,116.68,0,0,1,151,578.49c-.49,1-.91,1.81-1.28,2.71s-.68,1.82-1,2.75a46.22,46.22,0,0,0-1.21,5.75c-1.22,7.79-1,15.94-.28,24.22h0a.21.21,0,0,1-.19.22.2.2,0,0,1-.2-.12,44.94,44.94,0,0,1-3.44-12.17,42.45,42.45,0,0,1,0-12.83,32.27,32.27,0,0,1,1.74-6.29c.4-1,.85-2,1.34-3s1.07-2,1.55-2.82a108.58,108.58,0,0,0,5.5-10.94,85.1,85.1,0,0,0,6.64-23.49,58.25,58.25,0,0,0,.22-12.24,46.22,46.22,0,0,0-1-6.07,28.77,28.77,0,0,0-1.95-5.81h0a.21.21,0,0,1,.09-.27A.2.2,0,0,1,157.85,518.17Z"/><path class="k" d="M218.89,509.08a135.43,135.43,0,0,0-3.21,18.83,124,124,0,0,0-.66,19,88.83,88.83,0,0,0,.92,9.39c.43,3.1,1,6.17,1.51,9.25l.42,2.3.5,2.29c.3,1.54.74,3,1.1,4.57.8,3.05,1.79,6,2.77,9.13h0a.2.2,0,0,1-.13.25.2.2,0,0,1-.22-.06,48.16,48.16,0,0,1-8.34-17.63,52.29,52.29,0,0,1-1.54-9.69c-.19-3.26-.28-6.52-.19-9.77a126.67,126.67,0,0,1,1.88-19.28A123,123,0,0,1,218.51,509a.2.2,0,0,1,.26-.12.19.19,0,0,1,.12.23Z"/><path class="k" d="M310.78,510.94a58.62,58.62,0,0,1,12.37,16.19,43.3,43.3,0,0,1,5,20.09,38.08,38.08,0,0,1-1.6,10.47,34.64,34.64,0,0,1-1.9,5,38.5,38.5,0,0,1-2.7,4.56c-.52.71-1,1.43-1.55,2.13l-1.7,2-.87,1-.92.92c-.62.61-1.25,1.2-1.89,1.79-1.27,1.17-2.67,2.19-4,3.26s-2.87,1.9-4.35,2.76a.21.21,0,0,1-.28-.08.21.21,0,0,1,0-.23h0c1.09-1.32,2.25-2.55,3.37-3.8l1.61-1.92c.52-.66,1.12-1.23,1.59-1.91,1-1.36,2.1-2.56,2.95-4l1.41-2,1.24-2.09.64-1c.2-.35.37-.71.56-1.07l1.13-2.12c.64-1.47,1.38-2.89,1.89-4.41a31.5,31.5,0,0,0,2.15-9.35A40.54,40.54,0,0,0,321.34,528a59.71,59.71,0,0,0-10.84-16.76h0a.19.19,0,0,1,0-.28A.2.2,0,0,1,310.78,510.94Z"/><path class="n" d="M726.56,386.52H602.67a10.08,10.08,0,0,1-10-10.12V325.34c0-5.56,6.26-13.57,11.75-13.57l122.34.89c5.48,0,11.79,7.29,11.79,12.86v51.06C738.57,382.14,732,386.52,726.56,386.52Z"/><rect class="e" x="596.02" y="311.5" width="142.48" height="71.3" rx="10"/><text class="o" transform="translate(613.09 341.79)"><tspan class="p">C</tspan><tspan class="q" x="17.67" y="0">r</tspan><tspan class="r" x="28.81" y="0">e</tspan><tspan class="s" x="43.34" y="0">a</tspan><tspan class="t" x="57.67" y="0">t</tspan><tspan x="69.67" y="0">e </tspan><tspan class="u" x="2.82" y="28">o</tspan><tspan class="v" x="18.53" y="28">B</tspan><tspan class="w" x="35.61" y="28">o</tspan><tspan class="x" x="51.13" y="28">o</tspan><tspan x="66.73" y="28">k</tspan></text><line class="b" x1="771.1" y1="205.24" x2="771.1" y2="429.82"/><g class="y"><text class="o" transform="translate(781 311.67)"><tspan class="z">I</tspan><tspan class="aa" x="8.44" y="0">m</tspan><tspan class="ab" x="31.44" y="0">a</tspan><tspan class="x" x="45.99" y="0">g</tspan><tspan x="62.14" y="0">e</tspan></text></g><path class="a" d="M857.93,332.05c0,.39-.08.77-.13,1.16H771.1V269.93h75.58C852.9,288.89,860.15,310.31,857.93,332.05Z"/><text class="ac" transform="translate(782 372.09)">T<tspan class="ad" x="13.98" y="0">e</tspan><tspan class="ae" x="28.87" y="0">s</tspan><tspan class="af" x="42.04" y="0">t</tspan></text><polyline class="e" points="456.7 470.81 466.7 444.82 577.58 444.82 587.58 470.81"/><line class="b" x1="408.71" y1="471.81" x2="635.57" y2="471.81"/><line class="b" x1="560.15" y1="232.64" x2="560.15" y2="429.82"/><path class="b" d="M489,429.82a23.53,23.53,0,0,1-.49-7.28c1.33-14.84,19.19-17.21,20.45-30.68,1.46-15.45-9.52-26.24-4.38-32.87,5.44-7,19.54,2.79,29.95-4.39C547,346,549,316.69,536,302.73c-12.22-13.09-28.79-3.09-42.37-16.8-10.85-10.95-13.84-31-7.3-44.56,6.62-13.7,18.08-10.42,33.6-29.22,6.35-7.69,16.59-19.59,13.88-32.15-2.67-12.4-16.61-15.23-17.53-26.3-1.27-15.13,9.09-30.27,25.57-35.79"/><circle class="e" cx="522.14" cy="269.25" r="57.5"/><line class="b" x1="579.57" y1="269.93" x2="771.1" y2="269.93"/><text class="ag" transform="translate(486.19 286.96)"><tspan class="ah">O</tspan><tspan x="36.66" y="0">R</tspan></text><path class="b" d="M854.65,295.93a142.79,142.79,0,0,0-11.48-32.71A111.93,111.93,0,0,0,821,232.65c-22.7-21.93-54.86-33-96.09-33-22,0-46.71,3.26-73.37,9.7a14.74,14.74,0,0,1-3.53.42,15,15,0,0,1-14.1-9.92c-10.3-28.62-30.46-52.19-58.31-68.17-26.22-15.05-57.92-23-91.67-23-42.19,0-83.42,13-113.12,35.61-32.85,25-50.56,60.33-51.23,102.08a15,15,0,0,1-19.2,14.16,138,138,0,0,0-33.8-4.21c-43.13,0-69.56,20.52-78.55,61a123.67,123.67,0,0,0,1.86,59.31c6.65,24.28,15.81,42.89,26.07,53.18h620a122.12,122.12,0,0,0,9.1-18.13,195.75,195.75,0,0,0,12.8-52.48c.05-.39.09-.77.13-1.16A194.33,194.33,0,0,0,854.65,295.93Z"/><g class="ai"><text class="o" transform="translate(781 249.4)"><tspan class="aj">A</tspan><tspan class="ak" x="17.45" y="0">b</tspan><tspan x="33.58" y="0">c</tspan></text></g><path class="b" d="M846.29,269.93H771.1V205.24l4.82,1.41q26.61,8.19,45.05,26a111.93,111.93,0,0,1,22.2,30.57Q844.82,266.49,846.29,269.93Z"/><path class="b" d="M859,337.78c0,6.67-.39,13.45-1.09,20.27,0,.39-.08.77-.13,1.16A195.75,195.75,0,0,1,845,411.69c-.52,1.28-1.06,2.55-1.62,3.79a116.6,116.6,0,0,1-7.48,14.34H771.1V333.21h86.7A30.76,30.76,0,0,1,859,337.78Z"/><polygon class="f" points="882.31 508.27 842.26 547.23 788.99 491.17 752.82 528.94 706.7 357.2 706.7 349.3 869.3 410.12 869.3 418.02 834.71 454.6 882.31 500.36 882.31 508.27"/><polygon class="e" points="882.31 500.36 842.26 539.32 788.99 483.27 752.82 521.03 706.7 349.3 869.3 410.12 834.71 446.69 882.31 500.36"/><path class="j" d="M203.6,810.08a11,11,0,0,1-10.22-6.64L133.72,646.9a7.53,7.53,0,0,1,.41-6.5,8.43,8.43,0,0,1,6-4l311.76-55a11.21,11.21,0,0,1,1.83-.16,11,11,0,0,1,10.22,6.65l59.66,156.53a7.5,7.5,0,0,1-.41,6.5,8.41,8.41,0,0,1-6,4L406.52,774.46c-3.85.68-7,2.58-8.63,5.2a7.62,7.62,0,0,1-5.3,3.41l-58.16,10.26a10.14,10.14,0,0,1-1.66.14,10.42,10.42,0,0,1-4.86-1.22,18.41,18.41,0,0,0-8.64-2.12,17.63,17.63,0,0,0-3.17.28L205.44,809.92A10.24,10.24,0,0,1,203.6,810.08Z"/><path class="k" d="M453.69,583.27a9,9,0,0,1,8.35,5.36l59.67,156.53c1.37,3.6-.81,7.1-4.87,7.82L406.17,772.49c-4.29.76-8,2.89-10,6.11a5.69,5.69,0,0,1-3.95,2.5l-58.17,10.26a7.17,7.17,0,0,1-1.31.11,8.51,8.51,0,0,1-3.93-1,20.49,20.49,0,0,0-9.57-2.35,19.42,19.42,0,0,0-3.51.31L205.09,808a8.33,8.33,0,0,1-1.49.13,9,9,0,0,1-8.35-5.36L135.59,646.19c-1.38-3.6.8-7.1,4.86-7.82l311.76-55a8.22,8.22,0,0,1,1.48-.13m0-4a13.28,13.28,0,0,0-2.18.19l-311.76,55a10.44,10.44,0,0,0-7.36,5,9.49,9.49,0,0,0-.54,8.2l59.67,156.54a13,13,0,0,0,12.08,7.93,12.19,12.19,0,0,0,2.18-.19l110.67-19.51a15.57,15.57,0,0,1,2.82-.25A16.48,16.48,0,0,1,327,794a12.18,12.18,0,0,0,7.81,1.29L392.94,785a9.61,9.61,0,0,0,6.65-4.32c1.33-2.15,4-3.71,7.28-4.29l110.67-19.51a10.42,10.42,0,0,0,7.36-5,9.46,9.46,0,0,0,.54-8.2L465.78,587.2a13,13,0,0,0-12.09-7.93Z"/><path class="l" d="M383.4,775.86l-45.23,8a11.93,11.93,0,0,1-5.21-.26,37,37,0,0,0-16.31-.85L204.73,802.45a2.8,2.8,0,0,1-3-1.59l-.76-2,114.18-20.13a42.82,42.82,0,0,1,18.8,1,6.08,6.08,0,0,0,2.72.13l45.23-8a4.78,4.78,0,0,0,2.28-1,32.87,32.87,0,0,1,15.71-7.08L514,743.67l.76,2a1.76,1.76,0,0,1-1.5,2.39L401.39,767.78a28.52,28.52,0,0,0-13.64,6.13A9.16,9.16,0,0,1,383.4,775.86Z"/><polygon class="e" points="436.1 577.35 495.6 733.43 512.62 744.49 453.12 588.4 436.1 577.35"/><polygon class="e" points="150.2 627.76 143.22 643.04 202.72 799.13 209.69 783.85 150.2 627.76"/><path class="e" d="M358.3,776.61l1.12-.2-57-149.47c-5.14-13.47-22.69-22-39.22-19.11l-113,19.93,59.49,156.09,113-19.93C336.44,761.5,350.85,767,358.3,776.61Z"/><path class="e" d="M323.07,597.28c-16.52,2.91-25.76,16.19-20.62,29.66l57,149.47,1.13-.2c-.38-10.87,8.31-20.43,22-22.84l113-19.94L436.1,577.34Z"/><path class="m" d="M271.51,627l-99.21,17.5a1.63,1.63,0,0,1-1.75-.93,1,1,0,0,1,.86-1.39l99.22-17.49a1.61,1.61,0,0,1,1.75.92A1,1,0,0,1,271.51,627Z"/><path class="m" d="M275.67,637.92l-99.22,17.49a1.62,1.62,0,0,1-1.75-.93,1,1,0,0,1,.87-1.39l99.22-17.49a1.62,1.62,0,0,1,1.75.93A1,1,0,0,1,275.67,637.92Z"/><path class="m" d="M279.83,648.82l-99.22,17.5a1.63,1.63,0,0,1-1.75-.93,1,1,0,0,1,.87-1.39l99.21-17.5a1.62,1.62,0,0,1,1.75.93A1,1,0,0,1,279.83,648.82Z"/><path class="m" d="M284,659.73l-99.21,17.49a1.62,1.62,0,0,1-1.75-.93,1,1,0,0,1,.86-1.39l99.22-17.49a1.62,1.62,0,0,1,1.75.93A1,1,0,0,1,284,659.73Z"/><path class="m" d="M288.14,670.63l-99.22,17.5a1.63,1.63,0,0,1-1.75-.93,1,1,0,0,1,.87-1.39l99.22-17.5a1.63,1.63,0,0,1,1.75.93A1,1,0,0,1,288.14,670.63Z"/><path class="m" d="M292.3,681.54,193.08,699a1.62,1.62,0,0,1-1.75-.93,1,1,0,0,1,.87-1.39l99.21-17.49a1.62,1.62,0,0,1,1.75.93A1,1,0,0,1,292.3,681.54Z"/><path class="m" d="M296.45,692.44l-99.21,17.49a1.6,1.6,0,0,1-1.75-.92,1,1,0,0,1,.86-1.39l99.22-17.5a1.62,1.62,0,0,1,1.75.93A1,1,0,0,1,296.45,692.44Z"/><path class="m" d="M300.61,703.34l-99.22,17.5a1.62,1.62,0,0,1-1.75-.93,1,1,0,0,1,.87-1.39L299.73,701a1.6,1.6,0,0,1,1.74.93A1,1,0,0,1,300.61,703.34Z"/><path class="m" d="M304.77,714.25l-99.22,17.49a1.61,1.61,0,0,1-1.75-.92,1,1,0,0,1,.86-1.39l99.22-17.5a1.62,1.62,0,0,1,1.75.93A1,1,0,0,1,304.77,714.25Z"/><path class="m" d="M308.92,725.15l-99.21,17.5a1.61,1.61,0,0,1-1.75-.93,1,1,0,0,1,.86-1.39L308,722.84a1.62,1.62,0,0,1,1.75.92A1,1,0,0,1,308.92,725.15Z"/><path class="m" d="M313.08,736.06l-99.22,17.49a1.61,1.61,0,0,1-1.75-.93,1,1,0,0,1,.87-1.38l99.21-17.5a1.61,1.61,0,0,1,1.75.93A1,1,0,0,1,313.08,736.06Z"/><path class="m" d="M317.23,747,218,764.46a1.63,1.63,0,0,1-1.75-.93,1,1,0,0,1,.86-1.39l99.22-17.49a1.61,1.61,0,0,1,1.75.92A1,1,0,0,1,317.23,747Z"/><path class="e" d="M358.41,776.38l1,0-57-149.47c-5.14-13.47-21.38-24.76-36.29-25.21l-47.29-1.44s-27.12-1.72-54.24-13.67c-3.1-1.37,9.06,36.93,9.06,36.93l50,131.16,102,3.11C338,758.2,351.31,766,358.41,776.38Z"/><path class="m" d="M428.17,599.39,329,616.88a1.62,1.62,0,0,1-1.75-.92,1,1,0,0,1,.87-1.39l99.21-17.5A1.62,1.62,0,0,1,429,598,1,1,0,0,1,428.17,599.39Z"/><path class="m" d="M432.32,610.3l-99.21,17.49a1.62,1.62,0,0,1-1.75-.93,1,1,0,0,1,.86-1.39L431.44,608a1.62,1.62,0,0,1,1.75.93A1,1,0,0,1,432.32,610.3Z"/><path class="m" d="M436.48,621.2l-99.22,17.49a1.62,1.62,0,0,1-1.75-.92,1,1,0,0,1,.87-1.39l99.22-17.5a1.62,1.62,0,0,1,1.75.93A1,1,0,0,1,436.48,621.2Z"/><path class="m" d="M440.64,632.1l-99.22,17.5a1.62,1.62,0,0,1-1.75-.93,1,1,0,0,1,.87-1.39l99.21-17.49a1.6,1.6,0,0,1,1.75.92A1,1,0,0,1,440.64,632.1Z"/><path class="m" d="M444.79,643,345.58,660.5a1.62,1.62,0,0,1-1.75-.93,1,1,0,0,1,.86-1.38l99.22-17.5a1.62,1.62,0,0,1,1.75.93A1,1,0,0,1,444.79,643Z"/><path class="m" d="M449,653.91l-99.22,17.5a1.62,1.62,0,0,1-1.75-.93,1,1,0,0,1,.87-1.39l99.22-17.49a1.6,1.6,0,0,1,1.74.92A1,1,0,0,1,449,653.91Z"/><path class="m" d="M453.11,664.82l-99.22,17.49a1.62,1.62,0,0,1-1.75-.93A1,1,0,0,1,353,680l99.22-17.49a1.62,1.62,0,0,1,1.75.93A1,1,0,0,1,453.11,664.82Z"/><path class="m" d="M457.26,675.72,358,693.22a1.61,1.61,0,0,1-1.74-.93,1,1,0,0,1,.86-1.39l99.22-17.49a1.62,1.62,0,0,1,1.75.92A1,1,0,0,1,457.26,675.72Z"/><path class="m" d="M461.42,686.63,362.2,704.12a1.62,1.62,0,0,1-1.75-.93,1,1,0,0,1,.87-1.39l99.22-17.49a1.6,1.6,0,0,1,1.74.93A1,1,0,0,1,461.42,686.63Z"/><path class="m" d="M465.58,697.53,366.36,715a1.63,1.63,0,0,1-1.75-.93,1,1,0,0,1,.86-1.39l99.22-17.5a1.63,1.63,0,0,1,1.75.93A1,1,0,0,1,465.58,697.53Z"/><path class="m" d="M469.73,708.44l-99.22,17.49a1.6,1.6,0,0,1-1.74-.93,1,1,0,0,1,.86-1.39l99.22-17.49a1.62,1.62,0,0,1,1.75.93A1,1,0,0,1,469.73,708.44Z"/><path class="m" d="M473.89,719.34l-99.22,17.5a1.63,1.63,0,0,1-1.75-.93,1,1,0,0,1,.87-1.39L473,717a1.62,1.62,0,0,1,1.75.93A1,1,0,0,1,473.89,719.34Z"/><path class="e" d="M360.29,776.05l-.87.36-57-149.47c-5.14-13.47,1-28.7,13.7-34l44.38-18.59a65.41,65.41,0,0,0,32.74-31.71c2-4.3,16.57,31.66,16.57,31.66l52.72,138.32L375.65,749C365.11,753.42,359.1,764.66,360.29,776.05Z"/><path class="e" d="M322.73,763.92l-113,19.93-7,15.28,113-19.93a39.35,39.35,0,0,1,17.4.95,8.7,8.7,0,0,0,3.92.2l21.23-3.74C350.85,767,336.44,761.5,322.73,763.92Z"/><path class="e" d="M495.6,733.43l-113,19.94c-13.7,2.41-22.39,12-22,22.84l21.74-3.83a6.85,6.85,0,0,0,3.29-1.47,30.09,30.09,0,0,1,14.52-6.58l112.52-19.84Z"/><path class="m" d="M337.64,747.3a1.62,1.62,0,0,1-1-.16,42.22,42.22,0,0,0-17.09-4.47c-21.73-1.09-87.15-2.66-87.81-2.67a1.54,1.54,0,0,1-1.51-1.22,1.09,1.09,0,0,1,1.23-1.15c.66,0,66.12,1.58,87.9,2.68a45.46,45.46,0,0,1,18.44,4.84,1.21,1.21,0,0,1,.67,1.63A1.15,1.15,0,0,1,337.64,747.3Z"/><path class="m" d="M333.48,736.4a1.7,1.7,0,0,1-1-.16,42.21,42.21,0,0,0-17.08-4.47c-21.74-1.1-87.16-2.66-87.82-2.68a1.54,1.54,0,0,1-1.51-1.21,1.09,1.09,0,0,1,1.23-1.15c.66,0,66.12,1.58,87.9,2.68a45.7,45.7,0,0,1,18.45,4.83,1.2,1.2,0,0,1,.66,1.63A1.11,1.11,0,0,1,333.48,736.4Z"/><path class="m" d="M329.33,725.49a1.61,1.61,0,0,1-1-.16,42.26,42.26,0,0,0-17.09-4.47c-21.73-1.09-87.15-2.66-87.81-2.67A1.53,1.53,0,0,1,221.9,717a1.09,1.09,0,0,1,1.23-1.15c.66,0,66.12,1.59,87.89,2.68a45.5,45.5,0,0,1,18.45,4.84,1.21,1.21,0,0,1,.67,1.63A1.17,1.17,0,0,1,329.33,725.49Z"/><path class="m" d="M325.17,714.59a1.62,1.62,0,0,1-1-.16A42.21,42.21,0,0,0,307.07,710c-21.74-1.1-87.16-2.66-87.82-2.68a1.52,1.52,0,0,1-1.51-1.21,1.09,1.09,0,0,1,1.23-1.15c.66,0,66.12,1.58,87.9,2.68a45.61,45.61,0,0,1,18.44,4.83,1.21,1.21,0,0,1,.67,1.63A1.13,1.13,0,0,1,325.17,714.59Z"/><path class="m" d="M321,703.68a1.65,1.65,0,0,1-1-.16,42.37,42.37,0,0,0-17.08-4.47c-21.74-1.09-87.16-2.66-87.82-2.67a1.54,1.54,0,0,1-1.51-1.22,1.08,1.08,0,0,1,1.23-1.14c.66,0,66.12,1.58,87.9,2.67a45.71,45.71,0,0,1,18.45,4.84,1.21,1.21,0,0,1,.67,1.63A1.17,1.17,0,0,1,321,703.68Z"/><path class="m" d="M316.86,692.78a1.62,1.62,0,0,1-1-.16,42.26,42.26,0,0,0-17.09-4.47c-21.73-1.1-87.15-2.66-87.81-2.68a1.52,1.52,0,0,1-1.51-1.21,1.09,1.09,0,0,1,1.23-1.15c.66,0,66.12,1.58,87.9,2.68A45.65,45.65,0,0,1,317,690.62a1.21,1.21,0,0,1,.67,1.63A1.15,1.15,0,0,1,316.86,692.78Z"/><path class="m" d="M312.7,681.87a1.62,1.62,0,0,1-1-.16,42.37,42.37,0,0,0-17.08-4.47c-21.74-1.09-87.16-2.66-87.82-2.67a1.53,1.53,0,0,1-1.51-1.22,1.08,1.08,0,0,1,1.23-1.14c.66,0,66.12,1.58,87.9,2.68a45.45,45.45,0,0,1,18.44,4.83,1.21,1.21,0,0,1,.67,1.63A1.13,1.13,0,0,1,312.7,681.87Z"/><path class="m" d="M308.55,671a1.65,1.65,0,0,1-1-.16,42.21,42.21,0,0,0-17.08-4.47c-21.74-1.1-87.16-2.66-87.82-2.68a1.53,1.53,0,0,1-1.51-1.21,1.09,1.09,0,0,1,1.23-1.15c.66,0,66.13,1.58,87.9,2.68a45.7,45.7,0,0,1,18.45,4.83,1.21,1.21,0,0,1,.67,1.63A1.15,1.15,0,0,1,308.55,671Z"/><path class="m" d="M304.39,660.07a1.69,1.69,0,0,1-1-.17,42.25,42.25,0,0,0-17.09-4.46c-21.73-1.1-87.15-2.66-87.81-2.68a1.53,1.53,0,0,1-1.51-1.21,1.08,1.08,0,0,1,1.23-1.15c.66,0,66.12,1.58,87.9,2.68a45.49,45.49,0,0,1,18.44,4.83,1.1,1.1,0,0,1-.14,2.16Z"/><path class="m" d="M300.23,649.16a1.62,1.62,0,0,1-1-.16,42.21,42.21,0,0,0-17.08-4.47c-21.74-1.1-87.16-2.66-87.82-2.67a1.54,1.54,0,0,1-1.51-1.22,1.09,1.09,0,0,1,1.23-1.15c.66,0,66.12,1.58,87.9,2.68A45.65,45.65,0,0,1,300.37,647a1.21,1.21,0,0,1,.67,1.64A1.13,1.13,0,0,1,300.23,649.16Z"/><path class="m" d="M296.08,638.26a1.72,1.72,0,0,1-1-.17A42.2,42.2,0,0,0,278,633.63c-21.73-1.1-87.16-2.66-87.81-2.68a1.54,1.54,0,0,1-1.52-1.21,1.09,1.09,0,0,1,1.23-1.15c.66,0,66.13,1.58,87.9,2.68a45.54,45.54,0,0,1,18.45,4.83,1.21,1.21,0,0,1,.67,1.63A1.18,1.18,0,0,1,296.08,638.26Z"/><path class="m" d="M291.92,627.35a1.62,1.62,0,0,1-1-.16,42.26,42.26,0,0,0-17.09-4.47c-21.73-1.1-87.15-2.66-87.81-2.67a1.54,1.54,0,0,1-1.51-1.22,1.09,1.09,0,0,1,1.23-1.15c.66,0,66.12,1.58,87.9,2.68a45.5,45.5,0,0,1,18.44,4.84,1.21,1.21,0,0,1,.67,1.63A1.17,1.17,0,0,1,291.92,627.35Z"/><path class="m" d="M358.49,743.63a1.61,1.61,0,0,1-1.08-.2,1.18,1.18,0,0,1-.59-1.64,28.94,28.94,0,0,1,12.68-10.32c18.24-8.16,74.34-31.16,74.91-31.39a1.61,1.61,0,0,1,1.89.6,1,1,0,0,1-.45,1.56c-.56.23-56.63,23.22-74.84,31.36a26.71,26.71,0,0,0-11.74,9.55A1.17,1.17,0,0,1,358.49,743.63Z"/><path class="m" d="M354.33,732.72a1.68,1.68,0,0,1-1.08-.19,1.18,1.18,0,0,1-.58-1.65,28.93,28.93,0,0,1,12.67-10.32c18.25-8.15,74.35-31.15,74.91-31.38a1.64,1.64,0,0,1,1.9.59,1,1,0,0,1-.46,1.57c-.56.23-56.63,23.21-74.84,31.35a26.83,26.83,0,0,0-11.74,9.55A1.15,1.15,0,0,1,354.33,732.72Z"/><path class="m" d="M350.18,721.82a1.7,1.7,0,0,1-1.09-.19,1.19,1.19,0,0,1-.58-1.65,29,29,0,0,1,12.67-10.32c18.25-8.16,74.35-31.16,74.92-31.39a1.63,1.63,0,0,1,1.89.6,1,1,0,0,1-.45,1.56c-.57.23-56.63,23.22-74.84,31.36A26.79,26.79,0,0,0,351,721.34,1.15,1.15,0,0,1,350.18,721.82Z"/><path class="m" d="M346,710.91a1.66,1.66,0,0,1-1.08-.19,1.17,1.17,0,0,1-.58-1.65A29,29,0,0,1,357,698.75c18.24-8.15,74.34-31.15,74.91-31.38a1.61,1.61,0,0,1,1.89.6,1,1,0,0,1-.45,1.56c-.56.23-56.63,23.21-74.84,31.35a26.84,26.84,0,0,0-11.74,9.55A1.13,1.13,0,0,1,346,710.91Z"/><path class="m" d="M341.86,700a1.68,1.68,0,0,1-1.08-.19,1.19,1.19,0,0,1-.58-1.65,28.91,28.91,0,0,1,12.67-10.32c18.25-8.16,74.35-31.16,74.91-31.39a1.65,1.65,0,0,1,1.9.6,1,1,0,0,1-.46,1.56c-.56.23-56.63,23.22-74.84,31.36a26.76,26.76,0,0,0-11.74,9.55A1.15,1.15,0,0,1,341.86,700Z"/><path class="m" d="M337.71,689.1a1.64,1.64,0,0,1-1.09-.19,1.19,1.19,0,0,1-.58-1.65A29,29,0,0,1,348.71,677c18.25-8.16,74.35-31.16,74.92-31.39a1.62,1.62,0,0,1,1.89.6,1,1,0,0,1-.45,1.56c-.57.23-56.63,23.21-74.84,31.35a26.93,26.93,0,0,0-11.75,9.55A1.11,1.11,0,0,1,337.71,689.1Z"/><path class="m" d="M333.55,678.2a1.68,1.68,0,0,1-1.08-.19,1.18,1.18,0,0,1-.58-1.65A28.86,28.86,0,0,1,344.56,666c18.24-8.15,74.35-31.15,74.91-31.39a1.66,1.66,0,0,1,1.9.6,1,1,0,0,1-.46,1.56c-.56.23-56.63,23.22-74.84,31.36a26.77,26.77,0,0,0-11.74,9.55A1.17,1.17,0,0,1,333.55,678.2Z"/><path class="e" d="M324.53,612.58C382.27,589.27,396,572.16,396,572.16L416,624.83S359.6,648,341.16,656.2A27.7,27.7,0,0,0,329,666.14l-14.87-39S310.64,618.19,324.53,612.58Z"/><path class="j" d="M698,795.69a2,2,0,0,1-1.82-1.18l-29.16-64.8a2,2,0,0,1,0-1.59,2,2,0,0,1,1.14-1.1l90.72-34.2a1.93,1.93,0,0,1,.7-.13,2,2,0,0,1,1.75,1l35.28,63.72a2,2,0,0,1-1.06,2.85l-96.84,35.28A2.09,2.09,0,0,1,698,795.69Z"/><path class="k" d="M759.59,694.69l35.28,63.72L698,793.69l-29.16-64.8,90.72-34.2m0-4a3.9,3.9,0,0,0-1.41.26l-90.72,34.2a4,4,0,0,0-2.28,2.2,4,4,0,0,0,.05,3.18l29.16,64.8a4,4,0,0,0,3.64,2.36,4.08,4.08,0,0,0,1.37-.24l96.84-35.28a4,4,0,0,0,2.13-5.7l-35.28-63.72a4,4,0,0,0-3.5-2.06Z"/><path class="e" d="M717.17,767.31l33.21-12s-3.62-26-24.78-17.89S717.17,767.31,717.17,767.31Z"/><circle class="e" cx="721.65" cy="729.35" r="8.28"/><path class="j" d="M757.39,740.25a2,2,0,0,1-1.42-.64,2,2,0,0,1-.53-1.45l2.88-64.8a2,2,0,0,1,2-1.91l77.15,4a2,2,0,0,1,1.38.66,2,2,0,0,1,.51,1.45l-3.6,62.64a2,2,0,0,1-2,1.89Z"/><path class="k" d="M760.31,673.45l77,4-3.6,62.64-76.32-1.8,2.88-64.8m0-4a4,4,0,0,0-4,3.82l-2.88,64.8a4,4,0,0,0,3.9,4.18l76.32,1.8h.1a4,4,0,0,0,4-3.77l3.6-62.64a4,4,0,0,0-3.79-4.23l-77-4Z"/><path class="e" d="M780.76,726.07l32.89.58s5.5-23.79-15.59-23.81S780.76,726.07,780.76,726.07Z"/><circle class="e" cx="797.29" cy="694.56" r="7.71"/><polygon class="f" points="754.91 675.45 758.39 672.09 756.27 738.45 754.91 675.45"/><path class="e" d="M346.33,644.73l23.54-10.22s-3.79-18.68-18.77-11.87S346.33,644.73,346.33,644.73Z"/><circle class="e" cx="347.88" cy="617.01" r="6.01"/><path class="e" d="M364.74,636.85l23.54-10.23s-3.79-18.67-18.77-11.86S364.74,636.85,364.74,636.85Z"/><circle class="e" cx="366.29" cy="609.12" r="6.01"/><path class="e" d="M351.22,437.66s-24.07,32.61-15.52,67.65c8.29,33.94-6.81,57.28-6.81,57.28s-4.61,4.11-27.74-16.39-92.71-8.52-114.88-4.91c0,0-8.29-41,13.78-109.77,0,0,19.84-26.18,54.14-4.69S351.22,437.66,351.22,437.66Z"/><path class="e" d="M267,525.68l-51.86-9.28s-1.28-39.1,31.88-32.58S267,525.68,267,525.68Z"/><circle class="e" cx="250.81" cy="471.03" r="12.35"/><path class="e" d="M351.22,437.66s-24.07,29.61-15.52,64.65c8.29,33.94-6.81,57.28-6.81,57.28s-4.61,4.11-27.74-16.39-92.71-8.52-114.88-4.91c0,0-8.29-41,13.78-109.77,0,0,19.84-26.18,54.14-4.69S351.22,437.66,351.22,437.66Z"/><path class="k" d="M431.07,555.62a71,71,0,0,0-4.31-13.73A50.92,50.92,0,0,0,419.3,530c-6-7.19-13.56-13.18-21.23-19.28a85.48,85.48,0,0,1-10.92-10,36.7,36.7,0,0,1-7.57-12.92A37.64,37.64,0,0,1,378.23,473a71,71,0,0,1,3.18-14.34.2.2,0,0,1,.25-.13.2.2,0,0,1,.13.24h0A75.32,75.32,0,0,0,379.46,473a36,36,0,0,0,2,14.06,34.5,34.5,0,0,0,7.6,11.81,82.47,82.47,0,0,0,11,9.27c3.9,2.87,7.92,5.66,11.82,8.72a59.42,59.42,0,0,1,10.59,10.61,49.07,49.07,0,0,1,4.05,6.41l.45.83.39.87.76,1.73a30,30,0,0,1,1.3,3.54,46.13,46.13,0,0,1,2.08,14.69.2.2,0,0,1-.2.2A.2.2,0,0,1,431.07,555.62Z"/><path class="j" d="M650.46,707.66a1.93,1.93,0,0,0-1.3-.64l-92.45-8.09-.13,0-15.24-7.44,16.28-4.68h.15L651.66,695l-1.1,12.56A1.47,1.47,0,0,1,650.46,707.66Z"/><path class="k" d="M558.3,688.7h0m-.41.08,91.6,8-.71,8.19-91.59-8-10.3-5,11-3.16m-.18,8.44h0m0-12.47-.21,0a1.11,1.11,0,0,0-.26,0l-18,5.19a1.38,1.38,0,0,0-1,1.2,1.4,1.4,0,0,0,.76,1.35l16.87,8.24a1.17,1.17,0,0,0,.25.07.94.94,0,0,0,.24.06L649,709a6.39,6.39,0,0,1-5.41,3l-.56,0-36.54-3.2h-.12a1.36,1.36,0,0,0-.12,2.72l36.54,3.2.8,0a9.13,9.13,0,0,0,8.51-5.95,1.31,1.31,0,0,0,.44-.88l1.18-13.44a1.36,1.36,0,0,0-1.24-1.47l-94.71-8.29Z"/><line class="al" x1="556.47" y1="699.69" x2="557.62" y2="686.48"/><line class="al" x1="602.78" y1="703.74" x2="603.94" y2="690.53"/><text class="am" transform="translate(590.56 258)"><tspan class="an">ww</tspan><tspan class="ao" x="30.34" y="0">w</tspan><tspan class="ap" x="44.25" y="0">.</tspan><tspan class="aq" x="50.07" y="0">o</tspan><tspan class="ar" x="61.36" y="0">c</tspan><tspan class="as" x="71.62" y="0">t</tspan><tspan class="at" x="80.54" y="0">a</tspan><tspan class="au" x="91.06" y="0">v</tspan><tspan class="av" x="100.62" y="0">o</tspan><tspan class="aw" x="111.58" y="0">.</tspan><tspan class="ax" x="117.85" y="0">a</tspan><tspan class="ay" x="128.63" y="0">p</tspan><tspan x="140.4" y="0">p</tspan></text><path class="k" d="M215.91,465a36.71,36.71,0,0,0-5,2.41c-1.5.88-2.24.23-1.8-1.77,1.6-7.19,3.16-14.17,4.7-20.57.42-1.79,1.68-2.86,3.07-2.72q2.31.18,4.62.3c6,.47,8.73,3.31,7.32,9.13S222.51,462.51,215.91,465Zm1.42-5.85a9.17,9.17,0,0,0,6.49-7.1c1-3.75-.33-5.13-3.48-4.94-.8.06-1.59.14-2.39.22-1,3.9-2,8.17-3.1,12.71C215.67,459.7,216.5,459.4,217.33,459.14Z"/><path class="k" d="M230,460.09q1.2-5.82,2.36-10.48a2.69,2.69,0,0,1,2.91-2.07,1.92,1.92,0,0,1,1.83,2.51q-1.06,4.72-2.17,10.52a2.92,2.92,0,0,1-3,2.65C230.53,463.09,229.67,461.88,230,460.09Zm3.49-15.95a3.15,3.15,0,0,1,3.17-1.78c1.4.06,2.35,1,2.07,2.15a3,3,0,0,1-3.17,1.89C234.16,446.28,233.21,445.22,233.52,444.14Z"/><path class="k" d="M244.14,465c-3.94-1.31-6.12-5.56-5.25-9.91s4.16-6.6,7.85-5.89a5,5,0,0,1,3.52,2.46,2.06,2.06,0,0,1,2.4-1,3,3,0,0,1,2,3.54c-.52,4.25-1.06,8.6-1.61,13.14-.62,5.24-3.85,7.69-9,5.84-3.48-1.22-6.12-3.69-5.7-6.15a2,2,0,0,1,2.63-1.84c1.53.45,1.73,1.91,3.74,2.61s3.1-.46,3.43-2.88l.06-.36A4.17,4.17,0,0,1,244.14,465Zm5.09-7a3.42,3.42,0,0,0-2.2-4c-1.66-.46-2.89.64-3.18,2.33a3.47,3.47,0,0,0,2.18,4C247.74,460.94,249,459.8,249.23,458Z"/><path class="k" d="M256.9,467.91c.46-4.23.91-8.37,1.34-12.5.2-1.88,1.37-2.75,2.7-2.35s2.28,2,2.11,4.06c-.37,4.42-.76,8.77-1.16,13.12-.18,2-1.4,2.7-2.82,2A4.29,4.29,0,0,1,256.9,467.91Zm1.84-20.42a2.85,2.85,0,0,1,2.94-2.75c1.42.19,2.51,2,2.37,3.92s-1.5,3.12-3,2.7A3.73,3.73,0,0,1,258.74,447.49Z"/><path class="k" d="M272.76,470.21c-.1,1.73.56,2.74,1.53,3.15a4.17,4.17,0,0,1,2.56,4.15c-.08,1.82-1.13,2.65-3.63,1.54-3.84-1.73-5.81-5.65-5.45-10.47.15-2.11.29-4.24.44-6.41l-.72-.29a4,4,0,0,1-2.4-4c.13-1.66,1.22-2.66,2.81-2.15l.7.23c.06-1,.13-2.06.19-3.1.13-2.23,1.25-3.44,2.56-3.14s2.29,2.09,2.19,4.5q-.07,1.67-.15,3.3L275,458c1.53.47,2.5,2.42,2.44,4.25s-1.16,3-2.73,2.43c-.55-.2-1.11-.41-1.66-.63C273,466.16,272.87,468.2,272.76,470.21Z"/><path class="k" d="M279.44,478.06c.18-4.7.35-9.68.5-15,.08-2.43,1.17-3.72,2.52-3.38s2.39,2.24,2.34,4.76c-.09,5.48-.19,10.58-.31,15.35-.06,2.17-1.21,3.14-2.64,2.64A4.27,4.27,0,0,1,279.44,478.06Zm.46-25.61c.06-2.36,1.33-4.21,2.76-4s2.64,2.64,2.62,5.12-1.3,4.22-2.77,3.85S279.84,454.81,279.9,452.45Z"/><path class="k" d="M287.41,479.65c0-1.48.75-2.37,2.15-2.08,1.74.34,2.17,2.27,4.53,2.55,1,.11,1.72-.15,1.71-.92,0-1.21-1.95-1.52-3.92-2.7s-4-3.28-4-7.74,2.1-7.43,5.94-7c2.8.32,5.62,2.1,5.68,5.47,0,1.79-.77,2.79-2,2.76-1.62-.05-1.83-1.74-3.6-1.91-.85-.09-1.41.27-1.41,1,0,1.18,1.35,1.71,3,2.5,2.25,1.09,5,2.57,5.06,7.31s-2.63,7-6.6,6.58C290.63,485.06,287.35,482.72,287.41,479.65Z"/><path class="k" d="M310.31,477.55c2-.79,2.1-2.49,3.65-3.27s2.35.05,2.43,1.53c.17,2.84-2.66,6.57-5.87,7.74-5.19,1.85-8.09-3-8.21-9.3s2.36-12.34,6.93-13.39c5-1.2,7.58,2.94,7.83,6.78.16,2.49-.74,4-2.33,4.9a33.7,33.7,0,0,1-7.18,3C307.86,477.35,308.75,478.14,310.31,477.55Zm1.41-8.37c-.32-1.71-1.1-2.57-2.22-2.21s-1.81,1.72-2,3.65A33.53,33.53,0,0,0,311.72,469.18Z"/><path class="k" d="M240.82,500.1c-.69,5.85-4,8.88-10.39,8.06-2-.25-4-.48-6.06-.66-1.73-.15-2.62-1.94-2.24-4.48,1.34-9,2.64-17.32,3.91-24.75.36-2.08,1.65-3.42,3.26-3.31a45,45,0,0,1,4.87.6c5.51,1.08,8.06,5.27,7.41,10.25-.44,3.4-2,4.84-4.12,5.41C239.68,492.45,241.4,495.23,240.82,500.1Zm-9.2,0a2.72,2.72,0,0,0,3.45-2.64,2.86,2.86,0,0,0-2.61-3.58c-1.09-.17-2.17-.32-3.26-.44-.29,2-.58,4.12-.87,6.25C229.42,499.79,230.52,499.93,231.62,500.09Zm1.16-12.91c1.62.27,2.79-.27,3-2a2.46,2.46,0,0,0-2.3-3c-.86-.15-1.72-.28-2.58-.38-.26,1.65-.51,3.33-.77,5.06Q231.48,487,232.78,487.18Z"/><path class="k" d="M243.54,497.7c.81-6.71,4.5-10.74,9.7-8.61s7.84,8,7.31,13.58-4.26,10-9.78,9.26S242.73,504.41,243.54,497.7ZM255,501c.27-2.53-.63-5-2.49-5.63s-3.21,1.13-3.51,3.84.57,5.31,2.47,5.76S254.77,503.52,255,501Z"/><path class="k" d="M262.86,503.36c.54-5.54,4-8.67,9.28-6.61s8.14,6.88,7.87,11.09-3.78,7.17-9.34,6.76S262.33,508.93,262.86,503.36Zm11.6,3.21a4.34,4.34,0,0,0-2.73-4.55c-1.87-.61-3.14.79-3.33,2.94s.79,4.18,2.71,4.55S274.31,508.51,274.46,506.57Z"/><path class="k" d="M288.56,513.86c-.06,1.28-1.35,2-2.93,1.89s-2.76-1-2.67-2.44c.32-4.75.6-10,.84-16,.08-1.79,1.28-2.61,2.75-2.23a3.5,3.5,0,0,1,2.57,3.53c-.09,3.24-.18,6.23-.29,9a40.16,40.16,0,0,1,5.14-4.19,3.38,3.38,0,0,1,2.31-.64,2.42,2.42,0,0,1,2.55,2.33,2.32,2.32,0,0,1-1.2,2c-1,.68-1.92,1.32-2.88,1.94,1.23,1.56,2.48,3,3.75,4.32a2.43,2.43,0,0,1,.77,1.58c0,1-1.08,1.46-2.7,1.39a3.52,3.52,0,0,1-2.69-1.1c-1.12-1.13-2.22-2.35-3.31-3.69l-1.95,1.09Z"/><line class="b" x1="838.8" y1="610.1" x2="846.95" y2="610.76"/><line class="b" x1="845.64" y1="589.96" x2="855.97" y2="597.28"/><line class="b" x1="840" y1="599" x2="850.8" y2="603.8"/><line class="b" x1="903.08" y1="585.41" x2="898.02" y2="591.84"/><line class="b" x1="894.12" y1="578.74" x2="890.3" y2="589.93"/><polygon class="f" points="464.37 450.88 581.37 455.57 577.58 444.82 466.7 444.82 464.37 450.88"/></svg>