<svg xmlns="http://www.w3.org/2000/svg" viewBox="0 0 1045.68 901.75"><defs><style>.a{fill:#e4eaf2;}.a,.bk,.e,.h,.i,.j,.k{stroke:#132e50;}.a,.k{stroke-miterlimit:10;}.a,.b,.bk,.c,.d,.e,.h,.i,.j,.k{stroke-width:4px;}.b,.c,.d,.h,.i,.k{fill:none;}.b,.c,.d{stroke:#fff;}.b,.bk,.c,.d,.e,.i,.j{stroke-linecap:round;}.b,.bk,.c,.d,.e,.h,.i,.j{stroke-linejoin:round;}.c{stroke-dasharray:2 10.02 0 0 0 0;}.d{stroke-dasharray:2.16 10.78 0 0 0 0;}.e,.f{fill:#fff;}.ap,.as,.av,.bk,.g,.l{fill:#132e50;}.l{font-size:25px;}.ah,.ap,.as,.av,.l{font-family:Menco-Black, Menco;font-weight:800;}.m{letter-spacing:-0.06em;}.n{letter-spacing:0em;}.o{letter-spacing:0em;}.p{letter-spacing:-0.01em;}.q{letter-spacing:-0.05em;}.r{letter-spacing:-0.01em;}.s{letter-spacing:0em;}.t{letter-spacing:0em;}.u{letter-spacing:-0.05em;}.v{letter-spacing:0em;}.w{letter-spacing:-0.01em;}.x{letter-spacing:0em;}.y{letter-spacing:0em;}.z{letter-spacing:0em;}.aa{letter-spacing:0em;}.ab{font-size:21px;font-family:Menco-Medium, Menco;font-weight:500;}.ac{letter-spacing:0em;}.ad{letter-spacing:-0.01em;}.ae{letter-spacing:0em;}.af{letter-spacing:0em;}.ag{letter-spacing:-0.01em;}.ai,.aj,.ak,.al,.am,.an{font-family:Menco-MediumItalic, Menco;font-style:italic;}.ai{letter-spacing:-0.01em;}.aj{letter-spacing:0em;}.ak{letter-spacing:0em;}.al{letter-spacing:0em;}.am{letter-spacing:-0.02em;}.ao{fill:#231f20;opacity:0.09;}.ap{font-size:27.59px;}.aq{letter-spacing:0em;}.ar{letter-spacing:0.01em;}.as{font-size:25.7px;}.at{letter-spacing:0em;}.au{letter-spacing:0.01em;}.av{font-size:20.26px;}.aw{letter-spacing:0.01em;}.ax{letter-spacing:0.01em;}.ay{letter-spacing:0em;}.az{letter-spacing:0em;}.ba{letter-spacing:0em;}.bb{letter-spacing:0em;}.bc{letter-spacing:0em;}.bd{letter-spacing:0em;}.be{letter-spacing:0.01em;}.bf{letter-spacing:0em;}.bg{letter-spacing:0em;}.bh{letter-spacing:0em;}.bi{letter-spacing:0.01em;}.bj{letter-spacing:0em;}.bl{opacity:0.8;}</style></defs><rect class="a" x="132.56" y="112.63" width="780.56" height="676.49" rx="30"/><line class="b" x1="221.78" y1="134.89" x2="221.78" y2="135.86"/><line class="c" x1="221.78" y1="145.61" x2="221.78" y2="765.29"/><line class="b" x1="221.78" y1="765.29" x2="221.78" y2="766.26"/><line class="b" x1="292.75" y1="134.89" x2="292.75" y2="135.86"/><line class="c" x1="292.75" y1="145.61" x2="292.75" y2="765.29"/><line class="b" x1="292.75" y1="765.29" x2="292.75" y2="766.26"/><line class="b" x1="354.36" y1="134.89" x2="354.36" y2="135.86"/><line class="c" x1="354.36" y1="145.61" x2="354.36" y2="765.29"/><line class="b" x1="354.36" y1="765.29" x2="354.36" y2="766.26"/><line class="b" x1="425.33" y1="134.89" x2="425.33" y2="135.86"/><line class="c" x1="425.33" y1="145.61" x2="425.33" y2="765.29"/><line class="b" x1="425.33" y1="765.29" x2="425.33" y2="766.26"/><line class="b" x1="486.93" y1="134.89" x2="486.93" y2="135.86"/><line class="c" x1="486.93" y1="145.61" x2="486.93" y2="765.29"/><line class="b" x1="486.93" y1="765.29" x2="486.93" y2="766.26"/><line class="b" x1="557.9" y1="134.89" x2="557.9" y2="135.86"/><line class="c" x1="557.9" y1="145.61" x2="557.9" y2="765.29"/><line class="b" x1="557.9" y1="765.29" x2="557.9" y2="766.26"/><line class="b" x1="619.51" y1="134.89" x2="619.51" y2="135.86"/><line class="c" x1="619.51" y1="145.61" x2="619.51" y2="765.29"/><line class="b" x1="619.51" y1="765.29" x2="619.51" y2="766.26"/><line class="b" x1="690.48" y1="134.89" x2="690.48" y2="135.86"/><line class="c" x1="690.48" y1="145.61" x2="690.48" y2="765.29"/><line class="b" x1="690.48" y1="765.29" x2="690.48" y2="766.26"/><line class="b" x1="752.08" y1="134.89" x2="752.08" y2="135.86"/><line class="c" x1="752.08" y1="145.61" x2="752.08" y2="765.29"/><line class="b" x1="752.08" y1="765.29" x2="752.08" y2="766.26"/><line class="b" x1="823.05" y1="134.89" x2="823.05" y2="135.86"/><line class="c" x1="823.05" y1="145.61" x2="823.05" y2="765.29"/><line class="b" x1="823.05" y1="765.29" x2="823.05" y2="766.26"/><line class="b" x1="887.42" y1="201.76" x2="886.29" y2="201.76"/><line class="d" x1="875.03" y1="201.76" x2="158.54" y2="201.76"/><line class="b" x1="158.54" y1="201.76" x2="157.42" y2="201.76"/><line class="b" x1="887.42" y1="272.93" x2="886.29" y2="272.93"/><line class="d" x1="875.03" y1="272.93" x2="158.54" y2="272.93"/><line class="b" x1="158.54" y1="272.93" x2="157.42" y2="272.93"/><line class="b" x1="887.42" y1="344.11" x2="886.29" y2="344.11"/><line class="d" x1="875.03" y1="344.11" x2="158.54" y2="344.11"/><line class="b" x1="158.54" y1="344.11" x2="157.42" y2="344.11"/><line class="b" x1="887.42" y1="415.28" x2="886.29" y2="415.28"/><line class="d" x1="875.03" y1="415.28" x2="158.54" y2="415.28"/><line class="b" x1="158.54" y1="415.28" x2="157.42" y2="415.28"/><line class="b" x1="887.42" y1="486.46" x2="886.29" y2="486.46"/><line class="d" x1="875.03" y1="486.46" x2="158.54" y2="486.46"/><line class="b" x1="158.54" y1="486.46" x2="157.42" y2="486.46"/><line class="b" x1="887.42" y1="557.63" x2="886.29" y2="557.63"/><line class="d" x1="875.03" y1="557.63" x2="158.54" y2="557.63"/><line class="b" x1="158.54" y1="557.63" x2="157.42" y2="557.63"/><line class="b" x1="887.42" y1="628.8" x2="886.29" y2="628.8"/><line class="d" x1="875.03" y1="628.8" x2="158.54" y2="628.8"/><line class="b" x1="158.54" y1="628.8" x2="157.42" y2="628.8"/><line class="b" x1="887.42" y1="699.98" x2="886.29" y2="699.98"/><line class="d" x1="875.03" y1="699.98" x2="158.54" y2="699.98"/><line class="b" x1="158.54" y1="699.98" x2="157.42" y2="699.98"/><rect class="e" x="791.24" y="391.88" width="48.37" height="89.79" rx="24.18" transform="translate(381.42 1253.67) rotate(-90.19)"/><path class="e" d="M809.54,460.28c-9.28-14.61-9.32-33-.16-46.59"/><line class="e" x1="770.53" y1="437.24" x2="802.55" y2="437.13"/><path class="f" d="M639.1,746.63a2.06,2.06,0,0,0,.16-.79L639,670.68v0l4.53-11.88,4.59,11.84a.13.13,0,0,1,0,.06l.24,76Z"/><path class="g" d="M646.24,657.33h0m-2.66,7,2.59,6.67.22,73.62-5.14,0L641,671l2.55-6.7m-2.53,6.35h0m2.5-15.5h0a1.12,1.12,0,0,0-1,.71L637.1,670.1a.65.65,0,0,0,0,.2,1.42,1.42,0,0,0,0,.2l.24,75.35a5.15,5.15,0,0,1-2.88-4.59l-.09-29.73a1.1,1.1,0,0,0-1.1-1.1h0a1.11,1.11,0,0,0-1.1,1.11l.09,29.73a7.37,7.37,0,0,0,5.46,7.07,1.08,1.08,0,0,0,.74.3h0l10.93,0a1.11,1.11,0,0,0,1.1-1.11l-.24-77a1.38,1.38,0,0,0,0-.2c0-.07,0-.14,0-.2l-5.51-14.19a1.1,1.1,0,0,0-1-.7Z"/><line class="h" x1="638.01" y1="670.5" x2="648.76" y2="670.47"/><line class="h" x1="638.13" y1="708.18" x2="648.87" y2="708.14"/><path class="f" d="M616.3,746.63a2.06,2.06,0,0,0,.16-.79l-.23-75.16v0l4.53-11.88,4.59,11.84a.13.13,0,0,1,0,.06l.24,76Z"/><path class="g" d="M623.44,657.33h0m-2.66,7,2.59,6.67.22,73.62-5.14,0L618.23,671l2.55-6.7m-2.53,6.34h0m2.5-15.49h0a1.12,1.12,0,0,0-1,.71L614.3,670.1a.65.65,0,0,0,0,.2,1.42,1.42,0,0,0,0,.2l.24,75.35a5.17,5.17,0,0,1-2.88-4.59l-.09-29.73a1.1,1.1,0,0,0-1.1-1.1h0a1.11,1.11,0,0,0-1.1,1.11l.09,29.73a7.37,7.37,0,0,0,5.46,7.07,1.08,1.08,0,0,0,.74.3h0l10.93,0a1.11,1.11,0,0,0,1.1-1.11l-.24-77a1.38,1.38,0,0,0,0-.2c0-.07,0-.14,0-.2l-5.51-14.19a1.1,1.1,0,0,0-1-.7Z"/><line class="h" x1="615.21" y1="670.5" x2="625.96" y2="670.47"/><line class="h" x1="615.33" y1="708.18" x2="626.07" y2="708.14"/><path class="f" d="M329.9,746.71a5,5,0,0,0,5-5l.7-352.54a5,5,0,0,0-5-5l-151.3.17a5,5,0,0,0-5,5l-.7,352.54a5,5,0,0,0,5,5Z"/><path class="i" d="M329.9,746.71a5,5,0,0,0,5-5l.7-352.54a5,5,0,0,0-5-5l-151.3.17a5,5,0,0,0-5,5l-.7,352.54a5,5,0,0,0,5,5Z"/><path class="i" d="M205.24,501.07,205,726.59a5.51,5.51,0,0,1-5,5.38l-5.76-.15a4.56,4.56,0,0,1-5-4.61l.27-225.52a5.53,5.53,0,0,1,5-5.39l5.76.15A4.58,4.58,0,0,1,205.24,501.07Z"/><path class="i" d="M205.35,408.27l-.09,70.48a5.51,5.51,0,0,1-5,5.38l-5.77-.15a4.57,4.57,0,0,1-5-4.61l.09-70.48a5.51,5.51,0,0,1,5-5.39l5.76.15A4.58,4.58,0,0,1,205.35,408.27Z"/><path class="i" d="M317.91,501.34l-.27,225.52a5.53,5.53,0,0,1-5,5.39l-93.6.25a4.58,4.58,0,0,1-5-4.62l.28-225.52a5.51,5.51,0,0,1,5-5.38l93.61-.25A4.56,4.56,0,0,1,317.91,501.34Z"/><path class="i" d="M318,408.54,317.94,479a5.52,5.52,0,0,1-5,5.39l-93.6.25a4.57,4.57,0,0,1-5-4.62l.08-70.48a5.51,5.51,0,0,1,5-5.38l93.6-.25A4.57,4.57,0,0,1,318,408.54Z"/><path class="e" d="M205.24,498.22,205,723.74a5.52,5.52,0,0,1-5,5.39l-5.76-.15a4.57,4.57,0,0,1-5-4.62l.27-225.52a5.51,5.51,0,0,1,5-5.38l5.76.15A4.57,4.57,0,0,1,205.24,498.22Z"/><path class="e" d="M205.35,405.42l-.09,70.48a5.51,5.51,0,0,1-5,5.39l-5.77-.15a4.57,4.57,0,0,1-5-4.62l.08-70.48a5.52,5.52,0,0,1,5-5.38l5.76.15A4.57,4.57,0,0,1,205.35,405.42Z"/><path class="e" d="M316.91,498.57l-.27,225.52a5.53,5.53,0,0,1-5,5.39l-93.6.25a4.57,4.57,0,0,1-5-4.61l.28-225.52a5.51,5.51,0,0,1,5-5.39l93.61-.25A4.56,4.56,0,0,1,316.91,498.57Z"/><path class="e" d="M317,405.77l-.09,70.48a5.52,5.52,0,0,1-5,5.39l-93.6.25a4.57,4.57,0,0,1-5-4.61l.09-70.48a5.52,5.52,0,0,1,5-5.39l93.6-.25A4.57,4.57,0,0,1,317,405.77Z"/><line class="j" x1="213.06" y1="703.57" x2="317.05" y2="703.3"/><line class="j" x1="213.09" y1="677.36" x2="316.76" y2="677.12"/><line class="j" x1="213.12" y1="651.22" x2="296.04" y2="651.02"/><line class="j" x1="213.15" y1="625.05" x2="296.07" y2="624.84"/><line class="j" x1="213.19" y1="598.87" x2="296.11" y2="598.68"/><line class="j" x1="213.22" y1="572.7" x2="317.82" y2="572.42"/><line class="j" x1="213.25" y1="546.52" x2="316.96" y2="546.25"/><line class="j" x1="234.01" y1="520.37" x2="317.89" y2="520.31"/><line class="j" x1="214.64" y1="461.89" x2="296.27" y2="461.34"/><line class="j" x1="214.42" y1="441.53" x2="315.47" y2="440.84"/><line class="j" x1="215.19" y1="421.08" x2="316.25" y2="420.39"/><line class="k" x1="233.76" y1="729.69" x2="234.04" y2="494.61"/><line class="k" x1="254.77" y1="494.11" x2="254.49" y2="729.91"/><line class="k" x1="275.22" y1="729.58" x2="275.5" y2="494.9"/><line class="k" x1="296.23" y1="494" x2="295.95" y2="729.7"/><line class="k" x1="234.06" y1="482.71" x2="234.16" y2="401.16"/><line class="k" x1="254.86" y1="420.17" x2="254.79" y2="482.74"/><line class="k" x1="275.52" y1="481.57" x2="275.62" y2="402.58"/><line class="k" x1="296.32" y1="420.58" x2="296.25" y2="480.57"/><line class="j" x1="189.52" y1="461.52" x2="205.28" y2="461.6"/><line class="j" x1="189.54" y1="441.14" x2="205.31" y2="441.21"/><line class="j" x1="190.09" y1="420.75" x2="204.64" y2="420.82"/><line class="j" x1="189.88" y1="702.58" x2="203.31" y2="702.42"/><line class="j" x1="189.25" y1="677.15" x2="204.68" y2="676.98"/><line class="j" x1="190.08" y1="651.05" x2="203.46" y2="650.9"/><line class="j" x1="190.01" y1="624.52" x2="204.44" y2="624.35"/><line class="j" x1="189.38" y1="599.08" x2="204.8" y2="598.92"/><line class="j" x1="190.21" y1="572.98" x2="203.59" y2="572.83"/><line class="j" x1="189.8" y1="546.49" x2="204.49" y2="546.33"/><line class="j" x1="189.97" y1="520.51" x2="204.35" y2="520.36"/><path class="e" d="M419.73,268.38l-3.48-19.73,9.2-1.62L414.1,182.67l-9.19,1.62-3.46-19.57,45.23-8c35.89-6.32,60.25,12.16,65.25,40.49,6,33.81-11.08,56.84-47.56,63.28Zm30.4-92.06-5.63,1,11.35,64.36,5.63-1c15.67-3.07,19.6-18.9,16.33-37.44C475,187.37,465.85,173.55,450.13,176.32Z"/><path class="e" d="M461.48,284.48h50v19.87h-9.34v65.36h9.34v20h-50v-20H471V304.35h-9.49Z"/><path class="e" d="M548.42,462.61c1-2.9,5.09-8.75,7.2-12.12l10.17-14-8.21-1.07,2.49-19.11,40.17,5.23-2.49,19.11-8.06-1.05-34,44.93-2.26,17.32,8.37,1.09-2.53,19.41-47.78-6.22,2.53-19.41,8.51,1.11,2.29-17.62-22.69-52-7.31-.95,2.49-19.12,51.06,6.65-2.49,19.11-7.76-1,6.6,17c.53,3,2.78,10.08,3.06,12.7Z"/><rect class="e" x="548.08" y="152.5" width="312.24" height="212.47" rx="5" transform="translate(1408.4 517.47) rotate(180)"/><rect class="e" x="607.97" y="112.61" width="192.47" height="292.24" transform="translate(962.93 -445.47) rotate(90)"/><rect class="e" x="609.28" y="571.16" width="83.04" height="72.48" rx="5"/><rect class="e" x="711.52" y="571.16" width="148.8" height="72.48" rx="5"/><path class="e" d="M633,628.54l35.32.1s5.54-25.64-17.12-25.32S633,628.54,633,628.54Z"/><circle class="e" cx="650.27" cy="594.43" r="8.28"/><path class="e" d="M822.07,599.56l17.39.05S842.19,587,831,587.14,822.07,599.56,822.07,599.56Z"/><circle class="e" cx="830.57" cy="582.77" r="4.08"/><path class="e" d="M822.07,636.05l17.39.05s2.73-12.62-8.42-12.46S822.07,636.05,822.07,636.05Z"/><circle class="e" cx="830.57" cy="619.26" r="4.08"/><path class="e" d="M724.76,625.54l35.32.1S765.62,600,743,600.32,724.76,625.54,724.76,625.54Z"/><circle class="e" cx="742.02" cy="591.43" r="8.28"/><path class="e" d="M752.92,630.54l35.32.1s5.54-25.64-17.11-25.32S752.92,630.54,752.92,630.54Z"/><circle class="e" cx="770.17" cy="596.43" r="8.28"/><line class="i" x1="802" y1="571.16" x2="802" y2="643.64"/><line class="i" x1="858.56" y1="607.4" x2="803" y2="607.4"/><rect class="e" x="667.36" y="660.82" width="75.97" height="34.42" rx="5"/><rect class="e" x="762.53" y="660.82" width="97.79" height="86.02" rx="5"/><rect class="e" x="667.36" y="712.43" width="75.97" height="34.42" rx="5"/><text class="l" transform="translate(681.38 686.38)"><tspan class="m">T</tspan><tspan class="n" x="12.01" y="0">ru</tspan><tspan x="35.28" y="0">e</tspan></text><rect class="g" x="774.06" y="674.24" width="7" height="7" rx="3.5"/><rect class="g" x="774.06" y="699.34" width="7" height="7" rx="3.5"/><rect class="g" x="774.06" y="724.43" width="7" height="7" rx="3.5"/><text class="l" transform="translate(786.42 685.38)"><tspan class="o">O</tspan><tspan class="p" x="17.51" y="0">p</tspan><tspan x="31.31" y="0">t A</tspan></text><text class="l" transform="translate(786.42 710.48)"><tspan class="o">O</tspan><tspan class="p" x="17.51" y="0">p</tspan><tspan x="31.31" y="0">t B</tspan></text><text class="l" transform="translate(786.42 735.58)"><tspan class="o">O</tspan><tspan class="p" x="17.51" y="0">p</tspan><tspan x="31.31" y="0">t C</tspan></text><text class="l" transform="translate(677.62 737.84)"><tspan class="q">F</tspan><tspan class="r" x="11.83" y="0">a</tspan><tspan class="s" x="24.46" y="0">l</tspan><tspan class="t" x="31.66" y="0">s</tspan><tspan x="42.79" y="0">e</tspan></text><rect class="e" x="173.6" y="152.5" width="203.15" height="125.37" rx="5"/><rect class="e" x="194.48" y="163.93" width="170" height="102.55"/><path class="g" d="M184.05,219.69a4.51,4.51,0,1,0-4.49-4.5A4.5,4.5,0,0,0,184.05,219.69Z"/><rect class="e" x="609.28" y="481.49" width="251.04" height="72.48" rx="5"/><text class="l" transform="translate(664.75 513.43)"><tspan class="u">F</tspan><tspan class="v" x="12.05" y="0">o</tspan><tspan class="w" x="25.52" y="0">n</tspan><tspan x="38.79" y="0">t </tspan><tspan class="o" x="53.64" y="0">O</tspan><tspan class="p" x="71.15" y="0">p</tspan><tspan class="x" x="84.95" y="0">t</tspan><tspan class="y" x="95.47" y="0">i</tspan><tspan class="z" x="101.96" y="0">o</tspan><tspan class="aa" x="115.43" y="0">n</tspan><tspan x="128.96" y="0">s</tspan><tspan class="ab"><tspan class="ac" x="-20.08" y="25">A</tspan><tspan class="ad" x="-8.29" y="25">a</tspan><tspan class="ae" x="2.02" y="25">B</tspan><tspan class="af" x="13.79" y="25">b</tspan><tspan class="ag" x="24.57" y="25">C</tspan><tspan x="36.62" y="25">c</tspan><tspan class="ah" x="45.9" y="25" xml:space="preserve">             </tspan><tspan class="ai" x="93.67" y="25">A</tspan><tspan class="aj" x="105.26" y="25">a</tspan><tspan class="ak" x="116.42" y="25">B</tspan><tspan class="al" x="128.19" y="25">b</tspan><tspan class="am" x="139" y="25">C</tspan><tspan class="an" x="150.9" y="25">c</tspan></tspan></text><path class="e" d="M419.73,265.38l-3.48-19.73,9.2-1.62L414.1,179.67l-9.19,1.62-3.46-19.57,45.23-8c35.89-6.32,60.25,12.16,65.25,40.49,6,33.81-11.08,56.84-47.56,63.28Zm30.4-92.06-5.63,1,11.35,64.36,5.63-1c15.67-3.07,19.6-18.9,16.33-37.44C475,184.37,465.85,170.55,450.13,173.32Z"/><path class="e" d="M461.48,281.48h50v19.87h-9.34v65.36h9.34v20h-50v-20H471V301.35h-9.49Z"/><path class="e" d="M548.42,459.61c1-2.9,5.09-8.75,7.2-12.12l10.17-14-8.21-1.07,2.49-19.11,40.17,5.23-2.49,19.11-8.06-1.05-34,44.93-2.26,17.32,8.37,1.09-2.53,19.41-47.78-6.22,2.53-19.41,8.51,1.11,2.29-17.62-22.69-52-7.31-.95,2.49-19.12,51.06,6.65-2.49,19.11-7.76-1,6.6,17c.53,3,2.78,10.08,3.06,12.7Z"/><path class="e" d="M360,414v102.1a10.34,10.34,0,0,0,10.31,10.31h39.87a10.21,10.21,0,0,0,5.14-1.38,10.54,10.54,0,0,0,2-1.48,10.27,10.27,0,0,0,3.19-7.45V414a10.33,10.33,0,0,0-10.31-10.31H370.28a10.27,10.27,0,0,0-7.89,3.7l-.12.14A10.23,10.23,0,0,0,360,414Z"/><path class="e" d="M361.66,510.41h56.68m0-90.06H361.66"/><path class="i" d="M395.6,413.77h0Z"/><path class="i" d="M410.38,453.57a1.71,1.71,0,0,0-1-1c-2.25-1-4.5-2.11-6.74-3.17a1.26,1.26,0,0,0-1.74.48c-1.44,2.23-2.89,4.47-4.32,6.71a1.25,1.25,0,0,0,.18,1.72c.83.83,1.64,1.68,2.5,2.48a1.67,1.67,0,0,1,.5,1.68,14.34,14.34,0,0,1-3.12,6.49,16,16,0,0,1-6.5,4.9,22.25,22.25,0,0,1-2.9.81,1.19,1.19,0,0,1-1.18-.4l-2.58-2.59a1.27,1.27,0,0,0-1.83-.19l-6.6,4.24a1.27,1.27,0,0,0-.51,1.81l3.21,6.83a1.29,1.29,0,0,0,1.47.83,31.71,31.71,0,0,0,13.35-4.69,38.44,38.44,0,0,0,15.91-18.81,29.79,29.79,0,0,0,1.81-7.27,1.09,1.09,0,0,1,.07-.24Z"/><path class="i" d="M371,461.16a15.56,15.56,0,0,1,13.73-15.22"/><path class="i" d="M378.78,464.06a11.22,11.22,0,0,1,9.88-10.95"/><path class="g" d="M294.26,368.55a34.45,34.45,0,0,1-6.09-68.34,35.53,35.53,0,0,1,6.16-.55A34.44,34.44,0,0,1,300.42,368,35.45,35.45,0,0,1,294.26,368.55Z"/><path class="g" d="M294.33,301.66A32.44,32.44,0,0,1,300.07,366a32.93,32.93,0,0,1-5.81.52,32.44,32.44,0,0,1-5.74-64.37,33,33,0,0,1,5.81-.52m0-4h0a36.48,36.48,0,0,0-35.89,42.93,36.39,36.39,0,0,0,35.82,30,36.77,36.77,0,0,0,6.52-.59,36.44,36.44,0,0,0-6.45-72.3Z"/><path class="f" d="M268.27,317a5.4,5.4,0,0,1-3.48-1.27l-7.14-6a5.4,5.4,0,1,1,7-8.26l7.15,6a5.4,5.4,0,0,1-3.48,9.53Z"/><path class="g" d="M261.13,302.19a3.34,3.34,0,0,1,2.18.8l4.66,3.9,2.49,2.1a3.4,3.4,0,0,1-2.19,6,3.37,3.37,0,0,1-2.19-.8l-2.74-2.3-4.41-3.7a3.4,3.4,0,0,1,2.2-6m0-4a7.4,7.4,0,0,0-4.77,13.06l4.41,3.7,2.74,2.31a7.41,7.41,0,0,0,10.42-.9,7.41,7.41,0,0,0-.89-10.43l-2.5-2.1-4.65-3.9a7.4,7.4,0,0,0-4.76-1.74Z"/><path class="ao" d="M269,307.89l2.49,2.1a3.4,3.4,0,0,1-4.37,5.2l-2.75-2.3A32.23,32.23,0,0,1,269,307.89Z"/><path class="f" d="M293.25,365.54a34.45,34.45,0,1,1,6.16-.55A34.39,34.39,0,0,1,293.25,365.54Z"/><path class="g" d="M293.32,298.65A32.44,32.44,0,0,1,299.06,363a32.93,32.93,0,0,1-5.81.52,32.44,32.44,0,0,1-5.74-64.36,32.12,32.12,0,0,1,5.81-.53m0-4h0a36.48,36.48,0,0,0-35.89,42.93,36.39,36.39,0,0,0,35.82,30,36.45,36.45,0,0,0,.07-72.89Z"/><path class="f" d="M293.3,358.06a27,27,0,0,1-19.23-45.87,25.59,25.59,0,0,1,3.2-2.79,19.31,19.31,0,0,1,1.69-1.14,26,26,0,0,1,2.29-1.29,23.61,23.61,0,0,1,2.86-1.22,26.93,26.93,0,0,1,33.31,13.32,26.88,26.88,0,0,1-12.1,36.16,26.2,26.2,0,0,1-5.4,2,26.58,26.58,0,0,1-6.18.82Z"/><path class="g" d="M293.28,306.13a25,25,0,0,1,16.77,43.5,25.49,25.49,0,0,1-5.62,3.81,24.84,24.84,0,0,1-10.72,2.62h-.41a25,25,0,0,1-17.81-42.47,25.34,25.34,0,0,1,3-2.58,18,18,0,0,1,1.54-1c.69-.44,1.42-.84,2.15-1.21a22.29,22.29,0,0,1,2.64-1.13,24.89,24.89,0,0,1,8.5-1.5m0-4h0a28.86,28.86,0,0,0-9.87,1.74,27.56,27.56,0,0,0-3.07,1.32c-.88.44-1.71.91-2.46,1.38-.59.36-1.19.77-1.82,1.24a27.51,27.51,0,0,0-3.43,3,29,29,0,0,0,20.67,49.26h.48a29.11,29.11,0,0,0,12.45-3,29.73,29.73,0,0,0,6.49-4.41,29.08,29.08,0,0,0,6.49-34.44,28.77,28.77,0,0,0-25.93-16Z"/><path class="g" d="M351.49,286.53a15,15,0,0,1-6.34,8.7,16.09,16.09,0,0,1-5.28,2.14,22.6,22.6,0,0,1-5.61.42,28.83,28.83,0,0,1-5.44-.85c-.88-.21-1.76-.5-2.6-.76l-2.36-.74a32.14,32.14,0,0,0-9.7-1.42,21.63,21.63,0,0,0-4.81.61,17.84,17.84,0,0,0-4.52,1.68,18.85,18.85,0,0,0-7.13,6.53,23.58,23.58,0,0,0-3.56,9.28,25.78,25.78,0,0,0,.44,10.12.21.21,0,0,1-.15.25.2.2,0,0,1-.24-.13A25.6,25.6,0,0,1,296,301.8a21.38,21.38,0,0,1,12.6-10,25,25,0,0,1,5.4-1,38.52,38.52,0,0,1,10.83.78c.88.21,1.75.44,2.62.66s1.59.45,2.39.64a38,38,0,0,0,4.76.91,17.9,17.9,0,0,0,9.22-1.05,17.53,17.53,0,0,0,7.32-6.4.2.2,0,0,1,.36.17Z"/><path class="g" d="M359.88,286.44a23.4,23.4,0,0,1-.8,10.12,18.51,18.51,0,0,1-2.26,4.84,15.27,15.27,0,0,1-3.88,4,15.74,15.74,0,0,1-10.64,2.43,31,31,0,0,1-5.16-1.05l-4.69-1.51-1.13-.35-1.15-.24c-.77-.14-1.53-.35-2.31-.45l-2.32-.23c-.78-.08-1.55,0-2.33,0a18.5,18.5,0,0,0-8.8,2.53,18.25,18.25,0,0,0-6.5,6.67,24.23,24.23,0,0,0-3,9.14.2.2,0,0,1-.22.18.19.19,0,0,1-.17-.21,23.79,23.79,0,0,1,2.27-9.68,19.94,19.94,0,0,1,6.5-7.78,20.93,20.93,0,0,1,9.7-3.45c.86,0,1.72-.18,2.58-.15l2.58.1c.86.06,1.7.22,2.55.34l1.28.18,1.24.3,4.77,1.17a24.43,24.43,0,0,0,4.54.53,13.71,13.71,0,0,0,13.9-8.33,36.58,36.58,0,0,0,3-9.08h0a.2.2,0,0,1,.23-.16A.2.2,0,0,1,359.88,286.44Z"/><polygon class="e" points="229.75 352.99 173.77 356.99 173.77 303.05 229.75 303.05 229.75 352.99"/><path class="e" d="M244,352l-56,7c-18.34-16.38-12-55.94-12-55.94l54,2S228,337,244,352Z"/><path class="e" d="M244,352l-56,5c-18.34-16.38-14-53.94-14-53.94h56S228,337,244,352Z"/><polygon class="e" points="425.94 370.87 365.48 362.67 377.49 305.28 437.05 317.74 425.94 370.87"/><path class="e" d="M441.36,373l-61.13-5c-15.87-21.51-.32-62.19-.32-62.19l57,14.14S427.58,353.43,441.36,373Z"/><path class="e" d="M441.36,373l-60.69-7.14c-15.87-21.51-2.89-60.51-2.89-60.51l59.57,12.46S427.58,353.43,441.36,373Z"/><text class="ap" transform="matrix(0.97, 0.15, 0.02, 1, 382.13, 346.45)"><tspan class="aq">I</tspan><tspan class="ar" x="8.15" y="0">M</tspan><tspan x="29.01" y="0">P</tspan></text><polygon class="e" points="588.34 590.58 552 585.65 559.22 551.15 595.02 558.64 588.34 590.58"/><path class="e" d="M597.61,591.85l-36.74-3c-9.55-12.93-.19-37.38-.19-37.38l34.26,8.5S589.33,580.1,597.61,591.85Z"/><path class="e" d="M597.61,591.85l-36.48-4.29c-9.54-12.93-1.73-36.37-1.73-36.37l35.8,7.49S589.33,580.1,597.61,591.85Z"/><polygon class="e" points="764.53 322.37 819.06 335.66 828.06 282.48 772.86 273.14 764.53 322.37"/><path class="e" d="M750.62,319l54,16.24c20.82-13.09,21.16-53.15,21.16-53.15l-53.56-7S769,306.89,750.62,319Z"/><path class="e" d="M750.62,319,805,333.28c20.82-13.09,22.8-50.85,22.8-50.85l-55.19-9.34S769,306.89,750.62,319Z"/><text class="as" transform="matrix(0.94, 0.19, -0.37, 0.93, 769.97, 307.7)"><tspan class="at">I</tspan><tspan class="au" x="7.61" y="0">M</tspan><tspan x="27.06" y="0">P</tspan></text><polygon class="e" points="443.78 482.86 486.76 493.33 493.86 451.42 450.35 444.05 443.78 482.86"/><path class="e" d="M432.82,480.21,475.4,493c16.41-10.32,16.68-41.89,16.68-41.89l-42.21-5.55S447.29,470.65,432.82,480.21Z"/><path class="e" d="M432.82,480.21l42.85,11.24c16.41-10.31,18-40.07,18-40.07L450.13,444S447.29,470.65,432.82,480.21Z"/><text class="av" transform="matrix(0.94, 0.19, -0.37, 0.93, 448.04, 471.29)"><tspan class="aw">I</tspan><tspan class="ax" x="6.03" y="0">M</tspan><tspan x="21.39" y="0">P</tspan></text><rect class="e" x="365.34" y="569.65" width="200" height="154.47" rx="5" transform="translate(914.05 -11.64) rotate(70)"/><rect class="e" x="365.34" y="569.65" width="200" height="154.47" rx="5" transform="translate(1021.58 76.28) rotate(80)"/><rect class="e" x="365.34" y="569.65" width="200" height="154.47" rx="5" transform="translate(1112.21 181.54) rotate(90)"/><text class="l" transform="translate(402.63 581.06)"><tspan class="ay">F</tspan><tspan class="az" x="13.29" y="0">i</tspan><tspan class="ba" x="19.83" y="0">n</tspan><tspan class="bb" x="33.29" y="0">i</tspan><tspan class="bc" x="39.86" y="0">s</tspan><tspan class="bd" x="51.12" y="0">h</tspan><tspan x="64.57" y="0">ed</tspan><tspan class="be" x="0" y="23">M</tspan><tspan class="bf" x="18.88" y="23">a</tspan><tspan class="bg" x="31.63" y="23">n</tspan><tspan class="bh" x="45.13" y="23">u</tspan><tspan class="t" x="58.66" y="23">s</tspan><tspan class="bi" x="69.8" y="23">c</tspan><tspan class="bj" x="81.84" y="23">r</tspan><tspan class="bb" x="91.57" y="23">i</tspan><tspan class="p" x="98.14" y="23">p</tspan><tspan x="111.94" y="23">t</tspan></text><line class="i" x1="405.36" y1="627.22" x2="524.47" y2="627.22"/><line class="i" x1="405.36" y1="641.25" x2="524.47" y2="641.25"/><line class="i" x1="405.36" y1="655.27" x2="524.47" y2="655.27"/><line class="i" x1="405.36" y1="669.3" x2="524.47" y2="669.3"/><line class="i" x1="405.36" y1="683.33" x2="524.47" y2="683.33"/><line class="i" x1="405.36" y1="697.36" x2="524.47" y2="697.36"/><line class="i" x1="405.36" y1="711.38" x2="524.47" y2="711.38"/><line class="i" x1="405.36" y1="725.41" x2="500.99" y2="725.41"/><polyline class="e" points="638.76 391.06 648.76 365.07 759.64 365.07 769.64 391.06"/><line class="i" x1="590.77" y1="392.06" x2="817.63" y2="392.06"/><polygon class="bk" points="646.43 371.13 763.43 375.82 759.64 365.07 648.76 365.07 646.43 371.13"/><path class="i" d="M624.92,429,731.48,439.3a10,10,0,0,1,7.5,4.62l7.3,11.58"/><path class="i" d="M750.85,429,644.28,439.3a10,10,0,0,0-7.5,4.62l-7.29,11.58"/><g class="bl"><path class="f" d="M677.88,429a26.48,26.48,0,1,1-53,0C624.92,414.39,677.88,414.39,677.88,429Z"/><path class="f" d="M750.85,429a26.49,26.49,0,0,1-53,0C697.88,414.39,750.85,414.39,750.85,429Z"/></g><path class="i" d="M677.88,429a26.48,26.48,0,1,1-53,0C624.92,414.39,677.88,414.39,677.88,429Z"/><path class="i" d="M677.9,431.06a10.76,10.76,0,0,1,20-.08"/><path class="i" d="M750.85,429a26.49,26.49,0,0,1-53,0C697.88,414.39,750.85,414.39,750.85,429Z"/></svg>